<?xml version="1.0" encoding="UTF-8" standalone="no"?>
<!-- Created with Inkscape (http://www.inkscape.org/) -->

<svg
   width="43.834404mm"
   height="22.14113mm"
   viewBox="0 0 43.834404 22.14113"
   version="1.1"
   id="svg1"
   xmlns="http://www.w3.org/2000/svg"
   xmlns:svg="http://www.w3.org/2000/svg">
  <defs
     id="defs1" />
  <g
     id="layer1"
     transform="translate(-65.087503,-66.145834)">
    <g
       id="g193"
       transform="matrix(0.26458333,0,0,0.26458333,57.584814,17.628642)">
		<g
   style="opacity:0.35"
   id="g189">
			<path
   style="fill:#bf7364"
   d="m 156.031,233.071 c 1.22,-26.007 -19.577,-28.646 -30.151,-26.302 v -0.009 c 0,0 -4.353,-17.843 -24.101,-18.434 -21.529,-0.647 -25.112,19.634 -25.112,19.634 -18.204,-10.832 -45.574,0.352 -43.192,24.748 2.382,24.388 25.35,27.484 34.505,24.988 0,0 4.287,7.373 18.804,8.326 14.519,0.951 20.939,-8.326 20.939,-8.326 0,0 10.946,10.355 26.065,4.164 11.879,-4.861 14.755,-13.442 14.755,-13.442 29.39,9.878 44.498,-10.117 44.498,-10.117 -19.872,5.001 -37.01,-5.23 -37.01,-5.23 z"
   id="path188" />

			<path
   style="fill:#bf7364"
   d="m 192.787,237.382 c -11.635,2.81 -25.282,1.17 -35.793,-4.865 0.253,-9.402 -2.44,-18.882 -10.954,-23.946 -5.698,-3.389 -12.944,-4.095 -19.416,-2.914 -0.223,-0.687 -0.576,-1.379 -0.815,-1.947 -1.055,-2.51 -2.463,-4.814 -4.159,-6.942 -5.45,-6.836 -13.971,-9.727 -22.523,-9.366 -10.961,0.463 -20.608,8.434 -23.109,19.12 -14.405,-7.538 -35.181,-2.927 -41.673,13.05 -3.514,8.646 -2.219,19.23 2.691,27.092 4.049,6.483 10.977,10.506 18.342,12.03 3.95,0.818 8.216,0.982 12.178,0.072 4.1,6.047 13.401,7.898 20.012,8.252 7.128,0.381 15.605,-2.168 20.288,-7.945 5.856,4.941 14.263,6.602 21.635,5.127 7.568,-1.514 16.483,-7.082 19.605,-14.613 10.861,3.395 22.398,3.523 32.795,-1.498 4.45,-2.15 8.946,-5.329 11.972,-9.305 0.542,-0.716 -0.347,-1.578 -1.076,-1.402 z m -11.06,8.657 c -10.255,5.408 -22.148,5.003 -32.931,1.46 -0.516,-0.169 -1.01,0.193 -1.172,0.666 -2.497,7.264 -10.976,12.209 -17.903,14.025 -7.115,1.867 -15.872,-0.068 -21.325,-5.168 -0.475,-0.445 -1.139,-0.318 -1.496,0.191 -3.946,5.621 -11.968,7.951 -18.565,7.92 -5.834,-0.027 -14.729,-1.676 -18.772,-6.814 3.763,-0.992 7.258,-3.447 9.807,-6.287 3.1,-3.451 3.778,-8.666 3.022,-13.089 -1.672,-9.79 -12.744,-16.606 -21.677,-11.339 -6.283,3.706 -8.105,13.71 -1.488,18.028 3.104,2.027 7.579,1.747 10.13,-0.975 2.576,-2.746 2.023,-6.995 0.162,-9.928 -0.656,-1.034 -2.306,-0.079 -1.645,0.962 1.684,2.654 2.033,6.339 -0.742,8.433 -2.68,2.021 -6.906,0.642 -8.777,-1.816 -4.357,-5.724 0.967,-12.993 6.796,-14.508 8.349,-2.17 15.423,6.61 15.648,14.19 0.219,7.404 -5.914,13.583 -13.033,14.785 -0.013,0.002 -0.026,0 -0.039,0.004 -6.221,1.637 -13.337,0.422 -19.059,-2.316 -8.813,-4.221 -13.464,-12.888 -14.295,-22.381 -0.846,-9.662 3.808,-18.494 12.112,-23.402 7.81,-4.616 17.69,-5.036 26.045,-1.729 1.269,0.501 2.48,1.148 3.657,1.833 0.495,0.288 1.289,0.046 1.399,-0.569 1.859,-10.304 10.583,-17.987 20.908,-18.867 8.193,-0.698 16.185,2.151 21.543,8.444 1.626,1.91 2.912,4.122 3.927,6.409 0.285,0.642 0.528,1.305 0.749,1.971 -9.325,3.267 -16.441,11.035 -15.267,21.499 0.535,4.767 2.855,9.403 6.892,12.105 3.201,2.143 7.279,2.86 11.066,2.725 7.335,-0.262 14.849,-4.694 15.258,-12.625 0.223,-4.306 -2.043,-8.917 -6.288,-10.417 -4.545,-1.606 -9.384,0.958 -10.564,5.668 -0.498,1.985 0.282,5.366 2.606,5.767 1.201,0.207 1.715,-1.629 0.506,-1.837 -1.109,-0.191 -1.227,-1.729 -1.309,-2.58 -0.147,-1.513 0.764,-2.882 1.751,-3.923 1.803,-1.899 4.535,-2.122 6.825,-1.111 3.992,1.761 5.18,6.606 4.276,10.53 -1.448,6.294 -8.836,8.706 -14.534,8.64 -3.039,-0.035 -6.053,-0.877 -8.633,-2.482 -3.941,-2.451 -5.731,-7.358 -6.073,-11.78 -0.728,-9.382 6.629,-16.063 14.908,-18.662 6.174,-1.328 12.991,-0.711 18.582,2.321 8.407,4.56 10.712,14.154 10.363,23.063 -0.003,0.066 0.02,0.113 0.028,0.172 0.003,0.024 0.006,0.047 0.012,0.071 0.024,0.114 0.064,0.213 0.124,0.298 0.003,0.003 0.004,0.007 0.007,0.01 0.069,0.096 0.152,0.171 0.253,0.229 0.019,0.013 0.027,0.031 0.048,0.044 10.147,6.011 23.19,7.979 34.806,5.927 -0.203,0.199 -0.404,0.4 -0.611,0.594 -2.391,2.242 -5.122,4.093 -8.018,5.621 z"
   id="path189" />

		</g>

		<g
   id="g192">
			<g
   id="g191">
				<path
   style="fill:#ee4231"
   d="m 152.031,229.071 c 1.22,-26.007 -19.577,-28.646 -30.151,-26.302 v -0.009 c 0,0 -4.353,-17.843 -24.101,-18.434 -21.529,-0.647 -25.112,19.634 -25.112,19.634 -18.204,-10.832 -45.574,0.352 -43.192,24.748 2.382,24.388 25.35,27.484 34.505,24.988 0,0 4.287,7.373 18.804,8.326 14.519,0.951 20.939,-8.326 20.939,-8.326 0,0 10.946,10.355 26.065,4.164 11.879,-4.861 14.755,-13.442 14.755,-13.442 29.39,9.878 44.498,-10.117 44.498,-10.117 -19.872,5.001 -37.01,-5.23 -37.01,-5.23 z"
   id="path190" />

				<path
   style="fill:#af1f1f"
   d="m 188.787,233.382 c -11.635,2.81 -25.282,1.17 -35.793,-4.865 0.253,-9.402 -2.44,-18.882 -10.954,-23.946 -5.698,-3.389 -12.944,-4.095 -19.416,-2.914 -0.223,-0.687 -0.576,-1.379 -0.815,-1.947 -1.055,-2.51 -2.463,-4.814 -4.159,-6.942 -5.45,-6.836 -13.971,-9.727 -22.523,-9.366 -10.961,0.463 -20.608,8.434 -23.109,19.12 -14.405,-7.538 -35.181,-2.927 -41.673,13.05 -3.514,8.646 -2.219,19.23 2.691,27.092 4.049,6.483 10.977,10.506 18.342,12.03 3.95,0.818 8.216,0.982 12.178,0.072 4.1,6.047 13.401,7.898 20.012,8.252 7.128,0.381 15.605,-2.168 20.288,-7.945 5.856,4.941 14.263,6.602 21.635,5.127 7.568,-1.514 16.483,-7.082 19.605,-14.613 10.861,3.395 22.398,3.523 32.795,-1.498 4.45,-2.15 8.946,-5.329 11.972,-9.305 0.542,-0.716 -0.347,-1.578 -1.076,-1.402 z m -11.06,8.657 c -10.255,5.408 -22.148,5.003 -32.931,1.46 -0.516,-0.169 -1.01,0.193 -1.172,0.666 -2.497,7.264 -10.976,12.209 -17.903,14.025 -7.115,1.867 -15.872,-0.068 -21.325,-5.168 -0.475,-0.445 -1.139,-0.318 -1.496,0.191 -3.946,5.621 -11.968,7.951 -18.565,7.92 -5.834,-0.027 -14.729,-1.676 -18.772,-6.814 3.763,-0.992 7.258,-3.447 9.807,-6.287 3.1,-3.451 3.778,-8.666 3.022,-13.089 -1.672,-9.79 -12.744,-16.606 -21.677,-11.339 -6.283,3.706 -8.105,13.71 -1.488,18.028 3.104,2.027 7.579,1.747 10.13,-0.975 2.576,-2.746 2.023,-6.995 0.162,-9.928 -0.656,-1.034 -2.306,-0.079 -1.645,0.962 1.684,2.654 2.033,6.339 -0.742,8.433 -2.68,2.021 -6.906,0.642 -8.777,-1.816 -4.357,-5.724 0.967,-12.993 6.796,-14.508 8.349,-2.17 15.423,6.61 15.648,14.19 0.219,7.404 -5.914,13.583 -13.033,14.785 -0.013,0.002 -0.026,0 -0.039,0.004 -6.221,1.637 -13.337,0.422 -19.059,-2.316 -8.813,-4.221 -13.464,-12.888 -14.295,-22.381 -0.846,-9.662 3.808,-18.494 12.112,-23.402 7.81,-4.616 17.69,-5.036 26.045,-1.729 1.269,0.501 2.48,1.148 3.657,1.833 0.495,0.288 1.289,0.046 1.399,-0.569 1.859,-10.304 10.583,-17.987 20.908,-18.867 8.193,-0.698 16.185,2.151 21.543,8.444 1.626,1.91 2.912,4.122 3.927,6.409 0.285,0.642 0.528,1.305 0.749,1.971 -9.325,3.267 -16.441,11.035 -15.267,21.499 0.535,4.767 2.855,9.403 6.892,12.105 3.201,2.143 7.279,2.86 11.066,2.725 7.335,-0.262 14.849,-4.694 15.258,-12.625 0.223,-4.306 -2.043,-8.917 -6.288,-10.417 -4.545,-1.606 -9.384,0.958 -10.564,5.668 -0.498,1.985 0.282,5.366 2.606,5.767 1.201,0.207 1.715,-1.629 0.506,-1.837 -1.109,-0.191 -1.227,-1.729 -1.309,-2.58 -0.147,-1.513 0.764,-2.882 1.751,-3.923 1.803,-1.899 4.535,-2.122 6.825,-1.111 3.992,1.761 5.18,6.606 4.276,10.53 -1.448,6.294 -8.836,8.706 -14.534,8.64 -3.039,-0.035 -6.053,-0.877 -8.633,-2.482 -3.941,-2.451 -5.731,-7.358 -6.073,-11.78 -0.728,-9.382 6.629,-16.063 14.908,-18.662 6.174,-1.328 12.991,-0.711 18.582,2.321 8.407,4.56 10.712,14.154 10.363,23.063 -0.003,0.066 0.02,0.113 0.028,0.172 0.003,0.024 0.006,0.047 0.012,0.071 0.024,0.114 0.064,0.213 0.124,0.298 0.003,0.003 0.004,0.007 0.007,0.01 0.069,0.096 0.152,0.171 0.253,0.229 0.019,0.013 0.027,0.031 0.048,0.044 10.147,6.011 23.19,7.979 34.806,5.927 -0.203,0.199 -0.404,0.4 -0.611,0.594 -2.391,2.242 -5.122,4.093 -8.018,5.621 z"
   id="path191" />

			</g>

		</g>

	</g>
  </g>
</svg>
