<svg xmlns="http://www.w3.org/2000/svg" xmlns:xlink="http://www.w3.org/1999/xlink" version="1.1" viewBox="20 600 200 250" width="200" height="250">
<g xmlns="http://www.w3.org/2000/svg">
					<path style="fill-rule:evenodd;clip-rule:evenodd;fill:#E51C07;" d="M41.031,782.731c-3.596-6.072-8.512-17.529-12.291-24.85       c-0.81-1.588-1.34-2.816-2.168-4.061c-1.102-1.691-1.592-2.146-2.514-3.998c3.254,1.514,5.795,4.269,8.842,5.684       c-6.148-22.959-9.457-16.725-9.566-46.486c2.248,1.152,1.051,0.358,2.557,2.498c1.503,2.186,4.48,7.022,6.069,7.754       l1.071-7.563c0.129,5.273,11.689,14.322,15.316,16.799c-0.363-2.635-1.24-4.523-1.889-6.701l20.936,18.145       c-1.26-2.725-3.809-6.084-5.722-9.318c-4.775-7.935-10.017-27.203-9.509-33.895c1.668,3.051,3.576,4.871,6.514,6.664       c0.93-11.078-0.596-5.342,2.176-19.443c0.732-3.857,2.5-11.59,4.617-14.94l0.467-0.699c0.418-0.576,0.6-0.738,0.826-0.984       c2.451,3.566,2.364,4.375,5.504,7.123c2.486,2.238,4.463,3.635,8.021,5.035l-1.913-7.728l7.54,5.141       c2.936,1.879,4.877,4.598,6.887,6.941c2.293,2.613,3.863,5.1,5.85,7.822l5.777,7.607c-2.277-13.445,2.594-33.637,11.107-41.029       c2.304,2.4,0.732,8.219,3.545,10.69c2.199-7.797,2.883-9.299,7.332-14.486c2.936-3.43,7.371-9.941,10.613-11.211l1.482,9.328       c6.45-8.754,15.84-14.256,21.699-21.719c0.881-1.148,1.859-2.547,2.734-3.652c5.625,17.834,7.947,20.658,7.424,41.227       c1.684-2.516,3.549-3.695,5.425-7.314c0.817-1.623,0.524-1.686,1.752-2.939c2.15,12.625,8.224,21.791,2.447,35.338       c5.087-1.385,6.332-4.438,8.535-6.283c-0.569,9.988-3.566,19.793-8.858,26.299c-4.285,5.326-13.873,12.832-20.656,13.09       c1.215,1.994,13.798,2.92,18.494,3.83c7.457,1.408,12.317,1.813,20.094,2.086c-1.154,2.244-0.85,1.404-4.232,3.654       c-1.602,1.066-2.809,1.935-4.102,3.619c13.996,3.836,2.211,3.295,23.721,4.518l-6.406,4.258       c-6.447,3.445-15.266,7.186-20.313,11.609l10.088,1.771c-6.119,6.76-30.984,13.314-43.418,13.592       c-6.818,0.17-13.296-1.869-18.438-1.816c8.762,1.781,20.059,7.945,27.66,12.83c2.684,1.736,6.066,3.299,8.663,5.029       c-3.462,4.43-11.915,5.535-13.737,6.674c4.801,3.695,11.535,5.748,18.938,5.826c-10.116,7.004-31.55,6.688-44.014,5.979       c0.738,1.33,2.01,2.299,3.479,3.584l5.244,2.65c-5.625,1.051-5.721,2.715-15.737,3.475       C71.42,818.408,68.885,829.869,41.031,782.731L41.031,782.731z"/>
					<path style="fill-rule:evenodd;clip-rule:evenodd;fill:#82020B;" d="M66.803,818.275c-1.076,3.106-17.918,21.461-20.219,22.746       l-5.242-8.688c3.166-2.264,16.643-15.627,19.412-19.158c0.133-0.074,0.283-0.449,0.361-0.318l7.943-10.168       c2.313-3.037,6.623-8.102,8.087-11.233l-13.835-18.81c-2.403-3.646-9.979-16.494-10.631-21.629       c2.176,2.393,4.057,6.998,5.801,10.182c3.023,5.566,16.763,24.545,20.467,27.92c2.705-2.414,28.377-36.754,28.411-39.576       c0.024-1.242-4.08-8.111-5.38-10.881c-1.875-3.918-3.521-7.354-5.337-11.566c-3.558-8.252-5.808-16.856-6.979-25.66       c3.102,11.01,12.644,37.5,19.701,45.182c5.131-4.377,15.514-25.84,19.846-33.559c3.428-6.057,0.453-8.752-1.432-20.805       c-0.885-5.486-2.115-17.76,0.015-22.822c-0.954,16.773,2.615,23.272,4.823,36.455c5.659-6.914,13.341-26.818,17.129-35.508       c-1.004,5.637-6.305,21.309-8.656,27.299c-1.201,3.057-2.773,5.834-3.632,8.914c13.602-2.057,30.474-12.615,33.966-13.746       c-4.947,5.672-22.683,12.629-31.314,15.307c-6.059,1.887-2.631-1.176-8.826,11.406l-14.643,27.898       c6.957,0.395,18.494-0.707,24.969-1.623c9.238-1.315,15.926-3.676,22.057-4.613c-3.586,2.838-17.109,5.707-22.34,6.611       l-26.129,2.41c-1.682,0.934-2.303,2.826-3.203,4.357l-21.074,31.82c-4.531,5.947-2.221,4.412,5.217,5.389       c13.056,1.641,29.082,2.893,41.517,0.346c-16.939,5.719-33.059,2.275-51.738,0.959L66.803,818.275z"/>
				</g>
</svg>
