<svg xmlns="http://www.w3.org/2000/svg" xmlns:xlink="http://www.w3.org/1999/xlink" version="1.1" x="0px" y="0px" viewBox="0 0 280 240" width="280" height="240" xml:space="preserve">

<g>
	<g>
		<g>
			
			
			<g>
				
					
				
				
				
				
				
				
				
				
				
				
				
				
				
				
				
				
				
				
				
				
				
				
				
				<g>
					<g>
						<g>
							<path style="fill:#A4E239;" d="M89.745,21.485c0,0,24.177-3.942,39.024-11.228c25.847-12.684,49.435-2.225,59.201,2.065         c9.765,4.29,24.013-0.137,24.013-0.137s-11.09,14.523-13.439,17.431c-7.581,9.386-30.099,17.818-59.53,19.468         c-29.431,1.65-52.169-24.234-52.169-24.234S80.719,20.074,89.745,21.485z"/>
							<path style="fill:#91C636;" d="M119.729,38.296c0.235,0.459,0.47,0.917,0.705,1.376         C120.213,39.194,119.976,38.738,119.729,38.296z"/>
							<path style="fill:#91C636;" d="M138.796,35.758c0.693,1.257,1.525,2.443,2.726,3.44         C140.676,37.902,139.764,36.764,138.796,35.758z"/>
							<path style="fill:#B9EF50;" d="M119.729,38.296c-1.719-3.357-3.438-6.715-5.157-10.073         c9.035,0.152,17.867,0.928,24.223,7.535c-1.378-2.499-2.201-5.283-4.226-7.451c9.307-0.636,15.928,4.231,22.016,10.747         c-1.954-3.816-5.543-6.795-7.497-10.612c7.938-0.623,15.597-1.792,23.242-4.33c-3.284,0.305-7.1,2.259-10.398,1.195         c2.726-1.396,4.628-3.057,5.426-5.53c-7.607,6.647-16.09,7.549-26.234,6.55c2.726-1.396,5.997-3.07,7.061-6.367         c-7.62,5.277-16.369,7.004-25.702,4.901c2.46-0.571,3.537-2.499,5.439-4.161c-13.568,4.175-28.775,4.532-42.645,0.807         c-1.626,0.852,1.567,3.341,1.567,3.341s0.32,0.364,0.927,0.997C99.481,27.168,113.586,27.277,119.729,38.296z"/>
							<path style="fill:#71AA37;" d="M198.543,29.615c2.349-2.908,13.439-17.431,13.439-17.431s-0.213,0.066-0.597,0.172         c-0.398,0.195-0.799,0.388-1.202,0.579c-0.05,0.046-0.108,0.086-0.155,0.135c-23.213,36.196-83.921,47.092-117.101,14.537         c-2.173-2.233-4.798-3.656-7.675-4.374c0.596,0.836,1.593,1.615,1.593,1.615s22.737,25.884,52.169,24.234         C168.444,47.433,190.963,39.001,198.543,29.615z"/>
							<path style="fill:#71AA37;" d="M187.97,12.322c-9.765-4.29-33.354-14.748-59.201-2.065c-2.386,1.171-5.014,2.254-7.743,3.25         c22.202-6.4,44.404-11.256,67.927,1.408c6.685,3.736,14.338,1.285,21.23-1.979c0.142-0.132,0.288-0.261,0.448-0.379         C206.86,13.525,195.93,15.818,187.97,12.322z"/>
							<path style="fill:#71AA37;" d="M101.625,24.153c0,0,52.562,7.528,91.495-3.115c0,0-36.999,11.373-91.423,6.095         L101.625,24.153z"/>
							<path style="fill:#71AA37;" d="M107.762,27.659c0,0,10.754,2.444,13.522,15.018c0,0-0.322-9.698-10.444-15.525         L107.762,27.659z"/>
							<path style="fill:#71AA37;" d="M128.485,28.02c0,0,10.754,2.444,13.522,15.018c0,0-0.322-9.698-10.444-15.525L128.485,28.02z         "/>
							<path style="fill:#71AA37;" d="M142.831,27.913c0,0,10.754,2.444,13.522,15.018c0,0-0.322-9.698-10.444-15.525         L142.831,27.913z"/>
							<path style="fill:#71AA37;" d="M114.423,26.376c0,0,14.656-2.944,13.953-9.271c0,0,1.806,6.151-10.737,9.684L114.423,26.376z         "/>
							<path style="fill:#71AA37;" d="M135.322,27.08c0,0,14.097-4.974,12.512-11.14c0,0,2.652,5.836-9.27,11.097L135.322,27.08z"/>
							<path style="fill:#71AA37;" d="M153.994,26.933c0,0,14.097-4.974,12.512-11.14c0,0,2.652,5.836-9.27,11.097L153.994,26.933z"/>
							<g>
								<path style="fill:#B9EF50;" d="M205.56,17.74c0,0-8.327,5.475-9.648,8.75c-1.322,3.275-20.498,16.274-33.712,13.448          c0,0,22.046-3.083,29.71-11.635C199.572,19.753,205.56,17.74,205.56,17.74z"/>
								<path style="fill:#B9EF50;" d="M131.776,12.993c0,0,23.571-8.168,38.375-2.1C170.151,10.893,153.267,9.084,131.776,12.993z"/>
							</g>
						</g>
						<path style="fill:#659B26;" d="M85.019,22.854c6.717-1.019,13.381-2.559,20.017-4.327c-8.23,1.892-14.249,2.876-14.249,2.876        C85.274,20.541,84.477,21.604,85.019,22.854z"/>
						<g>
							<g>
								<path style="fill:#88BA2A;" d="M5.199-2.563L1.255-5.06l-6.504-4.113c0,0,10.646-6.749,25.797-8.703          c15.148-1.959,52.415-35.947,52.415-35.947s-0.002,0.007-0.002,0.02c0.055,0.556,1.383,15.953-3.555,24.581          C64.381-20.438,45.394,9.82,5.199-2.563z"/>
								<path style="fill:#659B26;" d="M69.407-29.223c4.923-8.602,3.618-23.927,3.556-24.572          C73.664-21.784,52.824-7.492,27.77,0.186C52.746-1.941,65.436-22.282,69.407-29.223z"/>
							</g>
						</g>
						<path style="fill:#659B26;" d="M-38.424-23.109c0,0-3.031,3.753,0.286,7.007c3.317,3.254,117.265,52.774,177.43,44.534        C139.291,28.432,99.691,33.848-38.424-23.109z"/>
						<g>
							<g>
								<g>
									<path style="fill:#7EB71A;" d="M79.163,76.686c0,0-0.01-0.003-0.02-0.006c-0.374-0.295-9.557-7.431-19.594-19.667           c-5.316-6.482-25.393-43.376-8.146-42.466c0,0,12.764,7.085,19.674,26.659S79.163,76.686,79.163,76.686z"/>
									<path style="fill:#91C636;" d="M79.164,76.686c0,0-8.972-13.88-10.294-24.307c-1.323-10.428-17.467-37.832-17.467-37.832           s7.346,20.727,13.288,29.791C66.98,49.494,68.531,65.759,79.164,76.686z"/>
								</g>
								<path style="fill:#91C636;" d="M79.163,76.686c0,0-0.01-0.003-0.02-0.006c-0.374-0.295-9.557-7.431-19.594-19.667          c-5.316-6.482-25.393-43.376-8.146-42.466c0,0-10.225,2.552,1.132,25.009c8.627,17.06,17.935,23.778,17.935,23.778          L79.163,76.686z"/>
							</g>
							<g>
								<path style="fill:#71AA37;" d="M87.601,54.892l-0.01-0.003c-0.01-0.003-0.03-0.01-0.056-0.013          c-0.023-0.013-0.049-0.016-0.079-0.026c-0.023-0.013-0.049-0.016-0.079-0.025l-0.178-0.058          C83.287,53.56,52.17,43.035,51.4,14.556c0.003-0.01,0.003-0.01,0.003-0.01S73.889,20.096,87.601,54.892z"/>
								<path style="fill:#A4E239;" d="M87.199,54.768C83.287,53.56,52.17,43.035,51.4,14.556c0.003-0.01,0.003-0.01,0.003-0.01          C60.811,44.951,83.909,53.662,87.199,54.768z"/>
							</g>
						</g>
						<g>
							<path style="fill:#91C636;" d="M24.404,87.247c0,0,0.003-0.043,0.015-0.132c0.135-2.009,1.694-27.809-9.049-51.372         C4.181,11.211,17.656,4.172,17.656,4.172s0.003,0.007,0.013,0.01c4.055,1.374,19.764,17.178,26.764,36.22         C51.139,58.66,26.672,84.872,24.55,87.097C24.453,87.197,24.404,87.247,24.404,87.247z"/>
							<g>
								<path style="fill:#7EB71A;" d="M24.419,87.115c0,0,28.863-40.514,5.268-61.451C29.687,25.664,26.903,81.589,24.419,87.115z"/>
								<path style="fill:#659B26;" d="M24.419,87.115c0,0,29.219-40.49,5.268-61.451C29.687,25.664,51.907,41.618,24.419,87.115z"/>
							</g>
							<path style="fill:#659B26;" d="M24.419,87.115c0.135-2.009,1.694-27.809-9.049-51.372         C4.181,11.211,17.656,4.172,17.656,4.172s10.739,12.54,12.891,25.179C33.433,46.308,24.795,84.463,24.419,87.115z"/>
							<path style="fill:#659B26;" d="M24.55,87.097c-0.085,0.011-0.131,0.018-0.131,0.018         c13.326-17.132,24.826-35.348,18.723-49.962C37.123,22.752,18.15,4.654,17.669,4.182c4.055,1.374,19.764,17.178,26.764,36.22         C51.139,58.66,26.672,84.872,24.55,87.097z"/>
						</g>
					</g>
					<g>
						<g>
							<g>
								<path style="fill:#92C737;" d="M10.065,16.699l-2.3-5.35L3.979,2.527c0,0-10.411,11.787-15.802,30.067          C-17.22,50.87-66.431,90.087-66.431,90.087s0.01-0.001,0.025,0.001c0.674,0.177,19.38,4.846,30.983,0.462          C-23.611,86.088,17.404,68.656,10.065,16.699z"/>
								<path style="fill:#659B26;" d="M-35.423,90.55c-11.566,4.371-30.189-0.255-30.971-0.459          C-27.098,97.259-5.387,74.4,9.007,45.047C1.467,75.397-26.09,87.025-35.423,90.55z"/>
								<path style="fill:#659B26;" d="M-17.359,61.223C1.85,38.308,7.765,11.349,7.765,11.349L3.979,2.527          c0,0-10.411,11.787-15.802,30.067C-17.22,50.87-66.431,90.087-66.431,90.087s0.01-0.001,0.025,0.001          C-65.304,90.065-38.275,86.175-17.359,61.223z"/>
							</g>
						</g>
						<path style="fill:#659B26;" d="M-22.669-22.22c0,0,60.575,44.864,45.414,157.959c0,0,33.405-84.719-43.374-166.053        C-26.289-35.184-28.157-27.104-22.669-22.22z"/>
						<g>
							<path style="fill:#85C324;" d="M8.711-11.597c0,0,22.174,8.115,34.909,17.703c22.17,16.692,46.397,11.067,56.419,8.776         s22.708,4.483,22.708,4.483s-7.867-15.759-9.563-18.938c-5.475-10.259-25.265-22.324-52.828-29.221         S6.575-15.307,6.575-15.307S-0.09-11.898,8.711-11.597z"/>
							<path style="fill:#91C637;" d="M40.144-22.077c-2.236,2.867-4.472,5.734-6.708,8.601c8.581,1.494,17.083,2.36,24.298-2.742         c-1.758,2.116-3.041,4.603-5.351,6.288c8.696,2.29,15.846-1.118,22.791-6.184c-2.541,3.259-6.479,5.428-9.021,8.687         c7.402,2.029,14.44,4.524,21.219,8.312c-3.054-0.884-6.313-3.426-9.627-3.016c2.328,1.815,3.827,3.733,4.134,6.219         C75.882-3.582,68.015-5.975,58.23-6.868c2.328,1.815,5.121,3.994,5.531,7.308c-6.257-6.377-14.227-9.598-23.444-9.299         c2.225,0.987,2.896,3.007,4.395,4.925c-12.088-6.412-26.42-9.506-40.226-8.494c-1.385-1.101,2.089-2.879,2.089-2.879         s0.369-0.286,1.058-0.776C18.958-15.213,32.331-12.759,40.144-22.077z"/>
							<path style="fill:#659B26;" d="M113.183,0.427c1.696,3.179,9.563,18.938,9.563,18.938s-0.189-0.101-0.534-0.271         c-0.341-0.257-0.686-0.512-1.033-0.766c-0.039-0.053-0.087-0.101-0.123-0.156C105.642-20.303,50.146-41.622,12.832-16.817         c-2.462,1.72-5.205,2.592-8.058,2.75c0.716-0.683,1.801-1.24,1.801-1.24S32.792-35.69,60.355-28.793         S107.708-9.832,113.183,0.427z"/>
							<path style="fill:#659B26;" d="M100.039,14.882c-10.022,2.291-34.249,7.916-56.419-8.776         c-2.046-1.541-4.338-3.043-6.741-4.48c19.859,10.083,39.996,18.705,64.561,10.98c7.006-2.325,13.807,1.382,19.74,5.722         c0.111,0.151,0.225,0.299,0.356,0.44C118.14,17.168,108.208,13.015,100.039,14.882z"/>
							<path style="fill:#659B26;" d="M20.441-11.97c0,0,51.125,2.401,86.053,19.534c0,0-32.966-17.474-85.445-22.342L20.441-11.97z         "/>
							<path style="fill:#659B26;" d="M52.872-8.633c0,0,12.444,7.264,9.826,12.814c0,0,3.569-5.044-6.764-12.186L52.872-8.633z"/>
							<path style="fill:#659B26;" d="M70.523-5.108c0,0,12.444,7.264,9.826,12.814c0,0,3.569-5.044-6.764-12.185L70.523-5.108z"/>
							<g>
								<path style="fill:#91C637;" d="M117.673,12.942c0,0-6.891-6.693-7.548-10.033c-0.657-3.34-16.455-19.122-29.477-18.842          c0,0,20.312,6.915,26.017,16.4C112.37,9.95,117.673,12.942,117.673,12.942z"/>
								<path style="fill:#91C637;" d="M46.962,4.06c0,0,20.834,12.005,35.949,8.944C82.911,13.004,66.599,11.657,46.962,4.06z"/>
							</g>
						</g>
						<g>
							<g>
								<path style="fill:#98CE30;" d="M14.582,187.171c0,0,0.011-0.007,0.021-0.015c0.342-0.487,8.77-12.296,16.397-30.509          c4.039-9.647,14.861-60.921-5.431-53.672c0,0-12.728,13.028-13.995,38.895C10.307,167.737,14.582,187.171,14.582,187.171z"/>
								<path style="fill:#71AA37;" d="M14.58,187.171c0,0,5.767-19.796,3.623-32.733c-2.144-12.937,7.367-51.462,7.367-51.462          s-1.378,27.4-5.243,40.358C19.432,150.314,23.388,170.311,14.58,187.171z"/>
							</g>
							<path style="fill:#71AA37;" d="M14.582,187.171c0,0,0.011-0.007,0.021-0.015c0.342-0.487,8.77-12.296,16.397-30.509         c4.039-9.647,14.861-60.921-5.431-53.672c0,0,13.134-0.602,7.58,30.299c-4.219,23.474-12.945,34.829-12.945,34.829         L14.582,187.171z"/>
						</g>
						<g>
							<path style="fill:#71AA37;" d="M-3.289,164.133l0.011-0.007c0.011-0.007,0.032-0.022,0.062-0.035         c0.023-0.024,0.053-0.037,0.085-0.059c0.023-0.024,0.053-0.037,0.086-0.059l0.192-0.132         c4.245-2.842,37.681-26.537,28.43-60.854c-0.007-0.011-0.007-0.011-0.007-0.011S0.673,117.641-3.289,164.133z"/>
							<path style="fill:#A4E239;" d="M-2.853,163.841c4.245-2.842,37.681-26.537,28.43-60.854         c-0.007-0.011-0.007-0.011-0.007-0.011C25.184,142.681,0.685,161.344-2.853,163.841z"/>
						</g>
						<g>
							<path style="fill:#A4E239;" d="M115.962,69.974c0,0-0.046-0.003-0.142-0.003c-2.152-0.14-29.764-2.125-53.266-16.855         c-24.467-15.34-33.841-2.027-33.841-2.027s0.007,0.005,0.008,0.015c0.887,4.499,15.45,23.407,34.679,33.525         c18.44,9.696,49.721-12.584,52.382-14.522C115.902,70.019,115.962,69.974,115.962,69.974z"/>
							<g>
								<path style="fill:#98CE30;" d="M115.82,69.972c0,0-47.085,24.929-65.986-3.076C49.834,66.896,109.603,71.83,115.82,69.972z"/>
								<path style="fill:#71AA37;" d="M115.82,69.972c0,0-47.11,25.311-65.986-3.076C49.834,66.896,63.638,92.738,115.82,69.972z"/>
							</g>
							<path style="fill:#71AA37;" d="M21.254,49.22c0,0,3.832-3.074,13.344,7.558c0,0-1.607-7.375-6.543-8.926         C23.12,46.3,16.25,43.225,21.254,49.22z"/>
							<path style="fill:#71AA37;" d="M115.82,69.972c-2.152-0.14-29.764-2.125-53.266-16.855         c-24.467-15.34-33.841-2.027-33.841-2.027s11.798,13.171,24.915,17.238C71.224,73.785,112.951,69.997,115.82,69.972z"/>
							<path style="fill:#71AA37;" d="M115.783,70.109c0.023-0.089,0.037-0.137,0.037-0.137         c-20.069,11.731-41.032,21.372-55.686,12.83C45.693,74.38,29.155,51.683,28.721,51.106         c0.887,4.499,15.45,23.407,34.679,33.525C81.84,94.327,113.121,72.047,115.783,70.109z"/>
						</g>
					</g>
				</g>
				
			</g>
		</g>
	</g>
</g>

</svg>
