<svg xmlns="http://www.w3.org/2000/svg" xmlns:xlink="http://www.w3.org/1999/xlink" version="1.1" x="0px" y="0px" viewBox="140 50 360 450" width="320" height="450" xml:space="preserve">

<g>
	<g>
		<g>
			
			
			<g>
				
					
				
				
				
				
				
				
				
				
				
				
				
				
				
				
				
				
				
				
				
				
				
				
				
				
				<g>
					<g>
						<g>
							<g>
								<path style="fill:#92C737;" d="M499.54,363.011l4.785,0.862l7.888,1.427c0,0-3.413-12.68-13.661-24.855          c-10.242-12.177-14.887-64.513-14.887-64.513s-0.004,0.007-0.012,0.017c-0.434,0.388-12.302,11.265-14.593,21.365          C466.727,307.596,459.975,344.19,499.54,363.011z"/>
								<path style="fill:#659B26;" d="M483.665,275.933l0,0.003c-0.003,0.003-0.007,0.007-0.01,0.01          C483.661,275.94,483.665,275.933,483.665,275.933z"/>
								<path style="fill:#659B26;" d="M469.06,297.315c2.284-10.068,14.083-20.907,14.585-21.358          c-23.093,24.066-17.173,49.715-3.361,73.26C462.621,329.985,467.216,305.438,469.06,297.315z"/>
								<path style="fill:#85C226;" d="M483.665,275.933c0,0-25.563,34.089,6.151,63.066          C489.816,338.999,472.337,307.045,483.665,275.933z"/>
								<path style="fill:#659B26;" d="M481.164,323.403c7.111,23.933,23.162,40.47,23.162,40.47l7.888,1.427          c0,0-3.413-12.68-13.661-24.855c-10.242-12.177-14.887-64.513-14.887-64.513s-0.004,0.007-0.012,0.017          C483.161,276.728,473.42,297.344,481.164,323.403z"/>
							</g>
							<path style="fill:#659B26;" d="M491.958,341.555c0,0-33.747-27.017-8.305-65.605         C483.653,275.95,456.15,311.267,491.958,341.555z"/>
						</g>
						<path style="fill:#659B26;" d="M541.722,358.14c0,0-59.147,21.522-130.926-41.129c0,0,43.614,62.287,135.624,46.279        C552.418,361.591,547.651,356.567,541.722,358.14z"/>
						<g>
							<path style="fill:#85C324;" d="M519.87,375.101c0,0-15.865,11.705-28.408,16.157c-21.837,7.751-29.078,27.215-32.099,35.25         c-3.021,8.035-13.581,13.75-13.581,13.75s14.598,1.78,17.594,2.063c9.667,0.913,27.184-7.313,44.683-23.332         c17.499-16.019,15.38-43.667,15.38-43.667S524.133,369.11,519.87,375.101z"/>
							<path style="fill:#91C637;" d="M512.69,401.819c-0.967-2.878-1.934-5.755-2.9-8.633c-4.993,5.288-9.512,10.81-9.282,18.185         c-0.664-2.199-1.805-4.238-1.914-6.623c-5.6,5.001-6.52,11.551-6.191,18.721c-1.099-3.271-0.796-7.013-1.895-10.284         c-4.822,4.22-9.802,7.973-15.563,10.949c2.022-1.72,5.293-2.818,6.535-5.315c-2.336,0.785-4.363,0.946-6.235,0.015         c8.104-0.643,13.394-5.02,18.523-11.423c-2.336,0.785-5.14,1.727-7.637,0.486c7.323-1.42,13.237-5.487,17.275-12.044         c-1.712,1.095-3.428,0.632-5.454,0.792c10.033-5.465,18.79-14.021,24.444-24.102c1.405-0.457,1.043,2.781,1.043,2.781         s0.029,0.389,0.053,1.094C517.668,383.903,509.8,392.086,512.69,401.819z"/>
							<path style="fill:#659B26;" d="M463.375,442.32c-2.995-0.283-17.594-2.063-17.594-2.063s0.158-0.086,0.435-0.247         c0.336-0.119,0.673-0.242,1.01-0.367c0.055-0.003,0.111-0.014,0.165-0.014c33.895,6.987,74.305-21.843,74.217-59.255         c-0.064-2.507,0.592-4.818,1.797-6.879c0.146,0.813,0.034,1.825,0.034,1.825s2.119,27.647-15.38,43.667         C490.559,435.008,473.042,443.233,463.375,442.32z"/>
							<path style="fill:#659B26;" d="M459.362,426.508c3.021-8.035,10.262-27.499,32.099-35.25c2.016-0.716,4.117-1.62,6.225-2.631         c-16.169,9.186-31.45,19.239-37.384,39.905c-1.608,5.95-7.322,8.979-13.077,11.112c-0.156,0.008-0.312,0.019-0.47,0.045         C449.433,438.062,456.9,433.058,459.362,426.508z"/>
							<path style="fill:#659B26;" d="M514.727,383.442c0,0-25.221,34.499-53.241,50.933c0,0,27.354-14.91,54.917-49.216         L514.727,383.442z"/>
							<path style="fill:#659B26;" d="M501.85,401.083c0,0-4.64,7.567,1.044,16.231c0,0-5.403-5.638-3.067-14.743L501.85,401.083z"/>
							<path style="fill:#659B26;" d="M493.722,409.283c0,0-4.64,7.567,1.044,16.231c0,0-5.403-5.638-3.067-14.743L493.722,409.283z         "/>
							<path style="fill:#659B26;" d="M508.811,392.061c0,0-9.936,6.784-13.184,2.822c0,0,2.526,4.498,11.614-0.738L508.811,392.061         z"/>
							<path style="fill:#659B26;" d="M497.464,404.491c0,0-10.791,5.32-13.45,0.941c0,0,1.869,4.809,11.602,0.902L497.464,404.491z         "/>
							<path style="fill:#659B26;" d="M486.88,415.16c0,0-10.791,5.32-13.45,0.941c0,0,1.869,4.809,11.602,0.902L486.88,415.16z"/>
							<g>
								<path style="fill:#91C637;" d="M452.591,439.683c0,0,7.835-1.716,10.464-0.635c2.629,1.081,20.897-2.652,26.7-11.85          c0,0-14.172,10.96-23.405,10.565C457.117,437.367,452.591,439.683,452.591,439.683z"/>
								<path style="fill:#91C637;" d="M491.347,394.528c0,0-17.957,8.98-22.787,20.916          C468.56,415.444,477.011,404.705,491.347,394.528z"/>
							</g>
						</g>
						<g>
							<g>
								<path style="fill:#85C324;" d="M378.737,287.635c0,0,0,0.011,0,0.022c0.182,0.462,4.524,11.772,13.694,25.472          c4.858,7.257,35.582,38.41,39.881,20.94c0,0-3.211-14.865-20.641-27.662C394.24,293.609,378.737,287.635,378.737,287.635z"/>
								<path style="fill:#91C636;" d="M378.738,287.634c0,0,11.13,13.134,21.128,17.601c9.997,4.466,32.447,28.834,32.447,28.834          s-18.447-13.581-25.691-22.24C402.171,307.989,386.423,301.534,378.738,287.634z"/>
							</g>
							<path style="fill:#91C637;" d="M378.737,287.635c0,0,0,0.011,0,0.022c0.182,0.462,4.524,11.772,13.694,25.472         c4.858,7.257,35.582,38.41,39.881,20.94c0,0-5.631,9.424-24.592-8.677c-14.405-13.751-18.293-25.058-18.293-25.058         L378.737,287.635z"/>
						</g>
						<g>
							<path style="fill:#659B26;" d="M403.013,285.801l0,0.011c0,0.011,0.001,0.033-0.004,0.06         c0.006,0.027,0.001,0.054,0.002,0.087c0.006,0.027,0.001,0.054,0.001,0.087l0.004,0.195         c0.024,4.265,1.125,38.465,29.286,47.83c0.011,0,0.011,0,0.011,0S433.566,309.974,403.013,285.801z"/>
							<path style="fill:#92C737;" d="M403.016,286.239c0.024,4.265,1.125,38.465,29.286,47.83c0.011,0,0.011,0,0.011,0         C404.838,315.511,403.125,289.853,403.016,286.239z"/>
						</g>
						<g>
							<path style="fill:#91C637;" d="M413.66,412.221c0,0,0.023-0.03,0.067-0.098c1.089-1.434,15.189-19.75,36.273-29.333         c21.953-9.974,17-22.634,17-22.634s-0.006,0.002-0.015-0.001c-3.542-1.454-23.418-0.022-39.322,8.71         c-15.246,8.376-14.138,40.423-14.014,43.17C413.656,412.159,413.66,412.221,413.66,412.221z"/>
							<g>
								<path style="fill:#85C324;" d="M413.727,412.124c0,0,4.327-44.274,32.536-44.538          C446.263,367.586,415.297,406.938,413.727,412.124z"/>
								<path style="fill:#659B26;" d="M413.727,412.124c0,0,4.072-44.467,32.536-44.538          C446.263,367.586,421.908,365.296,413.727,412.124z"/>
							</g>
							<path style="fill:#659B26;" d="M471.738,355.824c0,0,0.376,4.085-11.41,5.812c0,0,5.876,2.278,9.23-0.445         C472.911,358.468,478.217,355.1,471.738,355.824z"/>
							<path style="fill:#659B26;" d="M413.727,412.124c1.089-1.434,15.189-19.75,36.273-29.333c21.953-9.974,17-22.634,17-22.634         s-14.607,2.15-23.481,9.411C431.613,379.309,415.031,410.115,413.727,412.124z"/>
							<path style="fill:#659B26;" d="M413.649,412.035c0.051,0.057,0.078,0.089,0.078,0.089c1.074-19.38,4.016-38.42,16.714-44.692         c12.517-6.178,35.942-7.241,36.543-7.277c-3.542-1.454-23.418-0.022-39.322,8.71         C412.417,377.241,413.525,409.288,413.649,412.035z"/>
						</g>
					</g>
					<g>
						<g>
							<path style="fill:#A4E239;" d="M401.848,388.094c0,0-13.932,12.127-20.556,22.692         c-11.531,18.393-30.804,21.055-38.766,22.182c-7.963,1.128-15.337,9.622-15.337,9.622s1.342-13.712,1.693-16.509         c1.132-9.026,12.218-23.372,30.428-36.115c18.21-12.743,43.061-5.18,43.061-5.18S408.193,385.414,401.848,388.094z"/>
							<path style="fill:#B9EF50;" d="M375.954,389.224c-0.333-0.201-0.666-0.402-0.998-0.602         C375.287,388.841,375.62,389.038,375.954,389.224z"/>
							<path style="fill:#B9EF50;" d="M364.74,398.421c-0.943-0.53-1.947-0.96-3.113-1.122         C362.683,397.793,363.72,398.16,364.74,398.421z"/>
							<path style="fill:#B9EF50;" d="M375.954,389.224c2.435,1.47,4.87,2.939,7.305,4.409c-5.851,3.49-11.821,6.499-18.518,4.788         c1.876,1.055,3.508,2.513,5.667,3.098c-5.713,4.104-11.889,3.612-18.379,1.853c2.768,1.67,6.251,2.155,9.019,3.825         c-4.841,3.551-9.286,7.341-13.179,12.004c1.984-1.5,3.654-4.267,6.19-4.894c-1.193,1.977-1.752,3.797-1.282,5.699         c2.237-7.281,7.316-11.227,14.215-14.615c-1.193,1.977-2.625,4.349-1.998,6.885c2.789-6.408,7.711-10.989,14.529-13.347         c-1.35,1.343-1.275,3.006-1.834,4.827c7.039-8.063,16.645-14.33,27.014-17.45c0.704-1.192-2.331-1.52-2.331-1.52         s-0.35-0.106-0.99-0.271C393.35,388.317,384.266,393.847,375.954,389.224z"/>
							<path style="fill:#71AA37;" d="M328.882,426.082c-0.351,2.797-1.693,16.509-1.693,16.509s0.11-0.127,0.314-0.348         c0.177-0.283,0.358-0.566,0.541-0.849c0.014-0.049,0.035-0.098,0.046-0.148c0.507-32.418,35.093-63.507,69.288-55.814         c2.279,0.569,4.527,0.439,6.656-0.244c-0.714-0.299-1.662-0.402-1.662-0.402s-24.852-7.563-43.061,5.18         C341.1,402.71,330.014,417.056,328.882,426.082z"/>
							<path style="fill:#71AA37;" d="M342.526,432.968c7.963-1.128,27.235-3.79,38.766-22.182c1.064-1.698,2.319-3.436,3.673-5.158         c-11.69,12.918-23.992,24.846-44.099,26.069c-5.768,0.26-9.701,4.869-12.822,9.698c-0.039,0.141-0.081,0.282-0.137,0.421         C329.94,439.698,336.035,433.888,342.526,432.968z"/>
							<path style="fill:#71AA37;" d="M393.173,391.101c0,0-36.68,16.045-57.41,38.326c0,0,19.2-21.981,56.18-40.207         L393.173,391.101z"/>
							<path style="fill:#71AA37;" d="M387.848,391.29c0,0-7.864,2.704-14.63-4.257c0,0,4.057,6.088,12.859,5.805L387.848,391.29z"/>
							<path style="fill:#71AA37;" d="M374.421,399.287c0,0-7.864,2.704-14.63-4.257c0,0,4.057,6.088,12.859,5.805L374.421,399.287z         "/>
							<path style="fill:#71AA37;" d="M365.268,405.051c0,0-7.864,2.704-14.631-4.257c0,0,4.057,6.088,12.859,5.805L365.268,405.051         z"/>
							<path style="fill:#71AA37;" d="M384.087,394.757c0,0-8.225,7.706-5.263,11.483c0,0-3.6-3.226,3.037-10.47L384.087,394.757z"/>
							<path style="fill:#71AA37;" d="M370.412,402.604c0,0-7.061,8.786-3.597,12.109c0,0-4.017-2.688,1.536-10.793L370.412,402.604         z"/>
							<path style="fill:#71AA37;" d="M358.502,410.113c0,0-7.061,8.786-3.597,12.109c0,0-4.017-2.688,1.536-10.793L358.502,410.113         z"/>
							<g>
								<path style="fill:#B9EF50;" d="M329.1,436.48c0,0,3.163-6.816,2.71-9.44c-0.453-2.624,6.677-18.57,16.269-22.006          c0,0-12.907,10.73-14.424,19.254C332.138,432.812,329.1,436.48,329.1,436.48z"/>
								<path style="fill:#B9EF50;" d="M378.278,410.225c0,0-11.866,14.595-23.764,16.583          C354.514,426.809,366.055,421.265,378.278,410.225z"/>
							</g>
						</g>
						<path style="fill:#659B26;" d="M404.333,385.34c-3.901,3.32-7.561,6.953-11.112,10.722c4.524-4.481,7.991-7.501,7.991-7.501        C405.088,386.923,405.177,385.926,404.333,385.34z"/>
						<g>
							<g>
								<path style="fill:#92C737;" d="M465.589,369.938l3.519,0.035l5.802,0.054c0,0-4.145,8.553-13.08,15.822          c-8.932,7.271-19.324,43.853-19.324,43.853s-0.001-0.006-0.006-0.013c-0.256-0.335-7.221-9.676-7.482-17.168          C434.751,404.894,434.907,377.961,465.589,369.938z"/>
								<path style="fill:#659B26;" d="M442.506,429.702l0.001-0.002c-0.002-0.003-0.004-0.006-0.006-0.009          C442.504,429.697,442.506,429.702,442.506,429.702z"/>
								<path style="fill:#659B26;" d="M435.018,412.521c0.26,7.468,7.181,16.773,7.477,17.162          c-13.16-20.239-5.477-37.675,7.534-52.545C434.865,388.419,434.807,406.495,435.018,412.521z"/>
								<path style="fill:#85C226;" d="M442.506,429.702c0,0-13.558-27.701,12.916-44.008          C455.422,385.694,438.665,406.046,442.506,429.702z"/>
								<path style="fill:#659B26;" d="M447.157,395.611c8.298-16.054,21.951-25.638,21.951-25.638l5.802,0.054          c0,0-4.145,8.553-13.08,15.822c-8.932,7.271-19.324,43.853-19.324,43.853s-0.001-0.006-0.006-0.013          C442.255,429.069,438.122,413.091,447.157,395.611z"/>
							</g>
							<path style="fill:#659B26;" d="M457.291,384.166c0,0-27.654,14.638-14.792,45.522         C442.5,429.689,427.728,400.852,457.291,384.166z"/>
						</g>
						<path style="fill:#659B26;" d="M501.708,365.787c0,0,0.453-3.609-2.965-4.378s-96.119,12.734-131.412,41.904        C367.331,403.313,390.563,384.119,501.708,365.787z"/>
						<g>
							<g>
								<g>
									<path style="fill:#85C324;" d="M386.712,348.509c0,0,0.008-0.002,0.015-0.004c0.357,0.041,9.077,0.968,20.369,4.826           c5.981,2.044,33.499,17.721,22.083,23.986c0,0-10.995,0.527-23.196-9.276C393.782,358.237,386.712,348.509,386.712,348.509           z"/>
									<path style="fill:#91C636;" d="M386.712,348.51c0,0,11.262,5.334,16.25,11.493c4.988,6.159,26.217,17.314,26.217,17.314           s-12.939-10.368-20.346-13.82C405.318,361.102,397.866,351.292,386.712,348.51z"/>
								</g>
								<path style="fill:#91C637;" d="M386.712,348.509c0,0,0.008-0.002,0.015-0.004c0.357,0.041,9.077,0.968,20.369,4.826          c5.981,2.044,33.499,17.721,22.083,23.986c0,0,5.541-5.696-10.655-15.581c-12.304-7.509-20.937-8.12-20.937-8.12          L386.712,348.509z"/>
							</g>
							<g>
								<path style="fill:#659B26;" d="M389.957,365.829l0.008-0.002c0.008-0.002,0.023-0.006,0.041-0.014          c0.02-0.001,0.038-0.009,0.061-0.015c0.02-0.001,0.038-0.009,0.061-0.015l0.137-0.034          c2.987-0.779,27.111-6.388,38.913,11.56c0.002,0.008,0.002,0.008,0.002,0.008S412.562,382.689,389.957,365.829z"/>
								<path style="fill:#92C737;" d="M390.264,365.749c2.987-0.779,27.111-6.388,38.913,11.56          c0.002,0.008,0.002,0.008,0.002,0.008C411.076,361.564,392.812,365.152,390.264,365.749z"/>
							</g>
						</g>
						<g>
							<path style="fill:#91C637;" d="M417.619,319.998c0,0,0.015,0.029,0.043,0.09c0.711,1.341,9.956,18.498,26.198,29.336         c16.913,11.282,11.07,21.144,11.07,21.144s-0.005-0.003-0.012-0.001c-3.145,0.729-19.49-3.163-31.537-12.589         c-11.548-9.041-6.273-35.557-5.797-37.826C417.607,320.049,417.619,319.998,417.619,319.998z"/>
							<g>
								<path style="fill:#85C324;" d="M417.661,320.088c0,0-2.414,37.429,21.023,41.481          C438.684,361.569,418.263,324.616,417.661,320.088z"/>
								<path style="fill:#659B26;" d="M417.661,320.088c0,0-2.652,37.555,21.023,41.481          C438.684,361.569,418.107,360.165,417.661,320.088z"/>
							</g>
							<path style="fill:#659B26;" d="M417.661,320.088c0.711,1.341,9.956,18.498,26.198,29.336         c16.913,11.282,11.07,21.144,11.07,21.144s-11.862-3.774-18.26-11.021C428.086,349.824,418.474,321.937,417.661,320.088z"/>
							<path style="fill:#659B26;" d="M417.584,320.152c0.05-0.041,0.077-0.064,0.077-0.064         c-1.739,16.272-1.878,32.515,7.837,39.459c9.576,6.841,28.924,10.908,29.42,11.02c-3.145,0.729-19.49-3.163-31.537-12.589         C411.832,348.937,417.108,322.42,417.584,320.152z"/>
						</g>
					</g>
					<g>
						<g>
							<path style="fill:#85C324;" d="M483.826,286.173c0,0-10.386,10.083-15.12,18.633c-8.241,14.884-23.21,17.788-29.393,19.01         c-6.183,1.221-11.593,8.183-11.593,8.183s0.466-10.788,0.622-12.992c0.502-7.112,8.566-18.81,22.274-29.558         c13.708-10.748,33.478-5.887,33.478-5.887S488.678,283.806,483.826,286.173z"/>
							<path style="fill:#91C637;" d="M463.611,288.16c-0.269-0.143-0.538-0.286-0.807-0.429         C463.072,287.888,463.341,288.029,463.611,288.16z"/>
							<path style="fill:#91C637;" d="M455.227,295.835c-0.761-0.375-1.565-0.669-2.484-0.746         C453.59,295.431,454.417,295.674,455.227,295.835z"/>
							<path style="fill:#91C637;" d="M463.611,288.16c1.968,1.046,3.936,2.093,5.904,3.139c-4.43,2.98-8.974,5.59-14.288,4.536         c1.513,0.745,2.852,1.817,4.567,2.183c-4.296,3.454-9.151,3.333-14.304,2.233c2.237,1.189,4.984,1.42,7.221,2.609         c-3.637,2.985-6.954,6.141-9.802,9.955c1.489-1.258,2.678-3.495,4.636-4.094c-0.849,1.598-1.21,3.046-0.761,4.514         c1.44-5.793,5.247-9.098,10.502-12.043c-0.85,1.598-1.869,3.515-1.27,5.473c1.91-5.133,5.567-8.928,10.801-11.064         c-0.999,1.108-0.87,2.407-1.23,3.855c5.166-6.61,12.416-11.923,20.398-14.806c0.5-0.963-1.889-1.09-1.889-1.09         s-0.278-0.068-0.786-0.17C477.186,286.709,470.313,291.424,463.611,288.16z"/>
							<path style="fill:#659B26;" d="M428.343,319.008c-0.156,2.203-0.622,12.992-0.622,12.992s0.081-0.104,0.231-0.285         c0.127-0.229,0.256-0.458,0.387-0.687c0.009-0.039,0.023-0.078,0.03-0.118c-0.984-25.391,24.759-51.193,51.846-46.629         c1.808,0.348,3.561,0.151,5.198-0.474c-0.571-0.204-1.318-0.244-1.318-0.244s-19.77-4.861-33.478,5.887         C436.909,300.198,428.845,311.896,428.343,319.008z"/>
							<path style="fill:#659B26;" d="M439.314,323.816c6.183-1.221,21.152-4.126,29.393-19.01c0.761-1.374,1.669-2.788,2.655-4.193         c-8.598,10.607-17.718,20.465-33.401,22.278c-4.503,0.449-7.384,4.224-9.621,8.135c-0.024,0.112-0.051,0.224-0.089,0.335         C429.75,329.618,434.273,324.812,439.314,323.816z"/>
							<path style="fill:#659B26;" d="M477.166,288.895c0,0-28.022,14.118-43.295,32.437c0,0,14.09-18.019,42.253-33.857         L477.166,288.895z"/>
							<path style="fill:#659B26;" d="M473.006,289.27c0,0-6.039,2.451-11.631-2.709c0,0,3.434,4.592,10.31,3.995L473.006,289.27z"/>
							<path style="fill:#659B26;" d="M462.84,296.1c0,0-6.039,2.451-11.631-2.709c0,0,3.434,4.592,10.31,3.995L462.84,296.1z"/>
							<path style="fill:#659B26;" d="M455.922,301.001c0,0-6.039,2.451-11.631-2.709c0,0,3.434,4.592,10.31,3.995L455.922,301.001z         "/>
							<path style="fill:#659B26;" d="M470.211,292.143c0,0-6.109,6.381-3.63,9.21c0,0-2.954-2.371,1.931-8.323L470.211,292.143z"/>
							<path style="fill:#659B26;" d="M459.844,298.867c0,0-5.151,7.176-2.299,9.629c0,0-3.258-1.932,0.742-8.512L459.844,298.867z"/>
							<path style="fill:#659B26;" d="M450.843,305.25c0,0-5.151,7.176-2.299,9.629c0,0-3.258-1.932,0.742-8.512L450.843,305.25z"/>
							<g>
								<path style="fill:#91C637;" d="M428.956,327.136c0,0,2.185-5.469,1.719-7.503c-0.466-2.034,4.435-14.817,11.795-17.914          c0,0-9.643,8.946-10.468,15.682C431.178,324.136,428.956,327.136,428.956,327.136z"/>
								<path style="fill:#91C637;" d="M466.324,304.496c0,0-8.664,11.926-17.891,13.989          C448.433,318.485,457.229,313.655,466.324,304.496z"/>
							</g>
						</g>
						<path style="fill:#659B26;" d="M485.654,283.912c-2.911,2.764-5.621,5.763-8.24,8.864c3.349-3.699,5.934-6.21,5.934-6.21        C486.312,285.119,486.339,284.334,485.654,283.912z"/>
						<path style="fill:#659B26;" d="M561.024,264.464c0,0,0.201-2.844-2.507-3.3c-2.708-0.456-74.678,14.058-101.055,38.389        C457.463,299.553,474.826,283.543,561.024,264.464z"/>
						<g>
							<g>
								<g>
									<path style="fill:#85C324;" d="M470.296,255.84c0,0,0.006-0.002,0.012-0.004c0.281,0.017,7.144,0.371,16.146,2.91           c4.768,1.345,26.97,12.442,18.303,17.83c0,0-8.582,0.881-18.547-6.272C476.243,263.152,470.296,255.84,470.296,255.84z"/>
									<path style="fill:#91C636;" d="M470.296,255.84c0,0,9.04,3.695,13.206,8.302c4.166,4.607,21.254,12.433,21.254,12.433           s-10.567-7.563-16.511-9.948C485.393,264.902,479.143,257.542,470.296,255.84z"/>
								</g>
								<path style="fill:#91C637;" d="M470.296,255.84c0,0,0.006-0.002,0.012-0.004c0.281,0.017,7.144,0.371,16.146,2.91          c4.768,1.345,26.97,12.442,18.303,17.83c0,0,4.093-4.693-9.002-11.739c-9.948-5.353-16.73-5.463-16.73-5.463L470.296,255.84          z"/>
							</g>
							<g>
								<path style="fill:#659B26;" d="M473.573,269.255l0.006-0.002c0.006-0.002,0.018-0.005,0.031-0.013          c0.016-0.002,0.029-0.009,0.047-0.014c0.016-0.001,0.029-0.009,0.047-0.014l0.106-0.032          c2.305-0.737,20.944-6.153,30.944,7.39c0.002,0.006,0.002,0.006,0.002,0.006S491.981,281.487,473.573,269.255z"/>
								<path style="fill:#92C737;" d="M473.81,269.18c2.305-0.737,20.944-6.153,30.944,7.39c0.002,0.006,0.002,0.006,0.002,0.006          C489.919,265.019,475.778,268.604,473.81,269.18z"/>
							</g>
						</g>
						<g>
							<path style="fill:#91C637;" d="M493.269,232.211c0,0,0.013,0.022,0.037,0.069c0.613,1.02,8.579,14.052,21.751,21.842         c13.716,8.109,9.564,16.075,9.564,16.075s-0.004-0.002-0.01,0c-2.43,0.704-15.387-1.646-25.216-8.509         c-9.423-6.583-6.423-27.559-6.147-29.355C493.262,232.252,493.269,232.211,493.269,232.211z"/>
							<g>
								<path style="fill:#85C324;" d="M493.306,232.28c0,0-0.296,29.393,18.218,31.566          C511.524,263.847,493.97,235.798,493.306,232.28z"/>
								<path style="fill:#659B26;" d="M493.306,232.28c0,0-0.477,29.502,18.218,31.566          C511.524,263.847,495.361,263.624,493.306,232.28z"/>
							</g>
							<path style="fill:#659B26;" d="M493.306,232.28c0.613,1.02,8.579,14.052,21.751,21.842         c13.716,8.109,9.564,16.075,9.564,16.075s-9.444-2.448-14.759-7.847C502.73,255.107,494.02,233.693,493.306,232.28z"/>
							<path style="fill:#659B26;" d="M493.248,232.333c0.038-0.034,0.058-0.053,0.058-0.053         c-0.668,12.808-0.085,25.525,7.813,30.546c7.785,4.946,23.099,7.305,23.492,7.371c-2.43,0.704-15.387-1.646-25.216-8.509         C489.973,255.104,492.972,234.129,493.248,232.333z"/>
						</g>
					</g>
					<g>
						<g>
							<path style="fill:#A4E239;" d="M498.323,459.018c0,0,2.702,19.007,8.173,30.758c9.525,20.456,0.952,38.771-2.565,46.354         c-3.518,7.583-0.277,18.818-0.277,18.818s-11.202-8.922-13.443-10.809c-7.233-6.09-13.48-23.87-14.302-46.957         c-0.822-23.088,19.824-40.49,19.824-40.49S499.573,451.969,498.323,459.018z"/>
							<path style="fill:#91C636;" d="M484.671,482.244c-0.363,0.177-0.727,0.353-1.09,0.53         C483.96,482.609,484.32,482.43,484.671,482.244z"/>
							<path style="fill:#91C636;" d="M486.354,497.224c-0.996,0.523-1.939,1.156-2.739,2.081         C484.644,498.664,485.55,497.967,486.354,497.224z"/>
							<path style="fill:#B9EF50;" d="M484.671,482.244c2.658-1.293,5.317-2.586,7.975-3.879c-0.263,7.077-1.013,13.985-6.292,18.86         c1.98-1.04,4.175-1.64,5.906-3.192c0.35,7.303-3.57,12.413-8.773,17.079c3.022-1.47,5.413-4.235,8.435-5.705         c0.362,6.23,1.155,12.25,3.021,18.281c-0.187-2.578-1.657-5.6-0.77-8.166c1.05,2.158,2.322,3.675,4.246,4.34         c-5.086-6.067-5.658-12.728-4.713-20.661c1.05,2.158,2.31,4.748,4.876,5.635c-4.013-6.055-5.226-12.938-3.429-20.218         c0.408,1.937,1.902,2.812,3.173,4.328c-3.054-10.698-3.09-22.62,0.05-33.428c-0.642-1.288-2.643,1.174-2.643,1.174         s-0.29,0.245-0.796,0.71C493.714,466.556,493.403,477.607,484.671,482.244z"/>
							<path style="fill:#71AA37;" d="M490.212,544.139c2.241,1.887,13.443,10.809,13.443,10.809s-0.048-0.168-0.125-0.471         c-0.147-0.315-0.291-0.633-0.435-0.951c-0.035-0.04-0.066-0.086-0.103-0.124c-27.991-18.768-35.557-66.511-9.517-91.989         c1.785-1.667,2.942-3.701,3.55-5.944c-0.664,0.454-1.291,1.222-1.291,1.222s-20.646,17.402-19.824,40.49         C476.732,520.269,482.979,538.049,490.212,544.139z"/>
							<path style="fill:#659B26;" d="M496.042,468.285c0,0-6.739,41.065,0.977,71.742c0,0-8.32-29.174-3.313-71.734         L496.042,468.285z"/>
							<path style="fill:#71AA37;" d="M493.197,473.037c0,0-2.087,8.388-11.984,10.355c0,0,7.604-0.097,12.332-7.935         L493.197,473.037z"/>
							<path style="fill:#71AA37;" d="M492.583,489.27c0,0-2.087,8.388-11.984,10.355c0,0,7.604-0.097,12.332-7.935L492.583,489.27z         "/>
							<path style="fill:#71AA37;" d="M494.095,478.277c0,0,2.072,11.531,7.041,11.082c0,0-4.849,1.316-7.416-8.568L494.095,478.277         z"/>
							<path style="fill:#71AA37;" d="M493.21,494.641c0,0,3.672,11.125,8.529,9.982c0,0-4.615,1.985-8.547-7.441L493.21,494.641z"/>
							<g>
							</g>
						</g>
						<path style="fill:#659B26;" d="M497.326,455.294c0.691,5.279,1.791,10.526,3.07,15.754        c-1.351-6.479-2.025-11.211-2.025-11.211C499.134,455.531,498.314,454.889,497.326,455.294z"/>
						<path style="fill:#71AA37;" d="M535.316,359.303c0,0-2.892-2.435-5.495,0.112c-2.603,2.547-43.228,91.04-37.734,138.315        C492.087,497.73,488.477,466.615,535.316,359.303z"/>
						<g>
							<g>
								<g>
									<path style="fill:#7EB71A;" d="M455.238,449.844c0,0,0.003-0.008,0.005-0.015c0.237-0.288,5.975-7.37,15.724-15.039           c5.164-4.062,34.395-19.203,33.405-5.704c0,0-5.755,9.889-21.204,14.989C467.721,449.176,455.238,449.844,455.238,449.844z           "/>
									<path style="fill:#91C636;" d="M455.239,449.845c0,0,11.019-6.808,19.211-7.677c8.192-0.869,29.923-13.081,29.923-13.081           s-16.358,5.425-23.556,9.935C476.741,440.733,463.971,441.688,455.239,449.845z"/>
								</g>
								<path style="fill:#91C636;" d="M455.238,449.844c0,0,0.003-0.008,0.005-0.015c0.237-0.288,5.975-7.37,15.724-15.039          c5.164-4.062,34.395-19.203,33.405-5.704c0,0-1.836-8.052-19.614,0.487c-13.505,6.487-18.918,13.672-18.918,13.672          L455.238,449.844z"/>
							</g>
							<g>
								<path style="fill:#659B26;" d="M472.181,456.804l0.003-0.008c0.003-0.008,0.008-0.023,0.011-0.044          c0.011-0.018,0.013-0.039,0.021-0.062c0.01-0.018,0.013-0.039,0.021-0.062l0.048-0.138          c1.009-3.046,9.754-27.26,32.081-27.408c0.008,0.003,0.008,0.003,0.008,0.003S499.665,446.617,472.181,456.804z"/>
								<path style="fill:#88BA2A;" d="M472.284,456.491c1.009-3.046,9.754-27.26,32.081-27.408          c0.008,0.003,0.008,0.003,0.008,0.003C480.399,435.972,473.203,453.931,472.284,456.491z"/>
							</g>
						</g>
						<g>
							<path style="fill:#A4E239;" d="M447.84,406.768c0,0,0.033,0.003,0.103,0.014c1.572,0.138,21.763,1.772,40.398-6.269         c19.401-8.375,24.701,2.296,24.701,2.296s-0.005,0.003-0.008,0.01c-1.142,3.155-13.777,15.212-28.809,20.392         c-14.414,4.963-34.562-14.629-36.271-16.326C447.878,406.807,447.84,406.768,447.84,406.768z"/>
							<g>
								<path style="fill:#98CE30;" d="M447.943,406.782c0,0,31.283,23.264,48.066,5.111          C496.009,411.892,452.233,408.816,447.943,406.782z"/>
								<path style="fill:#71AA37;" d="M447.943,406.782c0,0,31.259,23.543,48.066,5.111          C496.009,411.892,483.153,429.048,447.943,406.782z"/>
							</g>
							<path style="fill:#71AA37;" d="M447.943,406.782c1.572,0.138,21.763,1.772,40.398-6.269         c19.401-8.375,24.701,2.296,24.701,2.296s-9.997,8.214-19.936,9.698C479.773,414.497,450.015,407.118,447.943,406.782z"/>
							<path style="fill:#71AA37;" d="M447.955,406.885c-0.007-0.067-0.012-0.103-0.012-0.103         c13.211,10.716,27.3,20.019,38.849,15.47c11.38-4.486,25.865-19.063,26.243-19.433c-1.142,3.155-13.777,15.212-28.809,20.392         C469.811,428.174,449.664,408.582,447.955,406.885z"/>
						</g>
					</g>
					<g>
						<g>
							<path style="fill:#7EB71A;" d="M310.864,299.123c0,0-17.246-17.396-24.979-32.016c-13.461-25.45-38.693-30.849-49.115-33.116         c-10.422-2.267-19.349-14.221-19.349-14.221s0.44,18.268,0.632,22.001c0.619,12.049,13.885,32.104,36.73,50.732         c22.845,18.629,56.452,11.045,56.452,11.045S318.996,303.286,310.864,299.123z"/>
							<path style="fill:#91C636;" d="M276.724,295.107c-0.46,0.233-0.919,0.466-1.379,0.7         C275.805,295.549,276.265,295.32,276.724,295.107z"/>
							<path style="fill:#91C636;" d="M262.788,281.85c-1.299,0.61-2.669,1.081-4.227,1.181         C260.007,282.48,261.413,282.095,262.788,281.85z"/>
							<path style="fill:#91C636;" d="M276.724,295.107c3.364-1.707,6.728-3.413,10.091-5.12c-7.4-5.186-15.003-9.748-24.028-8.137         c2.584-1.212,4.885-2.982,7.798-3.546c-7.157-5.984-15.374-5.936-24.13-4.241c3.823-1.94,8.478-2.241,12.302-4.181         c-6.057-5.169-11.567-10.615-16.262-17.161c2.478,2.177,4.418,6,7.711,7.076c-1.386-2.731-1.948-5.193-1.141-7.663         c2.249,9.848,8.583,15.563,17.379,20.715c-1.386-2.731-3.048-6.008-1.972-9.302c3.065,8.747,9.129,15.286,17.917,19.069         c-1.655-1.908-1.394-4.101-1.956-6.563c8.526,11.351,20.621,20.575,34.032,25.711c0.815,1.645-3.231,1.783-3.231,1.783         s-0.473,0.106-1.336,0.262C299.647,298.001,288.17,289.802,276.724,295.107z"/>
							<path style="fill:#659B26;" d="M218.053,241.771c-0.192-3.733-0.632-22.001-0.632-22.001s0.133,0.178,0.382,0.49         c0.207,0.392,0.419,0.784,0.633,1.175c0.013,0.067,0.037,0.133,0.047,0.2c-2.486,42.928,40.233,87.417,86.21,80.572         c3.07-0.53,6.03-0.139,8.78,0.97c-0.973,0.326-2.238,0.371-2.238,0.371s-33.608,7.584-56.452-11.045         C231.938,273.875,218.671,253.82,218.053,241.771z"/>
							<path style="fill:#659B26;" d="M236.77,233.992c10.422,2.267,35.654,7.665,49.115,33.116c1.243,2.349,2.733,4.77,4.356,7.18         c-14.204-18.224-29.315-35.2-55.79-38.775c-7.604-0.905-12.357-7.385-16.016-14.076c-0.037-0.19-0.079-0.38-0.14-0.57         C220.778,223.865,228.274,232.144,236.77,233.992z"/>
							<path style="fill:#659B26;" d="M299.683,294.302c0,0-46.954-24.795-72.203-56.283c0,0,23.255,30.944,70.393,58.653         L299.683,294.302z"/>
							<path style="fill:#659B26;" d="M292.658,293.532c0,0-10.138-4.342-19.766,4.206c0,0,5.959-7.658,17.573-6.426         L292.658,293.532z"/>
							<path style="fill:#659B26;" d="M275.677,281.647c0,0-10.138-4.342-19.766,4.206c0,0,5.959-7.658,17.573-6.426         L275.677,281.647z"/>
							<path style="fill:#659B26;" d="M264.133,273.132c0,0-10.138-4.342-19.766,4.206c0,0,5.959-7.658,17.573-6.426         L264.133,273.132z"/>
							<path style="fill:#659B26;" d="M288.022,288.581c0,0-10.129-10.994-5.843-15.701c0,0-5.075,3.916,2.998,14.145         L288.022,288.581z"/>
							<path style="fill:#659B26;" d="M270.698,276.87c0,0-8.484-12.308-3.578-16.366c0,0-5.575,3.164,0.98,14.426L270.698,276.87z"/>
							<path style="fill:#659B26;" d="M255.676,265.778c0,0-8.484-12.308-3.578-16.366c0,0-5.575,3.164,0.98,14.426L255.676,265.778         z"/>
							<g>
								<path style="fill:#91C636;" d="M219.353,228.04c0,0,3.521,9.323,2.665,12.75c-0.855,3.426,7.023,25.212,19.376,30.691          c0,0-16.026-15.449-17.203-26.871C223.015,233.187,219.353,228.04,219.353,228.04z"/>
								<path style="fill:#91C636;" d="M281.845,267.555c0,0-14.273-20.46-29.817-24.249          C252.027,243.306,266.753,251.763,281.845,267.555z"/>
							</g>
						</g>
						<path style="fill:#659B26;" d="M313.883,303.008c-4.836-4.771-9.324-9.933-13.654-15.263        c5.547,6.367,9.839,10.699,9.839,10.699C315.036,300.987,315.056,302.315,313.883,303.008z"/>
						<g>
							<g>
								<path style="fill:#88BA2A;" d="M393.405,329.345l4.658,0.297l7.679,0.494c0,0-4.649-11.717-15.76-22.201          c-11.106-10.487-21.289-59.886-21.289-59.886s-0.003,0.008-0.01,0.017c-0.371,0.418-10.493,12.095-11.568,21.979          C356.021,280.106,353.604,315.746,393.405,329.345z"/>
								<path style="fill:#659B26;" d="M368.694,248.048l0,0.003c-0.003,0.004-0.005,0.007-0.008,0.011          C368.691,248.055,368.694,248.048,368.694,248.048z"/>
								<path style="fill:#659B26;" d="M357.117,270.044c1.071-9.853,11.132-21.486,11.561-21.971          c-19.377,25.489-10.913,49.298,4.848,70.234C354.567,301.909,356.251,277.994,357.117,270.044z"/>
								<path style="fill:#85C226;" d="M368.694,248.048c0,0-20.631,35.319,12.798,59.467          C381.492,307.515,361.311,278.964,368.694,248.048z"/>
								<path style="fill:#659B26;" d="M371.526,293.593c9.413,22.042,26.537,36.048,26.537,36.048l7.679,0.494          c0,0-4.649-11.717-15.76-22.201c-11.106-10.487-21.289-59.886-21.289-59.886s-0.003,0.008-0.01,0.017          C368.301,248.862,361.277,269.593,371.526,293.593z"/>
							</g>
							<path style="fill:#659B26;" d="M383.816,309.718c0,0-35.152-22.055-15.132-61.652         C368.684,248.066,346.338,284.769,383.816,309.718z"/>
						</g>
						<path style="fill:#659B26;" d="M440.776,338.353c0,0,0.247,4.818-4.349,5.502c-4.596,0.684-125.895-26.203-169.735-68.224        C266.692,275.631,295.552,303.282,440.776,338.353z"/>
						<g>
							<g>
								<g>
									<path style="fill:#98CE30;" d="M286.99,350.008c0,0,0.01,0.003,0.02,0.007c0.476-0.019,12.1-0.396,27.411-4.4           c8.11-2.121,46.035-20.177,31.545-29.575c0,0-14.491-1.768-31.584,10.011C297.288,337.829,286.99,350.008,286.99,350.008z"/>
									<path style="fill:#71AA37;" d="M286.989,350.007c0,0,15.415-5.959,22.613-13.62s36.364-20.348,36.364-20.348           s-18.124,12.454-28.257,16.298C312.826,335.163,302.014,347.413,286.989,350.007z"/>
								</g>
								<path style="fill:#71AA37;" d="M286.99,350.008c0,0,0.01,0.003,0.02,0.007c0.476-0.019,12.1-0.396,27.411-4.4          c8.11-2.121,46.035-20.177,31.545-29.575c0,0,6.774,8.073-15.611,19.571c-17.005,8.734-28.483,8.701-28.483,8.701          L286.99,350.008z"/>
							</g>
							<g>
								<path style="fill:#71AA37;" d="M292.968,327.415l0.01,0.003c0.01,0.003,0.03,0.01,0.053,0.023          c0.026,0.003,0.049,0.016,0.079,0.026c0.026,0.003,0.049,0.016,0.079,0.026l0.178,0.058          c3.875,1.321,35.237,11.089,52.595-11.501c0.003-0.01,0.003-0.01,0.003-0.01S324.51,307.316,292.968,327.415z"/>
								<path style="fill:#A4E239;" d="M293.367,327.55c3.875,1.321,35.237,11.089,52.595-11.501c0.003-0.01,0.003-0.01,0.003-0.01          C320.487,335.113,296.679,328.589,293.367,327.55z"/>
							</g>
						</g>
						<g>
							<path style="fill:#91C636;" d="M325.093,390.729c0,0,0.023-0.036,0.065-0.115c1.071-1.705,14.97-23.497,37.509-36.251         c23.469-13.275,16.702-26.888,16.702-26.888s-0.007,0.003-0.017,0c-4.089-1.271-26.086,2.286-42.939,13.58         c-16.156,10.833-11.76,46.42-11.351,49.467C325.083,390.66,325.093,390.729,325.093,390.729z"/>
							<g>
								<path style="fill:#7EB71A;" d="M325.158,390.614c0,0,0.451-49.742,31.846-52.818          C357.004,337.795,326.395,384.683,325.158,390.614z"/>
								<path style="fill:#659B26;" d="M325.158,390.614c0,0,0.149-49.932,31.846-52.818          C357.004,337.795,329.65,337.648,325.158,390.614z"/>
							</g>
							<path style="fill:#659B26;" d="M325.158,390.614c1.071-1.705,14.97-23.497,37.509-36.251         c23.469-13.275,16.702-26.888,16.702-26.888s-16.058,3.836-25.226,12.799C341.843,352.298,326.412,388.247,325.158,390.614z"/>
							<path style="fill:#659B26;" d="M325.062,390.522c0.063,0.059,0.096,0.091,0.096,0.091         c-0.716-21.693,0.682-43.19,14.208-51.428c13.332-8.116,39.319-11.611,39.986-11.71c-4.089-1.271-26.086,2.286-42.939,13.58         C320.257,351.888,324.653,387.475,325.062,390.522z"/>
						</g>
					</g>
					<g>
						<g>
							<g>
								<path style="fill:#A4E239;" d="M344.321,275.619l2.419,4.025l3.992,6.632c0,0-12.618,1.264-27.123-3.814          c-14.505-5.073-63.35,8.673-63.35,8.673s0.006-0.006,0.011-0.017c0.202-0.525,5.954-14.968,14.288-20.499          C283.04,264.987,313.766,246.348,344.321,275.619z"/>
								<path style="fill:#659B26;" d="M260.259,291.134l0.003-0.001c0.002-0.004,0.004-0.008,0.006-0.012          C260.264,291.128,260.259,291.134,260.259,291.134z"/>
								<path style="fill:#659B26;" d="M274.558,270.619c-8.308,5.513-14.049,19.882-14.284,20.49          c13.813-29.099,38.999-32.547,64.992-28.146C301.848,253.606,281.26,266.169,274.558,270.619z"/>
								<path style="fill:#98CE30;" d="M260.259,291.134c0,0,22.015-34.765,59.049-16.065          C319.308,275.07,284.466,270.242,260.259,291.134z"/>
								<path style="fill:#71AA37;" d="M302.261,272.604c24.046-1.783,44.479,7.04,44.479,7.04l3.992,6.632          c0,0-12.618,1.264-27.123-3.814c-14.505-5.073-63.35,8.673-63.35,8.673s0.006-0.006,0.011-0.017          C260.804,290.407,276.078,274.545,302.261,272.604z"/>
							</g>
							<path style="fill:#71AA37;" d="M322.35,276.128c0,0-35.96-21.208-62.08,14.99C260.27,291.118,282.729,254.18,322.35,276.128z         "/>
						</g>
						<path style="fill:#659B26;" d="M354.382,315.373c0,0-0.843-60.779-82.014-104.111c0,0,71.187,18.027,88.274,106.588        C361.164,323.848,354.995,321.266,354.382,315.373z"/>
						<g>
							<path style="fill:#85C324;" d="M362.206,289.83c0,0,5.13-18.336,4.85-31.188c-0.487-22.373,14.604-35.583,20.823-41.065         c6.219-5.482,7.759-16.975,7.759-16.975s6.611,12.57,7.893,15.178c4.138,8.415,2.716,27.051-5.749,48.341         c-8.465,21.291-34.153,28.854-34.153,28.854S358.258,295.732,362.206,289.83z"/>
							<path style="fill:#91C637;" d="M383.867,274.189c0.4-0.016,0.801-0.031,1.201-0.047         C384.659,274.141,384.26,274.16,383.867,274.189z"/>
							<path style="fill:#91C637;" d="M388.316,259.915c1.113-0.078,2.221-0.276,3.317-0.797         C390.443,259.291,389.342,259.562,388.316,259.915z"/>
							<path style="fill:#91C637;" d="M383.867,274.189c-2.93,0.114-5.859,0.227-8.789,0.341c3.063-6.32,6.499-12.294,13.237-14.614         c-2.213,0.154-4.445-0.177-6.636,0.542c2.596-6.77,8.194-9.846,14.78-12.007c-3.33,0.129-6.605,1.685-9.935,1.814         c2.157-5.801,3.839-11.583,4.551-17.804c-0.859,2.415-0.73,5.745-2.559,7.722c-0.092-2.378-0.642-4.263-2.124-5.635         c2.198,7.538,0.059,13.814-3.964,20.64c-0.092-2.379-0.203-5.233-2.179-7.062c1.228,7.099-0.417,13.832-4.953,19.725         c0.402-1.921-0.605-3.311-1.154-5.196c-1.495,10.932-6.219,21.771-13.382,30.331c0.069,1.425,2.868-0.012,2.868-0.012         s0.361-0.107,1.006-0.327C369.398,284.825,374.089,274.916,383.867,274.189z"/>
							<path style="fill:#659B26;" d="M403.531,215.78c-1.282-2.607-7.893-15.178-7.893-15.178s-0.023,0.171-0.074,0.477         c0.008,0.344,0.012,0.691,0.015,1.037c0.016,0.05,0.026,0.104,0.044,0.154c17.927,28.208,5.749,74.575-28.059,87.32         c-2.285,0.801-4.147,2.186-5.595,3.98c0.784-0.147,1.66-0.595,1.66-0.595s25.688-7.563,34.153-28.854         C406.247,242.831,407.668,224.195,403.531,215.78z"/>
							<path style="fill:#659B26;" d="M387.879,217.578c-6.219,5.482-21.31,18.692-20.823,41.065         c0.045,2.065-0.051,4.273-0.242,6.522c2.751-17.747,6.59-34.99,23.215-47.432c4.821-3.491,5.597-9.689,5.55-15.616         c-0.046-0.143-0.09-0.288-0.12-0.44C394.907,204.652,392.948,213.109,387.879,217.578z"/>
							<path style="fill:#659B26;" d="M367.974,282.327c0,0,22.503-34.597,27.736-65.529c0,0-4.085,29.808-25.611,66.453         L367.974,282.327z"/>
							<path style="fill:#659B26;" d="M372.453,279.147c0,0,5.241-6.783,15.012-4.621c0,0-6.943-2.945-14.363,2.284L372.453,279.147         z"/>
							<path style="fill:#659B26;" d="M379.487,264.653c0,0,5.241-6.783,15.013-4.621c0,0-6.943-2.945-14.363,2.284L379.487,264.653         z"/>
							<path style="fill:#659B26;" d="M384.105,254.504c0,0,5.241-6.783,15.012-4.621c0,0-6.943-2.945-14.363,2.284L384.105,254.504         z"/>
							<path style="fill:#659B26;" d="M373.728,274.031c0,0,2.719-11.296-1.972-12.871c0,0,4.928,0.739,3.315,10.738         L373.728,274.031z"/>
							<path style="fill:#659B26;" d="M381.061,259.526c0,0,1.105-11.566-3.761-12.466c0,0,4.983,0.039,4.791,10.166         L381.061,259.526z"/>
							<path style="fill:#659B26;" d="M387.065,246.312c0,0,1.104-11.566-3.761-12.466c0,0,4.982,0.039,4.791,10.166         L387.065,246.312z"/>
							<g>
								<path style="fill:#91C637;" d="M397.453,206.948c0,0,1.136,7.662,3.013,9.665c1.877,2.003,4.768,19.776-1.547,28.169          c0,0,5.038-16.552,1.516-24.753C396.914,211.828,397.453,206.948,397.453,206.948z"/>
								<path style="fill:#91C637;" d="M369.969,257.418c0,0,1.952-19.291,11.074-27.744          C381.042,229.674,374.243,240.986,369.969,257.418z"/>
							</g>
						</g>
						<path style="fill:#659B26;" d="M356.251,297.344c0.483-0.593,0.932-1.209,1.35-1.849c1.325-2.029,4.983-5.199,10.659-13.894        c0,0,5.383-4.394,1.838,1.65c-1.714,2.921-14.537,21.53-15.415,19.561C353.683,300.568,354.894,299.01,356.251,297.344z"/>
						<g>
							<g>
								<path style="fill:#A4E239;" d="M234.857,192.386c0,0,0.01-0.003,0.02-0.007c0.479,0.005,12.179,0.049,27.692,3.633          c8.217,1.899,46.876,18.96,32.576,28.829c0,0-14.522,2.197-32.051-9.154C245.565,204.336,234.857,192.386,234.857,192.386z"/>
								<path style="fill:#98CE30;" d="M234.856,192.387c0,0,15.674,5.547,23.133,13.043c7.459,7.495,37.156,19.411,37.156,19.411          s-18.585-12-28.887-15.573C261.267,206.568,250.04,194.561,234.856,192.387z"/>
							</g>
							<path style="fill:#71AA37;" d="M234.857,192.386c0,0,0.01-0.003,0.02-0.007c0.479,0.005,12.179,0.049,27.692,3.633         c8.217,1.899,46.876,18.96,32.576,28.829c0,0,6.579-8.314-16.264-19.23c-17.353-8.292-28.895-7.927-28.895-7.927         L234.857,192.386z"/>
						</g>
						<g>
							<path style="fill:#71AA37;" d="M241.522,214.933l0.01-0.003c0.01-0.003,0.029-0.011,0.052-0.024         c0.026-0.004,0.049-0.018,0.079-0.028c0.026-0.004,0.049-0.018,0.079-0.028l0.177-0.064         c3.859-1.441,35.115-12.17,53.223,10.046c0.004,0.01,0.004,0.01,0.004,0.01S273.821,234.233,241.522,214.933z"/>
							<path style="fill:#A4E239;" d="M241.919,214.785c3.859-1.441,35.115-12.17,53.223,10.046c0.004,0.01,0.004,0.01,0.004,0.01         C268.973,206.397,245.219,213.645,241.919,214.785z"/>
						</g>
						<g>
							<path style="fill:#91C637;" d="M359.314,181.211c0,0-0.02,0.031-0.065,0.094c-0.922,1.475-12.625,20.484-14.05,42.805         c-1.48,23.24-14.609,23.107-14.609,23.107s0-0.006-0.006-0.013c-2.527-2.699-8.047-21.136-5.615-38.488         c2.336-16.636,31.651-26.621,34.173-27.451C359.256,181.229,359.314,181.211,359.314,181.211z"/>
							<g>
								<path style="fill:#85C324;" d="M359.249,181.305c0,0-38.491,19.083-29.06,44.643          C330.189,225.948,355.105,184.5,359.249,181.305z"/>
								<path style="fill:#659B26;" d="M359.249,181.305c0,0-38.753,18.919-29.06,44.643          C330.189,225.948,319.773,204.743,359.249,181.305z"/>
							</g>
							<path style="fill:#659B26;" d="M328.302,252.98c0,0,3.817-1.061,1.337-12.294c0,0,4.071,4.525,2.762,8.486         C331.091,253.134,329.869,259.078,328.302,252.98z"/>
							<path style="fill:#659B26;" d="M359.249,181.305c-0.922,1.475-12.625,20.484-14.05,42.805         c-1.48,23.24-14.609,23.107-14.609,23.107s-3.066-13.925,0.448-24.427C335.752,208.702,357.882,183.172,359.249,181.305z"/>
							<path style="fill:#659B26;" d="M359.141,181.265c0.069,0.027,0.107,0.04,0.107,0.04c-17.13,7.613-33.312,16.795-34.621,30.41         c-1.287,13.419,5.783,34.933,5.956,35.489c-2.527-2.699-8.047-21.136-5.615-38.488         C327.305,192.08,356.619,182.095,359.141,181.265z"/>
						</g>
					</g>
					<g>
						<g>
							<path style="fill:#A4E239;" d="M392.736,204.36c0,0-17.458-6.029-29.919-6.503c-21.693-0.824-33.611-16.202-38.559-22.542         c-4.948-6.34-15.989-8.496-15.989-8.496s12.555-5.674,15.154-6.765c8.388-3.519,26.351-1.063,46.478,8.367         c20.126,9.43,25.962,34.743,25.962,34.743S398.223,208.524,392.736,204.36z"/>
							<path style="fill:#91C637;" d="M378.845,182.478c0.008-0.389,0.016-0.777,0.024-1.166         C378.844,181.709,378.839,182.096,378.845,182.478z"/>
							<path style="fill:#91C637;" d="M365.281,177.344c-0.011-1.082-0.138-2.167-0.579-3.258         C364.799,175.248,364.998,176.33,365.281,177.344z"/>
							<path style="fill:#B9EF50;" d="M378.845,182.478c-0.06,2.843-0.119,5.687-0.179,8.53         c-5.943-3.332-11.528-7.006-13.385-13.664c0.021,2.152-0.429,4.294,0.141,6.457c-6.406-2.906-9.06-8.505-10.771-15.008         c-0.068,3.232,1.25,6.493,1.182,9.725c-5.492-2.425-10.994-4.388-16.977-5.438c2.289,0.972,5.521,1.04,7.329,2.925         c-2.309-0.048-4.165,0.374-5.579,1.73c7.426-1.692,13.38,0.743,19.757,5.034c-2.309-0.048-5.079-0.107-6.964,1.701         c6.945-0.778,13.37,1.205,18.814,5.938c-1.837-0.5-3.242,0.394-5.098,0.817c10.499,2.081,20.722,7.283,28.596,14.715         c1.384,0.016,0.155-2.778,0.155-2.778s-0.083-0.356-0.259-0.993C388.306,197.105,378.982,191.989,378.845,182.478z"/>
							<path style="fill:#659B26;" d="M323.424,160.055c-2.599,1.09-15.154,6.765-15.154,6.765s0.165,0.032,0.458,0.099         c0.334,0.012,0.669,0.028,1.005,0.046c0.05-0.013,0.103-0.019,0.151-0.034c28.353-15.726,72.547-1.248,82.93,32.228         c0.644,2.259,1.877,4.143,3.53,5.648c-0.097-0.768-0.48-1.641-0.48-1.641s-5.836-25.313-25.963-34.743         C349.775,158.992,331.812,156.536,323.424,160.055z"/>
							<path style="fill:#659B26;" d="M324.258,175.316c4.948,6.34,16.866,21.718,38.559,22.542         c2.003,0.076,4.134,0.297,6.302,0.612c-17.026-3.692-33.5-8.408-44.586-25.227c-3.101-4.87-9.058-5.981-14.8-6.279         c-0.142,0.037-0.284,0.07-0.433,0.091C312.149,167.761,320.225,170.148,324.258,175.316z"/>
							<path style="fill:#659B26;" d="M385.804,198.34c0,0-32.198-23.794-61.848-30.652c0,0,28.627,5.682,62.866,28.648         L385.804,198.34z"/>
							<path style="fill:#659B26;" d="M382.984,193.818c0,0-6.265-5.468-3.605-14.805c0,0-3.254,6.552,1.38,14.04L382.984,193.818z"/>
							<path style="fill:#659B26;" d="M369.357,186.168c0,0-6.265-5.468-3.605-14.805c0,0-3.254,6.553,1.38,14.041L369.357,186.168z         "/>
							<path style="fill:#659B26;" d="M359.797,181.108c0,0-6.265-5.468-3.605-14.805c0,0-3.254,6.553,1.38,14.04L359.797,181.108z"/>
							<path style="fill:#659B26;" d="M378.104,192.288c0,0-10.781-3.287-12.578,1.164c0,0,1.001-4.729,10.59-2.588L378.104,192.288         z"/>
							<path style="fill:#659B26;" d="M364.483,184.347c0,0-11.136-1.74-12.289,2.92c0,0,0.327-4.822,10.121-4.051L364.483,184.347z         "/>
							<path style="fill:#659B26;" d="M352.036,177.767c0,0-11.136-1.739-12.289,2.92c0,0,0.326-4.822,10.121-4.051L352.036,177.767         z"/>
							<g>
								<path style="fill:#B9EF50;" d="M314.519,165.429c0,0,7.485-0.657,9.534-2.358c2.048-1.701,19.426-3.472,27.187,3.129          c0,0-15.737-5.837-23.882-2.902C319.214,166.233,314.519,165.429,314.519,165.429z"/>
								<path style="fill:#B9EF50;" d="M361.799,194.965c0,0-18.567-3.008-26.224-12.33          C335.575,182.636,346.136,189.875,361.799,194.965z"/>
							</g>
						</g>
						<path style="fill:#659B26;" d="M396.362,205.141c-4.823-1.726-9.797-3.087-14.835-4.286        c6.139,1.687,10.486,3.187,10.486,3.187C395.366,206.585,396.275,206.165,396.362,205.141z"/>
						<g>
							<g>
								<path style="fill:#92C737;" d="M440.257,250.558l1.725,3.068l2.846,5.056c0,0-9.48,0.673-20.237-3.448          c-10.756-4.117-47.648,5.117-47.648,5.117s0.004-0.004,0.009-0.012c0.162-0.389,4.787-11.084,11.15-15.046          C394.58,241.258,418.004,227.963,440.257,250.558z"/>
								<path style="fill:#659B26;" d="M376.944,260.35l0.002-0.001c0.001-0.003,0.003-0.006,0.005-0.009          C376.947,260.346,376.944,260.35,376.944,260.35z"/>
								<path style="fill:#659B26;" d="M388.102,245.292c-6.344,3.949-10.958,14.588-11.147,15.039          c10.982-21.499,29.926-23.533,49.303-19.671C408.918,233.141,393.22,242.105,388.102,245.292z"/>
								<path style="fill:#85C226;" d="M376.944,260.35c0,0,17.25-25.565,44.587-10.749          C421.531,249.602,395.534,245.226,376.944,260.35z"/>
								<path style="fill:#659B26;" d="M408.814,247.383c18.053-0.812,33.168,6.243,33.168,6.243l2.846,5.056          c0,0-9.48,0.673-20.237-3.448c-10.756-4.117-47.648,5.117-47.648,5.117s0.004-0.004,0.009-0.012          C377.368,259.817,389.156,248.267,408.814,247.383z"/>
							</g>
							<path style="fill:#659B26;" d="M423.787,250.46c0,0-26.478-16.671-46.835,9.878         C376.952,260.338,394.582,233.155,423.787,250.46z"/>
						</g>
						<path style="fill:#659B26;" d="M461.866,279.797c0,0,3.354-1.407,2.316-4.754c-1.038-3.346-58.967-76.967-101.851-93.013        C362.332,182.03,390.555,192.597,461.866,279.797z"/>
						<g>
							<g>
								<g>
									<path style="fill:#85C324;" d="M419.501,171.502c0,0,0.005,0.006,0.011,0.011c0.143,0.33,3.687,8.35,5.973,20.062           c1.211,6.204,1.344,37.874-9.779,31.102c0,0-5.939-9.268-3.526-24.732C414.594,182.481,419.501,171.502,419.501,171.502z"/>
									<path style="fill:#91C636;" d="M419.5,171.502c0,0,0.992,12.422-1.86,19.817c-2.851,7.395-1.935,31.359-1.935,31.359           s2.536-16.385,1.833-24.527C417.863,193.909,422.651,182.558,419.5,171.502z"/>
								</g>
								<path style="fill:#91C637;" d="M419.501,171.502c0,0,0.005,0.006,0.011,0.011c0.143,0.33,3.687,8.35,5.973,20.062          c1.211,6.204,1.344,37.874-9.779,31.102c0,0,7.7,1.962,8.192-17.006c0.374-14.41-3.402-22.197-3.402-22.197L419.501,171.502          z"/>
							</g>
							<g>
								<path style="fill:#659B26;" d="M406.106,182.951l0.005,0.006c0.005,0.006,0.016,0.017,0.033,0.028          c0.011,0.017,0.027,0.028,0.043,0.045c0.011,0.017,0.027,0.028,0.043,0.045l0.098,0.102          c2.165,2.201,19.056,20.315,9.383,39.495c-0.006,0.006-0.006,0.006-0.006,0.006S402.764,210.952,406.106,182.951z"/>
								<path style="fill:#92C737;" d="M406.328,183.177c2.165,2.201,19.056,20.315,9.383,39.495          c-0.006,0.006-0.006,0.006-0.006,0.006C420.334,199.13,408.117,185.088,406.328,183.177z"/>
							</g>
						</g>
						<g>
							<path style="fill:#91C637;" d="M459.626,184.075c0,0-0.017,0.027-0.057,0.082c-0.808,1.285-11.069,17.854-12.365,37.337         c-1.346,20.285-12.807,20.139-12.807,20.139s0-0.006-0.005-0.011c-2.2-2.362-6.976-18.471-4.813-33.614         c2.078-14.518,27.693-23.168,29.897-23.886C459.576,184.09,459.626,184.075,459.626,184.075z"/>
							<g>
								<path style="fill:#85C324;" d="M459.569,184.157c0,0-33.648,16.571-25.473,38.907          C434.096,223.063,455.944,186.936,459.569,184.157z"/>
								<path style="fill:#659B26;" d="M459.569,184.157c0,0-33.876,16.427-25.473,38.907          C434.096,223.063,425.052,204.527,459.569,184.157z"/>
							</g>
							<path style="fill:#659B26;" d="M459.569,184.157c-0.808,1.285-11.069,17.854-12.365,37.337         c-1.346,20.285-12.807,20.139-12.807,20.139s-2.644-12.164,0.448-21.324C438.993,208.021,458.371,185.783,459.569,184.157z"/>
							<path style="fill:#659B26;" d="M459.476,184.121c0.06,0.023,0.094,0.035,0.094,0.035         c-14.972,6.607-29.121,14.586-30.296,26.469c-1.155,11.712,4.967,30.511,5.118,30.996c-2.2-2.362-6.976-18.471-4.813-33.614         C431.656,193.489,457.272,184.84,459.476,184.121z"/>
						</g>
					</g>
					<g>
						<g>
							<g>
								<path style="fill:#A4E239;" d="M498.216,313.118l3.704,4.493l6.111,7.404c0,0-15.245,3.862-33.966,0.289          c-18.72-3.566-76.111,22.239-76.111,22.239s0.006-0.008,0.01-0.023c0.151-0.68,4.561-19.449,13.77-27.759          C421.108,311.301,455.379,282.812,498.216,313.118z"/>
								<path style="fill:#71AA37;" d="M397.955,347.543l0.003-0.001c0.002-0.005,0.003-0.011,0.005-0.016          C397.959,347.534,397.955,347.543,397.955,347.543z"/>
								<path style="fill:#71AA37;" d="M411.735,319.762c-9.18,8.284-13.59,26.958-13.767,27.747          c11.612-38.22,41.873-47.062,74.559-46.425C442.091,293.897,419.14,313.077,411.735,319.762z"/>
								<path style="fill:#98CE30;" d="M397.955,347.543c0,0,20.635-46.672,69.482-30.518          C467.437,317.025,423.819,317.484,397.955,347.543z"/>
								<path style="fill:#71AA37;" d="M446.077,317.122c29.167-6.591,55.843,0.489,55.843,0.489l6.111,7.404          c0,0-15.245,3.862-33.966,0.289c-18.72-3.566-76.111,22.239-76.111,22.239s0.006-0.008,0.01-0.023          C398.49,346.551,414.319,324.299,446.077,317.122z"/>
							</g>
							<path style="fill:#71AA37;" d="M471.362,317.765c0,0-47.99-19.426-73.397,29.755         C397.965,347.52,418.746,298.103,471.362,317.765z"/>
						</g>
						<path style="fill:#659B26;" d="M517.837,360.034c0,0-12.165-74.392-119.659-112.673c0,0,90.614,9.073,127.789,114.564        C527.708,369.186,519.668,367.149,517.837,360.034z"/>
						<g>
							<g>
								<path style="fill:#A4E239;" d="M348.713,231.079c0,0,0.011-0.006,0.023-0.012c0.589-0.081,14.947-2.17,34.63-0.616          c10.426,0.824,60.967,14.67,45.235,29.393c0,0-17.409,5.354-40.987-5.358C364.036,243.775,348.713,231.079,348.713,231.079z          "/>
								<path style="fill:#98CE30;" d="M348.713,231.081c0,0,20.24,3.933,30.762,11.76c10.521,7.827,49.127,17.003,49.127,17.003          s-24.993-11.315-38.282-13.809C383.703,243.636,367.734,230.966,348.713,231.081z"/>
							</g>
							<path style="fill:#71AA37;" d="M348.713,231.079c0,0,0.011-0.006,0.023-0.012c0.589-0.081,14.947-2.17,34.63-0.616         c10.426,0.824,60.967,14.67,45.235,29.393c0,0,6.546-11.402-23.47-20.607c-22.802-6.992-36.892-4.431-36.892-4.431         L348.713,231.079z"/>
						</g>
						<g>
							<path style="fill:#71AA37;" d="M361.017,257.513l0.012-0.006c0.012-0.006,0.034-0.018,0.06-0.039         c0.032-0.01,0.057-0.031,0.091-0.049c0.032-0.01,0.057-0.031,0.091-0.049l0.206-0.11c4.469-2.474,40.84-21.358,67.119,2.574         c0.006,0.011,0.006,0.011,0.006,0.011S404.168,275.269,361.017,257.513z"/>
							<path style="fill:#98CE30;" d="M361.477,257.259c4.469-2.474,40.84-21.358,67.119,2.574c0.006,0.011,0.006,0.011,0.006,0.011         C393.123,242.015,365.316,255.256,361.477,257.259z"/>
						</g>
						<g>
							<path style="fill:#91C637;" d="M499.315,194.579c0,0-0.018,0.042-0.063,0.127c-0.861,1.977-11.733,27.436-9.393,55.074         c2.441,28.775-13.686,31.017-13.686,31.017s-0.001-0.008-0.01-0.015c-3.594-2.848-13.741-24.45-13.936-46.178         c-0.181-20.833,33.945-38.448,36.886-39.928C499.247,194.612,499.315,194.579,499.315,194.579z"/>
							<g>
								<path style="fill:#85C324;" d="M499.252,194.707c0,0-43.715,30.455-27.466,60.077          C471.786,254.784,494.755,199.384,499.252,194.707z"/>
								<path style="fill:#659B26;" d="M499.252,194.707c0,0-44.065,30.302-27.466,60.077          C471.786,254.784,455.128,230.683,499.252,194.707z"/>
							</g>
							<path style="fill:#659B26;" d="M474.422,288.284c0,0,4.487-2-0.612-15.323c0,0,5.822,4.804,4.942,9.902         C477.872,287.962,477.462,295.477,474.422,288.284z"/>
							<path style="fill:#659B26;" d="M499.252,194.707c-0.861,1.977-11.733,27.436-9.393,55.074         c2.441,28.775-13.686,31.017-13.686,31.017s-6.31-16.518-3.924-30.042C475.45,232.613,497.917,197.246,499.252,194.707z"/>
							<path style="fill:#659B26;" d="M499.113,194.677c0.09,0.02,0.139,0.03,0.139,0.03c-19.616,12.474-37.781,26.7-36.894,43.639         c0.879,16.694,13.49,41.787,13.805,42.436c-3.594-2.848-13.741-24.45-13.936-46.178         C462.045,213.772,496.172,196.157,499.113,194.677z"/>
						</g>
					</g>
					<g>
						<g>
							<g>
								<path style="fill:#92C737;" d="M498.271,192.377l-0.105,4.879l-0.178,8.043c0,0,12.035-5.371,22.5-17.439          c10.467-12.063,61.624-24.871,61.624-24.871s-0.008-0.002-0.018-0.009c-0.453-0.369-13.096-10.43-23.468-11.118          C548.066,151.16,510.729,150.202,498.271,192.377z"/>
								<path style="fill:#659B26;" d="M534.657,167.95c-22.613,10.801-36.491,29.306-36.491,29.306l-0.178,8.043          c0,0,12.035-5.371,22.5-17.439c10.467-12.063,61.624-24.871,61.624-24.871s-0.008-0.002-0.018-0.009          C581.244,162.615,559.279,156.189,534.657,167.95z"/>
							</g>
						</g>
						<path style="fill:#659B26;" d="M509.712,233.432c0,0-30.607-55.264,20.254-136.246c0,0-54.915,53.002-24.623,141.711        C507.967,244.577,512.2,239.064,509.712,233.432z"/>
						<g>
							<g>
								<path style="fill:#A4E239;" d="M489.471,214.427c0,0-14.091-13.893-20.471-25.631          c-11.107-20.434-31.538-24.563-39.978-26.298c-8.439-1.735-15.76-11.309-15.76-11.309s0.523,14.752,0.712,17.766          c0.611,9.727,11.511,25.804,30.135,40.642c18.624,14.838,45.701,8.403,45.701,8.403S496.078,217.714,489.471,214.427z"/>
								<path style="fill:#B9EF50;" d="M461.858,211.497c-0.369,0.193-0.738,0.385-1.107,0.578          C461.119,211.862,461.489,211.673,461.858,211.497z"/>
								<path style="fill:#B9EF50;" d="M450.479,200.916c-1.044,0.504-2.146,0.897-3.403,0.993          C448.238,201.45,449.371,201.127,450.479,200.916z"/>
								<path style="fill:#B9EF50;" d="M461.858,211.497c2.701-1.41,5.403-2.819,8.104-4.229          c-6.025-4.121-12.208-7.736-19.483-6.352c2.076-1.003,3.919-2.454,6.266-2.936c-5.836-4.768-12.473-4.653-19.53-3.204          c3.071-1.602,6.828-1.888,9.898-3.49c-4.94-4.119-9.441-8.468-13.294-13.712c2.022,1.736,3.624,4.806,6.294,5.645          c-1.144-2.193-1.621-4.177-0.992-6.179c1.907,7.934,7.076,12.492,14.228,16.573c-1.144-2.193-2.518-4.825-1.679-7.495          c2.556,7.037,7.515,12.263,14.648,15.238c-1.354-1.526-1.164-3.299-1.64-5.283c6.991,9.09,16.846,16.43,27.726,20.456          c0.673,1.321-2.594,1.47-2.594,1.47s-0.381,0.09-1.077,0.224C480.4,213.624,471.054,207.106,461.858,211.497z"/>
								<path style="fill:#71AA37;" d="M413.975,168.954c-0.189-3.014-0.712-17.766-0.712-17.766s0.109,0.143,0.313,0.392          c0.171,0.315,0.345,0.629,0.522,0.943c0.011,0.054,0.031,0.107,0.039,0.161c-1.614,34.699,33.302,70.242,70.378,64.29          c2.475-0.457,4.87-0.168,7.101,0.703c-0.783,0.272-1.804,0.32-1.804,0.32s-27.077,6.435-45.701-8.403          C425.486,194.758,414.586,178.68,413.975,168.954z"/>
								<path style="fill:#71AA37;" d="M429.023,162.497c8.439,1.735,28.871,5.864,39.978,26.298          c1.025,1.886,2.251,3.828,3.584,5.759c-11.641-14.59-24.003-28.164-45.421-30.808c-6.151-0.661-10.049-5.852-13.066-11.223          c-0.032-0.153-0.067-0.307-0.118-0.459C416.012,154.465,422.143,161.083,429.023,162.497z"/>
								<path style="fill:#71AA37;" d="M480.396,210.635c0,0-38.155-19.597-58.84-44.8c0,0,19.069,24.781,57.4,46.73          L480.396,210.635z"/>
								<path style="fill:#71AA37;" d="M474.714,210.078c0,0-8.229-3.414-15.928,3.579c0,0,4.743-6.24,14.136-5.352L474.714,210.078          z"/>
								<path style="fill:#71AA37;" d="M460.888,200.634c0,0-8.229-3.414-15.928,3.579c0,0,4.743-6.24,14.136-5.352L460.888,200.634          z"/>
								<path style="fill:#71AA37;" d="M451.485,193.861c0,0-8.229-3.414-15.928,3.579c0,0,4.743-6.24,14.136-5.352L451.485,193.861          z"/>
								<path style="fill:#71AA37;" d="M470.923,206.121c0,0-8.283-8.787-4.864-12.629c0,0-4.064,3.21,2.551,11.398L470.923,206.121          z"/>
								<path style="fill:#71AA37;" d="M456.823,196.82c0,0-6.966-9.864-3.041-13.187c0,0-4.474,2.607,0.924,11.643L456.823,196.82z          "/>
								<path style="fill:#71AA37;" d="M444.586,187.999c0,0-6.966-9.864-3.041-13.187c0,0-4.474,2.607,0.924,11.644          L444.586,187.999z"/>
								<g>
									<path style="fill:#B9EF50;" d="M414.9,157.85c0,0,2.929,7.499,2.27,10.274c-0.659,2.776,5.905,20.301,15.933,24.613           c0,0-13.088-12.332-14.143-21.547C417.905,161.974,414.9,157.85,414.9,157.85z"/>
									<path style="fill:#B9EF50;" d="M465.741,189.194c0,0-11.717-16.395-24.308-19.313           C441.432,169.881,453.405,176.577,465.741,189.194z"/>
								</g>
							</g>
							<path style="fill:#71AA37;" d="M498.721,218.132c-0.742-0.286-1.464-0.609-2.172-0.971         c-2.242-1.146-7.178-2.119-16.786-7.032c0,0-7.124-1.186-0.806,2.437c3.053,1.751,24.225,11.92,24.001,9.69         C502.702,219.715,500.805,218.935,498.721,218.132z"/>
						</g>
						<g>
							<path style="fill:#91C637;" d="M436.023,114.949c0,0,0.034,0.018,0.107,0.051c1.593,0.854,21.961,11.963,34.766,31.363         C484.225,166.564,496,159.669,496,159.669s-0.003-0.006-0.001-0.015c0.887-3.739-3.649-23.22-14.798-37.618         c-10.693-13.802-42.292-7.68-44.995-7.127C436.084,114.936,436.023,114.949,436.023,114.949z"/>
							<g>
								<path style="fill:#85C324;" d="M436.13,115c0,0,44.572-2.65,49.255,25.275C485.385,140.275,441.517,115.743,436.13,115z"/>
								<path style="fill:#659B26;" d="M436.13,115c0,0,44.723-2.933,49.255,25.275C485.385,140.275,483.837,115.771,436.13,115z"/>
							</g>
							<path style="fill:#659B26;" d="M501.038,163.687c0,0-3.991,1.013-7.55-10.401c0,0-1.337,6.183,1.888,9.081         C498.601,165.265,502.772,169.997,501.038,163.687z"/>
							<path style="fill:#659B26;" d="M436.13,115c1.593,0.854,21.961,11.963,34.766,31.363         C484.225,166.564,496,159.669,496,159.669s-4.421-14.144-13.011-21.804C471.466,127.589,438.327,115.978,436.13,115z"/>
							<path style="fill:#659B26;" d="M436.206,114.909c-0.049,0.06-0.076,0.091-0.076,0.091         c19.382-1.973,38.719-2.041,46.927,9.565c8.086,11.441,12.812,34.498,12.942,35.088c0.887-3.739-3.649-23.22-14.798-37.618         C470.508,108.234,438.91,114.355,436.206,114.909z"/>
						</g>
					</g>
				</g>
			</g>
		</g>
	</g>
</g>

</svg>
