<svg xmlns="http://www.w3.org/2000/svg" xmlns:xlink="http://www.w3.org/1999/xlink" version="1.1" x="0px" y="0px" viewBox="0 0 500 500" width="500px" height="500px" xml:space="preserve">

<g>
	<g>
		<g>
			
			
			<g>
				
					
				
				<g style="opacity:0.2;">
					<path style="fill:#91C636;" d="M499.003,19.148c0,0-0.008,0.042-0.03,0.129c-0.365,1.98-4.874,27.431,3.094,52.072       c8.3,25.654-5.893,31.1-5.893,31.1s-0.003-0.007-0.012-0.011c-3.87-1.831-17.663-19.333-22.431-39.052       c-4.567-18.908,22.747-42.139,25.11-44.106C498.949,19.192,499.003,19.148,499.003,19.148z"/>
					<g>
						<path style="fill:#7EB71A;" d="M498.973,19.277c0,0-33.322,36.934-12.285,60.441        C486.688,79.718,495.871,24.481,498.973,19.277z"/>
						<path style="fill:#659B26;" d="M498.973,19.277c0,0-33.673,36.869-12.285,60.441        C486.688,79.718,466.445,61.319,498.973,19.277z"/>
					</g>
					<path style="fill:#659B26;" d="M498.973,19.277c-0.365,1.98-4.874,27.431,3.094,52.072c8.3,25.654-5.893,31.1-5.893,31.1       s-9.229-13.689-9.916-26.492C485.336,58.78,498.295,21.869,498.973,19.277z"/>
					<path style="fill:#659B26;" d="M498.84,19.28c0.086-0.001,0.133-0.003,0.133-0.003c-15.204,15.489-28.719,32.266-24.333,47.483       c4.327,14.997,21.098,35.153,21.522,35.677c-3.87-1.831-17.663-19.333-22.431-39.052       C469.164,44.478,496.478,21.247,498.84,19.28z"/>
				</g>
				<g style="opacity:0.2;">
					<path style="fill:#91C636;" d="M287.58,60.012c0,0,0.024,0.018,0.078,0.051c1.144,0.834,15.756,11.64,23.609,28.068       c8.174,17.106,18.051,13.019,18.051,13.019s-0.002-0.005,0.001-0.012c1.09-2.806-0.338-18.409-7.443-30.778       c-6.815-11.858-31.991-10.5-34.148-10.361C287.629,60.008,287.58,60.012,287.58,60.012z"/>
					<g>
						<path style="fill:#7EB71A;" d="M287.658,60.063c0,0,34.869,2.729,35.505,24.9C323.163,84.963,291.758,61.218,287.658,60.063z"/>
						<path style="fill:#659B26;" d="M287.658,60.063c0,0,35.017,2.526,35.505,24.9C323.163,84.963,324.593,65.783,287.658,60.063z"/>
					</g>
					<path style="fill:#659B26;" d="M287.658,60.063c1.144,0.834,15.756,11.64,23.609,28.068       c8.174,17.106,18.051,13.019,18.051,13.019s-1.912-11.45-7.755-18.315C313.725,73.625,289.257,61.058,287.658,60.063z"/>
					<path style="fill:#659B26;" d="M287.727,60c-0.044,0.041-0.069,0.063-0.069,0.063c15.251,0.55,30.262,2.573,35.385,12.46       c5.046,9.745,6.238,28.143,6.275,28.616c1.09-2.806-0.338-18.409-7.443-30.778C315.059,58.504,289.884,59.861,287.727,60z"/>
				</g>
				<g style="opacity:0.2;">
					<path style="fill:#91C636;" d="M56.381,178.873c0,0-0.009-0.042-0.023-0.13c-0.438-1.965-6.236-27.154-23.201-46.72       c-17.667-20.369-6.731-30.929-6.731-30.929s0.005,0.005,0.015,0.006c4.278,0.172,23.814,10.891,35.91,27.178       c11.594,15.619-4.467,47.678-5.873,50.412C56.413,178.812,56.381,178.873,56.381,178.873z"/>
					<g>
						<path style="fill:#7EB71A;" d="M56.358,178.743c0,0,16.235-47.02-12.316-60.434C44.042,118.309,57.179,172.741,56.358,178.743        z"/>
						<path style="fill:#659B26;" d="M56.358,178.743c0,0,16.583-47.098-12.316-60.434        C44.042,118.309,69.865,127.332,56.358,178.743z"/>
					</g>
					<path style="fill:#659B26;" d="M56.358,178.743c-0.438-1.965-6.236-27.154-23.201-46.72       c-17.667-20.369-6.731-30.929-6.731-30.929s13.845,8.993,19.482,20.509C53.47,137.052,55.969,176.093,56.358,178.743z"/>
					<path style="fill:#659B26;" d="M56.479,178.689c-0.079,0.034-0.121,0.054-0.121,0.054c7.94-20.2,13.823-40.924,3.838-53.217       c-9.844-12.113-33.159-24.11-33.754-24.427c4.278,0.172,23.814,10.891,35.91,27.178       C73.946,143.896,57.885,175.955,56.479,178.689z"/>
				</g>
				<g style="opacity:0.2;">
					<g>
						<path style="fill:#7EB71A;" d="M391.531,125.223c0,0-0.006,0.008-0.012,0.017c-0.133,0.458-3.476,11.596-4.556,27.386        c-0.571,8.364,4.471,50.063,17.993,39.319c0,0,6.289-13.175,0.565-33.128S391.531,125.223,391.531,125.223z"/>
						<path style="fill:#91C636;" d="M391.533,125.223c0,0,0.741,16.51,5.712,25.772c4.97,9.262,7.712,40.95,7.712,40.95        s-6.036-21.146-6.453-31.976C397.378,154.441,389.208,140.292,391.533,125.223z"/>
					</g>
					<path style="fill:#91C636;" d="M391.531,125.223c0,0-0.006,0.008-0.012,0.017c-0.133,0.458-3.476,11.596-4.556,27.386       c-0.571,8.364,4.471,50.063,17.993,39.319c0,0-9.81,3.851-13.582-21.03c-2.866-18.901,0.82-29.772,0.82-29.772L391.531,125.223       z"/>
				</g>
				<g style="opacity:0.2;">
					<g>
						<path style="fill:#7EB71A;" d="M353.119,385.118c0,0,0.01-0.001,0.021-0.001c0.436-0.192,11.12-4.785,23.915-14.101        c6.777-4.935,35.496-35.586,18.575-39.048c0,0-14.137,3.643-25.752,20.848C358.263,370.02,353.119,385.118,353.119,385.118z"/>
						<path style="fill:#91C636;" d="M353.118,385.117c0,0,12.177-11.174,16.082-20.933s26.429-32.216,26.429-32.216        s-12.328,18.21-20.36,25.486C371.755,361.868,366.16,377.219,353.118,385.117z"/>
					</g>
					<path style="fill:#91C636;" d="M353.119,385.118c0,0,0.01-0.001,0.021-0.001c0.436-0.192,11.12-4.785,23.915-14.101       c6.777-4.935,35.496-35.586,18.575-39.048c0,0,9.253,5.044-7.392,23.918c-12.644,14.338-23.343,18.497-23.343,18.497       L353.119,385.118z"/>
				</g>
				<g style="opacity:0.2;">
					<g>
						<path style="fill:#7EB71A;" d="M273.968,189.994c0,0,0.005,0.009,0.01,0.018c0.368,0.303,9.277,7.778,23.353,15.013        c7.456,3.832,47.751,15.689,43.229-0.98c0,0-9.614-10.986-30.205-13.618S273.968,189.994,273.968,189.994z"/>
						<path style="fill:#91C636;" d="M273.968,189.993c0,0,15.458,5.848,25.93,4.944c10.472-0.903,40.662,9.108,40.662,9.108        s-21.809-2.817-31.922-6.716C303.116,196.177,286.889,198.086,273.968,189.993z"/>
					</g>
					<path style="fill:#91C636;" d="M273.968,189.994c0,0,0.005,0.009,0.01,0.018c0.368,0.303,9.277,7.778,23.353,15.013       c7.456,3.832,47.751,15.689,43.229-0.98c0,0-0.341,10.533-24.686,4.16c-18.494-4.841-27.021-12.525-27.021-12.525       L273.968,189.994z"/>
				</g>
				<g style="opacity:0.2;">
					<g>
						<path style="fill:#7EB71A;" d="M66.438,130.963c0,0,0.006-0.009,0.011-0.017c0.101-0.466,2.648-11.813,2.609-27.639        c-0.021-8.383-7.997-49.622-20.726-37.95c0,0-5.343,13.586,1.776,33.085C57.229,117.941,66.438,130.963,66.438,130.963z"/>
						<path style="fill:#91C636;" d="M66.437,130.963c0,0-1.906-16.417-7.518-25.304c-5.612-8.887-10.586-40.302-10.586-40.302        s7.515,20.666,8.696,31.44C58.542,102.231,67.691,115.768,66.437,130.963z"/>
					</g>
					<path style="fill:#91C636;" d="M66.438,130.963c0,0,0.006-0.009,0.011-0.017c0.101-0.466,2.648-11.813,2.609-27.639       c-0.021-8.383-7.997-49.622-20.726-37.95c0,0,9.513-4.535,15.034,20.017c4.194,18.652,1.286,29.755,1.286,29.755       L66.438,130.963z"/>
				</g>
				<g style="opacity:0.2;">
					<g>
						<path style="fill:#7EB71A;" d="M218.372,106.453c0,0-0.002-0.01-0.004-0.02c-0.255-0.402-6.41-10.27-17.551-21.51        c-5.902-5.954-40.539-29.714-41.405-12.464c0,0,5.736,13.425,24.498,22.308S218.372,106.453,218.372,106.453z"/>
						<path style="fill:#91C636;" d="M218.371,106.454c0,0-12.885-10.35-23.122-12.736c-10.237-2.386-35.838-21.26-35.838-21.26        s19.863,9.436,28.269,16.277C192.574,91.542,208.594,94.754,218.371,106.454z"/>
					</g>
					<path style="fill:#91C636;" d="M218.372,106.453c0,0-0.002-0.01-0.004-0.02c-0.255-0.402-6.41-10.27-17.551-21.51       c-5.902-5.954-40.539-29.714-41.405-12.464c0,0,3.589-9.909,24.76,3.694c16.084,10.334,21.81,20.282,21.81,20.282       L218.372,106.453z"/>
				</g>
				
				<g style="opacity:0.2;">
					<path style="fill:#7EB71A;" d="M10.624,44.774c0,0,3.67,18.992,9.764,30.542c10.608,20.108,2.898,38.968-0.263,46.775       c-3.16,7.807,0.663,18.95,0.663,18.95s-11.719-8.418-14.069-10.205c-7.583-5.767-14.759-23.346-16.741-46.538       C-12.003,61.107,7.902,42.563,7.902,42.563S11.529,37.617,10.624,44.774z"/>
					<path style="fill:#91C636;" d="M0.491,83.819c-0.976,0.576-1.893,1.26-2.652,2.231C-1.158,85.353-0.281,84.607,0.491,83.819z"/>
					<path style="fill:#91C636;" d="M-1.952,68.829c2.61-1.434,5.221-2.868,7.831-4.303c0.089,7.134-0.32,14.124-5.388,19.293       c1.941-1.146,4.119-1.859,5.784-3.508c0.717,7.332-2.972,12.67-7.974,17.626c2.967-1.63,5.236-4.532,8.203-6.162       c0.675,6.251,1.775,12.269,3.955,18.245c-0.317-2.585-1.947-5.552-1.183-8.179c1.165,2.119,2.52,3.582,4.49,4.155       c-5.422-5.85-6.33-12.525-5.776-20.555c1.164,2.119,2.562,4.663,5.189,5.427c-4.341-5.892-5.906-12.758-4.462-20.174       c0.508,1.928,2.054,2.734,3.41,4.197c-3.608-10.613-4.241-22.608-1.622-33.641c-0.71-1.264-2.601,1.314-2.601,1.314       s-0.28,0.261-0.765,0.755C6.363,52.59,6.602,63.726-1.952,68.829z"/>
					<path style="fill:#659B26;" d="M6.719,130.837c2.35,1.787,14.069,10.205,14.069,10.205s-0.057-0.166-0.15-0.467       c-0.163-0.309-0.325-0.622-0.485-0.936c-0.038-0.038-0.071-0.083-0.11-0.12C-9.063,122.033-19.065,74.368,5.865,47.427       c1.712-1.766,2.775-3.871,3.275-6.159c-0.646,0.49-1.238,1.294-1.238,1.294s-19.905,18.544-17.923,41.736       C-8.039,107.491-0.864,125.07,6.719,130.837z"/>
					<path style="fill:#659B26;" d="M20.125,122.091c3.16-7.807,10.871-26.667,0.263-46.775c-0.979-1.856-1.895-3.906-2.744-6.037       c5.564,17.376,9.91,34.788,0.457,53.647c-2.794,5.362-0.683,11.347,2.052,16.711c0.107,0.109,0.213,0.221,0.309,0.345       C19.612,137.029,17.549,128.455,20.125,122.091z"/>
					<path style="fill:#659B26;" d="M8.792,54.213c0,0-4.728,41.661,4.572,72.145c0,0-9.831-28.941-6.922-72.02L8.792,54.213z"/>
					<path style="fill:#659B26;" d="M6.167,59.138c0,0-1.681,8.545-11.542,11.02c0,0,7.647-0.478,12.013-8.602L6.167,59.138z"/>
					<path style="fill:#659B26;" d="M6.36,75.503c0,0-1.681,8.545-11.542,11.02c0,0,7.647-0.478,12.013-8.602L6.36,75.503z"/>
					<path style="fill:#659B26;" d="M6.776,86.823c0,0-1.681,8.545-11.542,11.02c0,0,7.647-0.478,12.013-8.602L6.776,86.823z"/>
					<path style="fill:#659B26;" d="M7.333,64.365c0,0,2.662,11.5,7.64,10.799c0,0-4.813,1.567-7.892-8.251L7.333,64.365z"/>
					<path style="fill:#659B26;" d="M7.26,80.877c0,0,4.252,11.012,9.082,9.619c0,0-4.545,2.228-8.973-7.06L7.26,80.877z"/>
					<path style="fill:#659B26;" d="M7.808,95.612c0,0,4.252,11.012,9.082,9.618c0,0-4.545,2.228-8.973-7.06L7.808,95.612z"/>
					<g>
						<path style="fill:#91C636;" d="M16.255,136.1c0,0-4.514-6.446-7.129-7.413C6.51,127.72-4.193,112.884-2.268,102.389        c0,0,2.943,17.329,9.869,23.181C14.527,131.421,16.255,136.1,16.255,136.1z"/>
						<path style="fill:#91C636;" d="M18.297,77.753c0,0,6.991,18.416,2.544,30.241C20.841,107.994,21.879,94.626,18.297,77.753z"/>
					</g>
				</g>
				<g style="opacity:0.2;">
					<path style="fill:#7EB71A;" d="M137.344,125.023c0,0,3.784,14.695,9.109,23.447c9.27,15.236,4.137,30.374,2.036,36.638       c-2.1,6.264,1.428,14.807,1.428,14.807s-9.58-6.03-11.505-7.316c-6.214-4.152-12.675-17.573-15.339-35.637       c-2.664-18.065,12.034-33.54,12.034-33.54S137.71,119.375,137.344,125.023z"/>
					<path style="fill:#91C636;" d="M128.65,144.461c-0.27,0.171-0.54,0.341-0.81,0.512       C128.123,144.81,128.391,144.638,128.65,144.461z"/>
					<path style="fill:#91C636;" d="M131.282,156.082c-0.737,0.498-1.422,1.077-1.97,1.874       C130.064,157.362,130.715,156.735,131.282,156.082z"/>
					<path style="fill:#91C636;" d="M128.65,144.461c1.975-1.248,3.951-2.496,5.926-3.745c0.412,5.582,0.426,11.075-3.294,15.365       c1.465-0.99,3.136-1.653,4.361-3.024c0.913,5.706-1.72,10.063-5.399,14.184c2.245-1.419,3.882-3.8,6.128-5.219       c0.829,4.862,1.978,9.522,3.971,14.097c-0.372-2.009-1.791-4.254-1.318-6.348c1.013,1.604,2.145,2.684,3.715,3.038       c-4.526-4.321-5.557-9.504-5.508-15.819c1.013,1.604,2.229,3.528,4.323,4c-3.682-4.406-5.236-9.707-4.461-15.583       c0.49,1.486,1.739,2.042,2.871,3.123c-3.334-8.137-4.405-17.499-2.882-26.264c-0.617-0.955-1.974,1.154-1.974,1.154       s-0.207,0.218-0.563,0.628C134.383,131.347,135.104,140.055,128.65,144.461z"/>
					<path style="fill:#659B26;" d="M138.412,192.599c1.926,1.286,11.505,7.316,11.505,7.316s-0.053-0.128-0.14-0.359       c-0.143-0.234-0.284-0.471-0.424-0.709c-0.031-0.028-0.059-0.062-0.092-0.088c-23.629-12.297-33.746-49.14-15.517-71.431       c1.256-1.465,1.987-3.164,2.269-4.979c-0.482,0.414-0.907,1.073-0.907,1.073s-14.697,15.475-12.034,33.54       C125.737,175.026,132.198,188.447,138.412,192.599z"/>
					<path style="fill:#659B26;" d="M148.49,185.108c2.101-6.264,7.234-21.402-2.036-36.638c-0.856-1.407-1.671-2.967-2.438-4.595       c5.19,13.339,9.428,26.765,2.93,41.985c-1.931,4.333,0.009,8.917,2.408,12.987c0.089,0.08,0.177,0.163,0.259,0.255       C148.804,196.83,146.778,190.215,148.49,185.108z"/>
					<path style="fill:#659B26;" d="M136.363,132.501c0,0-1.705,32.848,7.038,56.272c0,0-9.086-22.19-8.873-56.061L136.363,132.501z       "/>
					<path style="fill:#659B26;" d="M134.543,136.483c0,0-0.906,6.771-8.509,9.182c0,0,5.965-0.741,8.994-7.311L134.543,136.483z"/>
					<path style="fill:#659B26;" d="M135.479,149.288c0,0-0.906,6.771-8.509,9.182c0,0,5.965-0.741,8.994-7.311L135.479,149.288z"/>
					<path style="fill:#659B26;" d="M136.347,158.132c0,0-0.906,6.771-8.509,9.182c0,0,5.965-0.741,8.994-7.311L136.347,158.132z"/>
					<path style="fill:#659B26;" d="M135.706,140.521c0,0,2.636,8.877,6.5,8.09c0,0-3.694,1.458-6.575-6.083L135.706,140.521z"/>
					<path style="fill:#659B26;" d="M136.441,153.453c0,0,3.857,8.419,7.572,7.096c0,0-3.452,1.962-7.364-5.098L136.441,153.453z"/>
					<path style="fill:#659B26;" d="M137.576,164.965c0,0,3.857,8.419,7.572,7.096c0,0-3.452,1.963-7.364-5.098L137.576,164.965z"/>
					<g>
						<path style="fill:#91C636;" d="M146.131,196.263c0,0-3.844-4.831-5.938-5.463c-2.094-0.632-11.186-11.736-10.182-20.046        c0,0,3.135,13.428,8.839,17.678C144.554,192.682,146.131,196.263,146.131,196.263z"/>
						<path style="fill:#91C636;" d="M144.933,150.478c0,0,6.357,14.085,3.441,23.557        C148.375,174.036,148.547,163.518,144.933,150.478z"/>
					</g>
				</g>
				<g style="opacity:0.2;">
					<path style="fill:#7EB71A;" d="M92.517-60.402c0,0,4.916,18.708,11.759,29.831c11.912,19.364,5.464,38.692,2.826,46.69       c-2.638,7.998,1.913,18.865,1.913,18.865s-12.249-7.626-14.712-9.254C86.355,20.477,78.035,3.41,74.526-19.6       c-3.509-23.011,15.129-42.829,15.129-42.829S92.947-67.603,92.517-60.402z"/>
					<path style="fill:#91C636;" d="M81.556-35.569c2.51-1.604,5.02-3.207,7.53-4.811c0.56,7.113,0.613,14.114-4.102,19.607       c1.861-1.271,3.988-2.127,5.539-3.882c1.2,7.268-2.129,12.838-6.793,18.114c2.853-1.823,4.925-4.868,7.778-6.691       c1.087,6.193,2.581,12.125,5.151,17.944c-0.487-2.559-2.309-5.412-1.721-8.083c1.302,2.038,2.751,3.408,4.755,3.849       c-5.796-5.48-7.143-12.08-7.12-20.129c1.302,2.038,2.864,4.483,5.536,5.072c-4.721-5.593-6.736-12.34-5.784-19.835       c0.634,1.891,2.23,2.593,3.679,3.963c-4.301-10.352-5.725-22.279-3.839-33.461c-0.792-1.214-2.509,1.483-2.509,1.483       s-0.262,0.279-0.714,0.804C88.781-52.322,89.755-41.226,81.556-35.569z"/>
					<path style="fill:#659B26;" d="M94.303,25.731c2.462,1.628,14.712,9.254,14.712,9.254s-0.068-0.162-0.18-0.456       c-0.184-0.298-0.365-0.599-0.546-0.902c-0.04-0.036-0.076-0.078-0.118-0.112C77.974,17.988,64.847-28.912,87.943-57.441       c1.592-1.876,2.513-4.046,2.861-6.361c-0.612,0.531-1.15,1.373-1.15,1.373S71.017-42.611,74.526-19.6       C78.035,3.41,86.355,20.477,94.303,25.731z"/>
					<path style="fill:#659B26;" d="M107.102,16.119c2.638-7.998,9.086-27.326-2.826-46.69c-1.1-1.788-2.149-3.772-3.136-5.842       c6.699,16.971,12.185,34.058,3.998,53.5c-2.434,5.535,0.067,11.367,3.151,16.539c0.114,0.102,0.227,0.207,0.331,0.324       C107.576,31.059,104.951,22.639,107.102,16.119z"/>
					<path style="fill:#659B26;" d="M91.312-50.863c0,0-1.967,41.882,9.325,71.686c0,0-11.721-28.229-11.662-71.405L91.312-50.863z"/>
					<g>
						<path style="fill:#91C636;" d="M104.165,30.353c0,0-4.93-6.134-7.604-6.927C93.887,22.634,82.229,8.537,83.456-2.062        c0,0,4.081,17.097,11.378,22.479C102.132,25.798,104.165,30.353,104.165,30.353z"/>
						<path style="fill:#91C636;" d="M102.35-28.002c0,0,8.192,17.914,4.535,30.007C106.885,2.006,107.039-11.402,102.35-28.002z"/>
					</g>
				</g>
				<g style="opacity:0.2;">
					<path style="fill:#7EB71A;" d="M93.968,24.65c0,0,9.104,14.435,17.816,21.977c15.165,13.129,14.873,31.103,14.777,38.534       c-0.096,7.43,6.619,15.365,6.619,15.365s-12.331-3.163-14.836-3.879c-8.082-2.31-19.615-14.46-28.678-32.889       s1.355-40.053,1.355-40.053S92.418,18.477,93.968,24.65z"/>
					<path style="fill:#91C636;" d="M91.34,48.455c-0.23,0.275-0.461,0.551-0.691,0.826C90.896,49.01,91.124,48.734,91.34,48.455z"/>
					<path style="fill:#91C636;" d="M98.154,59.994c-0.618,0.786-1.152,1.642-1.465,2.684C97.29,61.784,97.772,60.889,98.154,59.994       z"/>
					<path style="fill:#91C636;" d="M91.34,48.455c1.686-2.016,3.372-4.031,5.058-6.047c2.36,5.836,4.264,11.713,1.756,17.587       c1.228-1.564,2.79-2.848,3.63-4.737c2.94,5.797,1.618,11.367-0.905,17.045c1.916-2.291,2.851-5.404,4.767-7.695       c2.559,4.922,5.391,9.517,9.099,13.73c-1.089-2.023-3.38-3.94-3.594-6.344c1.637,1.369,3.22,2.137,5.023,1.976       c-6.332-3.071-9.218-8.267-11.337-15.046c1.637,1.369,3.6,3.012,6.005,2.798c-5.457-3.452-8.944-8.594-10.134-15.153       c1.035,1.423,2.565,1.589,4.148,2.357C98.487,41.357,94.122,31.7,92.739,21.791c-0.989-0.811-1.717,1.914-1.717,1.914       s-0.146,0.305-0.387,0.866C92.971,32.441,96.737,41.518,91.34,48.455z"/>
					<path style="fill:#659B26;" d="M118.345,96.647c2.504,0.716,14.836,3.879,14.836,3.879s-0.1-0.119-0.273-0.336       c-0.233-0.202-0.466-0.407-0.698-0.614c-0.043-0.019-0.085-0.046-0.129-0.063c-29.531-5.044-53.031-41.02-41.174-71.157       c0.842-2.001,1.04-4.072,0.718-6.112c-0.374,0.61-0.602,1.461-0.602,1.461s-10.418,21.624-1.355,40.053       S110.263,94.337,118.345,96.647z"/>
					<path style="fill:#659B26;" d="M126.561,85.161c0.096-7.43,0.388-25.405-14.777-38.534c-1.4-1.212-2.81-2.603-4.19-4.083       c10.144,12.5,19.297,25.42,17.572,43.952c-0.578,5.304,3.076,9.546,7.044,13.079c0.123,0.055,0.246,0.113,0.365,0.185       C130.928,97.605,126.483,91.218,126.561,85.161z"/>
					<path style="fill:#659B26;" d="M95.488,32.996c0,0,9.468,35.762,26.883,57.839c0,0-17.358-20.639-28.775-56.982L95.488,32.996z       "/>
					<path style="fill:#659B26;" d="M94.908,37.886c0,0,1.357,7.563-5.955,12.758c0,0,6.133-2.844,7.118-10.921L94.908,37.886z"/>
					<path style="fill:#659B26;" d="M100.313,51.277c0,0,1.357,7.563-5.955,12.758c0,0,6.133-2.844,7.118-10.921L100.313,51.277z"/>
					<path style="fill:#659B26;" d="M104.283,60.449c0,0,1.357,7.563-5.955,12.758c0,0,6.133-2.844,7.118-10.921L104.283,60.449z"/>
					<path style="fill:#659B26;" d="M97.543,41.81c0,0,5.874,8.6,9.742,6.428c0,0-3.454,2.831-9.132-4.253L97.543,41.81z"/>
					<path style="fill:#659B26;" d="M102.775,55.406c0,0,7.025,7.689,10.549,4.995c0,0-3.022,3.289-9.639-2.928L102.775,55.406z"/>
					<path style="fill:#659B26;" d="M107.949,67.342c0,0,7.025,7.689,10.549,4.995c0,0-3.022,3.288-9.639-2.928L107.949,67.342z"/>
					<g>
						<path style="fill:#91C636;" d="M127.87,97.917c0,0-5.777-3.852-8.237-3.809c-2.46,0.043-16.013-8.721-17.795-17.966        c0,0,7.974,13.302,15.543,15.892C124.951,94.624,127.87,97.917,127.87,97.917z"/>
						<path style="fill:#91C636;" d="M110.846,49.3c0,0,11.65,12.897,11.785,24.043C122.631,73.343,119.199,62.021,110.846,49.3z"/>
					</g>
				</g>
				<g style="opacity:0.2;">
					<path style="fill:#7EB71A;" d="M459.291,127.474c0,0-11.327-12.766-21.147-18.793c-17.095-10.493-19.725-28.276-20.837-35.624       c-1.112-7.347-9.026-14.086-9.026-14.086s12.681,1.12,15.269,1.419c8.35,0.967,21.702,11.084,33.637,27.797       c11.935,16.713,5.165,39.742,5.165,39.742S461.823,133.313,459.291,127.474z"/>
					<path style="fill:#91C636;" d="M458.019,103.558c0.183-0.309,0.365-0.618,0.548-0.928       C458.367,102.939,458.188,103.248,458.019,103.558z"/>
					<path style="fill:#91C636;" d="M449.423,93.278c0.482-0.876,0.87-1.808,1.01-2.886       C449.984,91.372,449.655,92.333,449.423,93.278z"/>
					<path style="fill:#91C636;" d="M458.019,103.558c-1.336,2.263-2.673,4.525-4.009,6.788c-3.276-5.376-6.109-10.865-4.587-17.068       c-0.958,1.743-2.291,3.264-2.813,5.264c-3.842-5.243-3.442-10.954-1.874-16.966c-1.519,2.572-1.936,5.795-3.455,8.367       c-3.324-4.441-6.865-8.515-11.207-12.071c1.403,1.82,3.975,3.339,4.577,5.677c-1.837-1.085-3.524-1.586-5.277-1.134       c6.747,2.003,10.438,6.661,13.629,13.006c-1.837-1.085-4.042-2.387-6.379-1.785c5.945,2.52,10.221,7.028,12.46,13.306       c-1.253-1.235-2.789-1.152-4.476-1.652c7.512,6.433,13.387,15.254,16.36,24.807c1.107,0.64,1.384-2.167,1.384-2.167       s0.095-0.324,0.242-0.917C459.01,119.624,453.821,111.28,458.019,103.558z"/>
					<path style="fill:#659B26;" d="M423.55,60.39c-2.587-0.3-15.269-1.419-15.269-1.419s0.118,0.101,0.324,0.287       c0.263,0.161,0.526,0.326,0.789,0.492c0.046,0.012,0.091,0.031,0.137,0.041c29.958,0.183,58.986,31.867,52.18,63.529       c-0.505,2.111-0.366,4.187,0.284,6.148c0.27-0.662,0.357-1.539,0.357-1.539s6.77-23.029-5.165-39.742       C445.252,71.473,431.899,61.357,423.55,60.39z"/>
					<path style="fill:#659B26;" d="M417.307,73.057c1.112,7.347,3.741,25.131,20.837,35.624c1.578,0.969,3.195,2.113,4.798,3.348       c-12.038-10.688-23.168-21.95-24.474-40.517c-0.291-5.327-4.584-8.92-9.073-11.762c-0.131-0.035-0.261-0.072-0.39-0.123       C410.979,61.487,416.401,67.068,417.307,73.057z"/>
					<path style="fill:#659B26;" d="M456.437,119.485c0,0-15.148-33.75-35.916-52.708c0,0,20.479,17.547,37.644,51.555       L456.437,119.485z"/>
					<path style="fill:#659B26;" d="M456.215,114.566c0,0-2.567-7.242,3.805-13.556c0,0-5.59,3.802-5.25,11.932L456.215,114.566z"/>
					<path style="fill:#659B26;" d="M448.707,102.231c0,0-2.567-7.242,3.805-13.555c0,0-5.59,3.802-5.25,11.932L448.707,102.231z"/>
					<path style="fill:#659B26;" d="M443.301,93.825c0,0-2.567-7.242,3.805-13.556c0,0-5.59,3.802-5.25,11.932L443.301,93.825z"/>
					<path style="fill:#659B26;" d="M452.978,111.122c0,0-7.193-7.532-10.656-4.762c0,0,2.949-3.354,9.701,2.714L452.978,111.122z"/>
					<path style="fill:#659B26;" d="M445.608,98.556c0,0-8.18-6.447-11.22-3.217c0,0,2.448-3.736,9.986,1.324L445.608,98.556z"/>
					<path style="fill:#659B26;" d="M438.565,87.617c0,0-8.18-6.447-11.22-3.217c0,0,2.448-3.735,9.986,1.324L438.565,87.617z"/>
					<g>
						<path style="fill:#91C636;" d="M413.944,60.682c0,0,6.325,2.863,8.746,2.421c2.421-0.442,17.217,6.006,20.476,14.839        c0,0-10.027-11.831-17.917-13.158C417.36,63.457,413.944,60.682,413.944,60.682z"/>
						<path style="fill:#91C636;" d="M438.635,105.891c0,0-13.589-10.835-15.531-21.811        C423.104,84.08,428.328,94.694,438.635,105.891z"/>
					</g>
				</g>
				<g style="opacity:0.2;">
					<path style="fill:#7EB71A;" d="M532.629,169.48c0,0-16.393,4.746-26.054,11.025c-16.818,10.931-34.007,5.667-41.12,3.516       c-7.113-2.152-16.598,2.1-16.598,2.1s6.458-10.971,7.84-13.179c4.459-7.125,19.331-14.838,39.55-18.437       c20.219-3.599,38.108,12.406,38.108,12.406S538.99,169.701,532.629,169.48z"/>
					<path style="fill:#91C636;" d="M497.51,163.703c-0.584-0.811-1.259-1.562-2.173-2.151       C496.03,162.377,496.757,163.088,497.51,163.703z"/>
					<path style="fill:#91C636;" d="M510.486,160.356c1.469,2.179,2.939,4.357,4.408,6.536c-6.262,0.65-12.436,0.85-17.384-3.189       c1.162,1.614,1.963,3.471,3.545,4.801c-6.384,1.217-11.37-1.596-16.126-5.595c1.67,2.477,4.402,4.237,6.072,6.714       c-5.438,1.094-10.638,2.542-15.715,4.936c2.246-0.485,4.723-2.156,7.092-1.695c-1.769,1.193-2.945,2.501-3.291,4.278       c4.706-5.233,10.498-6.565,17.599-6.721c-1.769,1.193-3.892,2.624-4.353,4.994c4.83-4.286,10.737-6.211,17.368-5.537       c-1.654,0.601-2.238,2.024-3.415,3.332c9.036-4.021,19.525-5.537,29.429-4.119c1.053-0.725-1.363-2.18-1.363-2.18       s-0.252-0.225-0.724-0.612C525.421,166.361,515.656,167.464,510.486,160.356z"/>
					<path style="fill:#659B26;" d="M456.697,172.942c-1.382,2.208-7.84,13.179-7.84,13.179s0.142-0.063,0.399-0.169       c0.259-0.168,0.52-0.335,0.783-0.501c0.031-0.036,0.067-0.069,0.096-0.106c13.033-26.975,54.113-39.581,79.782-19.834       c1.689,1.363,3.624,2.128,5.673,2.385c-0.482-0.528-1.237-0.984-1.237-0.984s-17.888-16.005-38.108-12.406       C476.028,158.104,461.157,165.817,456.697,172.942z"/>
					<path style="fill:#659B26;" d="M465.455,184.02c7.113,2.152,24.302,7.416,41.12-3.516c1.553-1.009,3.28-1.978,5.084-2.894       c-14.822,6.281-29.773,11.494-47.101,4.699c-4.936-2.026-10.025,0.309-14.519,3.142c-0.087,0.103-0.177,0.205-0.278,0.299       C452.288,184.765,459.657,182.266,465.455,184.02z"/>
					<path style="fill:#659B26;" d="M524.189,168.626c0,0-36.985-0.817-63.025,9.795c0,0,24.642-10.956,62.726-11.851       L524.189,168.626z"/>
					<path style="fill:#659B26;" d="M505.288,168.194c0,0-7.643-0.792-10.607-9.259c0,0,1.033,6.681,8.52,9.866L505.288,168.194z"/>
					<path style="fill:#659B26;" d="M495.375,169.466c0,0-7.643-0.792-10.607-9.258c0,0,1.033,6.681,8.52,9.866L495.375,169.466z"/>
					<path style="fill:#659B26;" d="M500.638,169.415c0,0-9.335,4.618-7.724,8.75c0,0-2.322-3.815,5.485-8.449L500.638,169.415z"/>
					<path style="fill:#659B26;" d="M487.735,171.077c0,0-9.335,4.618-7.724,8.75c0,0-2.322-3.815,5.485-8.449L487.735,171.077z"/>
					<g>
						<path style="fill:#91C636;" d="M452.836,181.742c0,0,5.302-4.482,5.943-6.858c0.641-2.376,12.819-12.968,22.195-12.117        c0,0-14.991,3.974-19.578,10.528C456.809,179.849,452.836,181.742,452.836,181.742z"/>
						<path style="fill:#91C636;" d="M504.267,178.863c0,0-15.622,7.618-26.368,4.657        C477.899,183.52,489.728,183.362,504.267,178.863z"/>
					</g>
				</g>
				<g style="opacity:0.2;">
					<path style="fill:#7EB71A;" d="M345.353,139.937c0,0-16.393,4.746-26.055,11.025c-16.818,10.931-34.007,5.667-41.12,3.516       c-7.113-2.152-16.598,2.1-16.598,2.1s6.458-10.971,7.84-13.179c4.46-7.125,19.331-14.838,39.55-18.437       c20.219-3.599,38.108,12.406,38.108,12.406S351.713,140.159,345.353,139.937z"/>
					<path style="fill:#91C636;" d="M323.209,130.813c-0.201-0.298-0.402-0.595-0.602-0.893       C322.799,130.233,323.002,130.528,323.209,130.813z"/>
					<path style="fill:#91C636;" d="M310.233,134.161c-0.585-0.811-1.259-1.562-2.173-2.151       C308.754,132.835,309.48,133.546,310.233,134.161z"/>
					<path style="fill:#91C636;" d="M323.209,130.813c1.469,2.179,2.939,4.358,4.408,6.536c-6.262,0.65-12.436,0.85-17.384-3.189       c1.162,1.613,1.963,3.471,3.545,4.801c-6.385,1.217-11.37-1.596-16.126-5.595c1.67,2.477,4.402,4.237,6.072,6.714       c-5.438,1.094-10.638,2.542-15.715,4.936c2.246-0.485,4.723-2.156,7.092-1.695c-1.769,1.193-2.945,2.501-3.291,4.278       c4.706-5.233,10.498-6.565,17.599-6.721c-1.769,1.193-3.892,2.624-4.353,4.994c4.83-4.286,10.737-6.211,17.368-5.537       c-1.654,0.6-2.238,2.024-3.415,3.332c9.036-4.021,19.525-5.537,29.429-4.119c1.053-0.725-1.363-2.18-1.363-2.18       s-0.252-0.225-0.724-0.612C338.144,136.819,328.379,137.921,323.209,130.813z"/>
					<path style="fill:#659B26;" d="M269.42,143.399c-1.382,2.208-7.84,13.179-7.84,13.179s0.142-0.063,0.398-0.169       c0.259-0.168,0.52-0.335,0.783-0.501c0.031-0.036,0.068-0.069,0.096-0.106c13.033-26.975,54.113-39.581,79.782-19.834       c1.689,1.363,3.624,2.128,5.674,2.385c-0.482-0.528-1.237-0.984-1.237-0.984s-17.888-16.005-38.108-12.406       C288.751,128.562,273.88,136.275,269.42,143.399z"/>
					<path style="fill:#659B26;" d="M278.178,154.478c7.113,2.152,24.302,7.416,41.12-3.516c1.553-1.009,3.28-1.978,5.084-2.894       c-14.822,6.281-29.773,11.494-47.101,4.699c-4.936-2.026-10.025,0.308-14.519,3.142c-0.087,0.103-0.177,0.205-0.278,0.299       C265.012,155.223,272.38,152.724,278.178,154.478z"/>
					<path style="fill:#659B26;" d="M336.913,139.084c0,0-36.985-0.817-63.025,9.795c0,0,24.642-10.956,62.726-11.851       L336.913,139.084z"/>
					<path style="fill:#659B26;" d="M332.375,137.171c0,0-7.643-0.792-10.607-9.259c0,0,1.033,6.681,8.52,9.866L332.375,137.171z"/>
					<path style="fill:#659B26;" d="M318.011,138.652c0,0-7.643-0.792-10.607-9.258c0,0,1.033,6.681,8.52,9.866L318.011,138.652z"/>
					<path style="fill:#659B26;" d="M308.098,139.924c0,0-7.643-0.792-10.607-9.259c0,0,1.033,6.681,8.52,9.866L308.098,139.924z"/>
					<path style="fill:#659B26;" d="M327.875,138.614c0,0-9.891,3.26-8.877,7.578c0,0-1.763-4.104,6.618-7.595L327.875,138.614z"/>
					<path style="fill:#659B26;" d="M313.361,139.873c0,0-9.335,4.618-7.724,8.75c0,0-2.322-3.815,5.485-8.449L313.361,139.873z"/>
					<path style="fill:#659B26;" d="M300.458,141.534c0,0-9.335,4.618-7.724,8.75c0,0-2.322-3.815,5.485-8.449L300.458,141.534z"/>
					<g>
						<path style="fill:#91C636;" d="M265.559,152.199c0,0,5.302-4.482,5.943-6.858c0.641-2.376,12.819-12.968,22.195-12.117        c0,0-14.991,3.974-19.578,10.528C269.532,150.307,265.559,152.199,265.559,152.199z"/>
						<path style="fill:#91C636;" d="M316.99,149.32c0,0-15.622,7.618-26.368,4.657C290.622,153.978,302.452,153.819,316.99,149.32z        "/>
					</g>
				</g>
				<g style="opacity:0.2;">
					<path style="fill:#7EB71A;" d="M394.376,389.653c0,0-0.164,17.066,3.075,28.124c5.639,19.25-4.342,34.202-8.446,40.396       c-4.104,6.195-2.757,16.501-2.757,16.501s-8.653-9.338-10.371-11.296c-5.543-6.318-8.659-22.779-6.297-43.179       c2.362-20.401,22.831-32.937,22.831-32.937S396.416,383.624,394.376,389.653z"/>
					<path style="fill:#91C636;" d="M379.276,408.241c-0.343,0.107-0.686,0.214-1.029,0.32       C378.602,408.467,378.942,408.358,379.276,408.241z"/>
					<path style="fill:#91C636;" d="M378.754,421.632c-0.945,0.327-1.858,0.757-2.685,1.463       C377.059,422.668,377.948,422.177,378.754,421.632z"/>
					<path style="fill:#91C636;" d="M379.276,408.241c2.509-0.781,5.018-1.563,7.527-2.344c-1.177,6.184-2.759,12.156-8.049,15.735       c1.879-0.65,3.888-0.883,5.617-2.017c-0.668,6.465-4.796,10.432-9.992,13.838c2.852-0.888,5.323-2.999,8.175-3.887       c-0.514,5.523-0.622,10.92,0.213,16.47c0.18-2.291-0.708-5.143,0.414-7.28c0.634,2.037,1.549,3.54,3.152,4.381       c-3.66-6.011-3.272-11.942-1.382-18.788c0.634,2.037,1.396,4.482,3.533,5.604c-2.718-5.858-2.865-12.069-0.313-18.227       c0.1,1.757,1.296,2.725,2.211,4.228c-1.255-9.81,0.306-20.293,4.509-29.372c-0.392-1.217-2.48,0.679-2.48,0.679       s-0.288,0.177-0.794,0.518C389.319,395.662,387.569,405.332,379.276,408.241z"/>
					<path style="fill:#659B26;" d="M375.878,463.379c1.717,1.958,10.371,11.296,10.371,11.296s-0.02-0.154-0.047-0.43       c-0.087-0.296-0.172-0.595-0.255-0.894c-0.026-0.04-0.047-0.084-0.074-0.123c-22.093-20.233-22.366-63.203,3.923-82.117       c1.791-1.226,3.08-2.859,3.914-4.749c-0.644,0.31-1.298,0.902-1.298,0.902s-20.469,12.536-22.831,32.937       C367.219,440.6,370.334,457.06,375.878,463.379z"/>
					<path style="fill:#659B26;" d="M389.005,458.173c4.104-6.194,14.085-21.147,8.446-40.396c-0.521-1.777-0.952-3.71-1.312-5.702       c1.758,16.002,2.456,31.82-9.031,46.465c-3.358,4.146-2.585,9.691-1.162,14.809c0.074,0.113,0.145,0.228,0.207,0.353       C385.936,470.998,385.659,463.222,389.005,458.173z"/>
					<path style="fill:#659B26;" d="M391.134,397.492c0,0-11.408,35.191-8.724,63.182c0,0-3.415-26.751,6.67-63.487L391.134,397.492       z"/>
					<path style="fill:#659B26;" d="M387.999,401.289c0,0-2.955,7.093-11.916,7.5c0,0,6.696,0.93,11.898-5.326L387.999,401.289z"/>
					<path style="fill:#659B26;" d="M385.29,415.473c0,0-2.955,7.093-11.916,7.5c0,0,6.696,0.93,11.898-5.326L385.29,415.473z"/>
					<path style="fill:#659B26;" d="M383.66,425.333c0,0-2.955,7.093-11.916,7.5c0,0,6.696,0.93,11.898-5.326L383.66,425.333z"/>
					<path style="fill:#659B26;" d="M388.088,406.013c0,0,0.281,10.411,4.708,10.68c0,0-4.437,0.509-5.373-8.521L388.088,406.013z"/>
					<path style="fill:#659B26;" d="M385.124,420.277c0,0,1.741,10.268,6.162,9.912c0,0-4.321,1.128-6.517-7.681L385.124,420.277z"/>
					<path style="fill:#659B26;" d="M383.008,433.113c0,0,1.741,10.268,6.162,9.912c0,0-4.322,1.128-6.517-7.681L383.008,433.113z"/>
					<g>
						<path style="fill:#91C636;" d="M383.197,469.605c0,0-2.77-6.367-4.862-7.663c-2.091-1.296-8.738-16.004-5.23-24.74        c0,0-0.501,15.501,4.46,21.777C382.526,465.256,383.197,469.605,383.197,469.605z"/>
						<path style="fill:#91C636;" d="M395.215,419.515c0,0,2.809,17.152-3.115,26.594        C392.101,446.11,395.348,434.733,395.215,419.515z"/>
					</g>
				</g>
				<g style="opacity:0.2;">
					<path style="fill:#7EB71A;" d="M505.919,479.339c0,0-16.821-2.882-28.254-1.448c-19.902,2.498-33.072-9.738-38.533-14.778       c-5.461-5.039-15.851-5.352-15.851-5.352s10.598-7.054,12.804-8.438c7.121-4.465,23.868-4.917,43.631,0.667       c19.763,5.583,28.876,27.789,28.876,27.789S511.546,482.313,505.919,479.339z"/>
					<path style="fill:#91C636;" d="M489.976,461.468c-0.051-0.356-0.102-0.711-0.152-1.066       C489.86,460.766,489.914,461.12,489.976,461.468z"/>
					<path style="fill:#91C636;" d="M476.839,458.818c-0.172-0.985-0.451-1.955-1.016-2.884       C476.086,456.979,476.43,457.936,476.839,458.818z"/>
					<path style="fill:#91C636;" d="M489.976,461.468c0.371,2.602,0.743,5.203,1.114,7.805c-5.918-2.148-11.56-4.661-14.251-10.454       c0.342,1.959,0.252,3.979,1.095,5.867c-6.276-1.69-9.534-6.397-12.069-12.07c0.422,2.957,2.112,5.733,2.534,8.69       c-5.371-1.388-10.681-2.354-16.294-2.415c2.233,0.543,5.19,0.121,7.121,1.569c-2.112,0.302-3.741,0.965-4.828,2.414       c6.518-2.655,12.311-1.327,18.768,1.631c-2.112,0.302-4.647,0.664-6.095,2.594c6.216-1.75,12.371-0.904,18.044,2.596       c-1.75-0.181-2.897,0.845-4.526,1.508c9.885,0.325,19.984,3.536,28.278,9.134c1.264-0.193-0.275-2.556-0.275-2.556       s-0.129-0.312-0.385-0.867C500.793,473.388,491.526,470.119,489.976,461.468z"/>
					<path style="fill:#659B26;" d="M436.085,449.324c-2.207,1.384-12.804,8.438-12.804,8.438s0.155,0.005,0.432,0.022       c0.306-0.039,0.615-0.075,0.923-0.109c0.043-0.019,0.091-0.033,0.133-0.053c23.496-18.585,65.96-12.005,80.442,16.963       c0.925,1.964,2.332,3.496,4.065,4.621c-0.203-0.686-0.683-1.425-0.683-1.425s-9.113-22.206-28.876-27.789       C459.953,444.407,443.206,444.858,436.085,449.324z"/>
					<path style="fill:#659B26;" d="M439.132,463.113c5.461,5.039,18.631,17.276,38.533,14.778c1.837-0.231,3.814-0.349,5.838-0.386       c-16.077-0.816-31.805-2.648-44.431-16.323c-3.557-3.976-9.155-4.096-14.435-3.508c-0.124,0.055-0.249,0.107-0.381,0.148       C426.959,458.039,434.68,459.005,439.132,463.113z"/>
					<path style="fill:#659B26;" d="M498.697,474.888c0,0-32.922-16.872-60.983-18.685c0,0,26.953,0.893,61.611,16.705       L498.697,474.888z"/>
					<path style="fill:#659B26;" d="M495.449,471.187c0,0-6.531-4.048-5.505-12.959c0,0-1.986,6.462,3.362,12.595L495.449,471.187z"/>
					<path style="fill:#659B26;" d="M481.878,466.253c0,0-6.531-4.047-5.505-12.959c0,0-1.986,6.462,3.361,12.595L481.878,466.253z"/>
					<path style="fill:#659B26;" d="M472.403,463.072c0,0-6.531-4.048-5.505-12.959c0,0-1.986,6.462,3.362,12.595L472.403,463.072z"/>
					<path style="fill:#659B26;" d="M490.77,470.523c0,0-10.323-1.382-11.294,2.945c0,0,0.204-4.462,9.269-3.946L490.77,470.523z"/>
					<path style="fill:#659B26;" d="M477.161,465.323c0,0-10.414,0.082-10.768,4.503c0,0-0.424-4.446,8.622-5.21L477.161,465.323z"/>
					<path style="fill:#659B26;" d="M464.826,461.188c0,0-10.414,0.082-10.768,4.503c0,0-0.425-4.446,8.622-5.21L464.826,461.188z"/>
					<g>
						<path style="fill:#91C636;" d="M428.771,455.557c0,0,6.727-1.72,8.34-3.578c1.613-1.858,17.192-6.076,25.258-1.219        c0,0-15.223-2.965-22.21,0.931C433.172,455.588,428.771,455.557,428.771,455.557z"/>
						<path style="fill:#91C636;" d="M476.305,475.406c0,0-17.38,0.039-25.758-7.314        C450.547,468.092,461.26,473.112,476.305,475.406z"/>
					</g>
				</g>
				<g style="opacity:0.2;">
					<path style="fill:#7EB71A;" d="M285.41,298.963c0,0-20.092,5.816-31.932,13.512c-20.612,13.397-41.679,6.946-50.396,4.309       c-8.717-2.637-20.342,2.574-20.342,2.574s7.915-13.446,9.608-16.152c5.465-8.732,23.692-18.185,48.472-22.596       c24.78-4.411,46.704,15.204,46.704,15.204S293.206,299.235,285.41,298.963z"/>
					<path style="fill:#91C636;" d="M258.272,287.781c-0.246-0.365-0.492-0.73-0.738-1.095       C257.769,287.069,258.017,287.431,258.272,287.781z"/>
					<path style="fill:#91C636;" d="M242.369,291.884c-0.716-0.994-1.542-1.915-2.663-2.637       C240.555,290.259,241.445,291.13,242.369,291.884z"/>
					<path style="fill:#91C636;" d="M258.272,287.781c1.801,2.67,3.602,5.341,5.402,8.011c-7.674,0.796-15.241,1.042-21.305-3.908       c1.424,1.978,2.406,4.254,4.345,5.884c-7.825,1.492-13.935-1.957-19.764-6.857c2.047,3.035,5.395,5.193,7.441,8.228       c-6.665,1.341-13.038,3.115-19.26,6.049c2.753-0.595,5.788-2.642,8.692-2.077c-2.168,1.462-3.61,3.065-4.033,5.243       c5.768-6.413,12.867-8.046,21.569-8.238c-2.168,1.462-4.77,3.216-5.334,6.121c5.919-5.253,13.159-7.613,21.286-6.786       c-2.027,0.736-2.743,2.48-4.185,4.084c11.075-4.928,23.93-6.787,36.068-5.048c1.291-0.889-1.67-2.672-1.67-2.672       s-0.309-0.276-0.888-0.75C276.575,295.142,264.607,296.493,258.272,287.781z"/>
					<path style="fill:#659B26;" d="M192.349,303.206c-1.693,2.706-9.608,16.152-9.608,16.152s0.174-0.078,0.488-0.207       c0.317-0.206,0.638-0.411,0.96-0.614c0.037-0.044,0.083-0.084,0.118-0.13c15.973-33.06,66.32-48.51,97.78-24.309       c2.07,1.671,4.441,2.608,6.953,2.922c-0.591-0.647-1.516-1.206-1.516-1.206s-21.924-19.615-46.704-15.204       C216.04,285.021,197.814,294.474,192.349,303.206z"/>
					<path style="fill:#659B26;" d="M203.082,316.784c8.717,2.637,29.784,9.089,50.396-4.309c1.903-1.237,4.02-2.424,6.231-3.547       c-18.166,7.697-36.489,14.087-57.727,5.759c-6.049-2.483-12.286,0.378-17.794,3.85c-0.107,0.126-0.217,0.251-0.341,0.367       C186.945,317.697,195.976,314.634,203.082,316.784z"/>
					<path style="fill:#659B26;" d="M275.066,297.917c0,0-45.328-1.001-77.242,12.005c0,0,30.201-13.428,76.876-14.524       L275.066,297.917z"/>
					<path style="fill:#659B26;" d="M269.505,295.573c0,0-9.367-0.971-13-11.347c0,0,1.266,8.188,10.442,12.092L269.505,295.573z"/>
					<path style="fill:#659B26;" d="M251.901,297.388c0,0-9.367-0.971-13-11.347c0,0,1.266,8.188,10.442,12.092L251.901,297.388z"/>
					<path style="fill:#659B26;" d="M239.751,298.947c0,0-9.367-0.971-13-11.347c0,0,1.266,8.188,10.442,12.092L239.751,298.947z"/>
					<path style="fill:#659B26;" d="M263.99,297.342c0,0-12.123,3.995-10.88,9.287c0,0-2.16-5.029,8.111-9.308L263.99,297.342z"/>
					<path style="fill:#659B26;" d="M246.202,298.885c0,0-11.441,5.659-9.466,10.724c0,0-2.846-4.676,6.722-10.355L246.202,298.885z       "/>
					<path style="fill:#659B26;" d="M230.388,300.921c0,0-11.441,5.66-9.466,10.724c0,0-2.846-4.676,6.722-10.356L230.388,300.921z"/>
					<g>
						<path style="fill:#91C636;" d="M187.616,313.991c0,0,6.498-5.494,7.283-8.405c0.785-2.912,15.711-15.893,27.202-14.851        c0,0-18.373,4.87-23.994,12.903C192.486,311.672,187.616,313.991,187.616,313.991z"/>
						<path style="fill:#91C636;" d="M250.649,310.463c0,0-19.146,9.336-32.316,5.708        C218.333,316.171,232.831,315.977,250.649,310.463z"/>
					</g>
				</g>
				<g style="opacity:0.2;">
					<path style="fill:#7EB71A;" d="M381.543,58.287c0,0-4.86,13.912-5.274,23.853c-0.719,17.306-13.023,26.771-18.095,30.701       c-5.072,3.93-6.824,12.733-6.824,12.733s-4.491-10.034-5.354-12.111c-2.784-6.703-0.773-21.028,6.808-37.06       c7.581-16.031,27.795-20.616,27.795-20.616S384.882,53.921,381.543,58.287z"/>
					<path style="fill:#91C636;" d="M364.045,69.308c-0.31-0.008-0.62-0.015-0.93-0.023       C363.431,69.306,363.74,69.311,364.045,69.308z"/>
					<path style="fill:#91C636;" d="M359.91,80.116c-0.863,0.005-1.729,0.104-2.601,0.453       C358.237,80.494,359.1,80.338,359.91,80.116z"/>
					<path style="fill:#91C636;" d="M364.045,69.308c2.268,0.056,4.537,0.111,6.806,0.167c-2.675,4.732-5.622,9.178-10.94,10.641       c1.717-0.011,3.425,0.354,5.153-0.094c-2.337,5.103-6.811,7.204-12.005,8.551c2.579,0.063,5.184-0.978,7.763-0.915       c-1.951,4.375-3.533,8.759-4.387,13.53c0.782-1.824,0.845-4.402,2.355-5.84c-0.045,1.842,0.287,3.324,1.365,4.457       c-1.329-5.93,0.631-10.673,4.073-15.749c-0.045,1.842-0.099,4.052,1.338,5.562c-0.601-5.544,0.999-10.664,4.791-14.994       c-0.405,1.464,0.305,2.588,0.637,4.07c1.69-8.371,5.87-16.513,11.822-22.774c0.017-1.104-2.216-0.132-2.216-0.132       s-0.284,0.065-0.793,0.204C375.743,61.801,371.634,69.225,364.045,69.308z"/>
					<path style="fill:#659B26;" d="M345.996,113.463c0.863,2.077,5.354,12.111,5.354,12.111s0.026-0.131,0.081-0.365       c0.011-0.266,0.024-0.534,0.039-0.802c-0.01-0.04-0.015-0.082-0.027-0.121c-12.466-22.667-0.789-57.887,25.95-66.076       c1.805-0.507,3.311-1.486,4.516-2.801c-0.613,0.075-1.311,0.378-1.311,0.378s-20.213,4.584-27.795,20.616       C345.223,92.435,343.212,106.76,345.996,113.463z"/>
					<path style="fill:#659B26;" d="M358.175,112.841c5.073-3.93,17.376-13.395,18.095-30.701c0.066-1.598,0.249-3.298,0.506-5.026       c-2.994,13.574-6.804,26.705-20.255,35.502c-3.895,2.461-4.798,7.21-5.052,11.791c0.029,0.113,0.055,0.227,0.072,0.346       C352.113,122.481,354.04,116.044,358.175,112.841z"/>
					<path style="fill:#659B26;" d="M376.72,63.8c0,0-19.076,25.623-24.633,49.26c0,0,4.615-22.825,23.037-50.077L376.72,63.8z"/>
					<path style="fill:#659B26;" d="M373.105,66.037c0,0-4.381,4.983-11.823,2.834c0,0,5.219,2.615,11.206-1.061L373.105,66.037z"/>
					<path style="fill:#659B26;" d="M366.962,76.888c0,0-4.381,4.983-11.823,2.834c0,0,5.219,2.615,11.206-1.061L366.962,76.888z"/>
					<path style="fill:#659B26;" d="M362.898,84.502c0,0-4.381,4.983-11.823,2.834c0,0,5.219,2.615,11.206-1.061L362.898,84.502z"/>
					<path style="fill:#659B26;" d="M371.87,69.926c0,0-2.654,8.593,0.893,10.039c0,0-3.77-0.812-2.035-8.457L371.87,69.926z"/>
					<path style="fill:#659B26;" d="M365.495,80.772c0,0-1.42,8.88,2.295,9.814c0,0-3.847-0.274-3.203-8.087L365.495,80.772z"/>
					<path style="fill:#659B26;" d="M360.21,90.684c0,0-1.42,8.88,2.295,9.814c0,0-3.847-0.274-3.203-8.087L360.21,90.684z"/>
					<g>
						<path style="fill:#91C636;" d="M350.258,120.583c0,0-0.503-5.974-1.854-7.614c-1.352-1.639-2.715-15.509,2.574-21.683        c0,0-4.702,12.539-2.383,19.046C350.914,116.84,350.258,120.583,350.258,120.583z"/>
						<path style="fill:#91C636;" d="M373.96,82.943c0,0-2.453,14.806-9.912,20.889C364.047,103.832,369.854,95.427,373.96,82.943z"/>
					</g>
				</g>
				<g style="opacity:0.2;">
					<path style="fill:#7EB71A;" d="M382.75,397.036c0,0-13.713,5.396-21.515,11.571c-13.582,10.749-28.783,7.603-35.071,6.324       c-6.288-1.279-14.101,3.138-14.101,3.138s4.671-9.951,5.682-11.96c3.262-6.484,15.428-14.309,32.523-19.027       c17.095-4.718,33.759,7.606,33.759,7.606S388.237,396.716,382.75,397.036z"/>
					<path style="fill:#91C636;" d="M362.98,390.97c-0.197-0.24-0.393-0.48-0.59-0.72       C362.581,390.504,362.779,390.741,362.98,390.97z"/>
					<path style="fill:#91C636;" d="M352.093,394.89c-0.568-0.651-1.207-1.242-2.041-1.675       C350.714,393.868,351.395,394.421,352.093,394.89z"/>
					<path style="fill:#91C636;" d="M362.98,390.97c1.438,1.755,2.876,3.51,4.315,5.266c-5.331,1.061-10.623,1.729-15.202-1.346       c1.129,1.294,1.967,2.826,3.434,3.843c-5.391,1.559-9.904-0.46-14.313-3.516c1.635,1.995,4.125,3.29,5.759,5.285       c-4.588,1.377-8.942,3.04-13.115,5.506c1.892-0.598,3.887-2.232,5.961-2.026c-1.425,1.168-2.332,2.387-2.486,3.943       c3.626-4.877,8.499-6.487,14.591-7.192c-1.425,1.168-3.135,2.569-3.341,4.643c3.808-4.073,8.733-6.202,14.488-6.155       c-1.374,0.649-1.762,1.92-2.668,3.139c7.446-4.182,16.342-6.328,24.971-5.904c0.847-0.708-1.347-1.765-1.347-1.765       s-0.235-0.173-0.672-0.468C376.302,394.934,367.995,396.666,362.98,390.97z"/>
					<path style="fill:#659B26;" d="M317.745,406.109c-1.011,2.009-5.682,11.96-5.682,11.96s0.117-0.066,0.329-0.177       c0.209-0.165,0.421-0.33,0.633-0.494c0.024-0.034,0.053-0.065,0.074-0.099c9.039-24.238,43.346-38.375,67.001-23.459       c1.562,1.036,3.286,1.539,5.069,1.595c-0.457-0.415-1.142-0.747-1.142-0.747s-16.665-12.324-33.759-7.606       C333.173,391.801,321.007,399.626,317.745,406.109z"/>
					<path style="fill:#659B26;" d="M326.164,414.931c6.288,1.279,21.489,4.424,35.071-6.324c1.254-0.992,2.661-1.964,4.139-2.897       c-12.239,6.59-24.675,12.273-40.118,7.822c-4.406-1.345-8.594,1.07-12.231,3.867c-0.067,0.096-0.136,0.19-0.215,0.28       C314.904,416.629,321.038,413.889,326.164,414.931z"/>
					<path style="fill:#659B26;" d="M375.425,396.98c0,0-31.864,2.267-53.4,13.482c0,0,20.306-11.398,52.978-15.225L375.425,396.98z       "/>
					<path style="fill:#659B26;" d="M371.371,395.7c0,0-6.634-0.068-9.863-7.109c0,0,1.424,5.661,8.117,7.799L371.371,395.7z"/>
					<path style="fill:#659B26;" d="M359.14,398.127c0,0-6.635-0.068-9.863-7.108c0,0,1.424,5.661,8.117,7.799L359.14,398.127z"/>
					<path style="fill:#659B26;" d="M350.719,400.016c0,0-6.634-0.068-9.863-7.108c0,0,1.424,5.661,8.117,7.799L350.719,400.016z"/>
					<path style="fill:#659B26;" d="M367.618,397.302c0,0-8.242,3.597-7.024,7.228c0,0-1.845-3.387,5.08-7.061L367.618,397.302z"/>
					<path style="fill:#659B26;" d="M355.24,399.55c0,0-7.655,4.72-5.938,8.143c0,0-2.302-3.094,4.037-7.705L355.24,399.55z"/>
					<path style="fill:#659B26;" d="M344.28,402.014c0,0-7.655,4.72-5.938,8.143c0,0-2.302-3.094,4.037-7.705L344.28,402.014z"/>
					<g>
						<path style="fill:#91C636;" d="M315.132,413.985c0,0,4.199-4.28,4.559-6.374c0.36-2.094,9.98-12.178,18.109-12.2        c0,0-12.57,4.62-15.987,10.624S315.132,413.985,315.132,413.985z"/>
						<path style="fill:#91C636;" d="M359.119,407.381c0,0-12.819,7.804-22.296,6.121        C336.823,413.502,346.981,412.416,359.119,407.381z"/>
					</g>
				</g>
				<g style="opacity:0.2;">
					<path style="fill:#7EB71A;" d="M438.743,284.681c0,0-14.731,0.414-24.167,3.57c-16.427,5.493-29.654-2.632-35.133-5.972       c-5.479-3.34-14.329-1.841-14.329-1.841s7.776-7.771,9.409-9.317c5.271-4.989,19.373-8.213,37.054-6.84       c17.68,1.373,29.164,18.627,29.164,18.627S444.012,286.245,438.743,284.681z"/>
					<path style="fill:#91C636;" d="M422.212,272.256c-0.103-0.292-0.207-0.585-0.31-0.877       C421.995,271.682,422.1,271.973,422.212,272.256z"/>
					<path style="fill:#91C636;" d="M410.64,272.243c-0.313-0.805-0.714-1.579-1.35-2.269       C409.69,270.814,410.143,271.565,410.64,272.243z"/>
					<path style="fill:#91C636;" d="M422.212,272.256c0.756,2.14,1.512,4.279,2.268,6.419c-5.375-0.814-10.579-1.984-13.84-6.432       c0.622,1.6,0.889,3.326,1.923,4.781c-5.6-0.366-9.158-3.798-12.267-8.171c0.859,2.432,2.761,4.496,3.62,6.928       c-4.783-0.264-9.443-0.181-14.205,0.72c1.983,0.081,4.415-0.778,6.295,0.12c-1.737,0.614-3.004,1.452-3.678,2.863       c5.068-3.354,10.198-3.213,16.167-1.804c-1.737,0.614-3.822,1.35-4.72,3.231c4.966-2.536,10.321-2.865,15.717-0.864       c-1.512,0.144-2.309,1.207-3.576,2.045c8.424-1.403,17.52-0.398,25.492,2.934c1.038-0.378-0.667-2.118-0.667-2.118       s-0.162-0.243-0.473-0.669C433.393,280.513,424.992,279.318,422.212,272.256z"/>
					<path style="fill:#659B26;" d="M374.524,271.121c-1.633,1.546-9.409,9.317-9.409,9.317s0.132-0.022,0.37-0.055       c0.253-0.085,0.508-0.168,0.763-0.249c0.033-0.024,0.071-0.043,0.103-0.068c16.739-19.723,53.808-21.358,70.985,0.71       c1.117,1.505,2.568,2.564,4.226,3.222c-0.289-0.546-0.82-1.09-0.82-1.09s-11.484-17.254-29.165-18.627       C393.897,262.907,379.795,266.132,374.524,271.121z"/>
					<path style="fill:#659B26;" d="M379.444,282.279c5.479,3.34,18.706,11.465,35.133,5.972c1.516-0.507,3.17-0.943,4.877-1.318       c-13.75,2.038-27.377,3.156-40.389-6.279c-3.686-2.763-8.446-1.915-12.817-0.52c-0.095,0.067-0.192,0.133-0.298,0.19       C368.277,280.048,374.977,279.556,379.444,282.279z"/>
					<path style="fill:#659B26;" d="M431.874,282.138c0,0-30.737-8.698-54.803-5.47c0,0,22.972-3.818,54.999,3.687L431.874,282.138z       "/>
					<path style="fill:#659B26;" d="M428.495,279.557c0,0-6.217-2.318-6.86-10.038c0,0-0.585,5.808,4.984,10.093L428.495,279.557z"/>
					<path style="fill:#659B26;" d="M416.168,277.682c0,0-6.216-2.319-6.86-10.037c0,0-0.585,5.808,4.984,10.093L416.168,277.682z"/>
					<path style="fill:#659B26;" d="M407.606,276.597c0,0-6.217-2.319-6.86-10.037c0,0-0.585,5.808,4.984,10.093L407.606,276.597z"/>
					<path style="fill:#659B26;" d="M424.421,279.788c0,0-8.974,0.582-9.062,4.41c0,0-0.584-3.812,7.177-4.914L424.421,279.788z"/>
					<path style="fill:#659B26;" d="M412.017,277.695c0,0-8.803,1.837-8.352,5.64c0,0-1.114-3.692,6.416-5.874L412.017,277.695z"/>
					<path style="fill:#659B26;" d="M400.871,276.288c0,0-8.803,1.837-8.352,5.64c0,0-1.114-3.692,6.416-5.874L400.871,276.288z"/>
					<g>
						<path style="fill:#91C636;" d="M369.389,277.639c0,0,5.403-2.598,6.454-4.445c1.05-1.847,13.525-8.062,21.178-5.319        c0,0-13.392,0.073-18.646,4.558C373.121,276.918,369.389,277.639,369.389,277.639z"/>
						<path style="fill:#91C636;" d="M413.003,286.378c0,0-14.708,2.982-23.049-1.821        C389.953,284.557,399.876,286.988,413.003,286.378z"/>
					</g>
				</g>
				
				
			</g>
		</g>
	</g>
</g>

</svg>
