<svg xmlns="http://www.w3.org/2000/svg" xmlns:xlink="http://www.w3.org/1999/xlink" version="1.1" x="0px" y="0px" viewBox="150 350 200 100" style="&#10;    width: 400px;&#10;    height: 100px;&#10;">

<g>
			
			
			<path style="fill:#EFD411;" d="M250,431.743c-83.692,0-158.864-14.728-210.559-38.115v56.796h421.117v-56.796     C408.864,417.016,333.692,431.743,250,431.743z"/>
			<path style="fill:#5050BC;" d="M250,433.986c-83.692,0-158.864-14.728-210.559-38.115v56.796h421.117V395.87     C408.864,419.258,333.692,433.986,250,433.986z"/>
			<path style="opacity:0.3;fill:#373799;" d="M250,443.424c-80.91,0-154.697-11.009-210.559-29.103v38.346h421.117v-38.346     C404.697,432.415,330.909,443.424,250,443.424z"/>
			<path style="opacity:0.3;fill:#373799;" d="M250,449.945c-77.439,0-149.655-6.475-210.559-17.656v20.378h421.117v-20.378     C399.654,443.47,327.439,449.945,250,449.945z"/>
		</g>

</svg>
