<svg xmlns="http://www.w3.org/2000/svg" xmlns:xlink="http://www.w3.org/1999/xlink" version="1.1" x="0px" y="0px" viewBox="200 45 200 60" style="&#10;    width: 400px;&#10;    height: 100px;&#10;">

<g>
			
			
			<path style="fill:#EFD411;" d="M403.315,50.287c19.387,0,38.49,0.445,57.243,1.304V37.954H39.441v78.42     C123.146,76.198,254.997,50.287,403.315,50.287z"/>
			<path style="fill:#373799;" d="M403.315,47.667c19.387,0,38.49,0.445,57.243,1.304V35.333H39.441v78.42     C123.146,73.577,254.997,47.667,403.315,47.667z"/>
			<path style="opacity:0.3;fill:#373799;" d="M353.982,41.667c36.694,0,72.378,1.589,106.577,4.584V35.333H39.441v52.308     C121.488,59.143,232.18,41.667,353.982,41.667z"/>
			<g>
				<path style="opacity:0.3;fill:#373799;" d="M217.792,35.333H39.441V63.97C91.68,50.074,152.212,40.131,217.792,35.333z"/>
				<path style="opacity:0.3;fill:#373799;" d="M460.559,41.692v-6.359h-62.951C419.175,36.911,440.198,39.044,460.559,41.692z"/>
			</g>
		</g>

</svg>
