<?xml version="1.0" encoding="UTF-8" standalone="no"?>
<!-- Created with Inkscape (http://www.inkscape.org/) -->

<svg
   width="35.977512mm"
   height="35.977512mm"
   viewBox="0 0 35.977512 35.977512"
   version="1.1"
   id="svg1"
   xmlns="http://www.w3.org/2000/svg"
   xmlns:svg="http://www.w3.org/2000/svg">
  <defs
     id="defs1" />
  <g
     id="layer1"
     transform="translate(-53.181249,-81.491666)">
    <g
       id="g11"
       transform="matrix(0.26458333,0,0,0.26458333,-59.50135,-31.216073)">
		<path
   style="fill:#be1e2d"
   d="m 492.326,534.235 v -17.787 h -22.928 c 3.267,3.429 9.879,9.347 17.797,10.879 l -0.589,3.044 c -12.448,-2.409 -21.484,-14.037 -21.862,-14.53 l -1.912,-2.493 h 62.089 l -1.912,2.493 c -0.378,0.494 -9.414,12.121 -21.862,14.53 l -0.589,-3.044 c 7.918,-1.532 14.53,-7.45 17.797,-10.879 h -22.928 v 17.787 c 16.066,-0.612 29.752,-10.664 35.649,-24.763 h -74.398 c 5.896,14.099 19.582,24.151 35.648,24.763 z"
   id="path5" />

		<path
   style="fill:#be1e2d"
   d="m 485.35,488.545 h -24.802 v 10.851 h 17.827 v -3.875 h -12.401 v -3.1 h 15.501 v 10.076 h -24.027 v -17.051 h 31.003 v 20.927 h 3.804 V 481.57 h -36.722 c -1.268,3.909 -1.961,8.075 -1.961,12.401 0,4.326 0.693,8.492 1.961,12.401 h 29.817 z"
   id="path6" />

		<path
   style="fill:#be1e2d"
   d="m 495.426,506.372 h 3.804 v -20.927 h 31.003 v 17.051 H 506.206 V 492.42 h 15.501 v 3.1 h -12.401 v 3.875 h 17.826 V 488.544 H 502.33 v 17.827 h 29.888 c 1.267,-3.909 1.961,-8.075 1.961,-12.401 0,-4.326 -0.693,-8.492 -1.961,-12.401 h -36.793 v 24.803 z"
   id="path7" />

		<path
   style="fill:#be1e2d"
   d="m 495.426,453.707 v 17.787 h 22.928 c -3.267,-3.429 -9.879,-9.347 -17.797,-10.879 l 0.589,-3.044 c 12.448,2.409 21.484,14.037 21.862,14.53 l 1.912,2.493 h -62.089 l 1.912,-2.493 c 0.379,-0.493 9.414,-12.121 21.862,-14.53 l 0.589,3.044 c -7.918,1.532 -14.53,7.45 -17.797,10.879 h 22.928 v -17.787 c -16.066,0.612 -29.752,10.664 -35.649,24.763 h 74.398 c -5.896,-14.099 -19.582,-24.152 -35.648,-24.763 z"
   id="path8" />

		<path
   style="fill:#be1e2d"
   d="m 493.876,447.079 c -25.856,0 -46.892,21.036 -46.892,46.892 0,25.856 21.036,46.892 46.892,46.892 25.856,0 46.892,-21.036 46.892,-46.892 0,-25.856 -21.036,-46.892 -46.892,-46.892 z m 0,90.296 c -23.933,0 -43.404,-19.471 -43.404,-43.404 0,-23.933 19.471,-43.404 43.404,-43.404 23.933,0 43.404,19.471 43.404,43.404 0,23.933 -19.471,43.404 -43.404,43.404 z"
   id="path9" />

		<path
   style="fill:#be1e2d"
   d="m 493.876,425.982 c -37.549,0 -67.989,30.44 -67.989,67.989 0,37.549 30.44,67.989 67.989,67.989 37.549,0 67.989,-30.44 67.989,-67.989 0,-37.549 -30.44,-67.989 -67.989,-67.989 z m 65.048,74.728 c -0.357,3.361 -1.039,6.676 -1.039,6.676 l -11.044,-2.304 c 0,0 -0.126,0.544 -0.315,1.361 -0.166,0.823 -0.48,1.896 -0.787,2.97 -0.292,1.079 -0.701,2.122 -0.952,2.921 -0.284,0.789 -0.502,1.304 -0.502,1.304 l 9.341,3.647 c 0,0 0.152,-0.386 0.379,-0.964 0.228,-0.578 0.475,-1.371 0.746,-2.154 0.278,-0.782 0.519,-1.574 0.679,-2.176 0.17,-0.598 0.283,-0.997 0.283,-0.997 l -6.044,-1.66 c 0,0 -0.163,0.575 -0.327,1.15 -0.153,0.579 -0.349,1.143 -0.349,1.143 l 2.985,0.955 -0.404,1.195 -4.15,-1.424 c 0,0 0.094,-0.277 0.234,-0.693 0.143,-0.415 0.334,-0.968 0.482,-1.534 0.16,-0.563 0.32,-1.125 0.44,-1.547 0.126,-0.42 0.188,-0.707 0.188,-0.707 l 8.508,2.148 c 0,0 -0.029,0.145 -0.097,0.395 -0.07,0.249 -0.171,0.605 -0.292,1.032 -0.246,0.853 -0.546,1.999 -0.946,3.113 -0.372,1.124 -0.758,2.242 -1.101,3.062 -0.326,0.826 -0.543,1.376 -0.543,1.376 0,0 -0.08,0.196 -0.219,0.538 -0.152,0.337 -0.369,0.819 -0.63,1.397 -0.496,1.168 -1.28,2.666 -2.053,4.168 -0.838,1.467 -1.664,2.943 -2.372,3.994 -0.342,0.533 -0.628,0.977 -0.828,1.288 -0.2,0.31 -0.329,0.478 -0.329,0.478 l -9.309,-6.372 c 0,0 -0.324,0.456 -0.811,1.139 -0.466,0.699 -1.182,1.56 -1.867,2.445 -0.705,0.869 -1.456,1.7 -2.003,2.336 -0.58,0.607 -0.966,1.012 -0.966,1.012 l 7.235,6.944 c 0,0 0.286,-0.3 0.714,-0.75 0.439,-0.44 0.974,-1.073 1.517,-1.698 0.543,-0.626 1.09,-1.248 1.463,-1.745 0.384,-0.488 0.64,-0.814 0.64,-0.814 l -4.943,-3.853 c 0,0 -0.37,0.47 -0.739,0.941 -0.181,0.238 -0.373,0.468 -0.523,0.635 -0.147,0.169 -0.245,0.282 -0.245,0.282 l 2.39,2.026 -0.825,0.953 -3.288,-2.905 c 0,0 0.192,-0.221 0.479,-0.553 0.28,-0.338 0.687,-0.761 1.039,-1.229 0.723,-0.921 1.445,-1.841 1.445,-1.841 l 7.03,5.251 c 0,0 -0.364,0.466 -0.91,1.164 -0.541,0.703 -1.277,1.628 -2.066,2.509 -0.389,0.445 -0.778,0.89 -1.143,1.307 -0.382,0.401 -0.738,0.776 -1.044,1.097 -0.612,0.641 -1.021,1.068 -1.021,1.068 0,0 -0.611,0.583 -1.526,1.458 -0.452,0.444 -0.997,0.942 -1.602,1.453 -0.604,0.512 -1.224,1.087 -1.89,1.606 -0.664,0.522 -1.328,1.043 -1.951,1.532 -0.635,0.473 -1.243,0.893 -1.758,1.262 -1.023,0.748 -1.746,1.186 -1.746,1.186 l -6.179,-9.439 c 0,0 -0.471,0.302 -1.177,0.755 -0.706,0.453 -1.691,0.985 -2.656,1.549 -1.001,0.497 -1.979,1.042 -2.747,1.379 -0.764,0.345 -1.273,0.575 -1.273,0.575 l 4.033,9.181 c 0,0 0.378,-0.171 0.944,-0.427 0.569,-0.251 1.322,-0.596 2.054,-0.986 0.736,-0.382 1.48,-0.747 2.022,-1.05 0.539,-0.309 0.898,-0.515 0.898,-0.515 l -3.101,-5.447 c 0,0 -0.519,0.297 -1.038,0.595 -0.532,0.273 -1.065,0.545 -1.065,0.545 l 1.436,2.785 -1.123,0.574 -1.93,-3.94 c 0,0 1.042,-0.533 2.083,-1.066 1.015,-0.583 2.03,-1.165 2.03,-1.165 l 4.499,7.534 c 0,0 -0.513,0.295 -1.281,0.738 -0.76,0.459 -1.813,0.998 -2.868,1.533 -1.043,0.56 -2.137,1.015 -2.942,1.388 -0.805,0.374 -1.357,0.588 -1.357,0.588 0,0 -0.786,0.31 -1.966,0.775 -0.585,0.245 -1.292,0.465 -2.041,0.724 -0.752,0.249 -1.547,0.541 -2.365,0.757 -0.814,0.229 -1.627,0.459 -2.39,0.674 -0.772,0.179 -1.493,0.346 -2.11,0.489 -0.617,0.144 -1.133,0.261 -1.498,0.318 -0.364,0.065 -0.572,0.103 -0.572,0.103 l -2.074,-11.089 c 0,0 -0.55,0.099 -1.376,0.246 -0.826,0.146 -1.94,0.255 -3.048,0.408 -1.116,0.081 -2.231,0.184 -3.07,0.222 -0.84,0.021 -1.4,0.034 -1.4,0.034 l 0.204,10.026 c 0,0 0.414,-0.011 1.034,-0.026 0.621,-0.003 1.447,-0.055 2.272,-0.125 0.825,-0.07 1.653,-0.11 2.269,-0.191 0.616,-0.078 1.027,-0.13 1.027,-0.13 l -0.768,-6.22 c 0,0 -0.593,0.076 -1.187,0.151 -0.596,0.047 -1.193,0.093 -1.193,0.093 l 0.255,3.123 -1.257,0.095 -0.268,-4.379 c 0,0 1.167,-0.09 2.334,-0.18 1.161,-0.148 2.322,-0.295 2.322,-0.295 l 1.254,8.684 c 0,0 -0.586,0.075 -1.466,0.187 -0.878,0.13 -2.056,0.231 -3.235,0.311 -1.178,0.111 -2.359,0.131 -3.244,0.151 -0.885,0.021 -1.476,0.035 -1.476,0.035 0,0 -0.843,-0.021 -2.108,-0.051 -1.266,-0.001 -2.948,-0.167 -4.631,-0.293 -3.361,-0.358 -6.676,-1.039 -6.676,-1.039 l 2.304,-11.044 c 0,0 -0.544,-0.126 -1.361,-0.315 -0.823,-0.166 -1.895,-0.48 -2.97,-0.787 -1.079,-0.292 -2.122,-0.701 -2.921,-0.953 -0.789,-0.284 -1.304,-0.501 -1.304,-0.501 l -3.647,9.341 c 0,0 0.386,0.152 0.964,0.379 0.578,0.228 1.371,0.475 2.154,0.747 0.782,0.278 1.575,0.519 2.176,0.679 0.598,0.17 0.997,0.283 0.997,0.283 l 1.66,-6.044 c 0,0 -0.575,-0.163 -1.15,-0.327 -0.579,-0.153 -1.143,-0.349 -1.143,-0.349 l -0.955,2.985 -1.195,-0.404 1.424,-4.15 c 0,0 0.277,0.094 0.693,0.234 0.415,0.143 0.968,0.334 1.534,0.482 0.563,0.16 1.125,0.32 1.547,0.44 0.42,0.126 0.706,0.188 0.706,0.188 l -2.148,8.508 c 0,0 -0.145,-0.029 -0.395,-0.097 -0.249,-0.07 -0.605,-0.171 -1.032,-0.292 -0.853,-0.246 -1.999,-0.546 -3.113,-0.946 -1.124,-0.372 -2.242,-0.758 -3.062,-1.101 -0.826,-0.326 -1.376,-0.543 -1.376,-0.543 0,0 -0.196,-0.08 -0.538,-0.219 -0.337,-0.152 -0.819,-0.369 -1.396,-0.63 -1.168,-0.496 -2.666,-1.28 -4.168,-2.053 -1.467,-0.838 -2.943,-1.664 -3.994,-2.372 -0.533,-0.342 -0.977,-0.628 -1.288,-0.827 -0.31,-0.2 -0.478,-0.329 -0.478,-0.329 l 6.372,-9.309 c 0,0 -0.456,-0.324 -1.139,-0.811 -0.699,-0.466 -1.56,-1.182 -2.445,-1.867 -0.869,-0.704 -1.7,-1.456 -2.336,-2.003 -0.607,-0.58 -1.012,-0.966 -1.012,-0.966 l -6.944,7.235 c 0,0 0.3,0.286 0.75,0.714 0.44,0.439 1.073,0.973 1.698,1.517 0.626,0.543 1.248,1.09 1.745,1.463 0.488,0.384 0.814,0.64 0.814,0.64 l 3.853,-4.943 c 0,0 -0.47,-0.37 -0.941,-0.739 -0.238,-0.181 -0.468,-0.373 -0.635,-0.523 -0.169,-0.147 -0.283,-0.245 -0.283,-0.245 l -2.027,2.39 -0.953,-0.826 2.905,-3.287 c 0,0 0.221,0.191 0.553,0.479 0.338,0.28 0.761,0.687 1.229,1.039 0.921,0.723 1.841,1.445 1.841,1.445 l -5.25,7.03 c 0,0 -0.466,-0.364 -1.164,-0.91 -0.703,-0.541 -1.628,-1.277 -2.509,-2.066 -0.445,-0.389 -0.89,-0.778 -1.307,-1.143 -0.401,-0.382 -0.776,-0.738 -1.097,-1.044 -0.641,-0.612 -1.068,-1.021 -1.068,-1.021 0,0 -0.583,-0.611 -1.458,-1.527 -0.444,-0.452 -0.942,-0.997 -1.453,-1.602 -0.512,-0.604 -1.087,-1.223 -1.606,-1.89 -0.522,-0.664 -1.043,-1.328 -1.532,-1.951 -0.473,-0.635 -0.892,-1.243 -1.262,-1.758 -0.748,-1.023 -1.186,-1.746 -1.186,-1.746 l 9.439,-6.179 c 0,0 -0.302,-0.471 -0.755,-1.177 -0.453,-0.706 -0.985,-1.691 -1.549,-2.656 -0.497,-1.001 -1.042,-1.979 -1.379,-2.747 -0.345,-0.764 -0.575,-1.273 -0.575,-1.273 l -9.181,4.033 c 0,0 0.171,0.378 0.427,0.944 0.251,0.569 0.596,1.323 0.986,2.054 0.382,0.736 0.746,1.48 1.05,2.022 0.309,0.539 0.515,0.898 0.515,0.898 l 5.446,-3.101 c 0,0 -0.297,-0.519 -0.595,-1.038 -0.272,-0.532 -0.545,-1.065 -0.545,-1.065 l -2.785,1.437 -0.575,-1.123 3.94,-1.93 c 0,0 0.533,1.042 1.066,2.083 0.583,1.015 1.165,2.03 1.165,2.03 l -7.534,4.499 c 0,0 -0.295,-0.513 -0.738,-1.281 -0.459,-0.76 -0.998,-1.813 -1.533,-2.868 -0.56,-1.043 -1.015,-2.137 -1.388,-2.942 -0.374,-0.805 -0.588,-1.357 -0.588,-1.357 0,0 -0.31,-0.786 -0.775,-1.966 -0.245,-0.585 -0.465,-1.292 -0.724,-2.041 -0.249,-0.752 -0.541,-1.547 -0.757,-2.365 -0.229,-0.814 -0.459,-1.627 -0.674,-2.39 -0.179,-0.772 -0.345,-1.493 -0.488,-2.11 -0.145,-0.617 -0.261,-1.133 -0.318,-1.498 -0.065,-0.364 -0.103,-0.572 -0.103,-0.572 l 11.089,-2.074 c 0,0 -0.099,-0.55 -0.246,-1.376 -0.146,-0.826 -0.255,-1.94 -0.408,-3.048 -0.081,-1.116 -0.184,-2.231 -0.222,-3.069 -0.021,-0.84 -0.034,-1.4 -0.034,-1.4 l -10.026,0.204 c 0,0 0.011,0.414 0.026,1.034 0.003,0.621 0.055,1.447 0.125,2.272 0.07,0.825 0.11,1.653 0.191,2.269 0.078,0.617 0.13,1.027 0.13,1.027 l 6.22,-0.768 c 0,0 -0.076,-0.593 -0.151,-1.187 -0.047,-0.596 -0.093,-1.193 -0.093,-1.193 l -3.123,0.256 -0.095,-1.257 4.379,-0.268 c 0,0 0.09,1.167 0.18,2.334 0.148,1.161 0.295,2.322 0.295,2.322 l -8.684,1.254 c 0,0 -0.075,-0.586 -0.187,-1.466 -0.13,-0.878 -0.231,-2.056 -0.311,-3.235 -0.111,-1.178 -0.131,-2.359 -0.151,-3.244 -0.021,-0.885 -0.035,-1.476 -0.035,-1.476 0,0 0.02,-0.843 0.051,-2.108 10e-4,-1.266 0.167,-2.948 0.293,-4.631 0.358,-3.361 1.039,-6.676 1.039,-6.676 l 11.044,2.304 c 0,0 0.126,-0.544 0.315,-1.361 0.166,-0.823 0.48,-1.895 0.787,-2.97 0.292,-1.079 0.701,-2.122 0.952,-2.921 0.284,-0.789 0.501,-1.304 0.501,-1.304 l -9.341,-3.647 c 0,0 -0.152,0.386 -0.379,0.964 -0.228,0.578 -0.475,1.371 -0.746,2.154 -0.278,0.782 -0.519,1.575 -0.679,2.176 -0.17,0.598 -0.283,0.997 -0.283,0.997 l 6.044,1.66 c 0,0 0.163,-0.575 0.327,-1.15 0.153,-0.578 0.349,-1.143 0.349,-1.143 l -2.985,-0.955 0.404,-1.195 4.15,1.424 c 0,0 -0.094,0.277 -0.234,0.693 -0.143,0.415 -0.334,0.968 -0.482,1.534 -0.16,0.563 -0.32,1.125 -0.44,1.547 -0.126,0.42 -0.188,0.706 -0.188,0.706 l -8.508,-2.148 c 0,0 0.029,-0.145 0.097,-0.395 0.07,-0.249 0.171,-0.605 0.292,-1.032 0.246,-0.853 0.546,-1.999 0.947,-3.113 0.372,-1.124 0.758,-2.242 1.101,-3.062 0.326,-0.826 0.543,-1.376 0.543,-1.376 0,0 0.08,-0.196 0.219,-0.538 0.152,-0.337 0.369,-0.819 0.63,-1.397 0.496,-1.168 1.28,-2.666 2.053,-4.168 0.838,-1.467 1.664,-2.943 2.372,-3.994 0.342,-0.533 0.628,-0.977 0.827,-1.288 0.2,-0.311 0.329,-0.478 0.329,-0.478 l 9.309,6.372 c 0,0 0.324,-0.456 0.811,-1.139 0.466,-0.699 1.182,-1.56 1.867,-2.445 0.704,-0.869 1.455,-1.7 2.002,-2.336 0.58,-0.607 0.966,-1.012 0.966,-1.012 l -7.235,-6.944 c 0,0 -0.286,0.3 -0.714,0.75 -0.439,0.44 -0.974,1.073 -1.517,1.698 -0.543,0.626 -1.09,1.248 -1.463,1.745 -0.384,0.488 -0.64,0.814 -0.64,0.814 l 4.943,3.853 c 0,0 0.37,-0.47 0.739,-0.941 0.181,-0.238 0.373,-0.468 0.523,-0.635 0.147,-0.169 0.245,-0.283 0.245,-0.283 l -2.39,-2.027 0.825,-0.953 3.288,2.905 c 0,0 -0.191,0.221 -0.479,0.553 -0.28,0.338 -0.687,0.761 -1.039,1.229 -0.723,0.921 -1.445,1.842 -1.445,1.842 l -7.03,-5.251 c 0,0 0.364,-0.466 0.91,-1.164 0.541,-0.703 1.277,-1.628 2.066,-2.509 0.389,-0.445 0.778,-0.89 1.143,-1.307 0.382,-0.401 0.738,-0.776 1.044,-1.097 0.612,-0.641 1.021,-1.068 1.021,-1.068 0,0 0.611,-0.583 1.526,-1.458 0.452,-0.444 0.997,-0.942 1.602,-1.453 0.604,-0.512 1.224,-1.087 1.89,-1.606 0.664,-0.522 1.328,-1.043 1.951,-1.532 0.635,-0.473 1.243,-0.892 1.758,-1.262 1.023,-0.748 1.746,-1.186 1.746,-1.186 l 6.179,9.439 c 0,0 0.471,-0.302 1.177,-0.755 0.706,-0.453 1.691,-0.985 2.656,-1.549 1.001,-0.497 1.979,-1.042 2.747,-1.379 0.764,-0.345 1.273,-0.575 1.273,-0.575 l -4.033,-9.181 c 0,0 -0.378,0.171 -0.944,0.427 -0.569,0.251 -1.322,0.596 -2.054,0.986 -0.735,0.382 -1.48,0.746 -2.022,1.05 -0.539,0.309 -0.898,0.515 -0.898,0.515 l 3.101,5.447 c 0,0 0.519,-0.297 1.038,-0.595 0.532,-0.272 1.065,-0.545 1.065,-0.545 l -1.436,-2.785 1.122,-0.575 1.93,3.94 c 0,0 -1.042,0.533 -2.083,1.067 -1.015,0.582 -2.03,1.165 -2.03,1.165 l -4.499,-7.534 c 0,0 0.513,-0.295 1.281,-0.738 0.76,-0.459 1.813,-0.998 2.868,-1.533 1.043,-0.56 2.137,-1.015 2.942,-1.388 0.805,-0.374 1.357,-0.588 1.357,-0.588 0,0 0.786,-0.31 1.966,-0.776 0.585,-0.245 1.292,-0.465 2.041,-0.724 0.752,-0.249 1.547,-0.541 2.365,-0.757 0.814,-0.229 1.627,-0.459 2.39,-0.674 0.772,-0.179 1.493,-0.346 2.11,-0.489 0.617,-0.145 1.132,-0.261 1.498,-0.318 0.364,-0.065 0.572,-0.103 0.572,-0.103 l 2.074,11.089 c 0,0 0.55,-0.099 1.376,-0.246 0.826,-0.146 1.94,-0.255 3.048,-0.408 1.116,-0.081 2.231,-0.184 3.069,-0.222 0.84,-0.021 1.4,-0.034 1.4,-0.034 l -0.204,-10.026 c 0,0 -0.414,0.011 -1.034,0.026 -0.621,0.003 -1.447,0.055 -2.272,0.125 -0.825,0.07 -1.653,0.11 -2.269,0.191 -0.617,0.078 -1.027,0.13 -1.027,0.13 l 0.768,6.22 c 0,0 0.593,-0.076 1.187,-0.151 0.596,-0.047 1.193,-0.093 1.193,-0.093 l -0.256,-3.123 1.257,-0.095 0.268,4.379 c 0,0 -1.167,0.09 -2.334,0.18 -1.161,0.148 -2.322,0.295 -2.322,0.295 l -1.254,-8.684 c 0,0 0.587,-0.075 1.466,-0.187 0.878,-0.131 2.056,-0.231 3.235,-0.311 1.178,-0.111 2.359,-0.131 3.244,-0.151 0.885,-0.021 1.476,-0.035 1.476,-0.035 0,0 0.843,0.021 2.108,0.051 1.266,0.001 2.948,0.167 4.631,0.293 3.361,0.358 6.676,1.039 6.676,1.039 l -2.304,11.044 c 0,0 0.545,0.126 1.361,0.315 0.823,0.166 1.895,0.48 2.97,0.787 1.079,0.292 2.122,0.701 2.921,0.953 0.788,0.284 1.304,0.502 1.304,0.502 l 3.648,-9.341 c 0,0 -0.386,-0.152 -0.964,-0.379 -0.578,-0.228 -1.371,-0.475 -2.154,-0.746 -0.782,-0.278 -1.575,-0.519 -2.176,-0.679 -0.598,-0.17 -0.997,-0.283 -0.997,-0.283 l -1.66,6.044 c 0,0 0.575,0.163 1.15,0.327 0.579,0.153 1.144,0.349 1.144,0.349 l 0.955,-2.985 1.195,0.404 -1.424,4.15 c 0,0 -0.277,-0.094 -0.693,-0.234 -0.415,-0.143 -0.968,-0.334 -1.534,-0.482 -0.563,-0.16 -1.125,-0.32 -1.547,-0.44 -0.42,-0.126 -0.707,-0.188 -0.707,-0.188 l 2.148,-8.508 c 0,0 0.145,0.029 0.395,0.097 0.249,0.07 0.605,0.171 1.032,0.292 0.853,0.246 1.999,0.546 3.113,0.947 1.124,0.372 2.243,0.758 3.062,1.101 0.826,0.326 1.376,0.544 1.376,0.544 0,0 0.196,0.08 0.538,0.219 0.337,0.152 0.819,0.369 1.397,0.63 1.168,0.496 2.666,1.28 4.168,2.053 1.467,0.838 2.943,1.663 3.994,2.372 0.533,0.342 0.977,0.628 1.288,0.827 0.31,0.2 0.478,0.329 0.478,0.329 l -6.372,9.309 c 0,0 0.456,0.324 1.139,0.811 0.699,0.466 1.56,1.182 2.444,1.867 0.869,0.704 1.7,1.456 2.336,2.003 0.607,0.58 1.012,0.966 1.012,0.966 l 6.944,-7.235 c 0,0 -0.3,-0.286 -0.749,-0.714 -0.44,-0.439 -1.073,-0.974 -1.698,-1.517 -0.626,-0.543 -1.248,-1.09 -1.745,-1.463 -0.488,-0.384 -0.814,-0.64 -0.814,-0.64 l -3.853,4.943 c 0,0 0.47,0.369 0.941,0.739 0.238,0.181 0.468,0.373 0.635,0.523 0.169,0.147 0.283,0.245 0.283,0.245 l 2.026,-2.39 0.953,0.825 -2.905,3.287 c 0,0 -0.221,-0.192 -0.553,-0.479 -0.338,-0.28 -0.761,-0.687 -1.229,-1.039 -0.921,-0.723 -1.841,-1.445 -1.841,-1.445 l 5.25,-7.03 c 0,0 0.466,0.364 1.164,0.91 0.703,0.541 1.628,1.277 2.509,2.065 0.445,0.389 0.89,0.778 1.307,1.143 0.401,0.382 0.776,0.738 1.097,1.044 0.641,0.612 1.068,1.021 1.068,1.021 0,0 0.583,0.611 1.458,1.526 0.444,0.452 0.942,0.997 1.453,1.602 0.512,0.604 1.087,1.224 1.606,1.89 0.521,0.664 1.043,1.328 1.532,1.951 0.473,0.635 0.893,1.243 1.262,1.758 0.748,1.023 1.186,1.746 1.186,1.746 l -9.439,6.179 c 0,0 0.302,0.471 0.755,1.177 0.453,0.706 0.985,1.691 1.549,2.656 0.497,1.001 1.042,1.98 1.379,2.747 0.345,0.764 0.575,1.273 0.575,1.273 l 9.181,-4.033 c 0,0 -0.171,-0.378 -0.427,-0.944 -0.251,-0.569 -0.596,-1.323 -0.986,-2.054 -0.382,-0.736 -0.747,-1.48 -1.05,-2.022 -0.309,-0.539 -0.516,-0.898 -0.516,-0.898 l -5.446,3.101 c 0,0 0.297,0.519 0.595,1.038 0.273,0.532 0.545,1.065 0.545,1.065 l 2.785,-1.436 0.575,1.122 -3.94,1.93 c 0,0 -0.533,-1.042 -1.066,-2.083 -0.583,-1.015 -1.165,-2.03 -1.165,-2.03 l 7.534,-4.499 c 0,0 0.295,0.513 0.738,1.281 0.459,0.76 0.998,1.813 1.533,2.868 0.56,1.043 1.015,2.137 1.388,2.942 0.374,0.805 0.588,1.357 0.588,1.357 0,0 0.31,0.786 0.776,1.966 0.245,0.585 0.465,1.292 0.724,2.041 0.249,0.752 0.541,1.547 0.757,2.365 0.229,0.814 0.459,1.627 0.674,2.39 0.179,0.772 0.346,1.493 0.489,2.11 0.145,0.617 0.261,1.133 0.318,1.498 0.065,0.364 0.103,0.572 0.103,0.572 l -11.089,2.074 c 0,0 0.099,0.55 0.246,1.376 0.146,0.826 0.255,1.94 0.408,3.048 0.081,1.116 0.184,2.231 0.222,3.069 0.021,0.84 0.034,1.4 0.034,1.4 l 10.026,-0.204 c 0,0 -0.01,-0.414 -0.026,-1.034 -0.003,-0.621 -0.055,-1.447 -0.125,-2.272 -0.07,-0.825 -0.11,-1.653 -0.191,-2.269 -0.078,-0.616 -0.13,-1.028 -0.13,-1.028 l -6.22,0.768 c 0,0 0.076,0.593 0.151,1.186 0.047,0.596 0.093,1.193 0.093,1.193 l 3.123,-0.256 0.095,1.257 -4.379,0.268 c 0,0 -0.09,-1.167 -0.18,-2.334 -0.148,-1.161 -0.295,-2.322 -0.295,-2.322 l 8.684,-1.255 c 0,0 0.075,0.587 0.187,1.466 0.13,0.878 0.231,2.056 0.311,3.235 0.111,1.178 0.131,2.359 0.151,3.244 0.021,0.885 0.035,1.475 0.035,1.475 0,0 -0.021,0.843 -0.052,2.108 0.003,1.271 -0.163,2.954 -0.289,4.637 z"
   id="path10" />

		<path
   style="fill:#be1e2d"
   d="m 546.454,488.51 c -0.295,-2.718 -0.84,-5.394 -0.84,-5.394 l 11.044,-2.304 c 0,0 -0.149,-0.646 -0.372,-1.616 -0.201,-0.975 -0.568,-2.25 -0.935,-3.525 -0.352,-1.279 -0.827,-2.52 -1.132,-3.467 -0.337,-0.936 -0.593,-1.548 -0.593,-1.548 l -9.341,3.647 c 0,0 0.129,0.325 0.321,0.812 0.194,0.487 0.397,1.156 0.627,1.815 0.236,0.658 0.439,1.326 0.572,1.833 0.143,0.504 0.238,0.84 0.238,0.84 l 6.044,-1.66 c 0,0 -0.171,-0.6 -0.341,-1.201 -0.16,-0.604 -0.364,-1.194 -0.364,-1.194 l -2.985,0.955 -0.379,-1.12 4.15,-1.424 c 0,0 0.102,0.302 0.255,0.754 0.155,0.452 0.362,1.055 0.525,1.671 0.174,0.613 0.348,1.226 0.479,1.685 0.136,0.458 0.204,0.77 0.204,0.77 l -8.508,2.148 c 0,0 -0.022,-0.118 -0.078,-0.319 -0.057,-0.201 -0.139,-0.488 -0.238,-0.832 -0.201,-0.688 -0.435,-1.614 -0.764,-2.512 -0.3,-0.907 -0.608,-1.811 -0.889,-2.471 -0.262,-0.667 -0.437,-1.111 -0.437,-1.111 0,0 -0.064,-0.158 -0.176,-0.435 -0.123,-0.272 -0.299,-0.66 -0.511,-1.126 -0.395,-0.945 -1.037,-2.151 -1.655,-3.368 -0.684,-1.182 -1.342,-2.379 -1.92,-3.226 -0.276,-0.432 -0.506,-0.791 -0.667,-1.043 -0.161,-0.252 -0.267,-0.386 -0.267,-0.386 l 9.309,-6.372 c 0,0 -0.384,-0.54 -0.96,-1.351 -0.557,-0.825 -1.398,-1.85 -2.213,-2.895 -0.834,-1.029 -1.721,-2.015 -2.372,-2.765 -0.685,-0.72 -1.142,-1.2 -1.142,-1.2 l -7.235,6.944 c 0,0 0.241,0.253 0.604,0.633 0.373,0.369 0.821,0.907 1.28,1.435 0.458,0.528 0.923,1.051 1.236,1.473 0.324,0.413 0.54,0.687 0.54,0.687 l 4.943,-3.853 c 0,0 -0.386,-0.491 -0.771,-0.981 -0.189,-0.248 -0.389,-0.488 -0.545,-0.662 -0.153,-0.177 -0.255,-0.295 -0.255,-0.295 l -2.39,2.026 -0.775,-0.894 3.287,-2.905 c 0,0 0.208,0.241 0.521,0.602 0.305,0.367 0.745,0.829 1.13,1.338 0.786,1.002 1.572,2.004 1.572,2.004 l -7.03,5.251 c 0,0 -0.296,-0.376 -0.739,-0.94 -0.437,-0.569 -1.031,-1.319 -1.671,-2.03 -0.314,-0.361 -0.628,-0.721 -0.923,-1.059 -0.31,-0.324 -0.599,-0.627 -0.847,-0.886 -0.494,-0.52 -0.824,-0.867 -0.824,-0.867 0,0 -0.495,-0.471 -1.237,-1.178 -0.364,-0.361 -0.805,-0.765 -1.297,-1.176 -0.49,-0.412 -0.987,-0.883 -1.528,-1.3 -0.537,-0.422 -1.074,-0.845 -1.578,-1.24 -0.521,-0.373 -1.006,-0.721 -1.423,-1.019 -0.825,-0.609 -1.412,-0.959 -1.412,-0.959 l 6.179,-9.439 c 0,0 -0.558,-0.358 -1.395,-0.894 -0.838,-0.535 -2.002,-1.172 -3.15,-1.835 -1.184,-0.596 -2.349,-1.234 -3.258,-1.637 -0.906,-0.41 -1.51,-0.683 -1.51,-0.683 l -4.033,9.181 c 0,0 0.318,0.144 0.796,0.36 0.48,0.21 1.116,0.5 1.732,0.831 0.619,0.323 1.249,0.627 1.706,0.884 0.454,0.262 0.757,0.436 0.757,0.436 l 3.101,-5.447 c 0,0 -0.542,-0.31 -1.083,-0.62 -0.555,-0.285 -1.111,-0.569 -1.111,-0.569 l -1.436,2.785 -1.053,-0.54 1.93,-3.94 c 0,0 1.134,0.581 2.268,1.162 1.105,0.634 2.21,1.268 2.21,1.268 l -4.498,7.534 c 0,0 -0.414,-0.238 -1.036,-0.595 -0.612,-0.375 -1.465,-0.806 -2.317,-1.239 -0.84,-0.458 -1.727,-0.817 -2.375,-1.121 -0.648,-0.305 -1.095,-0.476 -1.095,-0.476 0,0 -0.635,-0.25 -1.587,-0.625 -0.471,-0.202 -1.043,-0.374 -1.648,-0.583 -0.607,-0.2 -1.246,-0.442 -1.908,-0.612 -0.656,-0.186 -1.313,-0.372 -1.928,-0.546 -0.623,-0.143 -1.205,-0.277 -1.704,-0.392 -0.498,-0.118 -0.913,-0.215 -1.209,-0.258 -0.294,-0.052 -0.462,-0.082 -0.462,-0.082 l 2.074,-11.089 c 0,0 -0.653,-0.116 -1.632,-0.291 -0.98,-0.171 -2.299,-0.308 -3.613,-0.482 -1.321,-0.102 -2.642,-0.219 -3.633,-0.264 -0.993,-0.026 -1.654,-0.043 -1.654,-0.043 l -0.204,10.026 c 0,0 0.35,0.009 0.875,0.022 0.526,-10e-4 1.224,0.045 1.921,0.106 0.697,0.061 1.397,0.089 1.916,0.16 0.52,0.067 0.867,0.111 0.867,0.111 l 0.768,-6.22 c 0,0 -0.619,-0.078 -1.238,-0.157 -0.622,-0.049 -1.244,-0.098 -1.244,-0.098 l -0.255,3.123 -1.18,-0.09 0.268,-4.379 c 0,0 1.27,0.098 2.539,0.196 1.264,0.16 2.527,0.321 2.527,0.321 l -1.254,8.684 c 0,0 -0.474,-0.06 -1.186,-0.15 -0.709,-0.11 -1.663,-0.187 -2.617,-0.252 -0.952,-0.095 -1.911,-0.105 -2.629,-0.122 -0.718,-0.019 -1.197,-0.032 -1.197,-0.032 0,0 -0.684,0.018 -1.71,0.045 -1.028,-0.007 -2.388,0.141 -3.751,0.234 -2.718,0.295 -5.394,0.84 -5.394,0.84 l -2.304,-11.044 c 0,0 -0.646,0.149 -1.616,0.372 -0.975,0.202 -2.25,0.568 -3.525,0.935 -1.279,0.352 -2.52,0.827 -3.467,1.132 -0.936,0.337 -1.548,0.593 -1.548,0.593 l 3.647,9.341 c 0,0 0.325,-0.128 0.812,-0.321 0.487,-0.194 1.156,-0.397 1.815,-0.627 0.658,-0.237 1.326,-0.44 1.833,-0.572 0.504,-0.143 0.84,-0.238 0.84,-0.238 l -1.66,-6.044 c 0,0 -0.6,0.171 -1.201,0.341 -0.604,0.16 -1.193,0.364 -1.193,0.364 l 0.955,2.985 -1.121,0.379 -1.424,-4.15 c 0,0 0.302,-0.102 0.754,-0.255 0.452,-0.155 1.055,-0.362 1.671,-0.525 0.613,-0.174 1.226,-0.348 1.686,-0.478 0.458,-0.136 0.77,-0.204 0.77,-0.204 l 2.148,8.508 c 0,0 -0.118,0.022 -0.319,0.078 -0.201,0.057 -0.488,0.139 -0.832,0.238 -0.688,0.201 -1.614,0.435 -2.512,0.764 -0.907,0.3 -1.811,0.608 -2.471,0.889 -0.667,0.262 -1.111,0.437 -1.111,0.437 0,0 -0.158,0.064 -0.435,0.176 -0.272,0.123 -0.66,0.299 -1.126,0.511 -0.945,0.395 -2.151,1.037 -3.368,1.656 -1.182,0.684 -2.379,1.342 -3.226,1.92 -0.431,0.276 -0.791,0.506 -1.043,0.667 -0.252,0.161 -0.386,0.267 -0.386,0.267 l -6.372,-9.309 c 0,0 -0.54,0.384 -1.351,0.96 -0.825,0.557 -1.85,1.398 -2.895,2.213 -1.029,0.835 -2.015,1.721 -2.765,2.372 -0.72,0.685 -1.2,1.142 -1.2,1.142 l 6.944,7.235 c 0,0 0.253,-0.241 0.633,-0.603 0.369,-0.373 0.907,-0.821 1.435,-1.28 0.528,-0.458 1.051,-0.923 1.473,-1.236 0.413,-0.324 0.688,-0.54 0.688,-0.54 l -3.853,-4.943 c 0,0 -0.491,0.386 -0.981,0.771 -0.248,0.189 -0.488,0.389 -0.662,0.545 -0.177,0.153 -0.295,0.255 -0.295,0.255 l 2.027,2.39 -0.895,0.775 -2.905,-3.287 c 0,0 0.241,-0.208 0.602,-0.521 0.367,-0.306 0.829,-0.745 1.338,-1.13 1.002,-0.786 2.004,-1.572 2.004,-1.572 l 5.251,7.03 c 0,0 -0.376,0.296 -0.94,0.739 -0.569,0.437 -1.319,1.031 -2.03,1.671 -0.361,0.314 -0.721,0.628 -1.059,0.923 -0.324,0.31 -0.627,0.599 -0.886,0.847 -0.52,0.494 -0.867,0.824 -0.867,0.824 0,0 -0.471,0.495 -1.178,1.237 -0.362,0.364 -0.765,0.805 -1.176,1.297 -0.412,0.49 -0.883,0.987 -1.3,1.528 -0.422,0.537 -0.845,1.074 -1.241,1.578 -0.373,0.521 -0.721,1.007 -1.019,1.423 -0.609,0.825 -0.959,1.412 -0.959,1.412 l -9.439,-6.179 c 0,0 -0.358,0.558 -0.894,1.395 -0.535,0.838 -1.172,2.002 -1.835,3.15 -0.596,1.184 -1.234,2.348 -1.638,3.258 -0.41,0.906 -0.683,1.51 -0.683,1.51 l 9.181,4.033 c 0,0 0.144,-0.318 0.36,-0.796 0.21,-0.48 0.5,-1.116 0.831,-1.732 0.323,-0.619 0.627,-1.249 0.884,-1.706 0.262,-0.454 0.436,-0.757 0.436,-0.757 l -5.447,-3.101 c 0,0 -0.31,0.542 -0.62,1.083 -0.285,0.555 -0.569,1.111 -0.569,1.111 l 2.785,1.436 -0.54,1.053 -3.94,-1.93 c 0,0 0.581,-1.134 1.162,-2.268 0.634,-1.105 1.268,-2.21 1.268,-2.21 l 7.534,4.499 c 0,0 -0.238,0.415 -0.595,1.036 -0.375,0.612 -0.806,1.465 -1.239,2.317 -0.458,0.84 -0.817,1.727 -1.121,2.375 -0.305,0.648 -0.476,1.095 -0.476,1.095 0,0 -0.25,0.635 -0.625,1.587 -0.202,0.471 -0.374,1.044 -0.583,1.648 -0.2,0.607 -0.442,1.246 -0.612,1.908 -0.186,0.656 -0.372,1.313 -0.546,1.928 -0.143,0.623 -0.277,1.205 -0.392,1.704 -0.118,0.498 -0.215,0.913 -0.258,1.209 -0.052,0.294 -0.082,0.462 -0.082,0.462 l -11.089,-2.074 c 0,0 -0.116,0.653 -0.291,1.632 -0.171,0.98 -0.308,2.299 -0.482,3.613 -0.102,1.321 -0.219,2.641 -0.264,3.633 -0.026,0.993 -0.043,1.654 -0.043,1.654 l 10.026,0.204 c 0,0 0.009,-0.35 0.022,-0.875 -10e-4,-0.526 0.045,-1.224 0.106,-1.921 0.061,-0.697 0.089,-1.397 0.16,-1.916 0.067,-0.52 0.111,-0.867 0.111,-0.867 l -6.22,-0.768 c 0,0 -0.078,0.619 -0.157,1.238 -0.049,0.622 -0.098,1.244 -0.098,1.244 l 3.123,0.255 -0.09,1.18 -4.379,-0.268 c 0,0 0.098,-1.27 0.197,-2.539 0.16,-1.264 0.321,-2.527 0.321,-2.527 l 8.684,1.255 c 0,0 -0.06,0.474 -0.15,1.186 -0.11,0.709 -0.187,1.662 -0.252,2.617 -0.095,0.953 -0.105,1.911 -0.122,2.629 -0.019,0.718 -0.032,1.197 -0.032,1.197 0,0 0.018,0.684 0.045,1.71 -0.007,1.028 0.141,2.388 0.234,3.751 0.295,2.718 0.84,5.394 0.84,5.394 l -11.044,2.304 c 0,0 0.149,0.646 0.372,1.616 0.202,0.975 0.568,2.25 0.935,3.525 0.351,1.279 0.827,2.52 1.132,3.467 0.337,0.936 0.593,1.548 0.593,1.548 l 9.341,-3.647 c 0,0 -0.128,-0.325 -0.321,-0.812 -0.194,-0.487 -0.397,-1.156 -0.627,-1.815 -0.237,-0.658 -0.44,-1.326 -0.572,-1.833 -0.143,-0.504 -0.238,-0.84 -0.238,-0.84 l -6.044,1.66 c 0,0 0.171,0.6 0.341,1.201 0.16,0.604 0.364,1.193 0.364,1.193 l 2.985,-0.955 0.379,1.121 -4.15,1.424 c 0,0 -0.102,-0.302 -0.255,-0.754 -0.155,-0.452 -0.362,-1.055 -0.525,-1.671 -0.174,-0.613 -0.348,-1.226 -0.478,-1.686 -0.136,-0.458 -0.204,-0.77 -0.204,-0.77 l 8.508,-2.148 c 0,0 0.022,0.118 0.078,0.319 0.057,0.201 0.139,0.488 0.238,0.832 0.201,0.688 0.435,1.614 0.764,2.512 0.3,0.907 0.608,1.811 0.889,2.471 0.262,0.667 0.437,1.111 0.437,1.111 0,0 0.064,0.158 0.176,0.435 0.123,0.272 0.3,0.66 0.511,1.126 0.395,0.945 1.037,2.151 1.655,3.368 0.684,1.182 1.342,2.379 1.92,3.226 0.276,0.431 0.506,0.791 0.667,1.043 0.161,0.252 0.267,0.386 0.267,0.386 l -9.309,6.372 c 0,0 0.384,0.54 0.96,1.351 0.557,0.825 1.398,1.85 2.213,2.895 0.835,1.029 1.721,2.015 2.372,2.765 0.685,0.72 1.142,1.2 1.142,1.2 l 7.235,-6.944 c 0,0 -0.241,-0.253 -0.604,-0.632 -0.373,-0.369 -0.821,-0.907 -1.28,-1.435 -0.458,-0.528 -0.923,-1.051 -1.236,-1.473 -0.324,-0.412 -0.54,-0.688 -0.54,-0.688 l -4.943,3.853 c 0,0 0.386,0.49 0.771,0.981 0.189,0.248 0.389,0.488 0.545,0.662 0.153,0.177 0.255,0.295 0.255,0.295 l 2.39,-2.026 0.775,0.894 -3.288,2.905 c 0,0 -0.208,-0.241 -0.521,-0.602 -0.306,-0.367 -0.745,-0.829 -1.13,-1.338 -0.786,-1.002 -1.572,-2.004 -1.572,-2.004 l 7.03,-5.25 c 0,0 0.296,0.376 0.739,0.94 0.437,0.569 1.03,1.319 1.671,2.03 0.314,0.361 0.628,0.721 0.923,1.059 0.31,0.324 0.599,0.627 0.847,0.886 0.494,0.52 0.824,0.867 0.824,0.867 0,0 0.495,0.471 1.238,1.178 0.364,0.362 0.805,0.765 1.297,1.176 0.49,0.412 0.987,0.883 1.529,1.3 0.537,0.422 1.074,0.845 1.577,1.24 0.521,0.373 1.007,0.721 1.423,1.019 0.825,0.609 1.412,0.959 1.412,0.959 l -6.179,9.439 c 0,0 0.558,0.358 1.395,0.894 0.838,0.535 2.002,1.172 3.15,1.835 1.184,0.596 2.348,1.234 3.258,1.637 0.906,0.41 1.51,0.683 1.51,0.683 l 4.033,-9.181 c 0,0 -0.318,-0.144 -0.796,-0.36 -0.48,-0.21 -1.116,-0.5 -1.732,-0.831 -0.619,-0.323 -1.249,-0.627 -1.706,-0.884 -0.454,-0.262 -0.757,-0.436 -0.757,-0.436 l -3.101,5.447 c 0,0 0.542,0.31 1.083,0.62 0.555,0.285 1.111,0.569 1.111,0.569 l 1.436,-2.785 1.053,0.539 -1.93,3.94 c 0,0 -1.134,-0.581 -2.268,-1.162 -1.105,-0.634 -2.21,-1.268 -2.21,-1.268 l 4.499,-7.534 c 0,0 0.414,0.238 1.036,0.595 0.612,0.375 1.465,0.806 2.317,1.239 0.84,0.458 1.727,0.817 2.375,1.121 0.649,0.305 1.095,0.476 1.095,0.476 0,0 0.635,0.25 1.587,0.625 0.471,0.202 1.043,0.373 1.648,0.583 0.607,0.2 1.246,0.442 1.908,0.611 0.656,0.186 1.313,0.372 1.928,0.546 0.623,0.143 1.205,0.277 1.704,0.392 0.498,0.118 0.913,0.215 1.209,0.258 0.294,0.052 0.462,0.082 0.462,0.082 l -2.074,11.089 c 0,0 0.653,0.116 1.632,0.291 0.98,0.171 2.299,0.308 3.613,0.482 1.321,0.102 2.642,0.219 3.633,0.264 0.993,0.026 1.654,0.043 1.654,0.043 l 0.204,-10.026 c 0,0 -0.35,-0.009 -0.875,-0.022 -0.526,10e-4 -1.224,-0.045 -1.921,-0.106 -0.697,-0.061 -1.397,-0.089 -1.916,-0.16 -0.52,-0.067 -0.867,-0.111 -0.867,-0.111 l -0.768,6.22 c 0,0 0.619,0.078 1.238,0.157 0.622,0.049 1.244,0.098 1.244,0.098 l 0.255,-3.123 1.18,0.09 -0.268,4.379 c 0,0 -1.27,-0.098 -2.539,-0.196 -1.264,-0.16 -2.527,-0.321 -2.527,-0.321 l 1.254,-8.684 c 0,0 0.474,0.06 1.186,0.15 0.709,0.11 1.662,0.187 2.617,0.252 0.952,0.095 1.911,0.106 2.629,0.122 0.718,0.019 1.197,0.032 1.197,0.032 0,0 0.684,-0.018 1.71,-0.045 1.028,0.007 2.388,-0.141 3.751,-0.234 2.718,-0.295 5.394,-0.84 5.394,-0.84 l 2.304,11.044 c 0,0 0.646,-0.149 1.616,-0.372 0.975,-0.202 2.25,-0.568 3.525,-0.935 1.279,-0.352 2.52,-0.827 3.467,-1.132 0.936,-0.337 1.548,-0.593 1.548,-0.593 l -3.648,-9.341 c 0,0 -0.325,0.128 -0.812,0.321 -0.487,0.194 -1.156,0.397 -1.815,0.627 -0.658,0.237 -1.326,0.44 -1.833,0.572 -0.504,0.143 -0.84,0.239 -0.84,0.239 l 1.66,6.044 c 0,0 0.6,-0.17 1.201,-0.341 0.604,-0.16 1.193,-0.365 1.193,-0.365 l -0.955,-2.984 1.12,-0.379 1.424,4.15 c 0,0 -0.302,0.102 -0.755,0.255 -0.452,0.155 -1.055,0.362 -1.671,0.525 -0.613,0.174 -1.226,0.348 -1.686,0.479 -0.458,0.136 -0.77,0.204 -0.77,0.204 l -2.148,-8.508 c 0,0 0.118,-0.022 0.319,-0.078 0.201,-0.057 0.488,-0.139 0.832,-0.238 0.687,-0.201 1.614,-0.435 2.512,-0.764 0.907,-0.3 1.811,-0.608 2.471,-0.889 0.667,-0.262 1.111,-0.437 1.111,-0.437 0,0 0.158,-0.064 0.435,-0.176 0.272,-0.123 0.66,-0.3 1.126,-0.511 0.945,-0.395 2.151,-1.037 3.368,-1.655 1.182,-0.684 2.379,-1.342 3.226,-1.92 0.431,-0.276 0.791,-0.506 1.043,-0.667 0.252,-0.161 0.386,-0.267 0.386,-0.267 l 6.372,9.309 c 0,0 0.54,-0.384 1.351,-0.96 0.825,-0.557 1.85,-1.398 2.895,-2.213 1.029,-0.834 2.015,-1.721 2.765,-2.372 0.72,-0.685 1.2,-1.142 1.2,-1.142 l -6.944,-7.235 c 0,0 -0.253,0.241 -0.633,0.603 -0.369,0.373 -0.907,0.821 -1.435,1.28 -0.528,0.458 -1.051,0.923 -1.473,1.236 -0.412,0.324 -0.688,0.54 -0.688,0.54 l 3.853,4.943 c 0,0 0.49,-0.386 0.981,-0.771 0.248,-0.189 0.488,-0.389 0.662,-0.545 0.177,-0.153 0.295,-0.255 0.295,-0.255 l -2.026,-2.39 0.895,-0.775 2.905,3.288 c 0,0 -0.241,0.208 -0.602,0.521 -0.367,0.305 -0.829,0.745 -1.338,1.13 -1.002,0.786 -2.004,1.572 -2.004,1.572 l -5.25,-7.03 c 0,0 0.376,-0.295 0.94,-0.739 0.569,-0.437 1.319,-1.031 2.03,-1.671 0.361,-0.314 0.721,-0.628 1.059,-0.923 0.324,-0.31 0.627,-0.599 0.886,-0.847 0.52,-0.494 0.867,-0.824 0.867,-0.824 0,0 0.471,-0.495 1.178,-1.237 0.362,-0.364 0.765,-0.805 1.176,-1.297 0.412,-0.49 0.883,-0.987 1.3,-1.528 0.422,-0.537 0.845,-1.074 1.24,-1.578 0.373,-0.521 0.721,-1.007 1.019,-1.423 0.609,-0.825 0.959,-1.412 0.959,-1.412 l 9.439,6.179 c 0,0 0.358,-0.558 0.894,-1.395 0.535,-0.838 1.172,-2.002 1.836,-3.15 0.596,-1.184 1.234,-2.349 1.637,-3.258 0.41,-0.906 0.683,-1.511 0.683,-1.511 l -9.181,-4.033 c 0,0 -0.144,0.318 -0.36,0.796 -0.21,0.48 -0.5,1.116 -0.831,1.732 -0.323,0.619 -0.627,1.249 -0.884,1.706 -0.262,0.454 -0.436,0.757 -0.436,0.757 l 5.447,3.101 c 0,0 0.31,-0.542 0.62,-1.083 0.285,-0.555 0.569,-1.111 0.569,-1.111 l -2.785,-1.437 0.54,-1.053 3.94,1.93 c 0,0 -0.581,1.134 -1.162,2.268 -0.634,1.105 -1.268,2.21 -1.268,2.21 l -7.534,-4.498 c 0,0 0.238,-0.414 0.595,-1.036 0.375,-0.612 0.806,-1.465 1.239,-2.317 0.457,-0.84 0.817,-1.727 1.121,-2.375 0.305,-0.649 0.476,-1.095 0.476,-1.095 0,0 0.25,-0.635 0.625,-1.587 0.202,-0.471 0.373,-1.044 0.583,-1.648 0.2,-0.607 0.442,-1.246 0.611,-1.908 0.186,-0.656 0.372,-1.313 0.546,-1.928 0.143,-0.623 0.277,-1.205 0.392,-1.704 0.118,-0.498 0.215,-0.913 0.258,-1.209 0.052,-0.294 0.082,-0.462 0.082,-0.462 l 11.089,2.074 c 0,0 0.116,-0.653 0.291,-1.632 0.171,-0.98 0.308,-2.299 0.482,-3.613 0.102,-1.321 0.219,-2.641 0.264,-3.633 0.026,-0.993 0.043,-1.655 0.043,-1.655 l -10.026,-0.204 c 0,0 -0.009,0.35 -0.022,0.875 0,0.526 -0.045,1.224 -0.106,1.921 -0.061,0.697 -0.089,1.397 -0.16,1.916 -0.067,0.52 -0.111,0.867 -0.111,0.867 l 6.22,0.768 c 0,0 0.078,-0.619 0.157,-1.238 0.049,-0.622 0.098,-1.244 0.098,-1.244 l -3.123,-0.255 0.09,-1.18 4.379,0.268 c 0,0 -0.098,1.27 -0.197,2.539 -0.16,1.264 -0.321,2.527 -0.321,2.527 l -8.684,-1.255 c 0,0 0.06,-0.474 0.15,-1.185 0.11,-0.709 0.187,-1.663 0.252,-2.617 0.095,-0.953 0.106,-1.911 0.122,-2.629 0.019,-0.718 0.032,-1.197 0.032,-1.197 0,0 -0.018,-0.684 -0.045,-1.71 0.008,-1.029 -0.14,-2.389 -0.233,-3.752 z m -52.578,56.228 c -27.993,0 -50.767,-22.774 -50.767,-50.767 0,-27.993 22.774,-50.767 50.767,-50.767 27.993,0 50.767,22.774 50.767,50.767 0,27.993 -22.773,50.767 -50.767,50.767 z"
   id="path11" />

	</g>
  </g>
</svg>
