<?xml version="1.0" encoding="UTF-8" standalone="no"?>
<!-- Created with Inkscape (http://www.inkscape.org/) -->

<svg
   width="32.211163mm"
   height="32.212029mm"
   viewBox="0 0 32.211163 32.212029"
   version="1.1"
   id="svg1"
   xmlns="http://www.w3.org/2000/svg"
   xmlns:svg="http://www.w3.org/2000/svg">
  <defs
     id="defs1" />
  <g
     id="layer1"
     transform="translate(-44.714582,-75.670835)">
    <g
       id="g13"
       transform="matrix(0.26458333,0,0,0.26458333,-24.910786,-38.919347)">
		<path
   style="fill:#be1e2d"
   d="m 325.995,516.996 c -5.538,0 -10.035,4.498 -10.035,10.027 0,5.538 4.498,10.036 10.035,10.036 5.529,0 10.036,-4.498 10.036,-10.036 0,-5.53 -4.507,-10.027 -10.036,-10.027 z"
   id="path12" />

		<path
   style="fill:#be1e2d"
   d="m 343.729,436.364 c -9.129,-3.333 -16.8,-3.289 -19.316,-3.262 h -0.391 c -33.564,0 -60.871,27.307 -60.871,60.871 0,32.098 24.978,58.453 56.516,60.702 0.133,0.009 0.267,0.027 0.409,0.044 v -0.018 c 1.307,0.089 2.622,0.142 3.947,0.142 33.564,0 60.871,-27.307 60.871,-60.871 -0.001,-27.963 -20.703,-50.141 -41.165,-57.608 z m -7.698,28.312 c 0,5.538 -4.507,10.035 -10.036,10.035 -5.538,0 -10.035,-4.498 -10.035,-10.035 0,-5.529 4.498,-10.036 10.035,-10.036 5.529,0 10.036,4.507 10.036,10.036 z M 324.022,550.4 c -1.28,0 -2.542,-0.053 -3.804,-0.142 -11.707,-1.138 -16.747,-7.28 -21.049,-16.809 -3.849,-8.525 -2.551,-19.156 3.218,-26.471 5.36,-6.791 13.236,-8.871 14.764,-9.218 2.169,-0.498 3.2,-0.551 4.907,-0.649 1.013,-0.053 2.276,-0.124 4.08,-0.311 7.164,-0.729 13.573,-4.08 17.173,-6.978 13.787,-11.093 12.542,-29.413 12.329,-31.671 -0.044,-0.729 -0.569,-7.004 -4.898,-13.573 15.831,9.227 29.707,27.378 29.707,49.396 0,31.11 -25.307,56.426 -56.427,56.426 z"
   id="path13" />

	</g>
  </g>
</svg>
