<?xml version="1.0" encoding="UTF-8" standalone="no"?>
<!-- Created with Inkscape (http://www.inkscape.org/) -->

<svg
   width="38.624401mm"
   height="38.624405mm"
   viewBox="0 0 38.624401 38.624405"
   version="1.1"
   id="svg1"
   xmlns="http://www.w3.org/2000/svg"
   xmlns:svg="http://www.w3.org/2000/svg">
  <defs
     id="defs1" />
  <g
     id="layer1"
     transform="translate(-47.625001,-64.558333)">
    <g
       id="g122"
       transform="matrix(0.26458333,0,0,0.26458333,29.115279,0.24103533)">
		<path
   style="fill:#be1e2d"
   d="m 144.598,329.83 h 4.046 v -22.259 h 32.977 v 18.137 h -25.557 v -10.717 h 16.489 v 3.298 h -13.191 v 4.122 h 18.962 v -11.542 h -26.382 v 18.962 h 31.792 c 1.348,-4.158 2.085,-8.589 2.085,-13.191 0,-4.602 -0.737,-9.033 -2.085,-13.191 h -39.136 z"
   id="path116" />

		<path
   style="fill:#be1e2d"
   d="m 198.875,310.831 c -0.314,-2.891 -0.894,-5.738 -0.894,-5.738 l 11.747,-2.451 c 0,0 -0.158,-0.688 -0.395,-1.719 -0.214,-1.037 -0.604,-2.393 -0.994,-3.749 -0.374,-1.361 -0.88,-2.681 -1.204,-3.688 -0.359,-0.995 -0.631,-1.647 -0.631,-1.647 l -9.936,3.88 c 0,0 0.137,0.345 0.342,0.864 0.206,0.518 0.422,1.23 0.667,1.931 0.252,0.7 0.468,1.41 0.609,1.95 0.152,0.536 0.254,0.893 0.254,0.893 l 6.428,-1.766 c 0,0 -0.181,-0.639 -0.363,-1.277 -0.17,-0.642 -0.388,-1.269 -0.388,-1.269 l -3.175,1.016 -0.403,-1.192 4.414,-1.515 c 0,0 0.109,0.321 0.271,0.803 0.165,0.481 0.385,1.122 0.559,1.777 0.185,0.652 0.37,1.304 0.509,1.793 0.145,0.487 0.217,0.819 0.217,0.819 l -9.049,2.285 c 0,0 -0.023,-0.125 -0.083,-0.339 -0.061,-0.214 -0.148,-0.519 -0.253,-0.885 -0.213,-0.731 -0.463,-1.717 -0.812,-2.672 -0.319,-0.965 -0.646,-1.926 -0.945,-2.628 -0.279,-0.709 -0.465,-1.182 -0.465,-1.182 0,0 -0.068,-0.168 -0.187,-0.463 -0.131,-0.289 -0.319,-0.702 -0.544,-1.198 -0.42,-1.006 -1.103,-2.288 -1.761,-3.582 -0.727,-1.257 -1.427,-2.531 -2.042,-3.432 -0.293,-0.459 -0.538,-0.841 -0.709,-1.109 -0.171,-0.268 -0.284,-0.411 -0.284,-0.411 l 9.902,-6.778 c 0,0 -0.408,-0.575 -1.021,-1.437 -0.592,-0.877 -1.487,-1.968 -2.354,-3.079 -0.888,-1.094 -1.831,-2.144 -2.523,-2.941 -0.729,-0.766 -1.215,-1.276 -1.215,-1.276 l -7.696,7.386 c 0,0 0.257,0.269 0.642,0.673 0.397,0.393 0.874,0.965 1.362,1.526 0.487,0.562 0.982,1.118 1.314,1.567 0.345,0.439 0.574,0.731 0.574,0.731 l 5.258,-4.098 c 0,0 -0.41,-0.522 -0.82,-1.044 -0.201,-0.264 -0.414,-0.519 -0.58,-0.704 -0.163,-0.188 -0.272,-0.314 -0.272,-0.314 l -2.543,2.156 -0.824,-0.951 3.497,-3.09 c 0,0 0.222,0.256 0.555,0.64 0.325,0.39 0.793,0.882 1.202,1.423 0.836,1.066 1.672,2.132 1.672,2.132 l -7.478,5.585 c 0,0 -0.314,-0.4 -0.786,-1 -0.465,-0.606 -1.096,-1.403 -1.778,-2.159 -0.334,-0.384 -0.668,-0.767 -0.982,-1.127 -0.33,-0.345 -0.637,-0.667 -0.901,-0.943 -0.526,-0.553 -0.876,-0.922 -0.876,-0.922 0,0 -0.527,-0.501 -1.316,-1.253 -0.387,-0.385 -0.856,-0.813 -1.379,-1.25 -0.522,-0.438 -1.05,-0.939 -1.626,-1.383 -0.571,-0.449 -1.143,-0.898 -1.678,-1.319 -0.554,-0.396 -1.071,-0.767 -1.514,-1.084 -0.877,-0.647 -1.502,-1.02 -1.502,-1.02 l 6.572,-10.04 c 0,0 -0.594,-0.38 -1.484,-0.951 -0.891,-0.569 -2.13,-1.247 -3.35,-1.952 -1.26,-0.634 -2.498,-1.312 -3.465,-1.742 -0.964,-0.436 -1.607,-0.727 -1.607,-0.727 l -4.29,9.766 c 0,0 0.339,0.153 0.846,0.383 0.511,0.224 1.187,0.531 1.842,0.884 0.659,0.344 1.329,0.667 1.815,0.94 0.483,0.279 0.805,0.464 0.805,0.464 l 3.299,-5.793 c 0,0 -0.576,-0.33 -1.152,-0.659 -0.591,-0.303 -1.181,-0.605 -1.181,-0.605 l -1.528,2.962 -1.12,-0.574 2.053,-4.191 c 0,0 1.206,0.618 2.412,1.236 1.175,0.674 2.351,1.349 2.351,1.349 l -4.785,8.013 c 0,0 -0.441,-0.253 -1.102,-0.633 -0.651,-0.399 -1.558,-0.857 -2.465,-1.318 -0.894,-0.487 -1.837,-0.869 -2.527,-1.192 -0.69,-0.325 -1.165,-0.506 -1.165,-0.506 0,0 -0.675,-0.266 -1.688,-0.665 -0.501,-0.215 -1.11,-0.397 -1.753,-0.62 -0.646,-0.213 -1.326,-0.47 -2.029,-0.65 -0.698,-0.198 -1.396,-0.395 -2.051,-0.581 -0.663,-0.152 -1.282,-0.295 -1.813,-0.417 -0.53,-0.126 -0.971,-0.229 -1.286,-0.275 -0.313,-0.055 -0.492,-0.087 -0.492,-0.087 l 2.206,-11.795 c 0,0 -0.694,-0.124 -1.736,-0.309 -1.042,-0.182 -2.446,-0.328 -3.843,-0.513 -1.405,-0.109 -2.81,-0.233 -3.865,-0.28 -1.056,-0.027 -1.76,-0.046 -1.76,-0.046 l -0.217,10.665 c 0,0 0.372,0.009 0.93,0.023 0.559,-0.001 1.302,0.048 2.043,0.113 0.741,0.064 1.486,0.095 2.038,0.17 0.553,0.071 0.922,0.118 0.922,0.118 l 0.817,-6.617 c 0,0 -0.658,-0.083 -1.317,-0.167 -0.661,-0.052 -1.323,-0.104 -1.323,-0.104 l -0.272,3.322 -1.255,-0.096 0.285,-4.658 c 0,0 1.351,0.104 2.701,0.209 1.344,0.171 2.688,0.341 2.688,0.341 l -1.334,9.238 c 0,0 -0.504,-0.064 -1.261,-0.159 -0.754,-0.117 -1.768,-0.199 -2.784,-0.268 -1.013,-0.101 -2.033,-0.112 -2.796,-0.13 -0.764,-0.021 -1.273,-0.034 -1.273,-0.034 0,0 -0.727,0.019 -1.819,0.048 -1.094,-0.007 -2.54,0.15 -3.99,0.249 -2.891,0.314 -5.738,0.894 -5.738,0.894 l -2.451,-11.747 c 0,0 -0.687,0.158 -1.719,0.395 -1.037,0.214 -2.393,0.604 -3.75,0.994 -1.361,0.374 -2.681,0.88 -3.688,1.204 -0.995,0.358 -1.646,0.631 -1.646,0.631 l 3.88,9.936 c 0,0 0.345,-0.137 0.864,-0.342 0.518,-0.206 1.23,-0.422 1.931,-0.667 0.7,-0.252 1.41,-0.467 1.95,-0.609 0.536,-0.152 0.893,-0.254 0.893,-0.254 l -1.766,-6.428 c 0,0 -0.639,0.181 -1.277,0.363 -0.642,0.17 -1.269,0.388 -1.269,0.388 l 1.016,3.175 -1.192,0.404 -1.515,-4.414 c 0,0 0.321,-0.109 0.802,-0.271 0.481,-0.165 1.122,-0.385 1.778,-0.558 0.652,-0.185 1.304,-0.37 1.793,-0.509 0.487,-0.145 0.819,-0.217 0.819,-0.217 l 2.285,9.049 c 0,0 -0.125,0.023 -0.339,0.083 -0.214,0.061 -0.519,0.148 -0.885,0.253 -0.731,0.213 -1.717,0.463 -2.672,0.812 -0.965,0.319 -1.926,0.646 -2.628,0.945 -0.709,0.279 -1.182,0.465 -1.182,0.465 0,0 -0.168,0.068 -0.462,0.187 -0.289,0.131 -0.702,0.319 -1.198,0.543 -1.005,0.42 -2.288,1.103 -3.582,1.761 -1.257,0.727 -2.53,1.427 -3.432,2.042 -0.459,0.294 -0.841,0.538 -1.109,0.709 -0.268,0.171 -0.411,0.284 -0.411,0.284 l -6.778,-9.902 c 0,0 -0.575,0.408 -1.437,1.021 -0.877,0.592 -1.968,1.487 -3.079,2.354 -1.094,0.888 -2.144,1.831 -2.941,2.523 -0.766,0.729 -1.276,1.215 -1.276,1.215 l 7.386,7.696 c 0,0 0.269,-0.257 0.673,-0.642 0.393,-0.397 0.965,-0.874 1.526,-1.362 0.562,-0.487 1.118,-0.982 1.567,-1.315 0.439,-0.344 0.731,-0.574 0.731,-0.574 l -4.098,-5.258 c 0,0 -0.522,0.41 -1.043,0.82 -0.264,0.201 -0.519,0.414 -0.704,0.58 -0.188,0.163 -0.314,0.272 -0.314,0.272 l 2.156,2.543 -0.951,0.824 -3.09,-3.497 c 0,0 0.256,-0.222 0.64,-0.555 0.39,-0.325 0.882,-0.793 1.423,-1.202 1.066,-0.836 2.132,-1.672 2.132,-1.672 l 5.585,7.478 c 0,0 -0.4,0.314 -1,0.786 -0.605,0.465 -1.403,1.096 -2.159,1.778 -0.383,0.334 -0.767,0.668 -1.127,0.982 -0.345,0.33 -0.667,0.637 -0.943,0.901 -0.553,0.526 -0.922,0.876 -0.922,0.876 0,0 -0.501,0.526 -1.253,1.316 -0.385,0.387 -0.813,0.856 -1.25,1.38 -0.438,0.522 -0.939,1.05 -1.383,1.626 -0.449,0.571 -0.898,1.143 -1.319,1.678 -0.396,0.554 -0.767,1.071 -1.084,1.514 -0.647,0.877 -1.02,1.502 -1.02,1.502 l -10.04,-6.573 c 0,0 -0.38,0.594 -0.951,1.484 -0.569,0.891 -1.247,2.13 -1.952,3.35 -0.634,1.26 -1.312,2.498 -1.742,3.465 -0.436,0.964 -0.727,1.607 -0.727,1.607 l 9.766,4.29 c 0,0 0.153,-0.339 0.383,-0.846 0.224,-0.511 0.532,-1.187 0.884,-1.842 0.344,-0.659 0.667,-1.329 0.94,-1.815 0.278,-0.483 0.464,-0.805 0.464,-0.805 l -5.793,-3.299 c 0,0 -0.33,0.576 -0.659,1.152 -0.303,0.591 -0.605,1.181 -0.605,1.181 l 2.963,1.528 -0.574,1.12 -4.191,-2.053 c 0,0 0.618,-1.206 1.236,-2.412 0.674,-1.175 1.349,-2.351 1.349,-2.351 l 8.013,4.785 c 0,0 -0.253,0.441 -0.633,1.102 -0.399,0.651 -0.857,1.558 -1.317,2.465 -0.487,0.894 -0.869,1.837 -1.192,2.527 -0.325,0.69 -0.506,1.165 -0.506,1.165 0,0 -0.266,0.675 -0.665,1.688 -0.215,0.501 -0.397,1.11 -0.62,1.753 -0.213,0.646 -0.47,1.326 -0.65,2.029 -0.198,0.698 -0.395,1.396 -0.58,2.051 -0.153,0.663 -0.295,1.282 -0.417,1.812 -0.126,0.53 -0.229,0.971 -0.274,1.286 -0.055,0.313 -0.087,0.492 -0.087,0.492 l -11.795,-2.207 c 0,0 -0.124,0.694 -0.309,1.736 -0.182,1.042 -0.328,2.446 -0.513,3.843 -0.109,1.405 -0.233,2.81 -0.281,3.865 -0.027,1.056 -0.045,1.76 -0.045,1.76 l 10.664,0.217 c 0,0 0.009,-0.372 0.023,-0.93 -10e-4,-0.559 0.048,-1.302 0.113,-2.043 0.064,-0.741 0.095,-1.486 0.17,-2.039 0.071,-0.553 0.118,-0.922 0.118,-0.922 l -6.617,-0.817 c 0,0 -0.084,0.658 -0.167,1.317 -0.052,0.662 -0.104,1.323 -0.104,1.323 l 3.322,0.272 -0.096,1.255 -4.658,-0.285 c 0,0 0.105,-1.351 0.209,-2.701 0.171,-1.344 0.341,-2.688 0.341,-2.688 l 9.237,1.334 c 0,0 -0.064,0.504 -0.159,1.261 -0.117,0.754 -0.199,1.768 -0.268,2.784 -0.101,1.013 -0.112,2.033 -0.13,2.796 -0.021,0.764 -0.034,1.273 -0.034,1.273 0,0 0.019,0.728 0.048,1.819 -0.007,1.094 0.15,2.54 0.249,3.99 0.314,2.891 0.894,5.738 0.894,5.738 l -11.747,2.451 c 0,0 0.158,0.688 0.396,1.719 0.214,1.037 0.604,2.393 0.994,3.749 0.374,1.361 0.88,2.681 1.204,3.688 0.358,0.995 0.631,1.647 0.631,1.647 l 9.936,-3.88 c 0,0 -0.137,-0.345 -0.342,-0.864 -0.206,-0.518 -0.422,-1.23 -0.667,-1.931 -0.252,-0.7 -0.467,-1.41 -0.608,-1.95 -0.152,-0.536 -0.254,-0.893 -0.254,-0.893 l -6.428,1.766 c 0,0 0.181,0.639 0.363,1.277 0.17,0.642 0.388,1.269 0.388,1.269 l 3.175,-1.016 0.404,1.192 -4.414,1.515 c 0,0 -0.109,-0.321 -0.271,-0.802 -0.165,-0.481 -0.385,-1.122 -0.559,-1.777 -0.185,-0.652 -0.37,-1.304 -0.509,-1.793 -0.145,-0.487 -0.217,-0.819 -0.217,-0.819 l 9.049,-2.285 c 0,0 0.023,0.125 0.083,0.339 0.061,0.214 0.148,0.519 0.253,0.885 0.213,0.731 0.463,1.717 0.812,2.672 0.319,0.965 0.646,1.926 0.945,2.628 0.279,0.709 0.465,1.182 0.465,1.182 0,0 0.068,0.168 0.187,0.462 0.131,0.289 0.319,0.702 0.544,1.198 0.42,1.005 1.103,2.288 1.761,3.582 0.727,1.257 1.427,2.53 2.042,3.432 0.294,0.459 0.538,0.841 0.709,1.109 0.171,0.268 0.284,0.411 0.284,0.411 l -9.902,6.778 c 0,0 0.408,0.575 1.021,1.437 0.592,0.877 1.487,1.968 2.354,3.079 0.888,1.094 1.831,2.144 2.523,2.941 0.729,0.766 1.215,1.276 1.215,1.276 l 7.696,-7.386 c 0,0 -0.257,-0.269 -0.642,-0.673 -0.397,-0.393 -0.874,-0.965 -1.362,-1.526 -0.487,-0.562 -0.982,-1.118 -1.314,-1.567 -0.344,-0.439 -0.574,-0.731 -0.574,-0.731 l -5.258,4.098 c 0,0 0.41,0.522 0.82,1.043 0.201,0.264 0.414,0.519 0.58,0.704 0.163,0.188 0.271,0.314 0.271,0.314 l 2.543,-2.156 0.824,0.951 -3.497,3.09 c 0,0 -0.222,-0.256 -0.554,-0.64 -0.325,-0.39 -0.793,-0.882 -1.202,-1.423 -0.836,-1.066 -1.672,-2.132 -1.672,-2.132 l 7.478,-5.585 c 0,0 0.314,0.4 0.786,1 0.465,0.605 1.096,1.403 1.778,2.159 0.334,0.384 0.668,0.767 0.982,1.127 0.329,0.345 0.637,0.667 0.901,0.943 0.526,0.553 0.876,0.922 0.876,0.922 0,0 0.527,0.501 1.316,1.253 0.387,0.385 0.856,0.813 1.379,1.25 0.522,0.438 1.05,0.939 1.626,1.383 0.571,0.449 1.142,0.898 1.678,1.319 0.554,0.396 1.071,0.767 1.514,1.084 0.878,0.647 1.502,1.02 1.502,1.02 l -6.572,10.04 c 0,0 0.594,0.38 1.484,0.951 0.891,0.569 2.13,1.247 3.35,1.952 1.26,0.634 2.498,1.312 3.465,1.742 0.964,0.436 1.607,0.727 1.607,0.727 l 4.29,-9.766 c 0,0 -0.339,-0.153 -0.846,-0.383 -0.511,-0.224 -1.187,-0.532 -1.842,-0.884 -0.659,-0.344 -1.329,-0.667 -1.815,-0.94 -0.483,-0.279 -0.805,-0.464 -0.805,-0.464 l -3.299,5.793 c 0,0 0.576,0.33 1.152,0.659 0.591,0.303 1.181,0.606 1.181,0.606 l 1.528,-2.963 1.12,0.574 -2.053,4.191 c 0,0 -1.206,-0.618 -2.412,-1.236 -1.175,-0.674 -2.351,-1.348 -2.351,-1.348 l 4.785,-8.013 c 0,0 0.441,0.253 1.102,0.633 0.651,0.399 1.558,0.857 2.465,1.318 0.894,0.487 1.837,0.869 2.527,1.193 0.69,0.325 1.165,0.506 1.165,0.506 0,0 0.675,0.266 1.688,0.665 0.501,0.215 1.11,0.397 1.753,0.62 0.646,0.213 1.326,0.47 2.029,0.65 0.698,0.198 1.396,0.395 2.051,0.581 0.663,0.152 1.282,0.295 1.812,0.417 0.53,0.126 0.971,0.228 1.286,0.275 0.313,0.055 0.492,0.087 0.492,0.087 l -2.206,11.795 c 0,0 0.694,0.124 1.736,0.309 1.042,0.182 2.446,0.328 3.843,0.513 1.405,0.109 2.81,0.233 3.865,0.28 1.056,0.027 1.76,0.046 1.76,0.046 l 0.217,-10.665 c 0,0 -0.372,-0.009 -0.93,-0.023 -0.559,0.001 -1.302,-0.048 -2.043,-0.113 -0.741,-0.064 -1.486,-0.095 -2.038,-0.17 -0.553,-0.071 -0.922,-0.118 -0.922,-0.118 l -0.817,6.616 c 0,0 0.658,0.083 1.317,0.167 0.661,0.052 1.323,0.104 1.323,0.104 l 0.272,-3.322 1.255,0.096 -0.285,4.658 c 0,0 -1.35,-0.104 -2.701,-0.209 -1.344,-0.171 -2.688,-0.341 -2.688,-0.341 l 1.334,-9.237 c 0,0 0.505,0.064 1.261,0.159 0.754,0.117 1.768,0.199 2.784,0.268 1.013,0.101 2.032,0.112 2.796,0.13 0.764,0.021 1.273,0.034 1.273,0.034 0,0 0.727,-0.019 1.819,-0.048 1.094,0.007 2.54,-0.15 3.99,-0.249 2.891,-0.314 5.738,-0.894 5.738,-0.894 l 2.451,11.747 c 0,0 0.687,-0.158 1.719,-0.396 1.037,-0.214 2.393,-0.604 3.749,-0.994 1.361,-0.374 2.681,-0.88 3.688,-1.204 0.995,-0.358 1.646,-0.631 1.646,-0.631 l -3.88,-9.936 c 0,0 -0.346,0.137 -0.864,0.342 -0.518,0.206 -1.23,0.422 -1.931,0.667 -0.7,0.252 -1.41,0.467 -1.95,0.609 -0.536,0.152 -0.893,0.254 -0.893,0.254 l 1.766,6.428 c 0,0 0.639,-0.181 1.277,-0.363 0.642,-0.17 1.27,-0.388 1.27,-0.388 l -1.016,-3.175 1.192,-0.404 1.515,4.414 c 0,0 -0.321,0.109 -0.802,0.271 -0.481,0.165 -1.122,0.385 -1.778,0.559 -0.652,0.185 -1.304,0.37 -1.793,0.509 -0.487,0.145 -0.819,0.217 -0.819,0.217 l -2.285,-9.049 c 0,0 0.125,-0.023 0.339,-0.083 0.214,-0.061 0.519,-0.148 0.885,-0.253 0.731,-0.213 1.717,-0.463 2.672,-0.812 0.964,-0.319 1.926,-0.646 2.628,-0.945 0.709,-0.279 1.182,-0.465 1.182,-0.465 0,0 0.168,-0.068 0.462,-0.187 0.289,-0.131 0.702,-0.319 1.198,-0.543 1.005,-0.42 2.288,-1.103 3.582,-1.761 1.257,-0.727 2.531,-1.427 3.432,-2.042 0.459,-0.293 0.841,-0.538 1.109,-0.709 0.268,-0.171 0.411,-0.284 0.411,-0.284 l 6.778,9.902 c 0,0 0.575,-0.408 1.436,-1.021 0.877,-0.592 1.968,-1.487 3.079,-2.353 1.094,-0.888 2.144,-1.831 2.941,-2.523 0.766,-0.729 1.276,-1.215 1.276,-1.215 l -7.386,-7.696 c 0,0 -0.269,0.257 -0.673,0.642 -0.393,0.397 -0.965,0.874 -1.526,1.362 -0.562,0.487 -1.118,0.982 -1.567,1.314 -0.439,0.345 -0.731,0.574 -0.731,0.574 l 4.098,5.258 c 0,0 0.522,-0.41 1.044,-0.82 0.264,-0.201 0.519,-0.414 0.704,-0.58 0.188,-0.163 0.314,-0.271 0.314,-0.271 l -2.156,-2.543 0.951,-0.824 3.09,3.497 c 0,0 -0.256,0.222 -0.64,0.555 -0.39,0.325 -0.882,0.793 -1.423,1.202 -1.066,0.836 -2.132,1.672 -2.132,1.672 l -5.585,-7.478 c 0,0 0.4,-0.314 1,-0.786 0.606,-0.465 1.403,-1.096 2.159,-1.778 0.383,-0.334 0.767,-0.668 1.127,-0.982 0.345,-0.33 0.667,-0.637 0.942,-0.901 0.553,-0.526 0.922,-0.876 0.922,-0.876 0,0 0.501,-0.527 1.253,-1.316 0.384,-0.387 0.813,-0.856 1.251,-1.379 0.438,-0.522 0.939,-1.05 1.383,-1.626 0.449,-0.571 0.898,-1.143 1.319,-1.678 0.396,-0.554 0.767,-1.071 1.084,-1.514 0.647,-0.877 1.02,-1.502 1.02,-1.502 l 10.04,6.572 c 0,0 0.38,-0.594 0.951,-1.484 0.569,-0.891 1.247,-2.13 1.952,-3.35 0.634,-1.259 1.312,-2.498 1.742,-3.465 0.436,-0.964 0.727,-1.607 0.727,-1.607 l -9.766,-4.29 c 0,0 -0.153,0.339 -0.383,0.846 -0.224,0.511 -0.531,1.187 -0.884,1.842 -0.344,0.659 -0.667,1.329 -0.94,1.815 -0.279,0.483 -0.464,0.805 -0.464,0.805 l 5.793,3.299 c 0,0 0.33,-0.576 0.659,-1.152 0.303,-0.591 0.605,-1.181 0.605,-1.181 l -2.962,-1.528 0.574,-1.12 4.191,2.053 c 0,0 -0.618,1.206 -1.236,2.412 -0.674,1.175 -1.349,2.351 -1.349,2.351 l -8.013,-4.785 c 0,0 0.253,-0.441 0.633,-1.102 0.399,-0.651 0.857,-1.558 1.317,-2.465 0.487,-0.893 0.869,-1.837 1.193,-2.527 0.325,-0.69 0.506,-1.164 0.506,-1.164 0,0 0.266,-0.675 0.665,-1.688 0.215,-0.501 0.397,-1.11 0.62,-1.753 0.213,-0.646 0.47,-1.326 0.65,-2.029 0.198,-0.698 0.395,-1.396 0.581,-2.051 0.152,-0.663 0.295,-1.282 0.417,-1.812 0.126,-0.53 0.229,-0.971 0.275,-1.286 0.055,-0.313 0.087,-0.491 0.087,-0.491 l 11.795,2.206 c 0,0 0.124,-0.694 0.309,-1.736 0.182,-1.042 0.328,-2.445 0.513,-3.843 0.109,-1.405 0.233,-2.81 0.28,-3.865 0.027,-1.056 0.046,-1.76 0.046,-1.76 l -10.664,-0.217 c 0,0 -0.009,0.372 -0.023,0.93 0,0.559 -0.048,1.302 -0.113,2.043 -0.064,0.741 -0.095,1.486 -0.17,2.039 -0.071,0.553 -0.118,0.922 -0.118,0.922 l 6.617,0.817 c 0,0 0.083,-0.658 0.167,-1.317 0.052,-0.662 0.104,-1.323 0.104,-1.323 l -3.322,-0.272 0.096,-1.255 4.658,0.285 c 0,0 -0.105,1.35 -0.209,2.701 -0.171,1.344 -0.341,2.688 -0.341,2.688 l -9.238,-1.334 c 0,0 0.064,-0.504 0.159,-1.261 0.117,-0.754 0.199,-1.768 0.268,-2.784 0.101,-1.013 0.112,-2.033 0.13,-2.797 0.021,-0.764 0.034,-1.273 0.034,-1.273 0,0 -0.019,-0.727 -0.048,-1.819 0.003,-1.096 -0.154,-2.542 -0.254,-3.992 z m -55.926,59.808 c -29.776,0 -54,-24.224 -54,-54 0,-29.776 24.224,-54 54,-54 29.776,0 54,24.224 54,54 0,29.776 -24.224,54 -54,54 z"
   id="path117" />

		<path
   style="fill:#be1e2d"
   d="m 141.301,359.468 v -18.92 h -24.388 c 3.475,3.647 10.508,9.942 18.93,11.572 l -0.626,3.238 c -13.241,-2.563 -22.852,-14.931 -23.255,-15.456 l -2.034,-2.652 h 66.043 l -2.034,2.652 c -0.402,0.525 -10.014,12.893 -23.255,15.456 l -0.626,-3.238 c 8.422,-1.629 15.456,-7.925 18.931,-11.572 h -24.388 v 18.92 c 17.089,-0.65 31.646,-11.343 37.919,-26.34 h -79.136 c 6.272,14.997 20.83,25.689 37.919,26.34 z"
   id="path118" />

		<path
   style="fill:#be1e2d"
   d="m 142.949,266.762 c -27.502,0 -49.878,22.376 -49.878,49.878 0,27.502 22.375,49.878 49.878,49.878 27.503,0 49.878,-22.375 49.878,-49.878 0,-27.503 -22.375,-49.878 -49.878,-49.878 z m 0,96.045 c -25.457,0 -46.168,-20.711 -46.168,-46.168 0,-25.457 20.711,-46.168 46.168,-46.168 25.457,0 46.168,20.711 46.168,46.168 0,25.458 -20.71,46.168 -46.168,46.168 z"
   id="path119" />

		<path
   style="fill:#be1e2d"
   d="m 144.598,273.811 v 18.92 h 24.388 c -3.475,-3.647 -10.508,-9.942 -18.931,-11.572 l 0.626,-3.238 c 13.241,2.563 22.852,14.931 23.255,15.456 l 2.034,2.652 h -66.043 l 2.034,-2.652 c 0.402,-0.525 10.014,-12.893 23.255,-15.456 l 0.626,3.238 c -8.422,1.63 -15.456,7.925 -18.93,11.572 H 141.3 v -18.92 c -17.089,0.651 -31.646,11.343 -37.919,26.34 h 79.136 c -6.272,-14.996 -20.83,-25.689 -37.919,-26.34 z"
   id="path120" />

		<path
   style="fill:#be1e2d"
   d="m 133.881,310.868 h -26.382 v 11.542 h 18.962 v -4.122 H 113.27 v -3.298 h 16.489 v 10.717 H 104.202 V 307.57 h 32.977 v 22.259 h 4.046 v -26.382 h -39.06 c -1.348,4.158 -2.085,8.589 -2.085,13.191 0,4.602 0.737,9.033 2.085,13.191 h 31.716 z"
   id="path121" />

		<path
   style="fill:#be1e2d"
   d="m 142.949,243.089 c -40.312,0 -72.991,32.679 -72.991,72.991 0,40.312 32.679,72.991 72.991,72.991 40.312,0 72.991,-32.679 72.991,-72.991 0.001,-40.312 -32.679,-72.991 -72.991,-72.991 z m 69.19,80.719 c -0.38,3.576 -1.105,7.101 -1.105,7.101 l -11.747,-2.451 c 0,0 -0.134,0.579 -0.335,1.448 -0.176,0.875 -0.51,2.016 -0.837,3.159 -0.311,1.148 -0.746,2.257 -1.013,3.108 -0.302,0.839 -0.533,1.387 -0.533,1.387 l 9.936,3.88 c 0,0 0.161,-0.41 0.404,-1.026 0.242,-0.615 0.505,-1.458 0.794,-2.291 0.295,-0.831 0.552,-1.675 0.722,-2.314 0.181,-0.636 0.301,-1.06 0.301,-1.06 l -6.428,-1.766 c 0,0 -0.174,0.612 -0.347,1.224 -0.162,0.615 -0.371,1.216 -0.371,1.216 l 3.175,1.016 -0.43,1.271 -4.414,-1.515 c 0,0 0.1,-0.295 0.249,-0.737 0.152,-0.441 0.355,-1.029 0.513,-1.632 0.17,-0.599 0.34,-1.197 0.467,-1.646 0.134,-0.447 0.199,-0.751 0.199,-0.751 l 9.049,2.285 c 0,0 -0.03,0.155 -0.103,0.42 -0.075,0.265 -0.182,0.644 -0.31,1.098 -0.262,0.907 -0.581,2.126 -1.007,3.311 -0.396,1.195 -0.807,2.385 -1.171,3.257 -0.347,0.878 -0.578,1.464 -0.578,1.464 0,0 -0.085,0.208 -0.233,0.572 -0.162,0.359 -0.393,0.871 -0.67,1.486 -0.527,1.242 -1.361,2.836 -2.184,4.434 -0.891,1.56 -1.769,3.13 -2.523,4.248 -0.364,0.567 -0.668,1.039 -0.88,1.37 -0.213,0.33 -0.35,0.509 -0.35,0.509 l -9.902,-6.778 c 0,0 -0.345,0.485 -0.863,1.212 -0.496,0.743 -1.258,1.659 -1.986,2.6 -0.749,0.924 -1.548,1.808 -2.13,2.485 -0.617,0.646 -1.028,1.076 -1.028,1.076 l 7.696,7.386 c 0,0 0.304,-0.319 0.759,-0.797 0.467,-0.468 1.036,-1.142 1.613,-1.807 0.577,-0.666 1.159,-1.327 1.556,-1.856 0.408,-0.519 0.681,-0.866 0.681,-0.866 l -5.258,-4.098 c 0,0 -0.393,0.5 -0.786,1.001 -0.192,0.254 -0.396,0.497 -0.556,0.675 -0.156,0.18 -0.26,0.301 -0.26,0.301 l 2.543,2.156 -0.878,1.014 -3.497,-3.09 c 0,0 0.204,-0.235 0.509,-0.588 0.298,-0.359 0.731,-0.809 1.105,-1.307 0.769,-0.979 1.537,-1.959 1.537,-1.959 l 7.478,5.585 c 0,0 -0.387,0.495 -0.968,1.238 -0.575,0.748 -1.358,1.731 -2.197,2.669 -0.414,0.473 -0.828,0.946 -1.216,1.39 -0.406,0.427 -0.785,0.825 -1.11,1.167 -0.652,0.682 -1.086,1.136 -1.086,1.136 0,0 -0.65,0.62 -1.624,1.55 -0.48,0.472 -1.061,1.002 -1.704,1.545 -0.642,0.544 -1.301,1.156 -2.01,1.708 -0.706,0.555 -1.413,1.11 -2.075,1.63 -0.675,0.503 -1.323,0.949 -1.87,1.342 -1.088,0.795 -1.858,1.261 -1.858,1.261 l -6.572,-10.04 c 0,0 -0.501,0.321 -1.252,0.803 -0.751,0.482 -1.799,1.047 -2.825,1.648 -1.065,0.528 -2.106,1.108 -2.922,1.467 -0.813,0.367 -1.354,0.612 -1.354,0.612 l 4.29,9.766 c 0,0 0.402,-0.182 1.004,-0.454 0.605,-0.267 1.407,-0.634 2.185,-1.049 0.782,-0.406 1.575,-0.794 2.151,-1.117 0.573,-0.329 0.956,-0.548 0.956,-0.548 l -3.299,-5.793 c 0,0 -0.552,0.316 -1.104,0.633 -0.566,0.29 -1.133,0.58 -1.133,0.58 l 1.528,2.963 -1.194,0.611 -2.053,-4.191 c 0,0 1.108,-0.567 2.216,-1.135 1.079,-0.62 2.159,-1.239 2.159,-1.239 l 4.785,8.013 c 0,0 -0.545,0.314 -1.363,0.785 -0.808,0.488 -1.928,1.062 -3.051,1.631 -1.109,0.595 -2.273,1.08 -3.129,1.477 -0.856,0.398 -1.443,0.625 -1.443,0.625 0,0 -0.837,0.33 -2.091,0.825 -0.622,0.261 -1.374,0.495 -2.171,0.77 -0.8,0.265 -1.645,0.576 -2.515,0.805 -0.865,0.244 -1.731,0.488 -2.542,0.716 -0.821,0.19 -1.588,0.368 -2.245,0.52 -0.657,0.154 -1.205,0.278 -1.593,0.339 -0.387,0.07 -0.608,0.109 -0.608,0.109 l -2.206,-11.795 c 0,0 -0.585,0.105 -1.463,0.262 -0.878,0.156 -2.064,0.271 -3.242,0.434 -1.187,0.086 -2.373,0.196 -3.265,0.236 -0.893,0.022 -1.489,0.037 -1.489,0.037 l 0.217,10.665 c 0,0 0.44,-0.011 1.1,-0.028 0.661,-0.003 1.539,-0.058 2.417,-0.133 0.878,-0.074 1.758,-0.117 2.414,-0.203 0.656,-0.083 1.093,-0.138 1.093,-0.138 l -0.817,-6.617 c 0,0 -0.631,0.08 -1.262,0.161 -0.634,0.049 -1.269,0.099 -1.269,0.099 l 0.272,3.322 -1.337,0.102 -0.285,-4.658 c 0,0 1.241,-0.096 2.483,-0.191 1.235,-0.157 2.47,-0.314 2.47,-0.314 l 1.334,9.237 c 0,0 -0.624,0.08 -1.56,0.199 -0.934,0.139 -2.187,0.246 -3.441,0.331 -1.253,0.118 -2.509,0.139 -3.451,0.161 -0.942,0.023 -1.57,0.038 -1.57,0.038 0,0 -0.897,-0.022 -2.242,-0.055 -1.346,-0.001 -3.136,-0.178 -4.926,-0.312 -3.576,-0.38 -7.101,-1.105 -7.101,-1.105 l 2.451,-11.747 c 0,0 -0.579,-0.134 -1.448,-0.335 -0.875,-0.176 -2.016,-0.511 -3.159,-0.837 -1.148,-0.311 -2.257,-0.746 -3.107,-1.013 -0.839,-0.302 -1.387,-0.533 -1.387,-0.533 l -3.88,9.936 c 0,0 0.41,0.161 1.026,0.403 0.615,0.242 1.458,0.505 2.291,0.794 0.831,0.295 1.675,0.552 2.314,0.722 0.636,0.181 1.06,0.301 1.06,0.301 l 1.766,-6.428 c 0,0 -0.612,-0.174 -1.224,-0.347 -0.615,-0.162 -1.216,-0.371 -1.216,-0.371 l -1.016,3.175 -1.271,-0.43 1.515,-4.414 c 0,0 0.295,0.1 0.737,0.249 0.441,0.152 1.029,0.355 1.632,0.513 0.599,0.17 1.197,0.34 1.646,0.467 0.447,0.134 0.751,0.2 0.751,0.2 l -2.285,9.049 c 0,0 -0.155,-0.031 -0.42,-0.104 -0.265,-0.075 -0.644,-0.182 -1.098,-0.31 -0.907,-0.262 -2.126,-0.581 -3.312,-1.007 -1.195,-0.395 -2.385,-0.806 -3.257,-1.171 -0.878,-0.347 -1.464,-0.578 -1.464,-0.578 0,0 -0.208,-0.085 -0.572,-0.233 -0.359,-0.162 -0.871,-0.393 -1.485,-0.67 -1.243,-0.527 -2.836,-1.361 -4.434,-2.184 -1.561,-0.891 -3.13,-1.77 -4.248,-2.523 -0.567,-0.364 -1.039,-0.668 -1.37,-0.88 -0.33,-0.213 -0.509,-0.35 -0.509,-0.35 l 6.778,-9.902 c 0,0 -0.485,-0.345 -1.212,-0.863 -0.743,-0.496 -1.659,-1.258 -2.6,-1.986 -0.924,-0.749 -1.808,-1.548 -2.485,-2.13 -0.646,-0.617 -1.076,-1.028 -1.076,-1.028 l -7.386,7.696 c 0,0 0.319,0.304 0.797,0.76 0.468,0.467 1.142,1.035 1.807,1.613 0.666,0.577 1.327,1.159 1.856,1.556 0.52,0.409 0.866,0.681 0.866,0.681 l 4.098,-5.258 c 0,0 -0.5,-0.393 -1.001,-0.786 -0.254,-0.192 -0.497,-0.396 -0.675,-0.556 -0.18,-0.156 -0.3,-0.26 -0.3,-0.26 l -2.156,2.543 -1.014,-0.878 3.09,-3.497 c 0,0 0.235,0.204 0.588,0.509 0.359,0.298 0.809,0.731 1.307,1.105 0.979,0.769 1.959,1.537 1.959,1.537 l -5.585,7.478 c 0,0 -0.495,-0.387 -1.238,-0.968 -0.747,-0.575 -1.731,-1.358 -2.669,-2.197 -0.473,-0.414 -0.946,-0.828 -1.39,-1.216 -0.427,-0.406 -0.825,-0.785 -1.167,-1.111 -0.682,-0.651 -1.136,-1.086 -1.136,-1.086 0,0 -0.62,-0.65 -1.55,-1.624 -0.472,-0.48 -1.002,-1.06 -1.545,-1.704 -0.544,-0.642 -1.156,-1.301 -1.708,-2.01 -0.555,-0.706 -1.11,-1.413 -1.63,-2.075 -0.503,-0.675 -0.949,-1.323 -1.342,-1.87 -0.795,-1.088 -1.261,-1.858 -1.261,-1.858 l 10.04,-6.573 c 0,0 -0.321,-0.501 -0.803,-1.252 -0.482,-0.751 -1.047,-1.799 -1.648,-2.825 -0.528,-1.065 -1.108,-2.106 -1.467,-2.922 -0.367,-0.813 -0.612,-1.354 -0.612,-1.354 l -9.766,4.29 c 0,0 0.181,0.402 0.454,1.004 0.267,0.605 0.634,1.407 1.049,2.185 0.406,0.782 0.794,1.575 1.117,2.151 0.329,0.573 0.548,0.956 0.548,0.956 l 5.793,-3.299 c 0,0 -0.316,-0.552 -0.633,-1.104 -0.29,-0.566 -0.58,-1.132 -0.58,-1.132 l -2.962,1.528 -0.611,-1.194 4.191,-2.053 c 0,0 0.567,1.108 1.134,2.216 0.62,1.079 1.239,2.159 1.239,2.159 l -8.013,4.785 c 0,0 -0.314,-0.545 -0.785,-1.363 -0.488,-0.808 -1.062,-1.928 -1.631,-3.051 -0.595,-1.109 -1.08,-2.273 -1.477,-3.129 -0.398,-0.856 -0.625,-1.443 -0.625,-1.443 0,0 -0.33,-0.836 -0.825,-2.091 -0.261,-0.622 -0.495,-1.374 -0.77,-2.171 -0.265,-0.8 -0.576,-1.645 -0.805,-2.515 -0.244,-0.865 -0.488,-1.731 -0.717,-2.542 -0.19,-0.821 -0.368,-1.588 -0.52,-2.245 -0.154,-0.657 -0.278,-1.205 -0.339,-1.594 -0.07,-0.387 -0.109,-0.608 -0.109,-0.608 l 11.795,-2.207 c 0,0 -0.105,-0.585 -0.262,-1.463 -0.156,-0.878 -0.271,-2.064 -0.434,-3.242 -0.086,-1.187 -0.196,-2.373 -0.236,-3.265 -0.022,-0.893 -0.037,-1.489 -0.037,-1.489 l -10.664,0.217 c 0,0 0.011,0.44 0.028,1.1 0.003,0.66 0.058,1.539 0.133,2.417 0.074,0.878 0.117,1.758 0.203,2.413 0.083,0.656 0.138,1.093 0.138,1.093 l 6.617,-0.817 c 0,0 -0.08,-0.631 -0.161,-1.262 -0.049,-0.634 -0.099,-1.268 -0.099,-1.268 l -3.322,0.272 -0.102,-1.337 4.658,-0.285 c 0,0 0.096,1.241 0.191,2.483 0.157,1.235 0.314,2.47 0.314,2.47 l -9.237,1.334 c 0,0 -0.08,-0.624 -0.199,-1.56 -0.139,-0.934 -0.245,-2.187 -0.331,-3.441 -0.118,-1.253 -0.139,-2.509 -0.161,-3.451 -0.023,-0.942 -0.038,-1.57 -0.038,-1.57 0,0 0.022,-0.897 0.055,-2.242 0.001,-1.346 0.177,-3.136 0.312,-4.926 0.38,-3.575 1.105,-7.101 1.105,-7.101 l 11.747,2.451 c 0,0 0.134,-0.579 0.335,-1.448 0.176,-0.875 0.511,-2.016 0.837,-3.159 0.311,-1.148 0.746,-2.257 1.013,-3.107 0.302,-0.839 0.534,-1.387 0.534,-1.387 l -9.936,-3.88 c 0,0 -0.161,0.41 -0.403,1.026 -0.243,0.615 -0.505,1.458 -0.794,2.291 -0.296,0.831 -0.552,1.675 -0.722,2.314 -0.181,0.636 -0.301,1.06 -0.301,1.06 l 6.428,1.766 c 0,0 0.174,-0.612 0.347,-1.224 0.162,-0.615 0.371,-1.216 0.371,-1.216 l -3.175,-1.016 0.43,-1.271 4.414,1.515 c 0,0 -0.1,0.295 -0.249,0.737 -0.152,0.441 -0.355,1.029 -0.513,1.632 -0.17,0.598 -0.34,1.197 -0.468,1.646 -0.134,0.447 -0.199,0.751 -0.199,0.751 l -9.049,-2.285 c 0,0 0.03,-0.154 0.104,-0.42 0.075,-0.265 0.182,-0.644 0.31,-1.098 0.262,-0.907 0.581,-2.126 1.007,-3.312 0.396,-1.195 0.807,-2.385 1.171,-3.257 0.347,-0.878 0.578,-1.464 0.578,-1.464 0,0 0.085,-0.208 0.233,-0.572 0.162,-0.359 0.393,-0.871 0.67,-1.486 0.527,-1.242 1.361,-2.836 2.184,-4.434 0.891,-1.56 1.77,-3.13 2.523,-4.248 0.364,-0.567 0.668,-1.039 0.88,-1.37 0.213,-0.33 0.35,-0.509 0.35,-0.509 l 9.902,6.778 c 0,0 0.345,-0.485 0.863,-1.212 0.496,-0.743 1.258,-1.659 1.986,-2.6 0.749,-0.924 1.548,-1.808 2.13,-2.485 0.617,-0.646 1.028,-1.076 1.028,-1.076 l -7.696,-7.386 c 0,0 -0.304,0.319 -0.76,0.797 -0.467,0.468 -1.035,1.142 -1.613,1.806 -0.577,0.666 -1.159,1.327 -1.556,1.856 -0.408,0.519 -0.681,0.866 -0.681,0.866 l 5.258,4.098 c 0,0 0.393,-0.5 0.786,-1.001 0.192,-0.254 0.396,-0.498 0.556,-0.675 0.156,-0.18 0.261,-0.301 0.261,-0.301 l -2.543,-2.156 0.878,-1.014 3.497,3.09 c 0,0 -0.204,0.235 -0.509,0.588 -0.298,0.359 -0.731,0.809 -1.105,1.307 -0.769,0.979 -1.537,1.959 -1.537,1.959 l -7.478,-5.585 c 0,0 0.387,-0.495 0.968,-1.238 0.575,-0.748 1.358,-1.731 2.197,-2.669 0.414,-0.473 0.828,-0.946 1.216,-1.39 0.406,-0.427 0.785,-0.825 1.11,-1.167 0.651,-0.682 1.086,-1.136 1.086,-1.136 0,0 0.649,-0.62 1.624,-1.55 0.481,-0.472 1.061,-1.002 1.704,-1.545 0.642,-0.544 1.301,-1.156 2.01,-1.708 0.706,-0.555 1.413,-1.11 2.075,-1.63 0.675,-0.503 1.323,-0.949 1.87,-1.342 1.088,-0.795 1.858,-1.261 1.858,-1.261 l 6.572,10.04 c 0,0 0.501,-0.321 1.252,-0.803 0.751,-0.482 1.799,-1.047 2.825,-1.648 1.065,-0.529 2.106,-1.108 2.922,-1.467 0.813,-0.367 1.354,-0.612 1.354,-0.612 l -4.29,-9.766 c 0,0 -0.402,0.182 -1.004,0.454 -0.605,0.267 -1.407,0.634 -2.185,1.049 -0.782,0.406 -1.575,0.794 -2.151,1.117 -0.573,0.329 -0.956,0.548 -0.956,0.548 l 3.299,5.793 c 0,0 0.552,-0.316 1.104,-0.633 0.566,-0.29 1.132,-0.58 1.132,-0.58 l -1.528,-2.962 1.194,-0.611 2.053,4.191 c 0,0 -1.108,0.567 -2.216,1.134 -1.079,0.62 -2.159,1.239 -2.159,1.239 l -4.785,-8.014 c 0,0 0.545,-0.314 1.363,-0.784 0.808,-0.488 1.928,-1.062 3.051,-1.631 1.109,-0.595 2.273,-1.08 3.129,-1.477 0.856,-0.398 1.443,-0.626 1.443,-0.626 0,0 0.837,-0.33 2.091,-0.825 0.622,-0.261 1.374,-0.495 2.171,-0.77 0.8,-0.265 1.645,-0.576 2.515,-0.805 0.866,-0.244 1.731,-0.488 2.542,-0.717 0.821,-0.19 1.588,-0.368 2.245,-0.52 0.657,-0.154 1.205,-0.278 1.593,-0.339 0.387,-0.07 0.608,-0.109 0.608,-0.109 l 2.206,11.795 c 0,0 0.585,-0.105 1.463,-0.262 0.878,-0.155 2.064,-0.271 3.242,-0.434 1.187,-0.086 2.373,-0.196 3.265,-0.236 0.893,-0.022 1.489,-0.037 1.489,-0.037 l -0.217,-10.665 c 0,0 -0.44,0.011 -1.1,0.028 -0.66,0.003 -1.539,0.058 -2.417,0.133 -0.878,0.074 -1.758,0.117 -2.413,0.203 -0.656,0.083 -1.093,0.138 -1.093,0.138 l 0.817,6.616 c 0,0 0.631,-0.08 1.262,-0.161 0.634,-0.049 1.269,-0.099 1.269,-0.099 l -0.272,-3.322 1.337,-0.102 0.285,4.658 c 0,0 -1.242,0.095 -2.483,0.191 -1.235,0.157 -2.47,0.314 -2.47,0.314 l -1.334,-9.238 c 0,0 0.624,-0.08 1.56,-0.199 0.934,-0.139 2.187,-0.245 3.441,-0.331 1.253,-0.118 2.509,-0.139 3.451,-0.161 0.942,-0.023 1.57,-0.038 1.57,-0.038 0,0 0.897,0.022 2.242,0.055 1.346,10e-4 3.136,0.178 4.926,0.312 3.575,0.38 7.101,1.105 7.101,1.105 l -2.451,11.747 c 0,0 0.579,0.134 1.448,0.335 0.875,0.176 2.016,0.51 3.159,0.837 1.148,0.311 2.257,0.746 3.107,1.013 0.839,0.302 1.387,0.533 1.387,0.533 l 3.88,-9.936 c 0,0 -0.41,-0.161 -1.026,-0.403 -0.615,-0.242 -1.458,-0.505 -2.291,-0.794 -0.831,-0.295 -1.675,-0.552 -2.314,-0.722 -0.636,-0.181 -1.06,-0.301 -1.06,-0.301 l -1.766,6.428 c 0,0 0.612,0.174 1.224,0.347 0.615,0.163 1.216,0.371 1.216,0.371 l 1.016,-3.175 1.271,0.43 -1.515,4.414 c 0,0 -0.295,-0.1 -0.737,-0.249 -0.441,-0.152 -1.029,-0.355 -1.632,-0.513 -0.598,-0.17 -1.197,-0.34 -1.646,-0.467 -0.447,-0.134 -0.751,-0.2 -0.751,-0.2 l 2.285,-9.049 c 0,0 0.155,0.03 0.42,0.103 0.265,0.075 0.644,0.182 1.098,0.31 0.907,0.262 2.126,0.581 3.311,1.007 1.196,0.395 2.385,0.807 3.257,1.171 0.878,0.347 1.464,0.578 1.464,0.578 0,0 0.208,0.085 0.572,0.233 0.359,0.162 0.871,0.393 1.486,0.67 1.242,0.527 2.836,1.361 4.434,2.184 1.56,0.891 3.13,1.769 4.248,2.523 0.567,0.364 1.039,0.668 1.37,0.88 0.33,0.213 0.509,0.35 0.509,0.35 l -6.778,9.902 c 0,0 0.485,0.345 1.212,0.863 0.743,0.496 1.659,1.258 2.6,1.986 0.924,0.749 1.808,1.548 2.485,2.13 0.646,0.617 1.076,1.028 1.076,1.028 l 7.386,-7.696 c 0,0 -0.319,-0.304 -0.797,-0.759 -0.468,-0.467 -1.141,-1.035 -1.806,-1.613 -0.666,-0.577 -1.327,-1.159 -1.856,-1.556 -0.519,-0.409 -0.866,-0.681 -0.866,-0.681 l -4.098,5.258 c 0,0 0.5,0.393 1.001,0.786 0.254,0.192 0.497,0.397 0.675,0.556 0.18,0.156 0.301,0.26 0.301,0.26 l 2.156,-2.543 1.014,0.878 -3.09,3.497 c 0,0 -0.235,-0.204 -0.588,-0.509 -0.359,-0.298 -0.809,-0.731 -1.307,-1.105 -0.979,-0.769 -1.959,-1.537 -1.959,-1.537 l 5.585,-7.478 c 0,0 0.495,0.387 1.238,0.968 0.748,0.576 1.731,1.358 2.669,2.197 0.473,0.414 0.946,0.828 1.39,1.216 0.427,0.406 0.825,0.786 1.167,1.111 0.682,0.652 1.136,1.086 1.136,1.086 0,0 0.62,0.65 1.55,1.624 0.472,0.48 1.002,1.061 1.545,1.704 0.544,0.642 1.156,1.301 1.708,2.01 0.555,0.706 1.11,1.413 1.63,2.075 0.503,0.675 0.949,1.323 1.342,1.87 0.795,1.088 1.261,1.858 1.261,1.858 l -10.04,6.572 c 0,0 0.321,0.501 0.803,1.252 0.482,0.751 1.047,1.799 1.648,2.825 0.529,1.065 1.108,2.106 1.467,2.922 0.367,0.813 0.612,1.354 0.612,1.354 l 9.766,-4.29 c 0,0 -0.182,-0.402 -0.454,-1.004 -0.267,-0.605 -0.634,-1.407 -1.049,-2.185 -0.406,-0.783 -0.794,-1.575 -1.117,-2.151 -0.329,-0.573 -0.548,-0.956 -0.548,-0.956 l -5.793,3.299 c 0,0 0.316,0.552 0.633,1.104 0.29,0.566 0.58,1.133 0.58,1.133 l 2.962,-1.528 0.611,1.194 -4.191,2.052 c 0,0 -0.567,-1.108 -1.134,-2.216 -0.62,-1.079 -1.239,-2.159 -1.239,-2.159 l 8.013,-4.785 c 0,0 0.314,0.545 0.785,1.363 0.488,0.808 1.062,1.928 1.631,3.051 0.596,1.109 1.08,2.273 1.477,3.129 0.398,0.856 0.625,1.443 0.625,1.443 0,0 0.33,0.836 0.825,2.091 0.261,0.622 0.495,1.374 0.77,2.171 0.265,0.8 0.576,1.645 0.805,2.515 0.244,0.866 0.488,1.731 0.716,2.542 0.19,0.821 0.368,1.588 0.52,2.245 0.154,0.657 0.278,1.205 0.338,1.593 0.07,0.387 0.109,0.608 0.109,0.608 l -11.795,2.206 c 0,0 0.105,0.585 0.262,1.463 0.156,0.878 0.271,2.064 0.434,3.242 0.086,1.187 0.196,2.373 0.236,3.265 0.022,0.893 0.037,1.489 0.037,1.489 l 10.664,-0.217 c 0,0 -0.011,-0.44 -0.028,-1.1 -0.003,-0.661 -0.058,-1.539 -0.133,-2.417 -0.074,-0.878 -0.117,-1.758 -0.203,-2.414 -0.083,-0.656 -0.138,-1.093 -0.138,-1.093 l -6.616,0.817 c 0,0 0.08,0.631 0.161,1.262 0.05,0.634 0.099,1.269 0.099,1.269 l 3.322,-0.272 0.101,1.337 -4.658,0.285 c 0,0 -0.096,-1.241 -0.191,-2.483 -0.157,-1.235 -0.314,-2.47 -0.314,-2.47 l 9.238,-1.334 c 0,0 0.08,0.624 0.199,1.56 0.139,0.934 0.245,2.187 0.331,3.441 0.118,1.253 0.139,2.509 0.161,3.451 0.023,0.942 0.038,1.57 0.038,1.57 0,0 -0.022,0.897 -0.055,2.242 -0.003,1.354 -0.18,3.144 -0.315,4.934 z"
   id="path122" />

	</g>
  </g>
</svg>
