<?xml version="1.0" encoding="UTF-8" standalone="no"?>
<!-- Created with Inkscape (http://www.inkscape.org/) -->

<svg
   width="35.720341mm"
   height="35.720341mm"
   viewBox="0 0 35.720341 35.720341"
   version="1.1"
   id="svg1"
   xmlns="http://www.w3.org/2000/svg"
   xmlns:svg="http://www.w3.org/2000/svg">
  <defs
     id="defs1" />
  <g
     id="layer1"
     transform="translate(-38.89375,-60.854166)">
    <g
       id="g2"
       transform="matrix(0.26458333,0,0,0.26458333,-73.48114,40.001825)">
		<path
   style="fill:#be1e2d"
   d="m 492.227,78.812 c -37.281,0 -67.503,30.222 -67.503,67.503 0,37.281 30.222,67.503 67.503,67.503 37.281,0 67.503,-30.222 67.503,-67.503 -10e-4,-37.281 -30.223,-67.503 -67.503,-67.503 z m 34.075,18.392 h 4.444 v 10.595 h 10.596 v 4.445 h -15.041 v -15.04 z m -83.183,10.595 h 10.596 V 97.204 h 4.444 v 15.04 h -15.04 z m 15.033,87.627 h -4.444 V 184.83 h -10.596 v -4.444 h 15.041 v 15.04 z m 83.182,-10.596 h -10.596 v 10.596 h -4.444 v -15.04 h 15.04 z m 12.576,-35.664 v 4.444 h -31.461 v 3.361 h 30.034 v 4.444 h -30.034 v 3.361 h 27.572 v 4.445 h -27.572 v 3.36 h 23.935 v 4.444 h -23.45 v 23.451 h -4.444 v -23.939 h -3.361 v 27.579 h -4.444 v -27.579 h -3.361 v 30.039 h -4.444 v -30.039 h -3.36 v 31.465 h -4.444 v -31.465 h -5.702 v 31.465 h -4.444 v -31.465 h -3.361 v 30.039 h -4.444 v -30.039 h -3.361 v 27.579 h -4.444 v -27.579 h -3.36 v 23.939 h -4.444 v -23.451 h -23.45 v -4.444 h 23.942 v -3.36 h -27.58 v -4.445 h 27.58 v -3.361 h -30.042 v -4.444 h 30.042 V 153.61 H 430.54 v -4.444 h 31.468 v -5.702 h -31.461 v -4.444 h 31.461 v -3.36 H 431.97 v -4.444 h 30.035 v -3.361 h -27.572 v -4.444 h 27.572 V 120.05 H 438.07 v -4.445 h 23.45 V 92.153 h 4.444 v 23.939 h 3.361 V 88.513 h 4.444 v 27.579 h 3.361 V 86.053 h 4.444 v 30.039 h 3.36 V 84.627 h 4.444 v 31.465 h 5.702 V 84.627 h 4.444 v 31.465 h 3.361 V 86.053 h 4.444 v 30.039 h 3.36 V 88.513 h 4.444 v 27.579 h 3.361 V 92.153 h 4.444 v 23.451 h 23.45 v 4.445 h -23.942 v 3.361 h 27.579 v 4.444 h -27.579 v 3.361 h 30.042 v 4.444 h -30.042 v 3.36 h 31.468 v 4.444 h -31.468 v 5.702 h 31.464 z"
   id="path1" />

		<polygon
   style="fill:#be1e2d"
   points="514.449,144.537 494.004,144.537 494.004,120.537 466.449,120.537 466.449,140.092 486.004,140.092 486.004,128.537 474.449,128.537 474.449,132.092 480.227,132.092 480.227,136.537 470.004,136.537 470.004,124.092 490.449,124.092 490.449,144.537 466.449,144.537 466.449,172.092 486.004,172.092 486.004,152.537 474.449,152.537 474.449,164.092 478.004,164.092 478.004,158.314 482.449,158.314 482.449,168.537 470.004,168.537 470.004,148.092 490.449,148.092 490.449,172.092 518.004,172.092 518.004,152.537 498.449,152.537 498.449,164.092 510.004,164.092 510.004,160.537 504.227,160.537 504.227,156.092 514.449,156.092 514.449,168.537 494.004,168.537 494.004,148.092 518.004,148.092 518.004,120.537 498.449,120.537 498.449,140.092 510.004,140.092 510.004,128.537 506.449,128.537 506.449,134.314 502.004,134.314 502.004,124.092 514.449,124.092 "
   id="polygon1" />

	</g>
  </g>
</svg>
