<?xml version="1.0" encoding="UTF-8" standalone="no"?>
<!-- Created with Inkscape (http://www.inkscape.org/) -->

<svg
   width="32.063797mm"
   height="32.063797mm"
   viewBox="0 0 32.063797 32.063797"
   version="1.1"
   id="svg1"
   xmlns="http://www.w3.org/2000/svg"
   xmlns:svg="http://www.w3.org/2000/svg">
  <defs
     id="defs1" />
  <g
     id="layer1"
     transform="translate(-44.185418,-35.718749)">
    <g
       id="g2"
       transform="matrix(0.26458333,0,0,0.26458333,-24.813948,17.359577)">
		<path
   style="fill:#be1e2d"
   d="m 321.378,69.389 c -33.464,0 -60.593,27.128 -60.593,60.593 0,33.464 27.128,60.593 60.593,60.593 33.465,0 60.593,-27.128 60.593,-60.593 C 381.97,96.517 354.842,69.389 321.378,69.389 Z m 56.951,63.204 h -54.34 v 6.034 h 53.747 0.098 l -0.663,3.149 -0.437,2.074 h -0.044 c -4.885,19.495 -20.009,35.225 -39.307,40.87 v 0.039 l -1.956,0.495 c -0.005,0.001 -0.009,0.003 -0.015,0.004 l -3.253,0.824 v -0.102 -31.808 h 15.837 v 5.223 h -10.614 v 19.859 c 16.413,-5.343 29.282,-18.775 33.908,-35.404 h -47.303 v 43.089 0.062 h -5.223 v -0.062 -43.089 h -47.302 c 4.626,16.628 17.495,30.061 33.908,35.404 v -19.859 h -10.614 v -5.223 h 15.837 v 31.808 0.102 l -3.253,-0.824 c -0.005,-0.001 -0.009,-0.002 -0.014,-0.003 l -1.957,-0.495 v -0.039 c -19.298,-5.645 -34.422,-21.376 -39.307,-40.87 h -0.044 l -0.436,-2.074 -0.663,-3.149 h 0.098 53.747 v -6.034 h -54.34 -0.068 v -5.223 h 0.068 54.34 v -6.034 h -53.747 -0.098 l 0.663,-3.149 0.436,-2.074 h 0.044 c 4.885,-19.494 20.009,-35.225 39.307,-40.87 v -0.039 l 1.957,-0.496 c 0.005,-0.001 0.009,-0.002 0.014,-0.003 l 3.253,-0.824 v 0.102 31.808 h -15.837 v -5.223 h 10.614 v -19.86 c -16.413,5.343 -29.282,18.775 -33.908,35.403 h 47.302 V 73.024 72.962 h 5.223 v 0.062 43.089 H 371.29 C 366.664,99.485 353.795,86.052 337.382,80.71 v 19.859 h 10.614 v 5.223 H 332.16 V 73.983 73.881 l 3.253,0.824 c 0.005,0.001 0.009,0.002 0.015,0.004 l 1.956,0.495 v 0.039 c 19.298,5.645 34.422,21.376 39.307,40.87 h 0.044 l 0.437,2.074 0.663,3.149 h -0.098 -53.747 v 6.034 h 54.34 0.068 v 5.223 z"
   id="path1" />

	</g>
  </g>
</svg>
