<?xml version="1.0" encoding="UTF-8" standalone="no"?>
<!-- Created with Inkscape (http://www.inkscape.org/) -->

<svg
   width="34.572044mm"
   height="34.572052mm"
   viewBox="0 0 34.572044 34.572052"
   version="1.1"
   id="svg1"
   xmlns="http://www.w3.org/2000/svg"
   xmlns:svg="http://www.w3.org/2000/svg">
  <defs
     id="defs1" />
  <g
     id="layer1"
     transform="translate(-30.956246,-57.414576)">
    <g
       id="g210"
       transform="matrix(0.26458333,0,0,0.26458333,-126.50867,-103.70159)">
		<path
   style="fill:#be1e2d"
   d="m 660.476,608.943 c -36.083,0 -65.333,29.251 -65.333,65.333 0,36.083 29.251,65.333 65.333,65.333 36.083,0 65.333,-29.251 65.333,-65.333 0,-36.082 -29.251,-65.333 -65.333,-65.333 z m 52.845,32.258 c 0.452,0.667 1.006,1.635 1.647,2.755 l 0.356,0.621 c 1.864,3.404 3.574,7.416 4.707,11.032 1.181,3.677 2.083,7.95 2.472,11.713 0.142,1.246 0.215,2.332 0.273,3.206 l 0.047,0.676 0.078,2.888 -14.989,0.369 -0.015,-1.38 c 0,-0.027 -0.033,-2.673 -0.418,-5.232 -0.058,-0.557 -0.151,-1.067 -0.241,-1.56 l -0.138,-0.773 c -0.077,-0.438 -0.147,-0.847 -0.24,-1.202 l -0.688,-2.99 8.575,-2.182 0.526,2.289 c 0.044,0.21 0.094,0.413 0.146,0.632 0.111,0.464 0.235,0.984 0.321,1.513 l 0.502,3.061 -2.698,0.359 -0.267,-1.731 -0.22,-1.231 c -0.078,-0.48 -0.188,-0.932 -0.285,-1.337 -0.019,-0.078 -0.037,-0.154 -0.055,-0.228 l -3.296,0.839 0.083,0.358 c 0.1,0.38 0.187,0.864 0.278,1.381 l 0.135,0.756 c 0.099,0.544 0.202,1.108 0.262,1.707 0.232,1.538 0.342,3.093 0.394,4.163 l 9.534,-0.235 -0.047,-0.73 c -0.056,-0.844 -0.126,-1.896 -0.263,-3.093 -0.372,-3.597 -1.232,-7.668 -2.36,-11.183 -1.085,-3.462 -2.719,-7.295 -4.487,-10.524 l -0.344,-0.6 c -0.614,-1.073 -1.143,-1.999 -1.557,-2.61 l -0.06,-0.094 -7.927,5.286 0.195,0.304 c 0.181,0.27 0.374,0.608 0.577,0.968 0.105,0.186 0.214,0.38 0.33,0.575 0.32,0.53 0.658,1.153 0.999,1.844 0.493,0.911 0.936,1.907 1.292,2.709 l 0.473,1.103 3.184,-1.208 c -0.169,-0.428 -0.386,-0.947 -0.63,-1.461 -0.594,-1.381 -1.289,-2.69 -1.296,-2.703 l 2.403,-1.28 c 0.03,0.057 0.754,1.419 1.374,2.864 0.342,0.719 0.648,1.485 0.841,1.992 l 0.852,2.156 -8.274,3.14 -1.414,-3.496 c -0.354,-0.797 -0.756,-1.701 -1.222,-2.564 -0.331,-0.667 -0.632,-1.224 -0.917,-1.698 -0.132,-0.222 -0.25,-0.432 -0.364,-0.634 -0.166,-0.295 -0.321,-0.573 -0.482,-0.813 l -1.654,-2.578 12.456,-8.308 z M 683.89,616.736 c 0.862,0.316 1.99,0.826 3.61,1.565 3.484,1.653 7.221,3.896 10.272,6.163 3.059,2.238 6.299,5.155 8.88,7.999 l 0.603,0.685 c 0.803,0.911 1.497,1.699 1.982,2.338 l 1.739,2.215 -11.882,9.109 -2.34,-2.926 c -0.576,-0.67 -1.228,-1.428 -1.93,-2.133 -0.428,-0.466 -0.865,-0.901 -1.374,-1.373 -0.161,-0.15 -0.312,-0.296 -0.458,-0.437 -0.265,-0.255 -0.512,-0.496 -0.753,-0.692 l -2.323,-2.013 5.653,-6.807 1.772,1.538 c 0.15,0.134 0.299,0.261 0.459,0.397 0.373,0.319 0.792,0.678 1.184,1.07 l 2.203,2.172 -1.97,1.879 -0.66,-0.692 -1.476,-1.412 c -0.36,-0.359 -0.725,-0.669 -1.048,-0.945 -0.05,-0.043 -0.1,-0.085 -0.148,-0.126 l -2.173,2.617 0.278,0.24 c 0.262,0.213 0.567,0.504 0.891,0.817 l 0.423,0.403 c 0.56,0.519 1.048,1.007 1.487,1.486 0.733,0.734 1.451,1.568 2.027,2.238 l 0.755,0.904 7.561,-5.796 -0.052,-0.067 c -0.439,-0.578 -1.101,-1.331 -1.869,-2.201 l -0.592,-0.673 c -2.448,-2.696 -5.538,-5.48 -8.464,-7.62 -2.923,-2.172 -6.493,-4.315 -9.806,-5.885 -1.253,-0.573 -2.568,-1.173 -3.428,-1.489 l -0.1,-0.039 -3.315,8.934 0.339,0.134 c 0.311,0.11 0.69,0.282 1.093,0.467 0.177,0.081 0.359,0.166 0.548,0.248 0.723,0.316 1.344,0.614 1.896,0.91 0.914,0.441 1.811,0.96 2.602,1.416 l 1.056,0.63 1.87,-2.847 c -0.412,-0.262 -0.892,-0.546 -1.378,-0.816 -1.286,-0.775 -2.61,-1.418 -2.623,-1.424 l 1.187,-2.449 c 0.059,0.028 1.451,0.705 2.8,1.518 0.652,0.362 1.344,0.78 1.857,1.123 l 1.94,1.246 -4.856,7.396 -3.215,-2.017 c -0.751,-0.435 -1.602,-0.926 -2.478,-1.349 -0.537,-0.288 -1.093,-0.554 -1.75,-0.841 -0.206,-0.091 -0.404,-0.181 -0.595,-0.269 -0.325,-0.149 -0.628,-0.292 -0.912,-0.393 l -2.861,-1.128 5.208,-14.036 z m 14.59,62.6 c -2.253,16.861 -15.602,30.211 -32.464,32.463 l -0.423,-3.161 h -9.272 l -0.423,3.161 c -16.861,-2.253 -30.211,-15.602 -32.464,-32.463 l 3.161,-0.422 v -9.273 l -3.161,-0.423 c 2.253,-16.861 15.603,-30.211 32.464,-32.463 l 0.423,3.161 h 9.273 l 0.422,-3.161 c 16.861,2.253 30.211,15.602 32.464,32.463 l -3.161,0.422 v 9.273 z m -54.257,-64.698 c 0,0 0.53,-0.161 1.467,-0.403 0.349,-0.074 0.675,-0.153 1.037,-0.24 0.778,-0.188 1.747,-0.421 2.856,-0.602 3.668,-0.709 8.015,-1.08 11.875,-1.049 3.811,0.018 8.146,0.466 11.881,1.23 0.482,0.112 0.908,0.207 1.309,0.297 1.015,0.227 1.891,0.424 2.577,0.636 l 2.702,0.768 -4.263,14.352 -2.927,-0.834 c -0.196,-0.041 -0.495,-0.112 -0.812,-0.187 -0.818,-0.193 -1.746,-0.413 -2.672,-0.556 -0.984,-0.198 -1.936,-0.31 -2.775,-0.409 -0.319,-0.038 -0.62,-0.072 -0.896,-0.109 l -2.96,-0.222 0.56,-8.831 2.327,0.178 c 0.54,0.037 1.368,0.1 2.189,0.22 0.254,0.035 0.52,0.067 0.778,0.099 0.504,0.061 0.977,0.12 1.363,0.193 l 0.928,0.165 -0.476,2.68 -0.943,-0.168 c -0.35,-0.066 -0.764,-0.115 -1.203,-0.17 -0.271,-0.033 -0.551,-0.067 -0.83,-0.105 -0.56,-0.082 -1.115,-0.134 -1.591,-0.17 l -0.216,3.397 0.355,0.027 c 0.34,0.043 0.627,0.077 0.932,0.113 0.892,0.105 1.903,0.224 2.935,0.434 0.97,0.148 1.953,0.38 2.821,0.586 0.303,0.072 0.589,0.14 0.853,0.198 l 0.416,0.118 2.713,-9.133 -0.085,-0.024 c -0.612,-0.19 -1.439,-0.375 -2.396,-0.589 -0.408,-0.092 -0.841,-0.189 -1.294,-0.294 -3.534,-0.721 -7.674,-1.149 -11.324,-1.167 -3.702,-0.057 -7.841,0.323 -11.374,1.005 -1.048,0.172 -1.924,0.383 -2.696,0.569 -0.392,0.094 -0.745,0.179 -1.056,0.244 -0.004,0.002 -0.009,0.003 -0.013,0.004 l 2.566,9.18 c 0.132,-0.031 0.269,-0.061 0.411,-0.092 l 1.674,-0.386 2.031,-0.364 c 1.582,-0.253 3.152,-0.406 4.222,-0.492 l -0.161,-3.395 -1.654,0.13 -2.023,0.259 c -0.495,0.055 -0.813,0.118 -0.841,0.125 l -0.557,-2.665 c 0,0 0.427,-0.091 1.076,-0.163 l 2.066,-0.263 2.165,-0.171 c 0.599,-0.049 1.002,-0.066 1.002,-0.066 l 1.353,-0.058 0.419,8.826 -1.356,0.068 c -0.027,0.001 -2.683,0.138 -5.258,0.549 l -3.568,0.723 c -0.468,0.1 -0.837,0.195 -1.091,0.275 l -1.798,0.514 -4.024,-14.398 z m -31.85,21.234 c 0.055,-0.072 1.357,-1.788 3.578,-4.136 2.581,-2.76 5.866,-5.625 9.006,-7.855 3.11,-2.241 6.885,-4.425 10.349,-5.986 1.237,-0.583 2.361,-1.023 3.183,-1.344 l 0.437,-0.171 c 0.902,-0.369 1.466,-0.536 1.49,-0.544 l 1.239,-0.367 4.97,14.089 -1.331,0.43 c -0.006,0.002 -0.615,0.2 -1.488,0.56 -0.994,0.364 -2.311,0.974 -3.37,1.465 -2.323,1.117 -4.55,2.549 -4.573,2.564 l -1.153,0.743 -4.738,-7.473 2.247,-1.425 1.574,-0.909 c 0.458,-0.278 0.941,-0.521 1.368,-0.735 0.191,-0.095 0.371,-0.185 0.53,-0.271 l 0.875,-0.448 1.239,2.424 -0.85,0.435 c -0.157,0.084 -0.358,0.186 -0.573,0.293 -0.375,0.189 -0.797,0.399 -1.201,0.645 l -1.451,0.838 1.824,2.877 c 0.922,-0.551 2.286,-1.329 3.719,-2.018 1.374,-0.637 2.575,-1.186 3.546,-1.541 0.112,-0.046 0.22,-0.09 0.325,-0.132 l -3.171,-8.988 c -0.011,0.004 -0.023,0.009 -0.034,0.014 l -0.461,0.182 c -0.829,0.324 -1.86,0.727 -3.034,1.281 -3.326,1.499 -6.929,3.583 -9.905,5.728 -3.006,2.133 -6.14,4.867 -8.607,7.505 -1.102,1.165 -1.973,2.173 -2.556,2.875 l 7.472,5.921 c 0.689,-0.825 1.721,-2.012 2.85,-3.135 0.981,-0.956 1.999,-1.936 2.835,-2.627 0.092,-0.082 0.182,-0.161 0.267,-0.236 l -2.132,-2.652 -1.247,1.081 c -0.345,0.308 -0.693,0.643 -1.005,0.943 l -0.489,0.466 c -0.384,0.36 -0.633,0.615 -0.643,0.625 l -1.947,-1.902 c 0,0 0.284,-0.292 0.728,-0.709 l 0.465,-0.444 c 0.333,-0.32 0.706,-0.677 1.092,-1.023 l 1.608,-1.392 c 0.487,-0.417 0.828,-0.667 0.828,-0.667 l 1.05,-0.771 5.533,6.878 -1.116,0.846 c -0.005,0.005 -0.514,0.392 -1.218,1.021 -0.797,0.66 -1.769,1.597 -2.699,2.502 -1.836,1.828 -3.459,3.911 -3.475,3.932 l -0.843,1.085 -11.721,-9.285 z m -13.214,34.345 0.042,-0.561 c 0.066,-0.904 0.148,-2.029 0.339,-3.352 0.463,-3.758 1.435,-8.012 2.663,-11.644 1.196,-3.625 2.972,-7.611 4.869,-10.924 0.749,-1.35 1.454,-2.439 1.968,-3.235 l 0.079,-0.122 c 0.508,-0.812 0.855,-1.275 0.87,-1.294 l 0.786,-1.043 12.294,8.486 -1.076,1.505 -0.625,0.979 c -0.563,0.836 -1.224,2.011 -1.855,3.146 -1.245,2.271 -2.19,4.727 -2.199,4.752 l -0.493,1.288 -8.235,-3.276 0.85,-2.151 c 0.153,-0.372 0.345,-0.795 0.549,-1.243 l 0.332,-0.734 c 0.235,-0.55 0.517,-1.097 0.744,-1.536 l 0.652,-1.272 2.423,1.241 -0.656,1.28 c -0.211,0.41 -0.457,0.884 -0.667,1.376 l -0.35,0.775 c -0.119,0.261 -0.234,0.513 -0.336,0.744 l 3.167,1.26 c 0.423,-0.99 1.071,-2.422 1.836,-3.818 0.663,-1.194 1.358,-2.427 1.963,-3.324 l 0.19,-0.297 -7.845,-5.415 c -0.007,0.011 -0.014,0.023 -0.021,0.034 l -0.091,0.141 c -0.494,0.762 -1.17,1.805 -1.882,3.091 -1.82,3.179 -3.514,6.981 -4.659,10.45 -1.174,3.474 -2.101,7.533 -2.547,11.144 -0.181,1.257 -0.259,2.328 -0.322,3.189 l -0.044,0.59 c -10e-4,0.016 -0.003,0.032 -0.004,0.048 l 9.526,0.385 0.029,-0.387 c 0.042,-0.9 0.189,-2.039 0.345,-3.243 l 0.132,-0.902 c 0.228,-1.289 0.444,-2.506 0.695,-3.472 0.025,-0.118 0.051,-0.233 0.075,-0.343 l -3.283,-0.892 -0.371,1.606 c -0.105,0.46 -0.185,0.928 -0.257,1.345 -0.042,0.244 -0.081,0.473 -0.12,0.676 l -0.165,0.922 -2.68,-0.477 0.169,-0.944 c 0.04,-0.205 0.076,-0.415 0.114,-0.64 0.08,-0.463 0.17,-0.981 0.287,-1.493 l 0.474,-2.052 c 0.152,-0.627 0.279,-1.028 0.279,-1.028 l 0.395,-1.244 8.525,2.315 -0.411,1.344 c -0.002,0.006 -0.187,0.615 -0.383,1.532 -0.238,0.92 -0.445,2.085 -0.663,3.32 l -0.112,0.775 c -0.148,1.149 -0.288,2.234 -0.328,3.063 l -0.103,1.662 -0.03,1.387 -14.925,-0.603 -0.007,-1.3 c 0,-0.028 -0.002,-0.611 0.084,-1.59 z m 9.435,37.135 c -0.454,-0.671 -1.01,-1.642 -1.653,-2.766 l -0.35,-0.611 c -1.864,-3.406 -3.575,-7.419 -4.707,-11.033 -1.181,-3.677 -2.083,-7.95 -2.472,-11.713 -0.142,-1.246 -0.215,-2.332 -0.273,-3.206 l -0.047,-0.676 -0.078,-2.888 14.989,-0.368 0.015,1.38 c 0,0.027 0.033,2.672 0.417,5.231 0.058,0.557 0.15,1.066 0.24,1.558 l 0.138,0.776 c 0.077,0.438 0.147,0.847 0.24,1.203 l 0.689,2.988 -8.575,2.182 -0.526,-2.289 c -0.044,-0.21 -0.094,-0.414 -0.146,-0.633 -0.111,-0.464 -0.234,-0.984 -0.32,-1.511 l -0.502,-3.061 2.699,-0.359 0.242,1.589 0.245,1.374 c 0.078,0.478 0.188,0.93 0.284,1.335 0.019,0.078 0.037,0.155 0.055,0.229 l 3.296,-0.839 -0.082,-0.357 c -0.1,-0.381 -0.187,-0.863 -0.277,-1.381 l -0.136,-0.758 c -0.099,-0.544 -0.202,-1.107 -0.262,-1.706 -0.232,-1.538 -0.342,-3.093 -0.394,-4.163 l -9.534,0.235 0.047,0.73 c 0.056,0.844 0.126,1.896 0.263,3.093 0.372,3.597 1.232,7.668 2.36,11.183 1.084,3.46 2.718,7.293 4.486,10.525 l 0.338,0.589 c 0.616,1.077 1.148,2.007 1.564,2.621 l 0.06,0.093 7.927,-5.286 -0.196,-0.306 c -0.18,-0.268 -0.371,-0.604 -0.574,-0.962 -0.105,-0.187 -0.215,-0.381 -0.331,-0.577 -0.324,-0.537 -0.662,-1.161 -1,-1.847 -0.495,-0.913 -0.939,-1.913 -1.296,-2.716 l -0.469,-1.094 -3.184,1.207 c 0.169,0.428 0.386,0.947 0.63,1.463 0.595,1.385 1.288,2.688 1.295,2.7 l -2.402,1.281 c -0.031,-0.058 -0.755,-1.419 -1.375,-2.864 -0.343,-0.721 -0.648,-1.486 -0.841,-1.993 l -0.851,-2.157 8.274,-3.137 1.409,3.486 c 0.356,0.8 0.758,1.707 1.227,2.572 0.328,0.663 0.629,1.219 0.918,1.699 0.132,0.221 0.251,0.433 0.366,0.637 0.166,0.293 0.32,0.57 0.479,0.808 l 1.654,2.578 -12.456,8.307 z m 29.43,24.465 c -0.877,-0.322 -2.051,-0.853 -3.61,-1.566 -3.485,-1.653 -7.223,-3.896 -10.271,-6.161 -3.061,-2.24 -6.301,-5.158 -8.88,-7.998 l -0.603,-0.685 c -0.803,-0.911 -1.497,-1.699 -1.982,-2.338 l -1.74,-2.214 11.882,-9.109 2.344,2.929 c 0.575,0.669 1.227,1.426 1.927,2.129 0.424,0.461 0.861,0.897 1.374,1.372 0.161,0.15 0.312,0.296 0.458,0.437 0.265,0.255 0.512,0.496 0.753,0.692 l 2.323,2.013 -5.652,6.805 -1.775,-1.537 c -0.149,-0.133 -0.3,-0.261 -0.46,-0.399 -0.372,-0.317 -0.79,-0.675 -1.18,-1.065 l -2.204,-2.173 1.97,-1.879 0.661,0.694 1.476,1.413 c 0.357,0.357 0.722,0.665 1.044,0.94 0.051,0.044 0.101,0.087 0.15,0.129 l 2.173,-2.617 -0.278,-0.24 c -0.262,-0.213 -0.567,-0.504 -0.891,-0.817 l -0.423,-0.403 c -0.564,-0.522 -1.051,-1.009 -1.487,-1.485 -0.732,-0.732 -1.448,-1.566 -2.023,-2.235 l -0.758,-0.908 -7.561,5.797 0.053,0.068 c 0.438,0.578 1.101,1.33 1.869,2.2 l 0.592,0.673 c 2.446,2.693 5.536,5.477 8.465,7.62 2.92,2.17 6.491,4.313 9.805,5.884 1.437,0.657 2.615,1.191 3.428,1.489 l 0.1,0.039 3.315,-8.933 -0.338,-0.134 c -0.309,-0.11 -0.682,-0.28 -1.079,-0.462 -0.18,-0.083 -0.367,-0.17 -0.56,-0.253 -0.727,-0.318 -1.349,-0.617 -1.899,-0.913 -0.915,-0.441 -1.814,-0.961 -2.607,-1.418 l -1.05,-0.627 -1.869,2.848 c 0.415,0.263 0.895,0.548 1.377,0.816 1.281,0.771 2.61,1.417 2.623,1.424 l -1.187,2.449 c -0.059,-0.028 -1.45,-0.704 -2.8,-1.517 -0.647,-0.358 -1.339,-0.777 -1.857,-1.124 l -1.942,-1.242 4.858,-7.399 3.209,2.015 c 0.753,0.435 1.605,0.928 2.484,1.352 0.536,0.288 1.091,0.555 1.75,0.841 0.21,0.092 0.412,0.184 0.608,0.275 0.32,0.148 0.62,0.287 0.902,0.389 l 2.859,1.125 -5.209,14.038 z m 39.667,2.097 c 0,0 -0.53,0.161 -1.466,0.403 -0.35,0.075 -0.676,0.154 -1.037,0.24 -0.779,0.188 -1.748,0.421 -2.858,0.602 -3.472,0.672 -7.548,1.052 -11.249,1.052 -0.21,0 -0.418,-0.002 -0.625,-0.004 -3.817,-0.018 -8.151,-0.466 -11.882,-1.23 -0.481,-0.112 -0.907,-0.207 -1.308,-0.297 -1.015,-0.227 -1.891,-0.424 -2.577,-0.636 l -2.702,-0.767 4.263,-14.352 2.926,0.833 c 0.193,0.04 0.486,0.11 0.797,0.183 0.823,0.195 1.756,0.416 2.688,0.559 0.98,0.198 1.927,0.31 2.762,0.408 0.325,0.039 0.631,0.074 0.911,0.112 l 2.958,0.221 -0.56,8.827 -2.33,-0.175 c -0.526,-0.034 -1.343,-0.095 -2.187,-0.219 -0.256,-0.035 -0.525,-0.068 -0.784,-0.099 -0.501,-0.061 -0.972,-0.12 -1.357,-0.192 l -0.931,-0.167 0.482,-2.678 0.94,0.168 c 0.348,0.066 0.758,0.115 1.195,0.168 0.273,0.033 0.556,0.068 0.838,0.106 0.47,0.069 0.991,0.125 1.591,0.17 l 0.216,-3.396 -0.354,-0.027 c -0.346,-0.044 -0.638,-0.079 -0.948,-0.115 -0.888,-0.105 -1.895,-0.224 -2.921,-0.433 -0.975,-0.148 -1.965,-0.382 -2.837,-0.589 -0.297,-0.07 -0.578,-0.137 -0.837,-0.195 l -0.415,-0.117 -2.713,9.133 0.083,0.023 c 0.614,0.191 1.44,0.376 2.397,0.589 0.408,0.092 0.841,0.189 1.294,0.294 3.529,0.721 7.668,1.15 11.324,1.167 3.697,0.051 7.84,-0.323 11.374,-1.005 1.049,-0.172 1.926,-0.383 2.699,-0.569 0.391,-0.093 0.742,-0.179 1.053,-0.243 0.005,-0.002 0.009,-0.003 0.013,-0.004 l -2.566,-9.181 c -0.133,0.031 -0.271,0.062 -0.413,0.093 l -1.671,0.385 -2.031,0.364 c -1.582,0.253 -3.152,0.406 -4.222,0.492 l 0.161,3.395 1.652,-0.13 2.024,-0.259 c 0.497,-0.055 0.817,-0.118 0.844,-0.124 l 0.551,2.666 c 0,0 -0.426,0.09 -1.073,0.161 l -2.067,0.263 -2.163,0.171 c -0.597,0.049 -0.999,0.067 -0.999,0.067 l -1.357,0.061 -0.419,-8.829 1.356,-0.069 c 0.027,-10e-4 2.683,-0.138 5.259,-0.55 l 3.568,-0.723 c 0.47,-0.099 0.837,-0.194 1.091,-0.274 l 1.798,-0.515 4.025,14.398 z m 31.85,-21.232 c -0.054,0.072 -1.357,1.787 -3.578,4.134 -2.581,2.76 -5.866,5.625 -9.006,7.855 -3.11,2.241 -6.885,4.425 -10.349,5.986 -1.224,0.578 -2.341,1.016 -3.158,1.334 l -0.461,0.181 c -0.903,0.369 -1.465,0.537 -1.489,0.544 l -1.241,0.369 -4.97,-14.089 1.329,-0.431 c 0.006,-0.003 0.616,-0.201 1.49,-0.561 0.984,-0.361 2.251,-0.948 3.37,-1.465 2.322,-1.117 4.549,-2.55 4.572,-2.565 l 1.153,-0.743 4.739,7.477 -1.946,1.246 -1.876,1.086 c -0.44,0.267 -0.924,0.511 -1.356,0.729 -0.195,0.097 -0.378,0.19 -0.54,0.277 l -0.877,0.448 -1.239,-2.424 0.852,-0.435 c 0.157,-0.085 0.363,-0.189 0.583,-0.299 0.373,-0.187 0.791,-0.396 1.192,-0.639 l 1.449,-0.837 -1.824,-2.878 c -0.922,0.551 -2.286,1.329 -3.718,2.018 -1.184,0.548 -2.506,1.159 -3.546,1.54 -0.112,0.047 -0.221,0.091 -0.326,0.133 l 3.171,8.988 c 0.011,-0.005 0.023,-0.01 0.035,-0.015 l 0.484,-0.191 c 0.823,-0.322 1.848,-0.722 3.009,-1.271 3.327,-1.499 6.929,-3.583 9.906,-5.728 3.006,-2.133 6.14,-4.867 8.607,-7.505 1.102,-1.165 1.973,-2.173 2.556,-2.875 l -7.473,-5.92 c -0.689,0.825 -1.721,2.011 -2.849,3.135 -0.982,0.956 -1.999,1.936 -2.836,2.627 -0.092,0.083 -0.181,0.16 -0.267,0.236 l 2.131,2.651 1.247,-1.081 c 0.345,-0.308 0.693,-0.643 1.005,-0.943 l 0.489,-0.466 c 0.385,-0.362 0.635,-0.616 0.644,-0.625 l 1.944,1.905 c 0,0 -0.283,0.29 -0.726,0.706 l -0.465,0.444 c -0.333,0.32 -0.706,0.677 -1.092,1.023 l -1.608,1.392 c -0.488,0.419 -0.83,0.669 -0.83,0.669 l -1.05,0.767 -5.531,-6.876 1.116,-0.846 c 0.005,-0.005 0.515,-0.392 1.219,-1.021 0.797,-0.659 1.769,-1.596 2.698,-2.501 1.831,-1.824 3.459,-3.911 3.476,-3.932 l 0.843,-1.084 11.721,9.286 z m 13.214,-34.346 -0.042,0.562 c -0.066,0.904 -0.148,2.029 -0.339,3.352 -0.464,3.758 -1.435,8.012 -2.663,11.643 -1.196,3.625 -2.972,7.611 -4.869,10.924 -0.744,1.343 -1.447,2.429 -1.96,3.221 l -0.088,0.136 c -0.508,0.812 -0.855,1.275 -0.869,1.294 l -0.786,1.045 -12.295,-8.488 1.076,-1.505 0.626,-0.979 c 0.565,-0.84 1.225,-2.013 1.854,-3.145 1.242,-2.265 2.19,-4.728 2.199,-4.753 l 0.493,-1.287 8.233,3.275 -0.849,2.152 c -0.153,0.373 -0.346,0.797 -0.551,1.248 l -0.33,0.729 c -0.235,0.549 -0.517,1.095 -0.743,1.533 l -0.653,1.275 -2.422,-1.243 0.656,-1.28 c 0.211,-0.409 0.457,-0.883 0.666,-1.373 l 0.347,-0.769 c 0.12,-0.264 0.236,-0.517 0.339,-0.751 l -3.167,-1.26 c -0.423,0.99 -1.071,2.422 -1.836,3.819 -0.661,1.191 -1.355,2.422 -1.962,3.324 l -0.19,0.297 7.845,5.416 c 0.007,-0.012 0.014,-0.023 0.022,-0.035 l 0.099,-0.153 c 0.492,-0.76 1.165,-1.8 1.874,-3.079 1.82,-3.179 3.514,-6.981 4.659,-10.45 1.174,-3.473 2.101,-7.531 2.547,-11.143 0.181,-1.257 0.259,-2.328 0.322,-3.189 l 0.044,-0.591 c 10e-4,-0.016 0.003,-0.031 0.004,-0.047 l -9.526,-0.385 -0.029,0.386 c -0.042,0.9 -0.189,2.039 -0.345,3.243 l -0.133,0.908 c -0.228,1.287 -0.444,2.502 -0.694,3.467 -0.025,0.118 -0.05,0.233 -0.075,0.342 l 3.283,0.892 0.371,-1.606 c 0.105,-0.46 0.185,-0.928 0.257,-1.345 0.042,-0.244 0.081,-0.473 0.121,-0.677 l 0.164,-0.921 2.68,0.475 -0.169,0.945 c -0.04,0.205 -0.076,0.415 -0.114,0.64 -0.08,0.463 -0.17,0.981 -0.287,1.493 l -0.474,2.052 c -0.152,0.628 -0.28,1.028 -0.28,1.028 l -0.396,1.243 -8.525,-2.315 0.412,-1.345 c 0.002,-0.005 0.187,-0.613 0.383,-1.53 0.237,-0.919 0.444,-2.083 0.662,-3.315 l 0.114,-0.782 c 0.148,-1.149 0.288,-2.234 0.328,-3.063 l 0.103,-1.661 0.03,-1.387 14.924,0.603 0.007,1.3 c 0.001,0.028 0.003,0.611 -0.083,1.59 z"
   id="path202" />

		<path
   style="fill:#be1e2d"
   d="m 645.466,693.588 v -3.82 h -3.839 c 1.305,1.614 2.694,2.893 3.839,3.82 z"
   id="path203" />

		<path
   style="fill:#be1e2d"
   d="m 676.448,654.949 v 3.836 h 3.814 c -0.928,-1.146 -2.207,-2.534 -3.814,-3.836 z"
   id="path204" />

		<polygon
   style="fill:#be1e2d"
   points="673.069,677.681 691.939,677.681 691.939,671.391 673.069,671.391 673.069,662.166 667.482,662.166 667.482,686.388 673.069,686.388 "
   id="polygon204" />

		<rect
   x="657.81201"
   y="643.29498"
   style="fill:#be1e2d"
   width="6.29"
   height="61.964001"
   id="rect204" />

		<path
   style="fill:#be1e2d"
   d="m 641.646,658.786 h 3.821 v -3.84 c -1.615,1.306 -2.895,2.694 -3.821,3.84 z"
   id="path205" />

		<polygon
   style="fill:#be1e2d"
   points="654.432,662.166 648.847,662.166 648.847,671.391 645.467,671.391 629.976,671.391 629.976,677.681 645.467,677.681 648.847,677.681 648.847,686.388 654.432,686.388 "
   id="polygon205" />

		<path
   style="fill:#be1e2d"
   d="m 667.482,640.422 v 18.364 h 5.586 v -10.052 l 2.555,1.522 c 6.055,3.607 9.242,9.153 9.374,9.387 l 1.429,2.523 h -9.977 v 5.845 h 18.415 c -2.558,-13.931 -13.487,-24.928 -27.382,-27.589 z"
   id="path206" />

		<path
   style="fill:#be1e2d"
   d="m 627.051,668.011 h 18.416 v -5.845 h -9.978 l 1.429,-2.523 c 0.133,-0.234 3.319,-5.78 9.374,-9.387 l 2.555,-1.522 v 10.052 h 5.586 v -18.364 c -13.895,2.661 -24.825,13.658 -27.382,27.589 z"
   id="path207" />

		<path
   style="fill:#be1e2d"
   d="m 648.846,699.745 -2.523,-1.429 c -0.234,-0.133 -5.78,-3.319 -9.386,-9.374 l -1.522,-2.555 h 10.052 v -5.327 h -18.313 c 2.731,13.685 13.557,24.442 27.279,27.071 v -18.364 h -5.586 v 9.978 z"
   id="path208" />

		<path
   style="fill:#be1e2d"
   d="M 676.448,686.388 H 686.5 l -1.522,2.555 c -3.607,6.055 -9.152,9.241 -9.386,9.374 l -2.523,1.429 v -9.977 h -5.586 v 18.364 c 13.721,-2.628 24.548,-13.386 27.279,-27.071 h -18.313 v 5.326 z"
   id="path209" />

		<path
   style="fill:#be1e2d"
   d="m 680.285,689.768 h -3.837 v 3.814 c 1.147,-0.929 2.535,-2.208 3.837,-3.814 z"
   id="path210" />

	</g>
  </g>
</svg>
