<?xml version="1.0" encoding="UTF-8" standalone="no"?>
<!-- Created with Inkscape (http://www.inkscape.org/) -->

<svg
   width="28.457521mm"
   height="28.457525mm"
   viewBox="0 0 28.457521 28.457525"
   version="1.1"
   id="svg1"
   xmlns="http://www.w3.org/2000/svg"
   xmlns:svg="http://www.w3.org/2000/svg">
  <defs
     id="defs1" />
  <g
     id="layer1"
     transform="translate(-30.956248,-65.352079)">
    <g
       id="g266"
       transform="matrix(0.26458333,0,0,0.26458333,-129.667,45.189775)">
		<path
   style="fill:#be1e2d"
   d="m 659.08,176.16 v -20.4 h -26.293 c 3.751,3.929 11.333,10.72 20.409,12.48 l -0.675,3.484 c -14.276,-2.755 -24.631,-16.098 -25.067,-16.658 l -2.195,-2.862 h 71.209 l -2.195,2.862 c -0.435,0.56 -10.8,13.902 -25.076,16.658 l -0.675,-3.484 c 9.084,-1.76 16.667,-8.551 20.418,-12.48 h -26.302 v 20.4 c 18.427,-0.702 34.125,-12.231 40.889,-28.4 H 618.2 c 6.764,16.169 22.462,27.698 40.88,28.4 z"
   id="path262" />

		<path
   style="fill:#be1e2d"
   d="m 704.831,115.76 h -42.196 v 28.444 H 667 v -24 h 35.556 V 139.76 H 675 v -11.556 h 17.778 v 3.556 h -14.222 v 4.444 H 699 V 123.76 h -28.444 v 20.444 h 34.275 c 1.458,-4.48 2.249,-9.262 2.249,-14.222 0,-4.96 -0.791,-9.742 -2.249,-14.222 z"
   id="path263" />

		<path
   style="fill:#be1e2d"
   d="m 651.08,123.76 h -28.445 v 12.444 h 20.445 v -4.444 h -14.222 v -3.556 h 17.778 V 139.76 H 619.08 v -19.556 h 35.555 v 24 H 659 V 115.76 h -42.116 c -1.449,4.48 -2.249,9.262 -2.249,14.222 0,4.96 0.8,9.742 2.249,14.222 h 34.196 z"
   id="path264" />

		<path
   style="fill:#be1e2d"
   d="m 662.635,83.804 v 20.4 h 26.302 c -3.751,-3.929 -11.333,-10.72 -20.418,-12.48 l 0.675,-3.484 c 14.276,2.756 24.64,16.098 25.076,16.658 l 2.195,2.862 h -71.209 l 2.195,-2.862 c 0.436,-0.56 10.791,-13.902 25.067,-16.658 l 0.675,3.484 c -9.076,1.76 -16.658,8.551 -20.409,12.48 h 26.293 v -20.4 c -18.418,0.702 -34.116,12.231 -40.88,28.4 h 85.324 C 696.76,96.035 681.062,84.506 662.635,83.804 Z"
   id="path265" />

		<path
   style="fill:#be1e2d"
   d="m 660.858,76.204 c -29.653,0 -53.778,24.124 -53.778,53.778 0,29.654 24.124,53.778 53.778,53.778 29.653,0 53.778,-24.124 53.778,-53.778 0,-29.654 -24.125,-53.778 -53.778,-53.778 z m 0,103.556 c -27.44,0 -49.778,-22.329 -49.778,-49.778 0,-27.449 22.338,-49.778 49.778,-49.778 27.449,0 49.778,22.329 49.778,49.778 0,27.449 -22.329,49.778 -49.778,49.778 z"
   id="path266" />

	</g>
  </g>
</svg>
