<?xml version="1.0" encoding="UTF-8" standalone="no"?>
<!-- Created with Inkscape (http://www.inkscape.org/) -->

<svg
   width="28.314381mm"
   height="28.269407mm"
   viewBox="0 0 28.314381 28.269407"
   version="1.1"
   id="svg1"
   xmlns="http://www.w3.org/2000/svg"
   xmlns:svg="http://www.w3.org/2000/svg">
  <defs
     id="defs1" />
  <g
     id="layer1"
     transform="translate(-81.491671,-83.079168)">
    <g
       id="g262"
       transform="matrix(0.26458333,0,0,0.26458333,-34.581043,62.822932)">
		<g
   id="g261">
			<g
   id="XMLID_2_">
				<g
   id="g260">
					<path
   style="fill:#be1e2d"
   d="m 516.648,154.426 h 6.053 c -2.053,2.533 -4.24,4.551 -6.053,6.018 z"
   id="path253" />

					<path
   style="fill:#be1e2d"
   d="m 516.648,140.684 h 28.898 c -4.302,21.591 -21.387,38.569 -43.04,42.72 v -28.978 h 8.809 v 15.742 l 3.982,-2.258 c 0.373,-0.205 9.12,-5.236 14.818,-14.791 l 2.4,-4.027 h -15.867 z"
   id="path254" />

					<path
   style="fill:#be1e2d"
   d="m 467.759,154.426 v 6.027 c -1.804,-1.467 -3.991,-3.484 -6.053,-6.027 z"
   id="path255" />

					<path
   style="fill:#be1e2d"
   d="m 481.91,154.426 v 28.978 c -21.653,-4.151 -38.738,-21.129 -43.049,-42.72 h 28.898 v 8.409 h -15.858 l 2.4,4.027 c 5.689,9.556 14.445,14.587 14.809,14.791 l 3.982,2.258 v -15.742 h 8.818 z"
   id="path256" />

					<polygon
   style="fill:#be1e2d"
   points="473.092,125.422 473.092,110.87 481.91,110.87 481.91,149.093 473.092,149.093 473.092,135.35 467.759,135.35 443.315,135.35 443.315,125.422 467.759,125.422 "
   id="polygon256" />

					<path
   style="fill:#be1e2d"
   d="m 467.759,99.475 v 6.062 h -6.027 c 1.467,-1.813 3.485,-4 6.027,-6.062 z"
   id="path257" />

					<path
   style="fill:#be1e2d"
   d="m 481.91,76.559 v 28.978 h -8.818 V 89.671 l -4.027,2.4 c -9.556,5.698 -14.587,14.444 -14.791,14.818 l -2.258,3.982 h 15.742 v 9.218 H 438.7 c 4.037,-21.983 21.281,-39.334 43.21,-43.53 z"
   id="path258" />

					<path
   style="fill:#be1e2d"
   d="m 522.666,105.537 h -6.018 v -6.053 c 2.542,2.053 4.56,4.24 6.018,6.053 z"
   id="path259" />

					<path
   style="fill:#be1e2d"
   d="m 545.715,120.088 h -29.067 v -9.218 h 15.751 l -2.258,-3.982 c -0.213,-0.373 -5.235,-9.12 -14.791,-14.818 l -4.036,-2.4 v 15.867 h -8.809 V 76.559 c 21.921,4.196 39.174,21.547 43.21,43.529 z"
   id="path260" />

					<polygon
   style="fill:#be1e2d"
   points="541.092,125.422 541.092,135.35 511.315,135.35 511.315,149.093 502.506,149.093 502.506,110.87 511.315,110.87 511.315,125.422 "
   id="polygon260" />

					<rect
   x="487.24301"
   y="81.093002"
   style="fill:#be1e2d"
   width="9.9289999"
   height="97.778"
   id="rect260" />

				</g>

			</g>

		</g>

	</g>
  </g>
</svg>
