<svg xmlns="http://www.w3.org/2000/svg" xmlns:xlink="http://www.w3.org/1999/xlink" version="1.1" id="PRINT" x="0px" y="0px" viewBox="0 0 595.276 841.89" style="enable-background:new 0 0 595.276 841.89;" xml:space="preserve">
<g id="BACKGROUND">
	<rect x="-8.504" y="-8.504" style="fill:#FFFBF3;" width="612.283" height="858.898"/>
	<g>
		<defs>
			<rect id="SVGID_1_" x="-8.504" y="-8.504" width="612.283" height="858.898"/>
		</defs>
		<clipPath id="SVGID_00000083782378989895563890000013757863771507230861_">
			<use xlink:href="#SVGID_1_" style="overflow:visible;"/>
		</clipPath>
		<g style="opacity:0.7;clip-path:url(#SVGID_00000083782378989895563890000013757863771507230861_);">
			<g>
				<path style="fill:#EFEFEF;" d="M440.189-12.351c0,0-1.098-1.097,0-2.197c-2.196,0-3.296-2.196-6.59-2.196      c-1.097-5.491-5.489-7.687-6.587-13.178c-5.49,1.097-8.787-1.099-8.787-6.587c-4.392,1.097-8.784,5.489-9.881,9.88      c-7.686-2.196-17.571,6.591-5.489-6.587c-10.984-14.277-10.984,4.391-17.572,5.49c2.196,2.196,2.196,5.491,2.196,6.59      c-4.392-1.098-7.69-4.394-7.69-8.785c-3.294,0-2.196-1.099-5.489,1.097c-6.588-4.391-16.473,8.787-14.277,13.179      c-5.49,4.392-17.571-5.491-19.767-9.885c-1.097,1.1-1.097,3.296-2.196,5.493c7.686,2.197,10.983,8.784,17.571,14.275      c4.392,3.295,10.984,3.295,15.375,8.785c-3.294,0-1.098,2.197-5.49,0c0,3.294,0,5.49,2.196,8.785c-1.097,0-1.097,0-2.196,1.099      c8.784,5.491,0,8.785,2.196,15.374c-2.196,0-4.395,1.097-6.591,1.097c1.097,8.787-10.98,16.472-17.571,18.671      c1.099,1.097,0,3.294,1.099,4.393c-5.489,1.1-20.865,9.883-19.767,14.275c-5.49,3.294-10.98,0-10.98,6.59      c0,0-3.297,2.196-3.297,1.098c-3.294-4.394-23.06-3.293-26.354,1.097c-3.294,1.097-5.489,3.294-7.686,6.587      c-7.688-1.097-19.767,8.788-25.259,12.081c-8.784,5.49-15.375,10.982-21.964,17.572c12.081-1.098,20.865-13.179,31.848-15.375      c-3.292,5.491-19.767,18.669-25.259,21.962c-3.294,2.197-8.784,3.295-13.176,5.492c-1.099,2.198-4.395,9.883-6.591,13.176      c1.096,1.1,2.196,3.295,3.294,4.395c-6.588,3.295-1.099,8.785-6.588,13.176c0,1.1,1.099,1.1,2.196,2.198      c-6.587,2.197-5.49,7.688-9.881,10.982c0,1.097,0,2.196,0,2.196c-4.395,3.293-10.985,7.687-9.885,15.374      c3.294,0,2.196,1.099,4.39,2.197c-3.292,2.194-4.39,4.392-6.586,6.588c5.49,2.197,7.686-3.295,10.982-6.588      c-1.096-1.098-2.198-3.294-3.297-3.294c3.297-3.297,7.69-4.393,12.081-4.393c-1.1-1.099-2.196-2.197-2.196-3.295      c3.294-2.197,6.586-4.394,7.686-8.784c3.297,1.097,7.687,0,9.885,1.097c-1.099-2.197-1.099-4.391-4.393-6.587      c1.098-1.099,2.194-2.198,3.294-3.295c-14.277-8.786,16.471-30.749,24.159-12.08c-1.099,0-1.099,0-2.198,1.097      c5.49,3.294,1.1,9.883,3.294,16.474c4.396,0,5.496,1.097,6.592,5.49c-2.196,0-3.298,1.097-5.493,1.097      c0,0,2.194,2.196,1.096,2.196c-3.292,6.591-10.98,2.197-15.37,9.885c4.39,7.686,17.571-5.491,23.061,5.49      c0,4.392,10.979,10.984,15.375,7.688c5.489,3.295,6.587,7.687,13.176,10.98c4.395,2.197,10.982-1.097,13.178,7.688      c-2.196,1.097-3.294,3.296-5.489,4.394c1.098,4.392,6.588,4.392,10.979,2.197c0,1.096,0,3.292,0,4.39      c-1.098,0-2.196,0-3.294,1.097c-1.098,5.493-1.098,15.375,7.689,8.786c-3.297-3.293,2.196-14.273,3.294-18.668      c9.882,2.198,6.588,10.984,2.196,15.375c2.196,4.394,7.686,6.588,9.885,10.981c-5.493,0-24.162-6.587-15.375,6.588      c-2.195,0-4.395,3.294-6.591,3.294c5.494,12.081,6.591,0,9.885-1.097c6.588-3.293,12.081-3.293,17.571-6.59      c1.098,0,0-3.294,1.098-4.392c1.098,0,5.49,1.097,6.588,0c1.097-1.098,4.395-6.59,5.494-7.688      c4.392-3.294,10.979-3.294,12.077-8.785c3.294-2.196,7.689-3.292,12.081-2.196c1.098-8.784-8.787-4.391-7.686-10.981      c1.098-6.588,15.371-4.394,15.371-12.078c2.196-12.081-27.452-3.295-36.24-3.295c0-1.1,0-3.297,0-4.394      c-3.294,0-6.587,1.097-9.881,1.097c-3.294,0-7.69-2.196-9.885-2.196c-1.098-6.587,4.392-9.884,9.885-7.686      c1.098-8.787,13.175-2.198,10.979-14.277c6.592-3.294,10.983-14.278,17.57-20.865c6.592,2.197,13.18,0,20.869,5.49      c6.587,6.59,6.587,12.081,17.571,12.081c0,1.097-1.102,3.294-2.2,4.393c2.2,1.097,2.2,2.194,3.294,3.293      c4.396,0,3.297,0,6.592,2.197c-1.098,0-3.294,1.099-4.392,1.099c1.098,2.197,3.294,3.295,5.49,4.391      c1.098-1.096,1.098-2.194,2.196-3.293c5.489,5.491,16.473,3.293,18.669-4.394c-7.686,0-13.179,3.296-17.571-3.293      c2.196-3.296,3.294-5.49,3.294-8.784c3.294,1.099,6.592-1.1,8.788,0c1.097-2.197,1.097-3.297,1.097-5.493      c4.392-1.1,16.474-3.294,17.571-7.687c3.294,0,6.588,1.097,8.783,2.197c0,4.39,2.196,8.786,7.688,7.686      c6.589-14.274-19.767-9.883-26.357-13.176c-5.489,3.293-13.179,8.783-19.767,4.39c4.392-3.293,10.984-4.39,13.179-9.883      c-4.392-1.098-8.787,0-12.081,3.294c-4.392-4.393-2.196-17.57,4.392-19.767c0-2.197,1.098-5.493,1.098-7.687      c-2.196,0-5.489-1.099-7.686-1.099c2.196-5.489-4.392-8.785,0-15.375c1.098,0,1.098,0,2.196,1.097      c-2.196-7.684,7.689-10.98,9.885-17.571c2.196-7.684-1.098-13.176,3.294-19.765c0-1.099-1.098-1.099-2.196-2.196      c1.099-1.097,1.099-1.097,2.196-3.294l-2.196-1.099c-2.195-6.59-2.195-13.178-5.493-18.668c2.2-1.097,3.298-2.196,4.396-3.294      c2.196-5.493,2.196-13.179,2.196-18.669c0-1.098,2.196-2.197,2.196-3.295c0-1.098-1.098-1.098-2.196-2.198      c4.391-1.097,5.49-4.39,4.391-8.783c1.099,0,1.099,0,2.196,0c0-1.097-1.097-1.097-1.097-2.194c0,0,1.097,0,1.097-1.1      c0-1.099-1.097-2.196-1.097-3.295C434.697-7.959,437.993-12.351,440.189-12.351"/>
			</g>
			<g>
				<path style="fill:#EFEFEF;" d="M447.877,67.814c-1.098,0-2.196,0-3.294,0c-1.099,4.395-4.394,5.493-8.787,8.785      c2.198,4.393,10.983,4.393,14.277,6.59c5.489,4.394,6.589,7.688,8.785,13.178c8.785-2.197,2.198-7.687,3.295-13.178      c2.196-5.49,14.275-9.883,2.196-14.275c-3.294,4.393-8.788,5.491-13.179,6.588c0-2.196-2.196-5.491-2.196-6.588"/>
			</g>
			<g>
				<path style="fill:#EFEFEF;" d="M450.072,89.78c-2.196,0-3.294-2.197-5.489,0c-1.099-2.197-2.196-3.295-3.296-4.395      c0,1.1-1.098,3.295,0,4.395c-2.196,0-6.59,1.097-8.785,0c3.294,5.49,2.195,13.177,0,17.57      c-4.392-4.393-3.294-10.982-4.392-16.472c-2.196,2.196-4.392,6.589-4.392,10.981c-2.196-1.1-3.298,1.099-5.494,1.099      c0,6.59,6.592,8.785,6.592,14.274c1.097,5.493-2.196,9.886-4.396,14.278c4.396-1.099,8.787-3.294,13.179,0      c3.294-12.08,19.767-6.588,27.456-10.982c-2.198-7.687-12.081-3.295-17.571-5.49c3.294-3.294,9.881-2.197,12.077-7.687      c-3.294,0-4.391-2.197-7.685-1.098c3.294-6.591,8.785-15.374,3.294-17.571"/>
			</g>
			<g>
				<path style="fill:#EFEFEF;" d="M487.41,75.502c-1.099,0-3.294-1.097-4.393-1.097l1.098,2.194c-2.196,1.1-4.392,1.1-6.589,2.197      c5.491,5.491,10.981,4.393,15.374,12.081c1.099-1.097,2.196-1.097,4.394-2.197c0,1.1,1.098,4.393,1.098,5.49      c-2.196,0-4.393,2.197-5.492,3.296c6.59,4.393,14.275-6.589,4.394-9.883C499.491,80.992,491.804,78.797,487.41,75.502"/>
			</g>
			<g>
				<path style="fill:#EFEFEF;" d="M484.116,88.681c-1.098-3.295-4.392-5.491-8.785-5.491c2.196,4.394,4.393,6.591,7.687,8.787      c1.098-1.099,1.098-2.196,2.196-3.295c2.196,1.1,4.392,2.197,6.59,4.393c1.097-3.293-1.1-3.293-3.296-4.393"/>
			</g>
			<g>
				<path style="fill:#EFEFEF;" d="M486.312,97.466c-1.098-2.196-1.098-3.296-3.294-4.393c0,1.097-1.097,1.097-2.195,2.197      c-1.099-2.197-5.492-4.393-5.492-5.49c-4.394,4.39-2.196,9.88-1.1,15.373c-2.196-3.294-5.489-3.294-6.588-5.493      c-2.196,5.493,1.099,9.887,5.492,12.082c-4.393,6.587-1.1,9.883-1.1,15.375c4.393-1.097,8.787-5.492,6.592-9.886      c-1.1,0,3.294,1.099,4.391,2.198c0-2.198,1.098-4.393,1.098-6.59c3.294-1.097,5.489-2.196,7.688-3.293      c-5.492-3.295-9.883,1.097-14.277-1.097c2.197-4.395,6.589-6.591,8.785-9.887"/>
			</g>
			<g>
				<path style="fill:#EFEFEF;" d="M503.883,99.66c-2.196,0-5.49,2.198-7.686,3.297c1.098,5.493,6.588,5.493,9.881,8.785      c6.59-4.393-3.294-9.884-1.097-15.375"/>
			</g>
			<g>
				<path style="fill:#EFEFEF;" d="M511.57,104.055c-1.099,4.395,0,5.493-2.198,8.785c1.099,0,3.295,1.099,4.394,1.099      c2.195-4.391,1.1-6.588-3.295-8.785"/>
			</g>
			<g>
				<path style="fill:#EFEFEF;" d="M523.65,121.625c-2.196-1.099-3.294-1.099-5.489-1.099c0,1.099,0,3.295,0,4.394      c-1.098,0-4.393,1.1-5.492,1.1c0-1.1-2.196-2.198-3.295-4.395c0,3.295-1.096,7.688,0,10.983      c-3.294,2.194-5.49,3.293-7.686,3.293c0-2.196,0-4.391,0-6.587c-6.589,2.196-3.294,10.98,2.196,10.98      c5.49,0,7.688-8.784,13.179-8.784c2.195-1.099,5.489-5.489,5.489-6.588"/>
			</g>
			<g>
				<path style="fill:#EFEFEF;" d="M502.785,118.33c-1.099,0-2.196,0-4.392,0v2.197c-1.098,0-3.296,0-5.492,0      c2.196,6.591,7.688,3.295,8.785-1.097"/>
			</g>
			<g>
				<path style="fill:#EFEFEF;" d="M534.633,133.705c-1.098,0-1.098-1.097-3.295-1.097c-1.098,0-4.393,2.194-5.492,2.194      c2.198,5.491,5.492,5.491,8.787,1.098"/>
			</g>
			<g>
				<path style="fill:#EFEFEF;" d="M514.867,141.393c-1.1-1.1-2.198-2.197-3.296-3.295c-1.099,3.295-3.294,5.492-7.688,6.591v-1.099      c2.196,5.489,8.785,3.294,10.984-1.1"/>
			</g>
			<g>
				<path style="fill:#EFEFEF;" d="M500.589,149.079c0-1.097,0-2.194,0-3.293c0,0-2.196,0-3.294,1.099      c1.098,3.294,2.196,3.294,4.391,3.294"/>
			</g>
			<g>
				<path style="fill:#EFEFEF;" d="M499.491,157.865c0,0-1.098-1.097-2.196-1.097c0,4.394-1.098,2.197,2.196,4.394v-2.197"/>
			</g>
			<g>
				<path style="fill:#EFEFEF;" d="M488.508,122.724c0,1.098-1.097,1.098,0,2.197c-4.392,2.197-2.196,3.294-4.392,5.49      c1.098,0,2.196-1.097,3.294-1.097l-2.196,3.294c8.786,0,6.59,5.49,1.098,8.785c-5.489,2.197-8.785-2.197-14.277-2.197      c1.1-3.295,3.295-5.491,7.689-5.491c-1.097-1.097,0-3.294-1.097-5.49c2.196-1.097,5.489-3.294,8.784-4.393"/>
			</g>
			<g>
				<path style="fill:#EFEFEF;" d="M477.527,145.786c-1.099,0-1.099-1.097-2.196-2.196c-2.196,0-3.295,1.099-5.492,0      c-6.587,10.979,9.885,6.588,13.179,6.588c-1.097-3.294-2.195-1.1-4.391-2.197"/>
			</g>
			<g>
				<path style="fill:#EFEFEF;" d="M461.055,140.294c-2.198,0-5.494,0-7.689,0c-4.391,5.493-9.881,2.197-14.275-1.097      c4.393-5.491,9.883-16.472,16.47-12.078c-3.294,1.097-4.391,3.293-7.685,4.391c5.489,4.391,13.179-6.588,14.277,4.391      c0,1.097-1.098,1.097-2.197,1.097C459.956,138.098,461.055,140.294,461.055,140.294"/>
			</g>
			<g>
				<path style="fill:#EFEFEF;" d="M492.901,145.786c-1.097-1.097,0-1.097-2.197-2.196c-1.098,1.099-3.294,3.294-4.392,3.294      c2.196,9.883-8.785,6.587-14.277,9.883c-4.392,3.294-5.49,12.08-4.392,17.57c2.196,0,4.392,1.099,4.392,1.099      c0,3.295-3.294,9.884-1.099,12.081c4.394,4.392,9.886-3.294,10.984-7.687c-3.294-3.295-4.393-7.689-5.492-12.08      c16.472-17.571,10.982,12.08,7.688,20.864c1.098,1.097,2.196,2.196,3.294,2.196c1.097,0,1.097-2.196,2.195-2.196      c1.098-1.097,2.198,1.097,2.198,1.097c1.097,0,2.196-2.194,3.294-3.293c3.296,14.277,17.571,8.784,27.454,7.687      c0,5.493,0,10.982,6.589,8.786c3.294,4.391,6.59,13.177,13.178,7.688c2.196,2.194,4.393,4.391,5.492,6.587      c1.098,3.295,7.687,7.687,8.786,12.081c3.294-3.296,1.098-7.686-1.099-12.081c7.686,4.395,12.08,23.062,20.865,20.866      c0-2.198,0-5.491-1.098-6.588c10.981-3.294,15.375-7.688,3.294-16.474c7.687-3.294,9.885-15.373,2.196-17.571      c1.097-1.097,1.097-3.294,2.197-4.394c-2.197,0-4.393-1.097-7.687,1.1c-2.196-4.394,0-8.785,3.294-12.078      c-3.294-1.101-6.587-1.101-9.881,1.097c0-1.097,1.098-2.198,1.098-3.294c-2.198-2.197-2.198-1.099-1.098-4.394      c-1.1-2.197-1.1-5.49-1.1-6.588c-6.59-9.883-10.981-8.785-20.865-6.587c0,3.293-1.1,5.49,0,7.686      c-10.981,8.785,2.196,17.571,2.196,26.356c-13.177-7.688-15.373-30.749-3.296-37.338c-1.097-2.197,0-3.296-1.097-4.395      c3.295,0,6.591-2.194,8.787-2.194c-2.196-2.196-13.179-6.589-16.473-6.589c-6.59-1.097-9.885,5.49-16.473,3.293      c1.098,4.393,0,5.49,3.294,7.688c-8.783,2.197-9.883-7.688-17.571,2.197c4.393,4.393,6.59,10.981,14.277,10.981      c5.489,1.097,10.981-6.588,15.375,0c-4.394,1.097-8.787,3.293-12.082,4.391c-3.294,9.885-10.981-6.587-17.571-5.49      c0-1.097,1.098-2.197,0-3.294c0,7.686-4.392,13.178-12.079,10.981c3.295-3.296,6.59-4.394,8.785-8.784      c-1.099,1.097-5.49,1.097-7.688,2.196c-3.294-4.393-8.785-7.686-3.294-12.081c-1.1,0-2.198-1.097-4.393-2.196      c3.294-2.197,4.393-5.49,4.393-9.883c1.097,0,1.097,1.099,2.196,1.099"/>
			</g>
			<g>
				<path style="fill:#EFEFEF;" d="M459.956,168.847c-2.196-3.294-5.492-3.294-8.785-5.49c-12.08-5.493-8.784,1.099-17.572,5.49      c-1.097-1.097-1.097-3.294-2.196-4.391c-2.196,4.391-1.098,8.783,3.294,12.078c-7.685,1.098-8.784,7.688-3.294,12.08      c-4.391,1.097-4.391,2.196-7.685,2.196c2.195,5.493-4.396,8.788-8.787,3.295c1.097,2.197,1.097,4.394,2.195,6.59      c-2.195,0-3.294,0-5.489,0c1.098,1.099,2.196,2.196,3.294,2.196c-13.179,7.688-9.882-2.196-16.474-8.786      c-1.097,1.097-4.392,3.294-5.489,6.59c0-1.097-1.098-3.295-1.098-4.393c-2.196,3.295-3.294,6.588-4.391,10.98      c-5.494,1.099-12.081,4.394-7.69,9.884c-4.391,2.198-8.783,4.395-6.587,9.883c3.294-1.097,7.685-4.391,10.984-6.587      c-2.2,2.196-3.299,5.49-4.397,7.688c6.592,3.294,19.767-8.786,26.359-8.786c-1.099,3.293-4.396,6.587-7.69,8.786      c2.2,1.097,6.592,3.294,8.788,4.391c2.196-6.59,15.375-19.768,15.375-7.688c5.49-1.097,12.077-4.392,9.882-10.98      c4.391-2.197,16.472-14.275,15.375-18.671c12.08,4.395,3.294-8.784-3.294-9.883c8.783-8.785,7.685,4.391,13.177,6.588      c3.295-3.294,2.196-7.686-2.198-9.881c1.1-1.101,2.198-2.197,4.395-2.197c-3.295-6.591-15.373-7.689-18.669-3.295      c-9.884-12.078,16.472-3.296,19.768-2.197c1.098-1.099,0-2.197,0-2.197"/>
			</g>
			<g>
				<path style="fill:#EFEFEF;" d="M398.457,171.043c-2.195,0-5.489,0-7.685-1.097c0,0,0,1.097-1.099,2.194      c-5.489-13.176-12.081,3.295-1.097,1.098c2.196,7.687-4.391,9.885-3.294,15.375c4.392-4.391,6.588-12.08,14.274-10.981      c2.196-3.295,0-3.295-1.098-4.394"/>
			</g>
			<g>
				<path style="fill:#EFEFEF;" d="M383.087,176.534c-1.102,1.098-2.2,0-4.395,0c1.097,3.295,1.097,2.197,3.294,3.295l1.102-2.197"/>
			</g>
			<g>
				<path style="fill:#EFEFEF;" d="M379.789,186.418c-1.097,0-2.196-2.196-4.391-1.099      C376.495,190.809,377.593,187.516,379.789,186.418"/>
			</g>
			<g>
				<path style="fill:#EFEFEF;" d="M362.218,190.809c-2.195,0-2.195-1.099-4.391-1.099c1.098,2.197,1.098,2.197,2.196,3.294      C361.12,193.005,362.218,190.809,362.218,190.809"/>
			</g>
			<g>
				<path style="fill:#EFEFEF;" d="M350.141,187.516c-2.195-1.098-3.297-2.197-5.493-2.197c1.098,3.294,1.098,3.294,2.196,5.49      C350.141,190.809,349.043,188.614,350.141,187.516"/>
			</g>
			<g>
				<path style="fill:#EFEFEF;" d="M396.262,190.809c-8.784-1.099-4.392,5.493,0,1.099"/>
			</g>
			<g>
				<path style="fill:#EFEFEF;" d="M385.282,194.105c-1.097-1.1-1.097-4.394-5.494-1.1      C381.985,197.399,383.087,194.105,385.282,194.105"/>
			</g>
			<g>
				<path style="fill:#EFEFEF;" d="M414.931,193.005c-2.196,1.1-4.392-1.097-4.392,3.297c0,1.097,1.098,1.097,1.098,1.097      c1.098-1.097,3.294-1.097,4.391-2.197"/>
			</g>
			<g>
				<path style="fill:#EFEFEF;" d="M419.323,187.516c-2.196,1.097-4.392,0-2.196,3.293c2.196,0,2.196-2.196,3.294-2.196"/>
			</g>
			<g>
				<path style="fill:#EFEFEF;" d="M235.929,177.632c-1.1-1.098-3.294-2.197-4.394-4.394c-1.096,4.394-2.194,10.984-2.194,15.375      c-6.587,1.097-7.686,6.588-5.49,12.081c2.194-2.196,10.979-7.689,12.078-9.885c1.096-2.196-1.1-5.49,1.096-8.783"/>
			</g>
			<g>
				<path style="fill:#EFEFEF;" d="M224.949,202.89c-1.098-1.097-2.196-2.196-4.39-2.196c0,3.294-1.1,4.393-1.1,6.587      c0,3.297,0,8.785,3.294,12.082c3.292-3.297,4.391-10.984,4.391-15.375"/>
			</g>
			<g>
				<path style="fill:#EFEFEF;" d="M231.535,201.793c-1.096,1.097-3.292,0-1.096,3.294c2.196,0,0-1.099,1.096-2.197"/>
			</g>
			<g>
				<path style="fill:#EFEFEF;" d="M238.123,196.302c-2.194,1.097-2.194,0-3.294,1.097v1.1      C237.025,199.597,237.025,197.399,238.123,196.302"/>
			</g>
			<g>
				<path style="fill:#EFEFEF;" d="M241.421,191.908c-1.097,0-2.196,0-3.298,0C239.226,194.105,240.324,191.908,241.421,191.908"/>
			</g>
			<g>
				<path style="fill:#EFEFEF;" d="M246.911,188.614c-2.196,0-3.296-1.097-4.392-1.097c1.096,2.194,1.096,3.293,3.294,4.392      c1.097,0,1.097-2.197,1.097-2.197"/>
			</g>
			<g>
				<path style="fill:#EFEFEF;" d="M218.358,220.461c-2.196,0-2.196-2.196-4.391,0c1.097,2.196,2.196,2.196,3.292,3.294      c1.1-1.099,1.1-3.294,2.201-3.294"/>
			</g>
			<g>
				<path style="fill:#EFEFEF;" d="M202.988,205.087c-1.1-1.099-1.1-1.099-3.301-1.099c0,0,2.201-3.294,2.201-2.196      c-4.395-3.294-9.885-4.394-15.375-5.491c0-1.1,0-2.197,0-4.394c-5.493,2.197-9.887,3.294-13.178,1.097      c-1.099-6.587-6.588-4.392-12.081-6.587c-5.49,5.49-15.375,3.293-21.965,6.587c-1.096,1.1-6.586,6.592-7.684,7.689      c-2.196,3.294-8.787,3.294-2.196,7.686c-4.395,3.295-8.787,5.492-12.081,1.098c-8.787,14.277-37.338-12.08-50.517,0      c0-1.098,0-1.098,0-2.197c-4.391-3.293-13.178-4.391-18.668-3.293c0-2.196-2.194-5.49-2.194-6.59      c-6.59,3.295-10.985-1.097-16.475,2.198c-5.49-2.198-12.081-1.099-16.472,1.097c0,1.099,1.1,2.196,1.1,3.294      c-8.786,1.099-10.98,12.078-16.475,17.572c1.099,1.096,2.196,2.194,2.196,2.194c3.299-3.294,7.689-4.392,12.081-4.392      c0,1.097,0,2.197-1.097,3.293c10.982-7.687,13.178-6.59,23.061,3.294c4.394-4.39,10.982-2.196,16.472-5.49      c2.196,5.49,4.39,13.177,10.982,5.49c3.294,5.493-2.196,12.081,2.198,16.472c3.292,3.294,14.277,2.196,17.571-1.097      c0,2.196,1.096,5.491,1.096,7.688c-9.886,9.883,3.294,6.588,6.588,8.784c4.397,3.294,2.196,9.883,9.887,9.883      c4.39,7.688,10.976-6.588,15.373,5.49c-4.396,3.297-3.297,7.688-4.396,12.081c2.201,0,5.495,1.1,7.691,0      c7.686,10.982,13.181,1.1,21.961,4.393c5.49,2.197,8.791,20.866,19.769,13.178c0-2.196-1.099-2.196-2.198-3.295      c2.198,0,4.394,0,5.49,0c0-2.194-1.096-3.293-1.096-4.392c1.096,0,1.096,0,2.196,0c-1.1-4.391,0-9.884,4.395-12.08      c-1.099-4.393,2.196-8.786-2.194-13.178c2.194,0,3.292,0,4.39,0c0-1.099-1.099-2.197,0-3.294      c2.196-4.394,6.586-6.59,12.076-4.394c-1.096-1.097-1.096-3.293-2.194-3.293c1.099,0,4.395,0,5.494-1.099      c-1.099-4.394-1.099-5.491,3.292-7.688c-1.096-1.096-1.096-2.196-2.194-3.293c1.098-1.1,2.194-1.1,2.194-1.1      c0-1.099-1.096-2.196-1.096-3.294c4.392-2.196,8.784-5.489,12.076-8.785c-1.096-1.097-2.194-5.489-2.194-6.59      c1.099,0,3.294-1.097,4.395-1.097c-2.201,0-4.395-2.196-6.591-2.196c1.099-4.392,4.39-9.883,9.885-10.982      c-1.099,0-3.294-2.194-3.294-2.194"/>
			</g>
			<g>
				<path style="fill:#EFEFEF;" d="M18.491,239.129c0,0-1.098-2.194,0-3.295c-3.294-1.097-3.294-1.097-5.49,1.101      c0,1.097,1.1,5.489,1.1,6.587c2.194,0,4.39-2.196,5.491-3.294"/>
			</g>
			<g>
				<path style="fill:#EFEFEF;" d="M95.367,437.898c-3.295-2.197-6.592,0-6.592,4.393c-2.196,0-5.49,1.099-7.684,1.099      c0,1.097,1.096,2.194,1.096,3.294c0,1.099-2.196,1.099-2.196,3.295c1.1,0,3.294,3.293,6.588,4.393      c-9.883,10.98,0,17.568,8.788,24.159c1.096-1.099,4.39-2.196,4.39-4.394c3.294,3.295,6.588,6.588,7.684,12.082      c3.295-3.298,7.691-3.298,12.082-3.298c3.294,2.197,2.194,1.101,4.393,3.298l-1.099,1.097      c8.787,2.194,10.982,16.474,20.865,8.785c0,1.097,1.096,1.097,2.196,2.194c3.297-6.589,9.885-2.194,16.471-4.39l-2.194,2.196      c1.099,0,3.294,1.097,4.39,2.194c-1.096,0-1.096,1.099-2.196,1.099c1.1,1.1,3.301,1.1,3.301,2.198c0,1.097-1.105,1.097,0,3.294      c6.586,4.393,12.076-2.197,16.466,7.686c-1.096,2.197-1.096,3.294-1.096,4.393c1.096,0,2.198,0,4.395,0      c5.49,7.687,10.98,7.687,18.668,10.984c1.099-4.394-1.096-8.787-5.492-10.984c3.297-2.196,5.492-5.49,7.688-7.686      c-1.097-2.198-1.097-4.393-1.097-6.59c4.391,1.1,7.686,4.391,2.196,7.687c1.099,2.196,2.196,3.296,2.196,5.49      c5.49-3.294,5.49-8.785,1.099-10.98c4.392-9.885,31.848-27.455,42.827-24.162c0,0-3.294,1.1-4.394,1.1c2.198,0,4.394,0,6.592,0      c-3.298,4.394-18.673,13.177-25.259,13.177c0,4.393-12.081,10.982-16.472,13.178c-2.198,3.295-1.099,3.295-5.49,5.493      c2.196,4.39,3.292,9.883,4.391,14.277c2.196,4.391,10.982,2.194,3.294,9.883c3.297,3.294,7.688,5.49,12.081,4.392      c1.097,1.098,1.097,2.196,3.292,3.294c3.294,0,7.691-1.099,9.886-6.589c-2.196-1.097-3.294-3.295-4.396-3.295      c1.102-2.196,5.495-14.273,6.591-14.273c4.394-4.395,15.377-5.494,7.688,1.096c1.096,4.395-7.688,13.177-9.883,16.472      c-1.097,4.393,1.099,8.785,4.393,12.081c-2.198,0-3.294,2.195-6.588,2.195c2.196,4.394,2.196,5.492,6.588,4.394      c-1.099,3.294-4.393,5.49-8.789,5.49c1.102,1.1,1.102,4.393,2.201,5.492c-2.201,1.097-3.297,1.097-4.397,1.097      c0,1.099,0,2.196,1.1,2.196c-5.49,0-10.98,1.1-5.49,7.688c-5.49,2.196-20.865-3.294-19.767,7.687      c-7.684,1.099-12.081,2.196-16.475,5.491c6.59,4.393,18.671,5.49,21.965,12.08c1.096-1.097,4.397,0,5.493-1.097      c2.196,10.981,3.294,13.176,9.88,20.864c0,0-1.096,0-2.194,0c1.099,1.097,2.194,3.293,2.194,4.394c0,1.097-2.194,0-2.194,1.097      c0,2.197,1.099,2.197,0,3.294c-1.097,0-3.295,0-4.392-1.097c-1.098,4.392-5.49,5.491-9.885,6.589      c5.495,8.786-7.686,12.08-13.176,12.08c-9.885,1.097-14.277-2.196-18.669,9.883c3.294-2.194,4.393-5.491,7.687-6.588      c5.49-1.099,4.391,0,8.782,0c3.301,0,8.789-3.294,10.985-1.099c5.49,4.393-5.49,5.492-7.684,5.492      c1.096,0,1.096,1.097,1.096,2.194c-1.096,0-3.297,1.099-3.297,1.099c2.201,2.198,4.395,5.491,7.69,6.59      c-2.197-1.099-5.489-1.099-7.69-2.197c2.201,2.197,3.297,5.49,5.493,7.688c0,1.096-1.097,3.294-1.097,3.294      c1.097,0,3.294,1.097,3.294,1.097c-3.294-7.687,9.881-9.883,12.082-6.59c-1.1,0-2.201,0-2.201-1.097      c2.201-2.196,4.395-2.196,5.493-2.196c0,4.394,2.194,9.883,7.684,8.785c-2.194,8.785,6.592,19.767,14.279,23.062      c-1.099,1.096-3.294,2.196-4.393,2.196c2.194,0,4.393,1.099,6.588,1.099c2.196,2.196,5.49,4.392,8.787,5.49      c5.49-7.688,9.88-10.982,16.469-1.098c2.202-2.196,2.202-2.196,3.298-5.49c-1.096-1.1-2.196,0-3.298-1.1      c4.397-3.294,8.788-3.294,9.885,2.198c-1.097,0-2.196,0-3.293,0c5.49,3.293,5.49,6.588,0,8.784c1.097,0,3.293,4.393,4.392,5.49      c-7.686,0-10.984-3.293-19.767-1.097c1.099,3.294,2.194,5.491,5.489,8.785c-1.096,0-2.194-1.099-3.294-1.099      c7.691,8.786,8.791,1.099,16.474,0c1.099,1.099,1.099,2.197,1.099,3.296c2.196-1.099,5.49-1.099,7.689-2.197      c0,1.099,1.097,5.491,1.097,6.59c-2.198,3.293-1.097,3.293-2.198,5.491c1.101,1.097,2.198,1.097,4.395,1.097      c3.294,16.471,26.354,9.885,35.142,18.669c-4.392,4.392-21.963,4.392-26.359,1.099c0,2.196,0,3.293,1.099,5.491      c9.885-4.393,28.554,7.684,32.945-4.393c3.294,1.097,5.489,0,8.787,0c-4.395-1.099-7.689-3.296-8.787-6.591      c7.689-4.39,6.592-12.078,15.375-3.293c3.294,3.293,14.277,16.472,12.082,19.767c1.099,1.097,1.099,2.194,2.196,3.293      c-15.375,3.297,1.098,23.063,8.783,25.258c-6.587,8.785,2.196,8.785,3.294,18.669c-12.077-5.49-20.865-19.767-34.039-21.964      c0,0-6.591,2.197-8.787,2.197c-2.196,0-5.49-1.097-8.784-2.197c-6.592-2.194-10.983-5.491-17.571-9.883      c6.588,15.373,25.257,15.373,34.044,28.553c1.098-1.1,4.391-1.1,5.489-3.296c3.294,3.296,13.179,5.491,18.669,6.589      c-1.098,1.097-2.195,4.395-3.294,5.493c6.588,1.097,4.392,6.588,6.588,10.981c2.196,4.391,6.588,7.687,7.685,12.078      c-1.097,0-2.196,0-2.196,0c2.196,1.099,4.396,4.394,7.689,4.394v1.099c-1.097,1.097-2.196,0-2.196,1.097      c1.099,2.197,2.196,3.295,5.49,4.394c0-3.296,2.196-3.296,3.294-6.59c1.098,0,2.196,0,3.294,0      c-1.098,1.099-1.098,3.294-2.196,5.491c4.392,1.099,12.081,4.393,4.392,6.589c0,2.196-1.098,4.394,1.097,7.687      c-1.097-1.097-3.294,0-5.489,0c-2.196,2.196-3.294,5.491-2.196,7.688c1.098-1.099,3.294-1.099,4.391-1.099h-1.098      c1.098,3.294,4.392,4.391,7.689,4.391c-1.098-1.097,0-2.196-1.098-4.391c2.196,0,4.392,0,5.49,1.099c0-2.197,0-4.393-2.196-6.59      c2.196,0,5.49-2.196,7.686-1.099c-1.098-1.097-1.098-3.293-2.196-5.491c1.098,0,3.294,0,4.392,1.099      c2.196-5.49,9.886-16.471,14.277-20.865c-7.685-6.59,4.392-7.686,1.098-15.374c0,0,0,1.097,0,2.197      c-4.392-1.1-5.489-2.197-8.783,2.196c-3.299-5.49,0-9.884,5.489-9.884c-3.294-6.59,3.294-12.08-3.294-17.571      c3.294,1.097,6.588,0,8.783,1.097c1.099-2.194,0-2.194-1.098-3.292c2.196,0,4.392,0,6.59,1.097      c0-3.294-4.393-12.08-3.296-14.275c1.098-5.492,5.492-6.59,5.492-12.081c2.198,1.097,5.492,0,6.59,0      c-1.098-7.688,9.883-18.668,1.098-20.865c-2.196-4.394-1.098-4.394-5.49-5.491c-3.295-6.591,2.196-10.981-4.393-14.275      c1.098,0,2.196-1.099,2.196-1.099c-1.098-1.1-3.294-3.295-3.294-4.393c4.393-9.884,16.47-1.099,21.964-10.981      c0-2.197,1.098-4.394,2.196-6.59c-3.294-1.099-4.393-3.294-6.59-4.393c0-1.099,1.099-2.197,2.196-3.295      c-2.196-3.293,0-6.587,3.295-8.786c-1.098-1.097-2.196-3.294-3.295-4.39c2.198,0,3.295-2.197,5.491-2.197      c-2.196-3.295-1.098-7.688,1.098-10.984c-2.196-4.39-9.885-9.883-7.687-14.275c8.785,3.294,13.177,14.275,21.964,17.571      c0-1.097,1.098-2.197,2.196-4.393c3.294,4.393,6.587,4.393,9.881,1.097c3.296-3.293,0-6.587-2.196-10.981      c5.492,1.098,7.689-1.097,8.785-5.489c1.1,0,1.1,1.097,2.198,1.097c2.196-7.688-14.277-15.374-15.375-25.259      c1.097,1.1,2.196,1.1,3.294,2.197c-2.196-6.59-7.686-14.278-12.079-20.864c-1.098,0-1.098,1.096-2.198,2.196      c-2.195-4.393-3.294-4.393-6.587-2.196c-1.098-4.395-3.294-6.59-6.588-5.492c2.196-5.491,0-10.981-5.494-13.177l-4.391,1.099      c-2.196,4.39-3.294,4.39-7.686,4.39c-1.1,8.786-8.787,0-13.179-2.194c4.391-2.196,12.079,0,17.571-4.394      c-1.099-1.096-1.099-2.197-2.196-2.197c3.294-1.097,4.391-3.293,6.587-4.391c-3.294-3.293-7.686-3.293-13.177-3.293      c4.393-4.394,10.981-2.198,16.47-4.394c-7.685,3.293-30.746-10.981-29.648,4.394c-3.294,1.097-5.494,1.097-8.787-1.101      c3.294-1.097,4.396-2.194,6.592-4.39c-6.592-3.298-24.163,0-18.669-13.178c1.099,17.568,26.355,0,31.844,7.686      c5.492-2.196,7.689,3.296,12.082,3.296c4.392,0,4.392-4.393,9.883-2.197c-2.196-3.294-1.098-4.391-5.492-6.59      c2.196,0,4.394,0,5.492,0c-3.296-6.587-26.356-8.784-31.846-6.587c0,1.097-1.098,2.196-1.098,3.293c-2.195,0-3.294,0-5.494,0"/>
			</g>
			<g>
				<path style="fill:#EFEFEF;" d="M416.028,571.875c-1.097,0-2.196-1.097-3.294-2.196c2.196,0,3.294-2.197,6.592-2.197      c0-2.196-1.098-3.293-1.098-5.49c1.098,1.097,3.294,1.097,4.392,1.097c0-1.097-2.195-2.196-1.098-3.293      c3.294-2.197,5.49-5.49,5.49-8.785c4.391-1.099,5.49-2.196,5.49-6.591c-3.294,2.198-16.474,8.786-10.98-1.097      c-3.294-3.294-2.196-4.393-3.294-8.785c1.098,0,2.196,0,3.294,0c-2.196-4.393-10.983-16.474-16.473-17.571      c1.099-3.293,4.392-5.49,7.686-7.686c3.294,5.49,6.592,5.49,7.69,0c-7.69-4.393-18.669,3.293-17.571-7.687      c-2.196-2.198-5.494-4.394-8.788-5.491c0-1.1,1.098-2.196,1.098-4.394c-3.294,0-4.391-2.197-5.49-3.294      c6.588-6.588,16.474-5.492,21.963-14.277c0,6.588-6.588,9.885-6.588,13.18c-1.098,5.491,3.294,15.374,6.588,6.59      c8.788-1.099,16.473-9.884,15.375-19.769c1.098,1.1,2.196,1.1,3.294,2.198c4.392-2.198,8.786-6.59,4.392-9.884      c3.296-3.297,2.196-4.394,3.296-8.785c-1.1,0-3.296,0-4.394,0c0-2.196-2.196-3.294-1.097-7.687c-1.099,0-2.196,0-3.294,0      c-2.196-4.395-2.196-3.295-5.489-5.492c0-4.392-2.196-8.786-6.592-9.883c0,1.097,0,3.294,0,3.294      c-7.685-7.687-13.175-7.687-21.962-13.178c-6.587-3.293-12.077-8.785-17.571-12.08c-9.881-8.784-13.175-1.097-23.06-2.197      c3.294,5.491,8.784,5.491,9.885,12.081c-2.2,1.098-4.395,2.196-6.592,2.196c0,0,2.196,2.196,2.196,1.099      c-4.392,0-7.686,0-10.98,3.295c3.294,2.196,5.49,3.294,9.881,3.294c0,3.293,3.294,6.589,4.392,10.981      c3.298-1.099,6.592-2.196,7.689-4.393c2.196-1.099,5.489-1.099,7.686-1.099c2.195,6.588,12.081,12.081,17.571,8.785      c1.098,1.099,4.395,4.393,4.395,5.491c0,1.097,1.094,4.393,1.094,5.491c-4.391,2.196-3.294,2.196-7.686,5.489      c-1.098-3.293-3.294-4.39-6.587-6.587c0,0,1.098-2.196,1.098-3.296c-7.69-3.293-15.375-1.097-23.061-3.293      c3.294,2.196,4.392,5.491,4.392,8.786c0,1.097,2.196,1.097,3.294,3.293c-1.098,0-3.294,1.097-4.392,2.197      c1.098,0,2.196,2.197,2.196,2.197c-4.391,3.294-6.588,1.097-6.588-4.394c-1.102,0-3.297,0-4.395,0      c2.195-3.293,2.195-5.49,0-9.883c0,1.097,0,3.296-1.099,4.393c-1.098,1.099-2.196,1.099-3.294,3.294      c-1.098-1.097-3.294-4.392-4.391-4.392c0-2.198,1.098-2.198,1.098-4.394c0-1.097-1.098-1.097-2.196-1.097      c1.099-1.098,2.196-2.197,2.196-2.197c-3.294-1.099-7.689-1.099-10.983,0c-1.099-4.393-3.294-7.687-5.49-10.981      c1.098-1.1,3.294-4.393,5.49-6.59c-1.099,0-1.099,0-2.196,0c0,0,1.097-2.198,0-2.198c-1.098,0-3.294-1.097-5.49-1.097      c1.098-4.391,3.294-7.686,8.784-7.686c0,2.197,1.097,3.294,1.097,5.49c1.099,0,2.196-1.097,4.396-1.097c0,1.097,0,2.196,0,4.39      c10.979-3.293-2.2-13.176-8.787-9.88c-3.294-8.787-7.686-14.277-17.572-16.474c0-5.491-3.294-8.786,0-14.277      c-1.098-1.097-2.196,0-3.294,0c1.098-1.097,2.196-2.197,3.294-3.294c-7.686-3.295-7.686,4.393-12.081,6.588      c-4.391,2.197-6.587-4.392-10.979,2.197c-1.098-1.099-3.294-4.393-3.294-6.588c4.392-3.294,3.294-1.1,2.196-6.59      c3.294-3.293,0-6.587-2.196-10.981c-2.197-1.1-5.494,0-7.689,1.097c-1.099,7.688-12.076,1.098-14.278,9.884      c-2.194,8.785,6.592,12.08,13.179,14.277c1.099,4.391,5.49,6.59,8.788,7.687c-2.197,1.098-5.494,4.393-7.689,5.49      c2.196,3.294,0,3.294,1.097,6.59c-1.097,0-3.293,0-4.391,0c4.391,3.294,10.984,2.196,15.375,0c0,3.294-1.098,2.196-2.196,3.294      c1.098,1.1,1.098,2.197,1.098,2.197c-1.098,1.099-4.392,3.294-5.491,3.294c0,1.098,0,4.391,0,5.489      c-3.297-1.097-6.591,1.101-8.787,4.395c8.787,6.589,9.885-6.59,18.669-2.197c-1.099,1.099-3.294,2.197-4.392,3.294      c1.098,1.098,2.196,2.196,3.294,3.295c-4.391,1.097-5.49,3.294-5.49,6.588c-1.097-3.294-1.097-3.294-5.492,0      c0,0,1.097,1.097,1.097,2.194c-9.881,2.198-8.784,1.1-17.571-1.097c0,4.394-2.197,7.688-5.489,8.785      c2.196,4.394,2.196,2.198,2.196,7.688c1.096-1.098,4.397-1.098,5.493-2.196c1.099,1.097-1.096,3.293,0,4.39      c1.099,0,2.197-1.097,2.197,1.1c0,0-2.197,1.097-3.293,1.097c-1.104,3.295-2.202,6.588,0,9.885      c-7.691,1.098-5.496,7.684-3.301,13.177c-4.39,0-6.586-2.194-9.88-4.391c0-1.101,0-2.197,0-4.394      c-1.099,1.097-4.39,1.097-5.49,1.097c-1.098-1.097-2.196-5.489-2.196-7.684c1.097,0,2.196-1.101,3.295-2.198      c-1.1-3.294-1.1-4.392-1.1-6.588c-1.098-1.1-3.297-2.197-3.297-3.294c2.198-4.393,15.375-12.08,4.397-13.178      c1.096-1.099,2.194-1.099,2.194-2.198c-1.099,0-4.393-1.097-6.591-1.097c3.297-5.49,7.688-14.275,10.982-18.668      c-1.097,0-2.196,0-3.294,0c1.099-2.196,3.294-3.294,4.393-4.391c2.196,0,3.294,0,5.49,1.097c0,0,4.397-1.097,5.493-2.196      c0-5.491-3.298-8.785-7.688-6.59c1.096-6.59,12.08-14.277,0-16.472c4.39-4.393,2.196-3.294,0-7.688      c0-1.097,1.096-2.196,2.196-3.293c-1.1-1.1-1.1-1.1-2.196-2.197c1.096-1.097,1.096-2.194,2.196-3.295      c-2.196,0-4.394-1.097-6.588-1.097c4.393-6.587-14.277-19.767-20.866-16.474c-1.096-5.49-5.489-9.884-10.981-5.49      c0-1.097,0-2.194,0-3.293c-4.391-3.295-21.962-3.295-28.551-1.101c-3.297-1.097-5.492,1.101-6.591,5.494      c0,1.097,1.099,2.194,2.194,3.293c-5.49,0-9.88,4.393-13.174,6.59c0,2.196,1.098,2.196,2.194,4.394      c-7.687,2.194-3.292,7.684,2.198,9.883c-1.099,2.194-1.099,1.097-3.294,2.194c0,1.1,1.096,2.197,1.096,3.295      c-1.096,1.097-2.194,1.097-3.292,3.294c1.097,1.099,3.292,2.197,4.391,2.197c-2.196,4.391-1.1,7.687,2.196,9.884      c-2.196,1.097-3.295,1.097-4.392,1.097c0,6.59-3.294,15.375-10.985,12.08c0,1.1-1.096,3.295-1.096,4.394      c-1.099,1.097-5.49,2.196-7.686,2.196c0-2.196-1.099-3.294-1.099-4.393c-7.688,6.589-28.553,18.668-35.142,3.294      c-2.196,3.294-4.397,3.294-6.591,5.489c-4.391-2.194-12.076-1.097-13.176,4.395c-4.396-1.099-5.492,0-9.885,0      c0,0,1.098-1.099,1.098-2.197c-2.196,2.197-3.294,1.099-4.39,5.49c-2.198,0-3.294,1.1-4.394,1.1"/>
			</g>
			<g>
				<path style="fill:#EFEFEF;" d="M323.783,379.696c1.098,1.097,2.195,4.393,3.294,5.49l0,0c0,5.491-4.392,18.671,6.592,14.277      c-2.196-8.785,16.472-14.277,23.06-12.08c0-1.097,0-2.197,0-3.294c3.294,2.197,6.588,2.197,8.787,2.197      c-5.493-2.197-10.983-6.59-7.689-10.982c-1.098-2.194-2.196-2.194-2.196-3.293c-7.685,5.49-8.783,9.884-18.669,10.981      c1.098-1.097,2.196-2.198,3.294-3.295c-3.294,0-7.686,1.097-10.979,2.198c0-2.198-1.102-2.198-1.102-3.297      C327.076,378.597,324.881,379.696,323.783,379.696"/>
			</g>
			<g>
				<path style="fill:#EFEFEF;" d="M329.276,368.714c0,2.196,0,4.394,3.294,6.588c0,0-1.098,1.1,0,2.197      c3.294-2.197,7.686-1.097,9.882,3.293c7.689-6.587-1.098-17.571-9.882-12.078c-1.098-2.197-4.395-1.1-3.294-1.1"/>
			</g>
			<g>
				<path style="fill:#EFEFEF;" d="M390.772,334.67c0,0-1.099,1.097-3.294,1.097c1.098,1.101,1.098,3.297,2.195,5.494      c-1.097,0-2.195,1.097-4.392,1.097c-1.097,2.194-1.097,4.394,0,6.59c2.196,0,3.294,2.196,6.588,1.099      c0,4.393,2.196,5.491,5.49,8.785c3.297-2.197,5.494-3.294,5.494-6.591c1.097,0,2.195-1.097,3.294-3.293      c-3.294-3.297-6.592-6.59-7.69-10.981c3.294,0,4.396-1.099,6.592-1.099c-2.195-4.393-5.493-5.491-8.787-6.59      c-1.099,2.197-2.196,4.391-2.196,6.59"/>
			</g>
			<g>
				<path style="fill:#EFEFEF;" d="M511.57,430.211c1.098,1.099,2.196,2.197,3.296,3.294c-2.198,0-3.296,1.098-6.59,0      c0,1.098,2.195,2.196,0,3.295c-4.394-1.1-6.59-10.982-9.884-3.295c-5.492-2.196-9.885,0-14.277,3.295      c7.688,6.588,18.669,3.294,28.552,5.49c-3.295,2.196-9.883,5.491-15.373,5.491c0,2.197,0,5.49,1.098,7.688      c6.588-6.59,21.963-3.296,24.159-13.179c1.098-1.097,2.196,1.099,3.294,0c0,0-1.098-2.196-1.098-3.294      c4.393,1.098,7.688,0,9.885-4.393c-4.393-3.294-9.885,1.097-14.277-2.196c3.294,0,6.588-2.197,9.883-3.294      c0,0-1.099,0-1.099-1.101c2.196,0,2.196,0,3.294-2.194c-2.196-4.391-5.491-9.884-9.883-5.49      c-4.391-1.099-7.685-1.099-7.685,3.294c-4.395-3.294-4.395-1.098-7.69,2.196c2.196,2.194,4.394,4.393,7.69,6.59"/>
			</g>
			<g>
				<path style="fill:#EFEFEF;" d="M537.926,442.291c-1.097-1.097-2.195-2.196-3.294-3.294c-1.098,1.098-1.098,2.197-1.098,3.294      c-2.198,0-4.394,0-5.491,1.099c1.097,1.097,1.097,5.491,2.196,7.687c-3.295-1.097-2.196,1.099-5.492-3.294      c-1.098,1.099-3.294,3.294-4.391,4.393c0,1.097,2.196,2.197,2.196,3.296c0,0-1.098,0-1.098,2.196      c4.392,3.294,8.786,3.294,13.179,6.589c2.196-2.197,3.294-6.589,4.392-8.784c-3.294-2.198-2.196-4.394-4.392-5.491      c1.099-2.197,3.294-5.492,4.392-6.59"/>
			</g>
			<g>
				<path style="fill:#EFEFEF;" d="M544.517,519.163c-1.1-1.1-1.1-3.296-5.492-1.1c0-1.097,0-3.293-1.099-3.293      c1.099,1.097,1.099,3.293,2.196,5.491c-2.196-1.098-4.391-1.098-6.588-2.198c3.294,5.493,13.177,3.298,9.881,9.887      c5.494-1.097,6.592-3.297,2.198-7.688"/>
			</g>
			<g>
				<path style="fill:#EFEFEF;" d="M547.812,531.244c-1.1,0-2.198,0-4.396,0c1.1,1.097,1.1,4.39,2.198,5.49      c-2.198,0-4.393,1.099-5.492,0c2.196,3.294,3.294,6.588,4.394,8.784c3.295,1.1,3.295,1.1,6.589-1.099      c-1.098-2.196-2.196-4.391-3.294-5.49c7.685-2.196,5.49,6.589,12.077,6.589c0-6.589-7.686-12.08-10.979-14.274"/>
			</g>
			<g>
				<path style="fill:#EFEFEF;" d="M537.926,534.537c-1.097-2.196-1.097-4.393-2.195-5.49c-1.099,2.197,0,4.391,1.098,7.687      c0-3.296,2.196-1.1,2.196-2.197"/>
			</g>
			<g>
				<path style="fill:#EFEFEF;" d="M543.416,548.815c-2.195-1.1-3.294-3.297-5.49-4.395c0,4.395,0,4.395,3.295,5.493      c1.097-1.097,2.195-2.197,2.195-2.197"/>
			</g>
			<g>
				<path style="fill:#EFEFEF;" d="M550.008,554.306c-2.196-1.101-3.296-2.198-5.491-2.198c0,1.097,1.098,2.198,1.098,3.293      c-1.098,1.1-3.296,0-4.393,1.1c1.097,4.393,6.591,6.588,10.982,8.785c1.099-4.393-1.098-7.687,1.099-10.98"/>
			</g>
			<g>
				<path style="fill:#EFEFEF;" d="M560.987,556.501c-2.196-1.1-3.294-3.295-5.49-3.295c1.099,2.196,1.099,2.196,2.196,4.394      c1.098,0,1.098-2.198,2.196-2.198"/>
			</g>
			<g>
				<path style="fill:#EFEFEF;" d="M533.535,546.618c-1.098-2.198,1.098-3.295-2.196-4.394c-1.098,2.196,1.098,4.394,2.196,5.491"/>
			</g>
			<g>
				<path style="fill:#EFEFEF;" d="M539.025,537.833c-1.099,0-2.196-1.099-4.392-1.099c0,3.294,0,3.294,2.196,5.49      c1.097-1.097,2.196-2.196,3.294-3.294"/>
			</g>
			<g>
				<path style="fill:#EFEFEF;" d="M526.946,588.348c-1.1,0-2.196-2.196-3.296-2.196c1.1,5.491,1.1,3.293,4.394,5.491      c1.099-1.101,0-2.198,1.099-3.295"/>
			</g>
			<g>
				<path style="fill:#EFEFEF;" d="M550.008,599.328c-2.196-1.097-3.296-2.194-4.393-3.293c-1.098,3.293,0,3.293,1.097,6.59      C548.91,602.625,548.91,601.525,550.008,599.328"/>
			</g>
			<g>
				<path style="fill:#EFEFEF;" d="M547.812,631.177c4.391,4.391,5.49,14.274-6.591,13.177c0,1.097,0,2.198,0,3.296      c-2.196-2.198-5.49-4.394-8.784-5.491c-1.098,4.394,0,4.394-4.393,3.293c-2.198,7.688-14.275,5.493-12.08-3.293      c0,1.097,8.786-7.688,7.686-7.688c4.394-1.097,6.592,2.197,10.983,1.099c-1.098-1.099-1.098-3.293-3.294-5.49      c4.392,0,6.587,1.099,8.784,5.49c1.099,0,1.099-1.099,2.196-2.196c1.098,0,1.098,0,2.198,1.097c1.098-1.097,0-2.194,1.098-3.293      "/>
			</g>
			<g>
				<path style="fill:#EFEFEF;" d="M523.65,655.335c0,0-1.098-1.097-2.196-2.196c-4.391,3.295-9.883-4.392-15.375-6.587      c0,1.097-1.097,3.294-1.097,3.294c5.491,4.392,2.195,9.883,6.589,13.176c6.59,6.59,6.59-3.293,13.179-4.39"/>
			</g>
			<g>
				<path style="fill:#EFEFEF;" d="M494.001,567.482c-6.591-3.293-10.984-14.277-13.179-21.964c-3.294-2.196-5.492-5.49-8.786-4.391      c-3.296-2.197-6.59-4.393-9.884-8.786c-1.098,1.097-2.196,1.097-3.294,2.196c-2.196-4.393-14.277-13.176-16.472-5.49      c-2.196-1.097-5.492-1.097-7.69-1.097c1.1,1.097,1.1,3.294,2.198,4.391c-2.198,0-3.296-1.097-4.393-1.097      c-3.294,3.293-4.392,7.686-2.196,10.98c2.196-3.294,7.688-4.392,13.179-4.392c4.392,0,14.277,1.097,16.473,2.196      c2.196,1.099,15.373,10.982,17.571,13.177c3.294,5.492-1.098,9.884,6.588,14.277c0-1.097,1.098-1.097,1.098-2.196      c2.196,5.491,5.492,6.588,9.883,4.393"/>
			</g>
			<g>
				<path style="fill:#EFEFEF;" d="M481.921,749.78c0-1.097-1.098-9.887-5.49-1.097c-6.592-7.688-14.277,2.194-5.494,5.49      c-1.098,3.294,0,4.393-2.195,6.589c0,1.097,1.097,3.295,1.097,4.393c5.492-1.097,3.296,0,6.592,2.196      c-1.1,1.1-2.198,1.1-3.295,2.197c6.589,0,8.786-7.688,4.393-12.08c1.099,0,3.294-1.099,4.392-1.099      c-1.098-1.1-1.098-3.295,0-3.295"/>
			</g>
			<g>
				<path style="fill:#EFEFEF;" d="M473.135,775.037c-1.098-1.1,1.097-2.198-3.296-3.297c0,1.099-2.196,5.494-2.196,6.591      s3.294,4.392,3.294,5.491c2.198-2.196,3.295-5.491,4.394-7.687"/>
			</g>
			<g>
				<path style="fill:#EFEFEF;" d="M463.252,757.466c0-1.099,1.098-2.198,1.098-2.198c-2.196,0-2.196,0-4.392,2.198      c1.098,1.099,3.294,0,4.392,1.099"/>
			</g>
			<g>
				<path style="fill:#EFEFEF;" d="M458.86,761.858c0-6.59-6.592-4.392-3.295,1.097c2.198,0,2.198-1.097,3.295-2.194"/>
			</g>
			<g>
				<path style="fill:#EFEFEF;" d="M441.289,859.596c-1.098-2.197-2.198-4.393-4.393-5.491c-2.198,1.099-2.198,4.393,0,8.784      c2.196,0,1.098-1.097,2.196-2.196"/>
			</g>
			<g>
				<path style="fill:#EFEFEF;" d="M299.624,767.349c-1.098-3.293-2.196-5.491,1.098-8.784c-4.392-2.197-6.588-6.59-12.082-7.688      c-1.097,0-8.783,1.098-12.077,1.098c-1.096-2.196-3.293-4.393-3.293-5.491c0-1.1,1.097-2.194,1.097-2.194      c0-2.198-2.201-3.296-2.201-5.492c-2.196,0-3.292,0-4.39,0c0-1.097-1.1-7.687-1.1-8.786c-3.292-2.196-5.489,0-6.586-1.097      l-7.691-1.098c-4.39-1.099-5.489-3.296-9.88-3.296c5.49,4.394,16.472,5.491,20.865,12.081      c2.196,4.393,1.097,24.159,12.082,18.667c1.096,6.59,6.586,5.493,10.977,1.1c1.099,2.197,1.099,1.099,2.196,4.393      c1.099,1.097,2.197,2.194,3.298,5.491c-1.101,0-1.101,1.097-2.2,2.197c3.297,2.194,6.591,3.292,9.885,2.194"/>
			</g>
			<g>
				<path style="fill:#EFEFEF;" d="M238.127,705.852c-2.198-2.196-3.298-3.294-6.592-3.294      C231.535,706.949,238.127,710.245,238.127,705.852"/>
			</g>
			<g>
				<path style="fill:#EFEFEF;" d="M223.851,706.949c-4.392-4.392-16.472-7.687-19.767-2.196c4.393,0,12.078,1.099,14.274,6.59      c2.201-1.099,4.395-2.197,5.493-3.295"/>
			</g>
			<g>
				<path style="fill:#EFEFEF;" d="M201.888,710.245c-1.101,0-3.297,0-4.395,1.099v-2.197c0,4.393,3.294,4.393,6.591,2.197      c0-2.197-1.096-2.197-2.196-3.295"/>
			</g>
			<g>
				<path style="fill:#EFEFEF;" d="M196.396,714.638c-2.198-1.099-5.49-2.197-6.588-3.294c-2.196,4.391,1.099,7.687,6.588,4.391"/>
			</g>
			<g>
				<path style="fill:#EFEFEF;" d="M194.197,694.87c-3.292-2.196-7.684-9.883-13.177-7.687c-1.099-3.294-2.196-5.491-4.394-7.687      c1.1-3.293,1.1-6.587,1.1-8.786c-3.294,3.296-10.98,7.687-12.076,12.081c-3.301,5.49-2.201,13.177,5.486,9.883      c3.295,4.393,1.1,2.196,5.49,5.49c-1.096,1.099-2.194,2.198-2.194,3.294c5.49-1.096,8.787-5.49,13.179-3.294      c1.096,0,1.096,1.099,2.196,1.099c1.099-1.099,4.39-3.294,5.49-5.489"/>
			</g>
			<g>
				<path style="fill:#EFEFEF;" d="M177.726,660.826c0,0,1.098-7.687,0-9.883c5.492-1.097,10.981-6.59,9.885-12.08      c-5.495,1.097-15.375,9.884-19.767,13.177c-2.194,2.197-15.375,13.179-6.591,14.277c0,0,1.096,2.197,0,2.197      c6.591-1.099,10.982-7.688,16.472-5.493"/>
			</g>
			<g>
				<path style="fill:#EFEFEF;" d="M159.058,670.71c-2.198-2.196-2.198-4.393-5.49-2.196c2.196,3.293,1.097,4.394,2.196,7.688      c-6.588,3.293-6.588,26.355-2.196,32.944c0-13.178,4.391-27.455,5.49-39.534"/>
			</g>
			<g>
				<path style="fill:#EFEFEF;" d="M173.335,704.754c2.196-3.295-13.179-2.196-16.475-3.295c0,4.394,4.394,4.394,7.686,3.295      c-4.39,1.099-4.39,3.294-7.686,4.393c3.295,2.197,7.686,1.099,10.985-1.098c-1.099,2.197-2.194,4.393-3.299,6.59      c4.397,1.097,3.299-1.099,4.397-5.491c2.194-2.197,2.194-1.098,4.393-1.098c-1.099,5.491,0,8.785,5.49,8.785      c-2.198-4.393-3.294-7.687-4.393-10.981"/>
			</g>
			<g>
				<path style="fill:#EFEFEF;" d="M178.825,722.325c-3.294-1.097-3.294-3.294-6.588,0c-3.294-4.394-7.691-5.491-10.982-1.097      c1.096,1.097,2.196,3.293,2.196,4.391c-1.1,2.197-1.1,3.295-2.196,6.59c3.292-4.393,5.492-6.59,9.883-8.785      c3.295-2.196,5.49,4.393,8.785-2.196"/>
			</g>
			<g>
				<path style="fill:#EFEFEF;" d="M173.335,730.012c0-1.097,2.196-1.097-1.099-1.097c-1.1,4.392-4.391,7.687-8.787,4.392      c-2.196,3.295-3.294,6.587-1.1,9.884c-2.194,3.294-4.39,6.59-6.586,8.785c-4.393-4.393-5.49-18.669,0-23.061      c-1.098,0-3.294-1.098-3.294-1.098c1.099-7.688-4.39-8.786-4.39-16.472l1.096-2.197c0-1.098-1.096-1.098-2.196-1.098      c-1.101,5.491-1.101,12.08,4.391,14.277c-2.196,5.491-2.196,3.294,0,7.687c-1.097,2.197-2.196,4.393-4.391,5.49      c-1.101,5.492-1.101,19.767,6.588,20.866c-2.197,1.099-5.489,3.296-7.689,4.393c1.101,3.295,3.297,6.588,4.395,9.883      c2.196,0,3.294,0,4.392,1.097c-2.196,0-5.49,3.297-7.686,3.297c3.294,3.294,2.196,4.391,7.686,2.197      c1.098,4.393,2.194,9.883,6.588,12.077c2.196-1.097,5.492-4.392,6.591-6.589c-1.099,1.1-3.294,0-5.495,1.1      c-5.49-4.394,1.1-10.984-4.39-16.474c5.49-3.293,5.49-8.784,10.982-12.081c-1.097-4.391,0-6.586-3.292-10.979      c-1.1,1.095-3.301,1.095-4.396,1.095c2.196-7.684,10.982-6.587,13.178-14.274"/>
			</g>
			<g>
				<path style="fill:#EFEFEF;" d="M142.584,757.466c-4.391-1.099-10.98-1.099-15.377-1.099c1.102-3.295,4.397-7.686,4.397-12.078      c2.196,1.095,4.393,1.095,6.588,3.293c1.096-3.293,1.096-3.293,0-5.491c2.196-3.294,2.196-2.198,0-6.59      c2.196-3.293,3.294-6.587,5.49-9.883c-2.196,1.099-6.588,1.099-8.784,2.197c0-3.296,0-6.589,1.099-8.786      c-1.099-1.1-2.197-1.1-3.294-1.1c0-5.49-10.985-12.078-14.277-17.568c-2.197-5.493-6.588-20.866-13.179-12.081      c-5.49,3.295-12.076,0-17.571,1.097c-2.196,4.395-7.686,4.395-12.076,2.198c0,2.197,0,2.197,1.096,4.392      c-1.096,4.394-2.196,2.196,1.1,7.688c-1.1,0-2.196,0-3.296,1.097c2.196,1.099,4.392,4.393,6.59,5.491c0,0-1.1,1.099-1.1,2.196      c4.391,2.197,12.081,9.884,5.49,13.178c0,1.099,1.098,2.197,2.196,3.295c-1.097,0-2.196,0-2.196,0      c1.098,1.097,2.196,4.392,3.294,5.49c-2.196,3.295-4.393,5.489-7.684,7.687c3.292,3.293,4.39,12.081-3.294,8.786      c-3.296,3.295-6.592,6.59-9.887,9.884c-1.099-1.097-2.196-1.097-3.294-1.097c1.098,4.393,0,4.393,2.196,7.686      c1.099,1.1,0,2.197,0,3.294c1.099,0,3.294,1.097,4.393,2.196c-1.098,2.198-1.098,4.395-2.196,5.492      c1.097,2.194,1.097,1.097,3.292,1.097c1.1,3.294,3.301,5.491,6.592,6.591c8.784-6.591,10.979,4.393,17.571,6.589      c2.198-1.097,2.198-2.196,3.294-3.297c1.099-1.097,2.196,0,3.294,0c1.096-1.097,1.096-2.195,2.196-3.292      c1.099,0,2.194,1.097,3.294,0c3.297-5.494,13.177-13.181,18.667-18.671c4.397-3.293,14.279-8.784,20.872-8.784"/>
			</g>
			<g>
				<path style="fill:#EFEFEF;" d="M58.029,768.449c-1.1-3.295,0-4.393-4.396-4.393c0,1.097,0,2.196,0,3.293      c-2.196,0-4.393,0-6.588,0c-1.096,1.1,1.099,2.197,0,3.294c-1.096,0-2.196-2.194-3.294-1.097      c2.198,4.391,6.588,3.293,9.883,1.097c4.396,7.688,15.375,5.493,7.688-1.097"/>
			</g>
			<g>
				<path style="fill:#EFEFEF;" d="M48.143,827.75c-3.294-2.198-4.393-4.394-6.588-7.689c-4.392,1.101-3.294,5.491-5.493,5.491      c-3.294,0-7.684-1.097-12.078-1.097c5.49,4.393,15.375,6.59,19.767,10.984c4.393,4.39,4.393,9.88,10.985,12.077      c3.294,0,2.194-1.099,5.489,1.1c4.392-1.1,7.686-3.297,5.49-7.688c-2.194-4.392-4.393,1.098-7.684-1.099      c-4.396-3.293-6.592-9.884-12.081-12.078"/>
			</g>
			<g>
				<path style="fill:#EFEFEF;" d="M75.6,845.319c-3.301-1.097-13.181,1.099-16.475,4.394c2.196,0,4.394,1.099,6.588,1.099      c0,2.196,1.097,2.196,0,4.393c6.586-2.197,1.097-7.688,8.787-8.787"/>
			</g>
			<g>
				<path style="fill:#EFEFEF;" d="M497.295,209.479c1.098,0,1.098,2.197,2.196,0c-1.098-3.294-1.098-4.391-5.492-5.49      c0,4.392,1.098,5.49,4.393,7.687"/>
			</g>
			<g>
				<path style="fill:#EFEFEF;" d="M494,212.773c-1.099,0-4.394-3.294-5.492-5.491c0,1.099,0,3.297,1.098,5.491      c-1.098,0-2.195,1.1-3.294,2.197c-4.391,0-2.196-1.097-5.489,2.196v1.1c1.098,0,2.195,0,2.195,1.098      c-2.195,4.392,0,8.786,4.393,9.883c-1.099,1.097-3.294,3.294-5.49,3.294c1.097,1.097,2.196,3.293,3.294,4.394      c-2.196,1.097-4.391,3.293-7.687,3.293c0,1.098,1.1,2.196,1.1,4.391c-3.296,0-6.592,0-9.885-2.196c0,1.099,0,3.294,0,4.394      c-6.588,6.587-15.376,1.097-21.963,5.49c-2.196-2.197-4.391-1.098-8.785,0c2.196,5.491-3.296,10.981-7.688,7.687      c2.196-2.196,2.196-3.294,4.392-5.489c-3.294,0-5.489,0-7.685,1.097c0,1.097,0,2.196,0,3.294      c-1.099-2.197-3.294-3.294-4.392-4.391c0,1.097,1.098,3.293,1.098,4.391c-2.196,0-4.396,0-5.494,0      c-8.784-13.179-28.551-1.099-37.338,2.196c0,0,0,1.097,0,2.196c-3.294,1.1-5.489,3.296-8.783,4.393      c1.098,1.098,1.098,2.197,1.098,2.197c-5.49,1.097-8.784,7.687-9.885,12.081c2.2,0,6.592,0,9.885-1.1      c4.391,6.59,15.375,2.197,21.962,5.493c0,1.097-1.098,1.097-1.098,1.097c0,2.196,1.098,2.196,1.098,4.393      c2.196,0,4.392,2.196,7.69,3.294c-1.102,1.099-1.102,0-2.196,2.197c1.094,1.097,3.294,1.097,4.392,2.194      c-1.098,1.1-2.195,2.198-2.195,3.295c1.097,3.295,5.489,5.49,9.881,4.393c1.098,2.197,1.098,3.295,2.196,4.393      c0,1.099-1.098,2.197-2.196,3.296c4.391,5.49,12.082,4.393,17.571,6.59c-1.098,0-3.294,2.196-4.392,2.196      c1.099,6.589,8.784,6.589,13.178,2.194c1.098,1.097,1.098,2.196,2.196,3.295c-3.294,2.197-5.492,4.393-8.785,3.295      c2.195,2.194,3.294,3.292,7.687,4.393c4.394,3.293,12.079-5.491,20.866-1.101c-2.198,1.101-3.295,3.297-4.394,4.394      c1.098,1.1,2.196,2.197,3.295,3.294c2.197-1.097,4.393-1.097,6.589-2.194c0-1.1,0-1.1-1.099-2.197      c3.295,0,3.295,1.097,6.588-1.097c0,5.489,1.1,5.489,5.492,5.489c2.197,3.297,4.393,3.297,7.687,4.394      c2.196-3.297,5.49-4.394,7.687-5.491c0,1.097,1.099,1.097,1.099,2.194l-1.099,1.098c1.099,1.101,3.296,2.198,5.492,2.198      c3.294-4.394,8.783-9.883,15.374-9.883c0,1.097,0,2.194,0,2.194l3.296,1.1c1.098,1.097,1.098,1.097,3.294,1.097      c2.196,1.097,5.489,2.194,8.785,3.293c-1.097,0-2.197,0-3.295,1.101c5.492-3.297,8.787-2.2,8.787,3.294h2.196      c1.097,0,1.097,0,0,0c-1.098,1.097-2.196,3.292-3.294,4.393c3.294-1.101,3.294,1.099,6.588-1.101c0,2.2,2.196,3.297,2.196,4.394      c5.492-3.293,8.787,3.294,10.984,5.49c1.098-1.097-2.196-1.097-2.196-1.097c2.196,0,4.391,1.097,5.49,1.097      c1.098-1.097,0-1.097-1.099-2.196c-1.097,0,2.196,1.099,3.294,1.099c0-1.099,0-2.196,0-2.196      c1.098-1.097,3.294-1.097,4.392-2.197c1.097-2.194,0-2.194,0-3.293c0,0,1.097,0,1.097-1.101      c-2.196-1.097-3.294-3.292-6.587-4.39h2.196c-2.196-1.098-4.392-3.297-6.587-4.395c2.195,0,4.392-1.097,5.489-2.194      c-3.294-3.294-7.686-4.392-12.08-6.591c4.394,1.101,8.785,2.2,12.08,3.297c0-1.097-1.098-2.196-1.098-3.297      c2.196,1.101,5.49,1.101,8.785,2.2c-2.198-1.099-3.296-1.099-4.394-2.2c0,0,2.196,0,2.196-1.097      c-3.294-1.097-5.489-3.293-7.685-6.59c0-1.099,0-2.196,0-3.293c2.196,1.097,4.391,1.097,6.588,3.293      c-1.099-1.099-2.196-4.39-2.196-5.49c1.098-1.096,2.196-1.096,3.294-1.096c-1.097-3.298,0-6.59,0-8.787      c7.69,1.099,10.984,8.787,5.494,14.274c1.098,1.099,3.294,2.198,3.294,3.297l-1.097,1.099c1.097,1.098,2.195,2.196,3.294,3.293      c2.196-1.097,3.294-1.097,5.49-2.194c0-1.098,0-2.197,0-3.295c1.097,0,1.097,1.099,2.197,1.099c2.196,0,3.294-2.198,4.392-3.297      c0,1.099,0,2.198,0,3.297c1.1-5.491-1.099-8.784-5.492-9.884c2.198-3.295,4.393-6.588,7.69-8.786      c-2.198,2.197,0,6.587,3.294,9.885c1.098-3.298,2.195-3.298,1.098-7.688c5.49-3.294,4.391-8.785,0-12.08      c0-1.099,1.097-1.099,1.097-1.099c0-1.1-1.097-1.1-2.195-2.197c1.098-1.097,2.195-2.196,2.195-3.294c-1.097,0-2.195,0-3.294,0      c-2.195-4.391-4.393-8.784-2.195-14.277c-1.098,0-3.297,0-4.394,1.1c0-3.296-1.098-4.394-1.098-6.59      c0,1.099,1.098,1.099,1.098,0c-4.393-7.688-9.883,4.391-17.571,2.196c4.394-1.097,9.883-3.294,13.177-7.687      c-4.392,1.097-12.078,3.293-13.177,1.097c-1.098,0-2.196,1.101-4.393-2.196c4.393-1.098,9.885-1.098,14.277-3.294      c-1.098,0-3.294,0-4.392-1.097c0,0,2.196,0,2.196-2.198c-2.196,0-4.392,0-5.49,0c1.098,0-1.098,1.099-3.295-1.097      c3.295-2.196,3.295-4.393,5.492-7.688c-2.196-1.097-3.294-1.097-4.394-1.097c1.1,0,1.1,0,1.1-1.098      c-3.296-1.099-4.396-3.294-6.592-5.491c0-1.099,1.099-2.196,2.196-3.294c-6.587-5.489-12.077-2.196-17.569-7.687      c2.196-1.099,4.394-4.393,6.59-5.49c-2.196,1.097-4.394,0-6.59,1.097c-4.393-5.491-8.786-10.98-15.375-12.078      c-3.294,4.391-6.59,5.49-12.08,4.391c1.099-1.096,2.196-5.491,3.294-6.59c-8.785,0-8.785-9.883-17.57-10.98      c-1.098,2.194,0,1.097,0,3.293c-1.098,2.198-2.196,3.295-2.196,7.687c-1.099,0-3.294,0-4.392-1.097      c0,1.097,1.098,1.097,1.098,2.196c0,1.1-2.196,0-3.294,1.1c0,1.098,1.098,2.196,1.098,3.295      c-3.295-2.197-4.394-5.494-3.295-5.494"/>
			</g>
			<g>
				<path style="fill:#EFEFEF;" d="M140.389,520.262c-1.1-1.098-2.196-3.295-5.49-3.295c-4.39-3.293-6.588-9.884-9.885-14.275      c-2.196,2.197-3.295,2.197-4.391,4.391c-1.099-1.097-2.196-2.194-3.294-3.292c-2.196,1.097-1.099,2.194-3.294,2.194      c-2.196-3.294-4.396-3.294-7.688-4.391c0,1.097,0,1.097,0,2.197c-4.393,1.097-5.49,1.097-5.49,5.49      c-1.099,1.097-2.194-1.1-3.294,1.097c4.392,2.196,3.294,4.393,7.686,4.393c0,1.097-1.1,0,0,2.196      c4.39-2.196,7.691-1.099,9.885,2.197c2.196-1.1,4.391-1.1,5.49-2.197c1.096,4.395,4.391,5.491,8.787,2.197      c0,2.198,2.196,3.294,2.196,5.49c0,0,2.196-2.196,3.294-2.196c0,1.099,0,1.099,1.099,2.196c2.196-2.196,3.292-2.196,5.49-2.196"/>
			</g>
		</g>
	</g>
</g>
<g id="OBJECTS_1_">
	<g>
		<path style="fill:#F1CE55;" d="M6.371,657.025c14.805-0.406,29.171,5.981,40.859,15.076c11.689,9.095,21.053,20.788,30.087,32.523    c7.654,9.942,15.656,20.407,27.124,25.498c10.018,4.448,21.406,4.204,32.359,3.805c10.953-0.399,22.305-0.808,32.442,3.36    c10.137,4.168,18.715,14.314,17.332,25.187c-1.669,13.133-15.981,20.515-28.881,23.49c-35.633,8.217-74.808-0.617-103.466-23.332    c-28.658-22.715-46.202-58.839-46.337-95.407L6.371,657.025z"/>
	</g>
	<g>
		<path style="fill:#1D71B8;" d="M-8.504,850.394V653.193c16.743,1.729,30.52,14.769,38.908,29.006    c8.874,15.061,13.688,32.1,22.955,46.944c12.951,20.745,36.112,36.802,61.371,36.841c15.083,0.024,29.566-5.454,44.543-7.166    c26.314-3.008,53.87,6.437,72.199,24.747c17.54,17.522,26.204,42.764,23.169,66.829H-8.504z"/>
	</g>
	<g>
		<path style="fill:none;stroke:#1D71B8;stroke-width:1.1973;stroke-miterlimit:10;stroke-dasharray:4.789;" d="M172.475,155.921    c-10.73,11.048-26.33,17.186-41.712,16.412c-15.382-0.774-30.287-8.448-39.853-20.518c-3.141-3.963-5.783-8.537-6.331-13.564    c-0.548-5.027,1.383-10.551,5.687-13.206c4.304-2.655,10.91-1.355,13.027,3.237c2.692,5.839-3.307,12.722-9.712,13.294    c-6.404,0.571-12.38-3.052-17.566-6.853c-13.279-9.733-24.945-21.56-38.45-30.978C24.061,94.328,7.914,87.271-8.462,88.979"/>
		<g>
			<path style="fill:#E7AD47;" d="M209.486,125.222c0.044-0.067,0.099-0.12,0.16-0.163c0.108-0.11,0.259-0.172,0.421-0.157     c0.026,0.002,0.048,0.013,0.072,0.018c0.095,0.001,0.189,0.014,0.279,0.037c0.093,0.024,0.187,0.064,0.279,0.115     c0.002,0,0.004,0,0.006,0c0.41,0.028,0.776,0.287,0.932,0.672c0.074,0.181,0.1,0.379,0.066,0.573     c-0.038,0.215-0.291,0.548-0.211,0.762c0.121,0.326-0.245,0.543-0.481,0.409c-0.198-0.031-0.416-0.156-0.543-0.236     c-0.362-0.228-0.657-0.587-0.87-0.954C209.411,125.975,209.263,125.562,209.486,125.222z"/>
			<path style="fill:#E7AD47;" d="M204.241,144.396c-0.208-0.08-0.198-0.34-0.056-0.471c0.491-0.45,1.053-0.787,1.679-1.012     c0.188-0.067,0.326,0.064,0.349,0.212c0.121-0.03,0.263,0.042,0.232,0.199c-0.003,0.016-0.01,0.031-0.014,0.047c0,0,0,0,0,0     l0,0.001c-0.09,0.405-0.293,0.742-0.602,1.005c-0.007,0.009-0.015,0.019-0.021,0.028c-0.031,0.087-0.099,0.163-0.216,0.189     c-0.18,0.04-0.359,0.082-0.539,0.123c-0.024,0.176-0.2,0.322-0.399,0.236c-0.098-0.042-0.193-0.089-0.289-0.136     c-0.18-0.088-0.206-0.283-0.119-0.419C204.245,144.397,204.243,144.397,204.241,144.396z"/>
			<path style="fill:#E7AD47;" d="M178.704,134.279c0.014-0.017,0.028-0.033,0.042-0.051c-0.047-0.02-0.089-0.05-0.12-0.09     c-0.275-0.358-0.322-0.749-0.158-1.167c0.019-0.049,0.05-0.084,0.084-0.112c0.096-0.245,0.275-0.465,0.494-0.654     c-0.084-0.137-0.07-0.323,0.13-0.387c0.705-0.227,1.419-0.379,2.159-0.432c0.231-0.017,0.452,0.277,0.265,0.474     c-0.43,0.453-0.86,0.906-1.292,1.356c-0.116,0.121-0.616,0.555-0.944,0.921c0.047,0.04,0.079,0.104,0.064,0.159     c-0.075,0.276-0.206,0.44-0.456,0.578c-0.092,0.051-0.208-0.02-0.247-0.104c-0.049-0.107-0.058-0.215-0.041-0.321     C178.657,134.4,178.656,134.338,178.704,134.279z"/>
			<path style="fill:#E7AD47;" d="M173.984,145.142c0.404-0.772,1.324-1.142,2.098-1.408c0.115-0.039,0.223-0.003,0.297,0.067     c0.406,0.002,0.792,0.062,1.185,0.192c0.084,0.028,0.115,0.141,0.076,0.217c0.008,0.015,0.011,0.032-0.001,0.051     c-0.452,0.76-0.99,1.455-1.567,2.12c0.021,0.065,0.006,0.139-0.07,0.192c-0.184,0.111-0.344,0.252-0.479,0.423     c-0.125,0.136-0.324,0.037-0.34-0.103c-0.029-0.008-0.058-0.018-0.086-0.036C174.504,146.463,173.548,145.975,173.984,145.142z"/>
			<g>
				<path style="fill:#1D71B8;" d="M173.335,145.885c0.883,0.512,1.747,1.064,2.62,1.601c-0.076,0.09-0.152,0.181-0.224,0.275      c-0.028,0.037,0.029,0.088,0.061,0.054c0.085-0.09,0.167-0.183,0.248-0.276c0.553,0.339,1.11,0.671,1.678,0.981      c-0.573,0.473-1.148,1.011-1.431,1.632c-0.431,0.945-0.034,1.653,0.942,1.211c0.618-0.28,1.225-0.755,1.811-1.219      c0.075,0.278,0.326,0.491,0.72,0.574c0.746,0.157,1.715-0.277,2.412-0.473c0.944-0.265,1.874-0.584,2.786-0.947      c4.092-1.628,7.773-4.126,11.302-6.724c0.2-0.147,0.401-0.296,0.601-0.443c0.135,0.059,0.276,0.087,0.413,0.14      c0.047,0.022,0.093,0.046,0.142,0.065c0.039,0.016,0.076,0.01,0.106-0.007c0.011,0.004,0.021,0.011,0.032,0.015      c0.011,0.004,0.019,0.002,0.029,0.003c1.699,0.55,3.365,1.19,5.011,1.883c0.944,0.398,2.052,1.155,3.117,1.084      c1.617-0.107,1.745-1.687,0.641-2.469c0.006-0.004,0.013-0.008,0.019-0.011c0.783-0.486,1.913-1.188,2.577-2.041      c0.11-0.036,0.212-0.088,0.306-0.157c1.561-1.149-1.328-4.123-2.746-3.891c-0.382-0.13-0.77-0.095-1.114,0.263      c-0.198,0.206-0.294,0.446-0.312,0.703c-0.445,0.43-0.973,1.001-1.431,1.625c-0.28-0.346-0.561-0.765-0.897-1.089      c-0.099-0.127-0.198-0.253-0.294-0.382c1.497-1.205,2.957-2.454,4.341-3.781c2.3-2.206,4.789-4.833,5.317-8.093      c0.038-0.123,0.057-0.245,0.05-0.365c0.006-0.053,0.016-0.104,0.021-0.157c0.006-0.067-0.037-0.114-0.091-0.136      c-0.114-0.29-0.363-0.537-0.733-0.667c-0.446-0.157-0.896-0.071-1.339,0.019c-0.777,0.158-1.446,0.484-2.248,0.55      c-0.398,0.033-0.798,0.025-1.195,0.077c-1.867,0.246-3.545,1.531-5.057,2.578c-2.06,1.426-3.946,3.058-5.678,4.867      c-0.022,0.023-0.034,0.048-0.046,0.072c-0.121,0.004-0.227,0.025-0.318,0.063c-0.076-0.009-0.155,0.007-0.221,0.058      c-0.377,0.294-0.792,0.612-1.192,0.957c-1.743-0.555-3.654-0.905-5.447-1.314c-1.947-0.444-3.934-0.729-5.895-1.104      c-1.262-0.241-2.793-0.557-3.932,0.248c-0.839,0.593-1.191,1.533-0.737,2.458c0.677,1.379,2.537,2.051,3.786,2.759      c1.828,1.038,3.675,2.039,5.527,3.032c-0.258,0.229-0.497,0.474-0.715,0.741c-0.626,0.444-1.192,0.986-1.705,1.532      c-0.69,0.735-1.234,1.417-2.174,1.831c-1.069,0.47-2.07,0.296-3.18,0.074c-2.29-0.457-4.86-1.446-6.121,0.977      c-0.045-0.016-0.091-0.032-0.135-0.048c-0.033-0.012-0.06,0.038-0.028,0.056l0.125,0.072c-0.065,0.131-0.127,0.269-0.185,0.42      C173.223,145.723,173.256,145.84,173.335,145.885z M179.515,135.358c-0.088-0.075-0.167-0.152-0.244-0.229      c0.004-0.01,0.009-0.02,0.011-0.032c0.248-1.709,5.479,0.583,6.588,1.049c-0.004-0.005-0.01-0.006-0.016-0.001      c-0.589,0.57-1.191,1.138-1.745,1.741c-0.035,0.038,0.015,0.099,0.054,0.062c0.593-0.568,1.149-1.183,1.707-1.785      c0.005-0.006,0.004-0.013,0-0.017c0.044,0.018,0.083,0.035,0.113,0.047c1.036,0.421,2.143,0.832,3.069,1.468      c0.422,0.29,1.177,0.94,0.942,1.568c-0.073,0.197-0.658,0.669-0.947,0.928c-0.44-0.105-0.887-0.254-1.347-0.444      c-1.438-0.591-2.825-1.339-4.199-2.064C182.212,136.969,180.631,136.306,179.515,135.358z M192.701,134.022      c0.315,0.099,0.632,0.188,0.938,0.278c-0.605,0.586-1.121,1.252-1.33,2.029c-0.249,0.925-0.021,2.126,0.884,2.623      c0.282,0.155,0.761,0.125,1.315-0.022c-0.586,0.323-1.179,0.632-1.782,0.896c-1.238,0.542-2.369,0.616-3.539,0.362      c0.46-0.354,0.891-0.736,1.324-1.125c0.046-0.042,0.048-0.108,0.011-0.156c-1.665-2.129-4.759-2.952-7.211-3.785      c-0.715-0.243-4.028-1.837-4.277-0.26c-1.093-1.357-0.527-2.912,1.24-3.277c0.799-0.165,1.644-0.022,2.439,0.09      c1.426,0.201,2.869,0.472,4.264,0.825C188.732,132.946,190.776,133.872,192.701,134.022z M196.338,133.325      c0.489,0.45,0.959,0.878,1.326,1.438c0.101,0.14,0.19,0.288,0.265,0.444c0.034,0.046,0.062,0.09,0.085,0.132      c0.04,0.13,0.043,0.25-0.015,0.342c0.063-0.692-1.343-1.738-1.703-2.007c-0.14-0.105-0.295-0.169-0.429-0.181      c0.149-0.18,0.294-0.253,0.434-0.226C196.308,133.288,196.318,133.307,196.338,133.325z M196.75,135.628      c0.063,0.074,0.125,0.148,0.192,0.22c0.032,0.035,0.072,0.055,0.115,0.07c0.103,0.081,0.207,0.139,0.309,0.171      c-0.412,0.243-0.454,0.153-0.897-0.191c-0.331-0.257-0.602-0.536-0.833-0.881c-0.11-0.143-0.201-0.298-0.272-0.465      c-0.284-0.388-0.223-0.663,0.181-0.827c-0.01,0.074,0,0.167,0.034,0.282C195.732,134.527,196.199,135.176,196.75,135.628z       M197.355,136.762c-0.562,0.505-1.339,0.894-1.889,1.173c-0.845,0.428-2.003,1.233-2.599-0.002      c-0.519-1.074,0.218-2.221,0.943-2.965c0.125-0.128,0.715-0.744,1.18-1.136c0.004,0.178,0.035,0.362,0.09,0.534      c0.303,0.961,1.258,2.003,2.201,2.375C197.306,136.752,197.33,136.754,197.355,136.762z M193.975,133.989      c-0.021,0.019-0.042,0.037-0.063,0.056c-0.03-0.013-0.062-0.024-0.092-0.037C193.872,134.003,193.923,133.997,193.975,133.989z       M208.374,140.473c-0.579,0.07-1.187-0.25-1.639-0.57c-0.531-0.375-1.274-1.117-1.414-1.86c0.058-0.064,0.115-0.128,0.172-0.192      c0.286,0.499,0.884,1.029,1.168,1.313c0.234,0.233,0.504,0.503,0.814,0.661c0.281,0.212,0.592,0.363,0.911,0.31      c1.002-0.169,0.536-1.042-0.013-1.715c-0.058-0.087-0.117-0.168-0.173-0.237c-0.172-0.216-0.419-0.51-0.706-0.782      c0.624,0.426,1.191,1.138,1.403,1.525C209.228,139.532,209.253,140.366,208.374,140.473z M205.742,142.685      c-0.934,0.475-1.004,0.537-1.996-0.043c-0.93-0.189-1.182-0.72-0.756-1.595c0.131-0.245,0.261-0.49,0.392-0.735      c0.242-0.376,0.552-0.73,0.843-1.068c0.297-0.345,0.61-0.674,0.919-1.007c0.346,1.2,1.992,2.525,3.235,2.615      c-0.392,0.323-0.814,0.616-1.202,0.9C206.717,142.088,206.251,142.426,205.742,142.685z M204.441,143.61      c0.007,0,0.013,0,0.02-0.001c-0.014,0.051-0.034,0.11-0.057,0.17c-0.001-0.009,0-0.018-0.001-0.026      c0.01-0.023,0.017-0.043,0.018-0.055C204.423,143.665,204.431,143.637,204.441,143.61z M204.083,144.581      c0.304-0.252,0.452-0.567,0.46-0.981c0.572-0.068,1.148-0.357,1.642-0.652c0.566,0.601,0.13,1.241-1.315,1.92      C204.602,144.787,204.34,144.689,204.083,144.581z M197.23,141.86c1.672-1.234,3.341-2.485,4.968-3.785      c0.083,0.1,0.165,0.2,0.248,0.301c0.25,0.448,0.641,0.853,0.939,1.24c0.013,0.017,0.028,0.026,0.043,0.036      c-0.635,0.945-1.055,1.976-0.757,2.813c-0.17-0.077-0.344-0.158-0.521-0.24c0.001-0.001,0.002-0.003,0.002-0.004      c0.019-0.042-0.045-0.064-0.067-0.026c-0.822-0.384-1.697-0.785-2.551-0.929c-0.509-0.086-0.925-0.001-1.291,0.362      c-0.046,0.046,0.021,0.123,0.066,0.077c0.855-0.886,2.675,0.109,3.716,0.595c-0.259,0.451-0.656,0.672-1.155,0.823      c-0.062,0.019-0.048,0.105,0.018,0.1c0.523-0.043,0.967-0.439,1.206-0.891c0.04,0.018,0.081,0.038,0.118,0.054      c0.155,0.068,0.33,0.136,0.509,0.207c0.119,0.261,0.313,0.502,0.602,0.712c0.272,0.197,0.562,0.287,0.858,0.306      c-0.006,0.014-0.009,0.027-0.016,0.041c0.004,0.062,0.001,0.123-0.006,0.181c-0.014,0.031-0.026,0.058-0.033,0.072      c-0.054,0.104-0.109,0.203-0.183,0.294c-0.064,0.079-0.149,0.141-0.195,0.232c-0.002,0.004-0.001,0.009-0.003,0.014      c-0.631-0.255-1.256-0.529-1.887-0.782c-1.379-0.553-2.773-1.064-4.165-1.584c-0.013-0.015-0.03-0.028-0.052-0.038      C197.505,141.981,197.367,141.92,197.23,141.86z M179.56,149.738c0.135-0.103,0.269-0.204,0.402-0.296      c0.908-0.633,2.385-1.441,2.835-2.523c0.323-0.777-0.07-1.571-0.974-1.168c-0.026,0.011-0.041,0.028-0.052,0.047      c-1.012,0.431-1.936,1.045-2.804,1.721c-1.365-1.062-3.221-1.613-4.889-2.174c0.224-0.9,1.825-1.364,2.585-1.331      c0.454,0.02,0.972,0.169,1.416,0.257c0.836,0.165,1.672,0.389,2.518,0.497c1.567,0.2,2.835-0.185,4.02-1.238      c0.748-0.665,1.364-1.448,2.15-2.074c0.469-0.374,0.954-0.688,1.395-1.069c0.062,0.027,0.123,0.056,0.185,0.08      c-0.059,0.057-0.104,0.13-0.124,0.222c-0.065,0.294-0.058,0.635,0.247,0.803c0.156,0.086,0.372,0.146,0.54,0.041      c0.17-0.107,0.294-0.253,0.34-0.428c0.052-0.097,0.071-0.221,0.054-0.337c2.328,0.396,4.363-1.025,6.458-2.361      c0.944-0.466,1.838-1.111,2.201-1.687c0.298-0.155,0.498-0.484,0.5-0.907c0.004-0.795-0.62-1.611-1.294-2.187      c-0.273-0.292-0.581-0.54-0.897-0.68c2.148-2.187,4.515-4.111,7.153-5.684c1.054-0.629,1.966-1.044,3.046-1.269      c-0.081,0.232-0.083,0.486,0.04,0.707c0.129,0.232,0.376,0.265,0.585,0.122c0.367-0.25,0.76-0.458,1.119-0.721      c0.185-0.135,0.35-0.284,0.509-0.439c0.137-0.031,0.276-0.066,0.42-0.105c0.186-0.059,0.368-0.126,0.548-0.201      c0.836-0.461,1.475-0.178,1.921,0.83c-1.773,6.014-7.952,10.202-12.701,13.802c-2.934,2.224-5.881,4.457-9.05,6.34      c-1.496,0.889-3.043,1.699-4.648,2.374c-0.959,0.403-1.939,0.754-2.936,1.051c-0.37,0.11-0.743,0.209-1.119,0.301      c-0.282,0.071-0.565,0.136-0.85,0.193C180.125,150.078,179.843,149.908,179.56,149.738z M178.308,148.829      c0.036,0.018,0.071,0.038,0.106,0.056c0.18,0.09,0.328-0.203,0.171-0.312c1.095-0.979,2.629-2.024,3.323-2.572      c0.515,0.733,0.371,1.314-0.437,1.743c-0.14,0.125-0.281,0.249-0.421,0.374c-0.426,0.37-0.891,0.696-1.345,1.03      c-0.11,0.081-0.222,0.16-0.332,0.241c-0.074-0.021-0.156-0.002-0.208,0.086c-0.02,0.034-0.031,0.066-0.047,0.099      c-0.247,0.179-0.494,0.36-0.742,0.538c-0.417,0.299-0.769,0.939-0.993,0.261c-0.009-0.028-0.014-0.058-0.018-0.088      c1.595-0.952,2.999-2.254,4.409-3.443c0.014-0.012-0.004-0.033-0.019-0.022c-1.446,1.131-2.827,2.329-4.381,3.3      C177.439,149.764,177.803,149.311,178.308,148.829z M176.183,147.371c0.237-0.283,0.465-0.576,0.699-0.859      c0.715,0.285,1.412,0.595,2.054,1.031c-0.137,0.107-0.272,0.215-0.406,0.324c-0.159,0.13-0.334,0.267-0.513,0.41      C177.52,148.034,176.841,147.719,176.183,147.371z M174.051,145.489c0.312,0.105,0.663,0.182,0.901,0.273      c0.434,0.166,0.866,0.334,1.299,0.503c0.197,0.076,0.393,0.153,0.588,0.23c-0.245,0.276-0.5,0.549-0.744,0.829      C175.011,146.741,174.019,146.07,174.051,145.489z"/>
				<path style="fill:#1D71B8;" d="M204.9,127.028c0.082-0.034,0.167-0.066,0.255-0.076c0.294-0.034,0.498,0.095,0.65,0.334      c-0.019-0.029-0.037-0.058-0.056-0.086c0.048,0.052,0.08,0.111,0.095,0.178c0.035,0.108,0.034,0.211,0,0.322      c-0.005,0.016-0.01,0.032-0.014,0.048c-0.057,0.202-0.262,0.359-0.463,0.393c-0.086,0.015-0.175,0.02-0.262,0.01      c-0.251-0.03-0.497-0.221-0.533-0.485C204.54,127.414,204.655,127.132,204.9,127.028z"/>
				<path style="fill:#1D71B8;" d="M203.267,128.433c0.05,0.001,0.093,0.001,0.143,0.009c0.215,0.031,0.368,0.17,0.418,0.381      c0.044,0.185-0.004,0.327-0.092,0.486c-0.171,0.31-0.68,0.321-0.889,0.052c-0.011-0.014-0.021-0.027-0.032-0.041      C202.52,128.937,202.794,128.427,203.267,128.433z"/>
				<path style="fill:#1D71B8;" d="M201.615,129.584c0.318,0.004,0.572,0.248,0.563,0.571c-0.004,0.128-0.05,0.24-0.128,0.339      c-0.221,0.28-0.677,0.37-0.925,0.055c-0.073-0.093-0.107-0.165-0.134-0.28C200.902,129.877,201.258,129.58,201.615,129.584z"/>
				<path style="fill:#1D71B8;" d="M199.66,130.929c0.286-0.054,0.501,0.147,0.578,0.403c0.032,0.108,0.031,0.263,0.011,0.378      c-0.051,0.285-0.243,0.508-0.547,0.522c-0.267,0.012-0.563-0.182-0.593-0.469C199.07,131.387,199.261,131.005,199.66,130.929z"/>
				<path style="fill:#1D71B8;" d="M197.72,132.86c0.159-0.137,0.362-0.126,0.532-0.029c0.021,0.005,0.043,0.008,0.065,0.014      c0.126,0.04,0.155,0.155,0.121,0.255c0.033,0.156-0.004,0.317-0.136,0.431c-0.181,0.157-0.47,0.137-0.627-0.045      C197.517,133.305,197.537,133.018,197.72,132.86z"/>
				<path style="fill:#1D71B8;" d="M186.536,142.12c0.277-0.132,0.658-0.015,0.781,0.276c0.124,0.293,0.02,0.64-0.276,0.781      c-0.277,0.132-0.658,0.015-0.781-0.276C186.135,142.609,186.239,142.262,186.536,142.12z"/>
				<path style="fill:#1D71B8;" d="M184.762,144.793c-0.169-0.06-0.283-0.236-0.268-0.415c0.02-0.235,0.199-0.331,0.4-0.372      c0.007-0.01,0.014-0.019,0.021-0.029c0.078-0.109,0.25-0.048,0.242,0.086c-0.001,0.012-0.001,0.023-0.002,0.035      c0.121,0.144,0.197,0.304,0.1,0.495C185.164,144.771,184.952,144.861,184.762,144.793z"/>
				<path style="fill:#1D71B8;" d="M185.69,147.122c-0.019-0.061-0.05-0.106-0.051-0.172c0-0.028,0.022-0.053,0.045-0.065      c0.09-0.046,0.233,0.003,0.314,0.056c0.129,0.085,0.207,0.223,0.248,0.366c0.091,0.324-0.487,0.428-0.513,0.091      C185.725,147.301,185.719,147.214,185.69,147.122z"/>
				<path style="fill:#1D71B8;" d="M186.437,146.567c0.191,0.004,0.437,0.153,0.37,0.373c-0.023,0.074-0.11,0.091-0.171,0.056      c-0.084-0.049-0.116-0.152-0.221-0.169C186.25,146.8,186.268,146.564,186.437,146.567z"/>
				<path style="fill:#1D71B8;" d="M187.107,146.334c0.084,0,0.129-0.042,0.2-0.072c0.049-0.021,0.105,0.025,0.086,0.078      c-0.046,0.128-0.175,0.166-0.301,0.168C186.981,146.509,186.994,146.333,187.107,146.334z"/>
				<path style="fill:#1D71B8;" d="M197.286,140.085c0.097-0.085,0.218-0.018,0.252,0.089c0.013,0.028,0.018,0.057,0.016,0.088      c0.003,0.06-0.033,0.11-0.098,0.107c-0.046-0.002-0.076-0.009-0.12-0.023C197.224,140.311,197.202,140.158,197.286,140.085z"/>
				<path style="fill:#1D71B8;" d="M197.609,139.412c0.05-0.018,0.071-0.024,0.124-0.033c0.137-0.021,0.129,0.202,0.008,0.177      c-0.056-0.011-0.075-0.015-0.127-0.037C197.573,139.501,197.558,139.43,197.609,139.412z"/>
				<path style="fill:#1D71B8;" d="M195.539,136.461c0.159-0.039,0.313,0.04,0.452,0.109c0.077,0.038,0.068,0.182-0.035,0.164      c-0.16-0.028-0.339-0.054-0.448-0.186C195.481,136.515,195.5,136.471,195.539,136.461z"/>
				<path style="fill:#1D71B8;" d="M195.276,136.892c0.109-0.028,0.203-0.021,0.314-0.008c0.102,0.011,0.089,0.164-0.013,0.159      c-0.111-0.005-0.206-0.012-0.309-0.057C195.223,136.965,195.229,136.904,195.276,136.892z"/>
				<path style="fill:#1D71B8;" d="M195.09,137.308c-0.148-0.025-0.307-0.035-0.448-0.087c-0.058-0.021-0.037-0.104,0.022-0.103      c0.145,0.003,0.294,0.05,0.435,0.079C195.167,137.211,195.161,137.32,195.09,137.308z"/>
				<path style="fill:#1D71B8;" d="M206.756,141.1c0.168-0.062,0.364-0.047,0.539-0.091c0.091-0.023,0.115,0.104,0.047,0.146      c-0.173,0.107-0.404,0.186-0.597,0.088C206.691,141.215,206.701,141.12,206.756,141.1z"/>
				<path style="fill:#1D71B8;" d="M206.436,141.527c0.059-0.022,0.111-0.03,0.173-0.039c0.089-0.013,0.114,0.128,0.025,0.138      c-0.062,0.007-0.116,0.014-0.178,0.006C206.404,141.626,206.382,141.547,206.436,141.527z"/>
				<path style="fill:#1D71B8;" d="M205.874,141.759c0.093-0.027,0.176,0.018,0.235,0.09c0.027,0.034-0.021,0.076-0.051,0.044      c-0.057-0.061-0.106-0.063-0.18-0.068C205.836,141.824,205.839,141.77,205.874,141.759z"/>
				<path style="fill:#1D71B8;" d="M208.768,129.788c-0.013,0.105-0.04,0.174-0.09,0.267c-0.015,0.027-0.063,0.016-0.066-0.014      c-0.011-0.11-0.009-0.177,0.02-0.282C208.653,129.682,208.778,129.709,208.768,129.788z"/>
				<path style="fill:#1D71B8;" d="M208.152,130.522c0.037-0.006,0.074-0.013,0.111-0.019c0.085-0.015,0.081,0.126,0.005,0.11      c-0.038-0.008-0.076-0.016-0.113-0.024C208.12,130.582,208.111,130.529,208.152,130.522z"/>
				<path style="fill:#1D71B8;" d="M207.692,130.893c0.059-0.028,0.103,0.063,0.044,0.091      C207.677,131.013,207.633,130.921,207.692,130.893z"/>
				<path style="fill:#1D71B8;" d="M202.856,135.303c0.109-0.031,0.206,0.002,0.303,0.053c0.072,0.038,0.009,0.165-0.065,0.128      c-0.075-0.037-0.151-0.048-0.233-0.061C202.792,135.411,202.789,135.322,202.856,135.303z"/>
				<path style="fill:#1D71B8;" d="M202.609,135.821c0.115,0.006,0.228,0.043,0.34,0.071c0.079,0.02,0.05,0.157-0.03,0.14      c-0.113-0.024-0.231-0.04-0.337-0.085C202.515,135.919,202.534,135.817,202.609,135.821z"/>
				<path style="fill:#1D71B8;" d="M202.317,136.105c0.054-0.015,0.105-0.021,0.16-0.029c0.061-0.008,0.079,0.087,0.017,0.095      c-0.059,0.008-0.114,0.015-0.173,0.015C202.271,136.186,202.275,136.116,202.317,136.105z"/>
				<path style="fill:#1D71B8;" d="M200.563,136.484c0.016,0.15,0.038,0.3,0.02,0.452c-0.006,0.048-0.069,0.048-0.081,0.004      c-0.04-0.142-0.041-0.289-0.048-0.436C200.451,136.434,200.556,136.411,200.563,136.484z"/>
				<path style="fill:#1D71B8;" d="M199.882,136.923c-0.049-0.074,0.055-0.166,0.106-0.092c0.097,0.142,0.158,0.278,0.12,0.45      c-0.007,0.031-0.055,0.031-0.067,0.004C199.99,137.164,199.955,137.033,199.882,136.923z"/>
				<path style="fill:#1D71B8;" d="M189.466,136.622c-0.036,0.05-0.11,0.01-0.094-0.047c0.03-0.105,0.087-0.202,0.135-0.3      c0.035-0.071,0.153-0.032,0.118,0.042C189.577,136.42,189.534,136.529,189.466,136.622z"/>
				<path style="fill:#1D71B8;" d="M188.53,136.043c-0.056,0.027-0.098-0.06-0.042-0.087      C188.545,135.929,188.587,136.016,188.53,136.043z"/>
				<path style="fill:#1D71B8;" d="M186.947,135.433c-0.027-0.082-0.055-0.164-0.082-0.246c-0.025-0.074,0.087-0.107,0.1-0.032      c0.015,0.086,0.03,0.172,0.045,0.258C187.017,135.449,186.959,135.47,186.947,135.433z"/>
				<path style="fill:#1D71B8;" d="M191.267,143.905c-0.001,0.078,0,0.153-0.013,0.23c-0.009,0.053-0.093,0.066-0.1,0.005      c-0.01-0.082-0.005-0.162-0.002-0.244C191.155,143.82,191.268,143.831,191.267,143.905z"/>
				<path style="fill:#1D71B8;" d="M190.255,143.971c0.014-0.088,0.151-0.078,0.139,0.012c-0.02,0.154-0.066,0.25-0.177,0.359      c-0.023,0.022-0.061-0.006-0.05-0.034C190.205,144.206,190.239,144.078,190.255,143.971z"/>
			</g>
		</g>
	</g>
	<path style="fill:#1D71B8;" d="M311.176,680.779c0-7.477-6.061-13.538-13.538-13.538c-7.477,0-13.538,6.061-13.538,13.538   c0,3.823,1.591,7.268,4.138,9.73l3.508,14.929h-2.409l1.023,7.29c0.153,1.088,1.083,1.897,2.181,1.897h9.385   c1.098,0,2.029-0.809,2.181-1.897l1.023-7.29h-2.243l3.336-14.194C309.247,688.761,311.176,684.995,311.176,680.779z    M301.772,705.438h-8.908l-3.234-13.761c2.244,1.652,5.008,2.64,8.008,2.64c2.668,0,5.148-0.782,7.245-2.115L301.772,705.438z"/>
	<g>
		<path style="fill:#F1CE55;" d="M467.129,131.506c-0.308-1.472-1.697-2.693-3.24-2.095c-0.937,0.363-1.539,1.187-1.816,2.121    c-0.725,0.862-0.892,2.069-0.34,3.161c0.641,1.269,2.242,2.182,3.578,1.377C466.694,135.236,467.447,133.026,467.129,131.506z"/>
		<path style="fill:#F1CE55;" d="M471.515,121.073c-0.924-0.241-1.846-0.451-2.774-0.613c-0.141-0.201-0.377-0.35-0.719-0.374    c-9.632-0.668-19.226-1.71-28.773-3.156c-0.532-0.081-1.218,0.228-1.161,0.884c0.031,0.351,0.061,0.702,0.092,1.053    c0.017,0.198,0.087,0.359,0.186,0.49c-0.225,0.821-0.448,1.643-0.676,2.464c-0.059,0.214,0.073,0.52,0.316,0.556    c1.459,0.214,2.933,0.393,4.416,0.546c0.055,0.306,0.281,0.587,0.678,0.611c4.674,0.29,9.3,0.903,13.949,1.443    c4.557,0.529,9.323,1.615,13.908,1.563c0.584-0.007,0.98-0.554,0.846-1.111c-0.302-1.222-0.261-2.433,0.124-3.633    C472.011,121.494,471.822,121.154,471.515,121.073z"/>
		<g>
			<g>
				<path style="fill:#1D71B8;" d="M472.765,118.317c-11.319-2.583-23.088-3.093-34.572-4.564c-0.385-0.049-0.766,0.382-0.745,0.745      c0.061,1.053,0.159,2.088,0.256,3.127c-1.106,2.634-1.418,5.671-1.816,8.475c-0.426,3.003-0.825,6.061-0.837,9.097      c-0.001,0.26,0.194,0.548,0.46,0.604c11.317,2.365,22.941,3.425,34.407,4.953c0.271,0.036,0.484-0.255,0.492-0.493      c0.257-7.161,0.909-14.357,2.709-21.32C473.186,118.685,473.036,118.379,472.765,118.317z M472.058,119.249      c-0.059,0.416-0.12,0.831-0.18,1.247c-5.561-0.549-11.122-1.111-16.677-1.725c-5.462-0.604-11.13-1.786-16.623-1.769      c0.088-0.574,0.171-1.15,0.251-1.727C450.001,115.789,460.967,118.031,472.058,119.249z M438.572,117.473      c0.001-0.042-0.01-0.08-0.024-0.116c5.176,1.249,10.806,1.378,16.092,1.936c5.717,0.604,11.434,1.206,17.155,1.771      c-0.251,1.735-0.501,3.468-0.744,5.202c-5.651-0.526-11.297-1.12-16.932-1.798c-5.359-0.645-10.811-1.841-16.217-2.091      C438.227,120.747,438.538,119.111,438.572,117.473z M469.914,135.403c-0.105,1.043,0.068,3.389-0.763,4.01      c-0.836,0.626-3.244-0.087-4.278-0.202c-3.177-0.351-6.354-0.702-9.531-1.053c-2.991-0.331-5.982-0.66-8.97-1.018      c-1.436-0.172-2.874-0.329-4.307-0.519c-1.169-0.155-4.5-0.351-5.32-1.386c-0.753-0.95-0.183-3.145-0.082-4.244      c0.172-1.865,0.402-3.723,0.678-5.576c0.125-0.838,0.29-1.679,0.458-2.521c5.129,1.163,10.564,1.366,15.772,1.955      c5.802,0.656,11.608,1.273,17.417,1.861C470.585,129.599,470.208,132.491,469.914,135.403z"/>
				<path style="fill:#1D71B8;" d="M465.294,129.306c-0.035-0.016-0.07-0.019-0.106-0.017c-0.789-0.531-1.85-0.1-2.669,0.587      c-0.614-0.925-1.492-1.541-2.463-0.883c-1.147-0.359-2.488,1.749-2.75,2.66c-0.493,1.714,0.702,3.706,2.497,3.984      c0.634,0.098,1.238-0.017,1.766-0.28c0.242,0.335,0.551,0.634,0.938,0.87c1.662,1.016,3.884,0.095,4.654-1.601      C468.007,132.764,467.205,130.176,465.294,129.306z M461.504,132.548c0.098-0.518,0.476-1.251,0.988-1.88      c0.757,1.291,0.655,3.228-0.551,4.205C461.523,134.2,461.354,133.344,461.504,132.548z M460.79,135.411      c-1.431,0.3-2.896-0.71-3.212-2.118c-0.193-0.861,0.106-1.7,0.528-2.442c0.299-0.525,0.973-1.562,1.776-1.571      c0.015,0.078,0.07,0.141,0.175,0.129c0.098-0.011,0.194-0.016,0.287-0.017c0.082,0.042,0.164,0.092,0.247,0.16      c0.046,0.038,0.132-0.012,0.09-0.07c-0.022-0.031-0.046-0.05-0.068-0.078c0.638,0.062,1.159,0.366,1.548,0.805      c-0.207,0.211-0.388,0.434-0.532,0.654c-0.847,1.292-0.978,3.049-0.179,4.323C461.25,135.282,461.032,135.36,460.79,135.411z       M464.088,136.099c-0.874,0.01-1.566-0.418-2.022-1.043c0.815-0.612,1.348-1.608,1.336-2.673      c-0.006-0.528-0.233-1.332-0.612-2.053c0.654-0.679,1.456-1.13,2.17-0.827c0,0.049,0.021,0.099,0.071,0.144      c1.07,0.956,1.969,1.891,1.925,3.455C466.913,134.674,465.724,136.08,464.088,136.099z"/>
			</g>
		</g>
	</g>
	<g>
		<defs>
			<rect id="SVGID_00000036225173413810879570000015976447281220622757_" x="-8.504" y="-8.504" width="612.283" height="858.898"/>
		</defs>
		<clipPath id="SVGID_00000111880861416695773700000016576222830814955650_">
			<use xlink:href="#SVGID_00000036225173413810879570000015976447281220622757_" style="overflow:visible;"/>
		</clipPath>
		<g style="clip-path:url(#SVGID_00000111880861416695773700000016576222830814955650_);">
			<g>
				<path style="fill:#1D71B8;" d="M446.725,49.472c-17.781,0-35.095-3.066-51.745-9.184      c-44.486-16.344-69.123-49.303-69.366-49.634l1.071-1.01c0.241,0.328,24.666,32.981,68.794,49.17      c40.719,14.938,106.208,19.591,190.957-48.228l1.646,0.207c-37.627,30.11-74.834,48.849-110.585,55.697      C467.114,48.479,456.843,49.472,446.725,49.472z"/>
			</g>
			<g>
				<path style="fill:#F1CE55;" d="M589.771-9.887c-17.582,23.331-43.138,40.638-69.362,48.356      c-26.224,7.718-54.531,6.092-79.93-4.59c-18.689-7.86-36.938-22.217-42.846-43.766L589.771-9.887z"/>
			</g>
		</g>
		
			<path style="clip-path:url(#SVGID_00000111880861416695773700000016576222830814955650_);fill:none;stroke:#FFFFFF;stroke-width:1.4164;stroke-miterlimit:10;stroke-dasharray:5.6656;" d="    M-13.744,730.15c-1.382,20.616,6.503,41.679,21.083,56.32c14.581,14.64,35.611,22.612,56.233,21.314    c6.771-0.426,13.703-1.898,19.207-5.865c5.504-3.967,9.277-10.851,8.06-17.525c-1.217-6.674-8.443-12.094-14.922-10.081    c-8.238,2.558-9.715,14.718-4.535,21.616c5.18,6.898,14.157,9.602,22.602,11.36c21.625,4.501,43.888,5.515,65.401,10.524    c21.513,5.009,43.044,14.772,56.042,32.632"/>
		
			<path style="clip-path:url(#SVGID_00000111880861416695773700000016576222830814955650_);fill:none;stroke:#1D71B8;stroke-width:1.7454;stroke-miterlimit:10;stroke-dasharray:6.9816;" d="    M610.448,711.196c4.041,22.086-1.867,45.8-15.797,63.409c-13.931,17.608-35.649,28.814-58.073,29.963    c-7.363,0.377-15.029-0.355-21.461-3.957c-6.432-3.602-11.357-10.567-10.869-17.923c0.488-7.356,7.62-14.1,14.863-12.729    c9.21,1.743,12.308,14.688,7.569,22.776c-4.739,8.087-14.096,12.117-22.996,15.059c-22.79,7.533-46.699,11.38-69.305,19.448    s-44.643,21.27-56.467,42.158"/>
	</g>
</g>

</svg>
