<svg viewBox="0 0 1280 720" width="1280" height="720" xmlns="http://www.w3.org/2000/svg"><rect width="1280" height="720" fill="transparent"></rect><g transform="
        rotate(27 640 360) 
        translate(-446.7844774064397 -251.31626854112233) 
        scale(1.698100745947562)
      "><path fill="rgb(63, 184, 175)" d="M0,80.678L11.228,78.735C22.456,76.792,44.912,72.907,67.368,47.43C89.825,21.954,112.281,-25.112,134.737,-31.031C157.193,-36.95,179.649,-1.72,202.105,28.285C224.561,58.29,247.018,83.072,269.474,73.294C291.93,63.515,314.386,19.176,336.842,-16.542C359.298,-52.26,381.754,-79.358,404.211,-58.017C426.667,-36.675,449.123,33.107,471.579,30.59C494.035,28.073,516.491,-46.743,538.947,-61.101C561.404,-75.459,583.86,-29.359,606.316,9.245C628.772,47.848,651.228,78.957,673.684,67.846C696.14,56.736,718.596,3.408,741.053,-18.593C763.509,-40.594,785.965,-31.268,808.421,-43.556C830.877,-55.845,853.333,-89.748,875.789,-88.133C898.246,-86.517,920.702,-49.381,943.158,-47C965.614,-44.618,988.07,-76.989,1010.526,-66.7C1032.982,-56.41,1055.439,-3.46,1077.895,7.686C1100.351,18.832,1122.807,-11.828,1145.263,-5.29C1167.719,1.248,1190.175,44.983,1212.632,39.38C1235.088,33.776,1257.544,-21.167,1268.772,-48.638L1280,-76.11L1280,1296L1268.772,1296C1257.544,1296,1235.088,1296,1212.632,1296C1190.175,1296,1167.719,1296,1145.263,1296C1122.807,1296,1100.351,1296,1077.895,1296C1055.439,1296,1032.982,1296,1010.526,1296C988.07,1296,965.614,1296,943.158,1296C920.702,1296,898.246,1296,875.789,1296C853.333,1296,830.877,1296,808.421,1296C785.965,1296,763.509,1296,741.053,1296C718.596,1296,696.14,1296,673.684,1296C651.228,1296,628.772,1296,606.316,1296C583.86,1296,561.404,1296,538.947,1296C516.491,1296,494.035,1296,471.579,1296C449.123,1296,426.667,1296,404.211,1296C381.754,1296,359.298,1296,336.842,1296C314.386,1296,291.93,1296,269.474,1296C247.018,1296,224.561,1296,202.105,1296C179.649,1296,157.193,1296,134.737,1296C112.281,1296,89.825,1296,67.368,1296C44.912,1296,22.456,1296,11.228,1296L0,1296Z"></path><path fill="rgb(117, 196, 174)" d="M0,238.754L11.228,213.512C22.456,188.27,44.912,137.786,67.368,108.975C89.825,80.163,112.281,73.024,134.737,88.795C157.193,104.566,179.649,143.246,202.105,141.456C224.561,139.666,247.018,97.406,269.474,93.575C291.93,89.743,314.386,124.341,336.842,136.328C359.298,148.315,381.754,137.692,404.211,151.54C426.667,165.389,449.123,203.709,471.579,214.486C494.035,225.264,516.491,208.5,538.947,207.29C561.404,206.081,583.86,220.426,606.316,227.817C628.772,235.209,651.228,235.647,673.684,229.734C696.14,223.821,718.596,211.557,741.053,181.505C763.509,151.452,785.965,103.611,808.421,97.299C830.877,90.987,853.333,126.203,875.789,134.586C898.246,142.969,920.702,124.518,943.158,128.43C965.614,132.342,988.07,158.617,1010.526,178.129C1032.982,197.641,1055.439,210.391,1077.895,187.263C1100.351,164.134,1122.807,105.128,1145.263,88.06C1167.719,70.992,1190.175,95.863,1212.632,107.537C1235.088,119.211,1257.544,117.689,1268.772,116.928L1280,116.167L1280,1152L1268.772,1152C1257.544,1152,1235.088,1152,1212.632,1152C1190.175,1152,1167.719,1152,1145.263,1152C1122.807,1152,1100.351,1152,1077.895,1152C1055.439,1152,1032.982,1152,1010.526,1152C988.07,1152,965.614,1152,943.158,1152C920.702,1152,898.246,1152,875.789,1152C853.333,1152,830.877,1152,808.421,1152C785.965,1152,763.509,1152,741.053,1152C718.596,1152,696.14,1152,673.684,1152C651.228,1152,628.772,1152,606.316,1152C583.86,1152,561.404,1152,538.947,1152C516.491,1152,494.035,1152,471.579,1152C449.123,1152,426.667,1152,404.211,1152C381.754,1152,359.298,1152,336.842,1152C314.386,1152,291.93,1152,269.474,1152C247.018,1152,224.561,1152,202.105,1152C179.649,1152,157.193,1152,134.737,1152C112.281,1152,89.825,1152,67.368,1152C44.912,1152,22.456,1152,11.228,1152L0,1152Z"></path><path fill="rgb(180, 207, 170)" d="M0,297.844L11.228,297.54C22.456,297.235,44.912,296.627,67.368,304.24C89.825,311.852,112.281,327.687,134.737,326.131C157.193,324.575,179.649,305.629,202.105,305.419C224.561,305.209,247.018,323.736,269.474,335.626C291.93,347.517,314.386,352.772,336.842,340.674C359.298,328.576,381.754,299.126,404.211,287.554C426.667,275.982,449.123,282.289,471.579,298.445C494.035,314.601,516.491,340.606,538.947,334.366C561.404,328.125,583.86,289.64,606.316,285.538C628.772,281.436,651.228,311.718,673.684,329.882C696.14,348.046,718.596,354.092,741.053,342.149C763.509,330.205,785.965,300.272,808.421,280.809C830.877,261.347,853.333,252.356,875.789,256.779C898.246,261.203,920.702,279.041,943.158,297.14C965.614,315.239,988.07,333.6,1010.526,329.321C1032.982,325.043,1055.439,298.125,1077.895,278.053C1100.351,257.982,1122.807,244.756,1145.263,256.853C1167.719,268.95,1190.175,306.369,1212.632,314.561C1235.088,322.752,1257.544,301.717,1268.772,291.199L1280,280.681L1280,1008L1268.772,1008C1257.544,1008,1235.088,1008,1212.632,1008C1190.175,1008,1167.719,1008,1145.263,1008C1122.807,1008,1100.351,1008,1077.895,1008C1055.439,1008,1032.982,1008,1010.526,1008C988.07,1008,965.614,1008,943.158,1008C920.702,1008,898.246,1008,875.789,1008C853.333,1008,830.877,1008,808.421,1008C785.965,1008,763.509,1008,741.053,1008C718.596,1008,696.14,1008,673.684,1008C651.228,1008,628.772,1008,606.316,1008C583.86,1008,561.404,1008,538.947,1008C516.491,1008,494.035,1008,471.579,1008C449.123,1008,426.667,1008,404.211,1008C381.754,1008,359.298,1008,336.842,1008C314.386,1008,291.93,1008,269.474,1008C247.018,1008,224.561,1008,202.105,1008C179.649,1008,157.193,1008,134.737,1008C112.281,1008,89.825,1008,67.368,1008C44.912,1008,22.456,1008,11.228,1008L0,1008Z"></path><path fill="rgb(230, 190, 163)" d="M0,485.176L11.228,475.864C22.456,466.553,44.912,447.93,67.368,442.662C89.825,437.394,112.281,445.482,134.737,437.397C157.193,429.312,179.649,405.055,202.105,402.046C224.561,399.036,247.018,417.274,269.474,430.024C291.93,442.774,314.386,450.036,336.842,453.847C359.298,457.658,381.754,458.018,404.211,453.608C426.667,449.199,449.123,440.021,471.579,430.136C494.035,420.251,516.491,409.66,538.947,411.379C561.404,413.098,583.86,427.128,606.316,432.091C628.772,437.055,651.228,432.954,673.684,427.686C696.14,422.419,718.596,415.986,741.053,411.748C763.509,407.509,785.965,405.465,808.421,401.767C830.877,398.069,853.333,392.717,875.789,402.211C898.246,411.705,920.702,436.045,943.158,442.378C965.614,448.711,988.07,437.035,1010.526,440.027C1032.982,443.019,1055.439,460.678,1077.895,458.845C1100.351,457.012,1122.807,435.688,1145.263,422.725C1167.719,409.763,1190.175,405.162,1212.632,414.835C1235.088,424.509,1257.544,448.456,1268.772,460.43L1280,472.403L1280,864L1268.772,864C1257.544,864,1235.088,864,1212.632,864C1190.175,864,1167.719,864,1145.263,864C1122.807,864,1100.351,864,1077.895,864C1055.439,864,1032.982,864,1010.526,864C988.07,864,965.614,864,943.158,864C920.702,864,898.246,864,875.789,864C853.333,864,830.877,864,808.421,864C785.965,864,763.509,864,741.053,864C718.596,864,696.14,864,673.684,864C651.228,864,628.772,864,606.316,864C583.86,864,561.404,864,538.947,864C516.491,864,494.035,864,471.579,864C449.123,864,426.667,864,404.211,864C381.754,864,359.298,864,336.842,864C314.386,864,291.93,864,269.474,864C247.018,864,224.561,864,202.105,864C179.649,864,157.193,864,134.737,864C112.281,864,89.825,864,67.368,864C44.912,864,22.456,864,11.228,864L0,864Z"></path><path fill="rgb(252, 135, 149)" d="M0,584.38L11.228,583.321C22.456,582.262,44.912,580.144,67.368,582.994C89.825,585.844,112.281,593.662,134.737,594.587C157.193,595.512,179.649,589.543,202.105,585.506C224.561,581.468,247.018,579.362,269.474,577.284C291.93,575.205,314.386,573.154,336.842,569.864C359.298,566.573,381.754,562.042,404.211,559.841C426.667,557.639,449.123,557.767,471.579,561.158C494.035,564.548,516.491,571.202,538.947,578.374C561.404,585.546,583.86,593.235,606.316,591.917C628.772,590.598,651.228,580.271,673.684,579.961C696.14,579.651,718.596,589.358,741.053,589.814C763.509,590.27,785.965,581.476,808.421,576.202C830.877,570.929,853.333,569.177,875.789,570.083C898.246,570.988,920.702,574.552,943.158,572.604C965.614,570.656,988.07,563.197,1010.526,562.371C1032.982,561.545,1055.439,567.353,1077.895,573.087C1100.351,578.82,1122.807,584.478,1145.263,585.89C1167.719,587.302,1190.175,584.468,1212.632,584.566C1235.088,584.665,1257.544,587.695,1268.772,589.211L1280,590.726L1280,720L1268.772,720C1257.544,720,1235.088,720,1212.632,720C1190.175,720,1167.719,720,1145.263,720C1122.807,720,1100.351,720,1077.895,720C1055.439,720,1032.982,720,1010.526,720C988.07,720,965.614,720,943.158,720C920.702,720,898.246,720,875.789,720C853.333,720,830.877,720,808.421,720C785.965,720,763.509,720,741.053,720C718.596,720,696.14,720,673.684,720C651.228,720,628.772,720,606.316,720C583.86,720,561.404,720,538.947,720C516.491,720,494.035,720,471.579,720C449.123,720,426.667,720,404.211,720C381.754,720,359.298,720,336.842,720C314.386,720,291.93,720,269.474,720C247.018,720,224.561,720,202.105,720C179.649,720,157.193,720,134.737,720C112.281,720,89.825,720,67.368,720C44.912,720,22.456,720,11.228,720L0,720Z"></path></g></svg>